<svg width="110" height="140" viewBox="0 0 110 140" fill="none" xmlns="http://www.w3.org/2000/svg">
<rect width="110" height="140" rx="16" fill="#4D6182"/>
<mask id="path-2-outside-1_203_2164" maskUnits="userSpaceOnUse" x="48.4323" y="63.781" width="37" height="55" fill="black">
<rect fill="white" x="48.4323" y="63.781" width="37" height="55"/>
<path d="M79.024 101.359C79.1395 101.044 79.249 100.724 79.3405 100.396C81.004 94.4094 77.8225 88.2984 72.235 86.7459C66.6475 85.1934 60.7705 88.7859 59.107 94.7739C59.0155 95.1039 58.945 95.4339 58.882 95.7624C56.503 96.4419 54.4734 98.3754 53.7264 101.063C52.6179 105.053 54.7389 109.129 58.4634 110.164C60.973 110.86 65.9035 108.338 66.2125 108.424C66.5215 108.509 69.4435 113.215 71.953 113.911C75.6775 114.946 79.5955 112.55 80.7055 108.559C81.4525 105.871 80.71 103.168 79.024 101.359ZM64.6 73.7979C65.065 70.7154 67.222 68.4834 69.4255 68.8134C71.629 69.1434 73.039 71.9109 72.5755 74.9934C72.112 78.0759 69.958 80.2809 67.7515 79.9794C65.5315 79.6749 64.1335 76.8894 64.6015 73.7994"/>
</mask>
<path d="M79.024 101.359C79.1395 101.044 79.249 100.724 79.3405 100.396C81.004 94.4094 77.8225 88.2984 72.235 86.7459C66.6475 85.1934 60.7705 88.7859 59.107 94.7739C59.0155 95.1039 58.945 95.4339 58.882 95.7624C56.503 96.4419 54.4734 98.3754 53.7264 101.063C52.6179 105.053 54.7389 109.129 58.4634 110.164C60.973 110.86 65.9035 108.338 66.2125 108.424C66.5215 108.509 69.4435 113.215 71.953 113.911C75.6775 114.946 79.5955 112.55 80.7055 108.559C81.4525 105.871 80.71 103.168 79.024 101.359ZM64.6 73.7979C65.065 70.7154 67.222 68.4834 69.4255 68.8134C71.629 69.1434 73.039 71.9109 72.5755 74.9934C72.112 78.0759 69.958 80.2809 67.7515 79.9794C65.5315 79.6749 64.1335 76.8894 64.6015 73.7994" fill="#FFB100"/>
<path d="M79.024 101.359L74.8929 99.8441C74.3222 101.401 74.6749 103.146 75.8052 104.359L79.024 101.359ZM79.3405 100.396L83.5791 101.576L83.5799 101.574L79.3405 100.396ZM59.107 94.7739L54.8675 93.5961L54.8669 93.5982L59.107 94.7739ZM58.882 95.7624L60.0904 99.9932C61.6867 99.5372 62.8905 98.2216 63.2032 96.5911L58.882 95.7624ZM53.7264 101.063L49.4871 99.8852L49.487 99.8856L53.7264 101.063ZM58.4634 110.164L57.2854 114.403L57.2875 114.404L58.4634 110.164ZM71.953 113.911L73.131 109.672L73.1289 109.671L71.953 113.911ZM80.7055 108.559L84.9446 109.738L84.9448 109.737L80.7055 108.559ZM60.2492 73.1415C59.8867 75.5444 61.5408 77.7862 63.9436 78.1486C66.3465 78.5111 68.5883 76.8571 68.9507 74.4542L60.2492 73.1415ZM67.7515 79.9794L67.1536 84.3385L67.1558 84.3389L67.7515 79.9794ZM68.9519 74.4583C69.3157 72.0556 67.663 69.8129 65.2604 69.449C62.8577 69.0851 60.615 70.7378 60.2511 73.1405L68.9519 74.4583ZM83.155 102.874C83.2902 102.505 83.4435 102.064 83.5791 101.576L75.1018 99.2152C75.0545 99.3852 74.9888 99.5828 74.8929 99.8441L83.155 102.874ZM83.5799 101.574C85.8163 93.5257 81.612 84.7846 73.4129 82.5065L71.0571 90.9853C74.0329 91.8121 76.1917 95.293 75.1011 99.2178L83.5799 101.574ZM73.4129 82.5065C65.2139 80.2283 57.1038 85.5462 54.8675 93.5961L63.3464 95.9516C64.4371 92.0255 68.0811 90.1584 71.0571 90.9853L73.4129 82.5065ZM54.8669 93.5982C54.7305 94.0902 54.6343 94.5497 54.5607 94.9336L63.2032 96.5911C63.2556 96.318 63.3004 96.1175 63.347 95.9495L54.8669 93.5982ZM57.6735 91.5316C53.8227 92.6314 50.6445 95.7206 49.4871 99.8852L57.9658 102.241C58.3024 101.03 59.1832 100.252 60.0904 99.9932L57.6735 91.5316ZM49.487 99.8856C47.8059 105.937 50.9489 112.642 57.2854 114.403L59.6415 105.925C58.529 105.615 57.43 104.17 57.9659 102.241L49.487 99.8856ZM57.2875 114.404C58.8265 114.831 60.3517 114.691 61.4155 114.513C62.5577 114.322 63.6641 113.996 64.5649 113.694C65.4761 113.387 66.2985 113.062 66.8293 112.854C67.1256 112.738 67.2718 112.682 67.3506 112.654C67.3973 112.638 67.321 112.667 67.1824 112.702C67.1164 112.719 66.9398 112.762 66.7005 112.791C66.5775 112.806 65.8867 112.899 65.0391 112.665L67.3858 104.183C66.519 103.943 65.7998 104.036 65.6399 104.055C65.3636 104.089 65.1414 104.141 65.0217 104.172C64.7758 104.234 64.5594 104.308 64.4368 104.351C64.177 104.442 63.8678 104.563 63.6191 104.661C63.0602 104.88 62.4351 105.126 61.7614 105.352C61.0772 105.582 60.4612 105.751 59.9634 105.834C59.3874 105.93 59.3552 105.845 59.6394 105.924L57.2875 114.404ZM65.0391 112.665C64.1886 112.429 63.6424 111.992 63.5441 111.916C63.3532 111.767 63.2236 111.638 63.1754 111.59C63.0743 111.488 63.0236 111.423 63.0551 111.461C63.1081 111.525 63.2042 111.648 63.3981 111.9C63.7454 112.352 64.2822 113.055 64.9048 113.788C65.5203 114.512 66.3002 115.362 67.1806 116.115C68.0005 116.817 69.2364 117.724 70.777 118.151L73.1289 109.671C73.4147 109.75 73.3444 109.808 72.901 109.428C72.518 109.101 72.0776 108.639 71.6102 108.089C71.15 107.547 70.7416 107.014 70.3757 106.538C70.2129 106.327 70.0105 106.063 69.8347 105.85C69.7518 105.75 69.6042 105.575 69.4251 105.394C69.338 105.306 69.1741 105.146 68.9539 104.975C68.8263 104.875 68.2556 104.424 67.3858 104.183L65.0391 112.665ZM70.7749 118.15C77.1118 119.911 83.2617 115.789 84.9446 109.738L76.4663 107.38C75.9292 109.311 74.2432 109.981 73.131 109.672L70.7749 118.15ZM84.9448 109.737C86.1027 105.571 84.9706 101.286 82.2428 98.3589L75.8052 104.359C76.4494 105.05 76.8023 106.171 76.4661 107.381L84.9448 109.737ZM68.9507 74.4542C69.0626 73.7125 69.3572 73.2568 69.5229 73.0855C69.5984 73.0075 69.5918 73.0438 69.4635 73.0959C69.319 73.1546 69.0714 73.2094 68.7738 73.1648L70.0771 64.4619C67.2056 64.0318 64.7719 65.3403 63.1987 66.9663C61.6188 68.5992 60.6023 70.8007 60.2492 73.1415L68.9507 74.4542ZM68.7738 73.1648C68.4758 73.1202 68.2552 72.9952 68.1343 72.8968C68.027 72.8094 68.0313 72.7728 68.0803 72.8691C68.1881 73.0805 68.3354 73.6005 68.2244 74.3391L76.9266 75.6476C77.279 73.3037 76.9531 70.8987 75.9208 68.8733C74.8931 66.8567 72.9489 64.892 70.0771 64.4619L68.7738 73.1648ZM68.2244 74.3391C68.1135 75.0766 67.8223 75.5233 67.6594 75.6912C67.491 75.8647 67.7204 75.5342 68.3472 75.6199L67.1558 84.3389C69.9891 84.726 72.3987 83.4437 73.9748 81.8195C75.5563 80.1897 76.5739 77.9927 76.9266 75.6476L68.2244 74.3391ZM68.3494 75.6202C68.6559 75.6622 68.8895 75.7902 69.0222 75.8974C69.1399 75.9924 69.1401 76.0372 69.0925 75.9434C68.9868 75.7352 68.8382 75.209 68.9519 74.4583L60.2511 73.1405C59.8968 75.4798 60.2131 77.8913 61.2445 79.9245C62.2735 81.9529 64.238 83.9386 67.1536 84.3385L68.3494 75.6202Z" fill="#FF9600" mask="url(#path-2-outside-1_203_2164)"/>
<path d="M56.0442 90.0974C58.0469 89.9442 59.5656 88.6809 60.4756 87.1756C61.3883 85.6659 61.8093 83.7577 61.6594 81.7988C61.5095 79.8398 60.8031 78.0179 59.6713 76.6646C58.5428 75.3154 56.8496 74.2979 54.8469 74.4512C52.8443 74.6044 51.3256 75.8677 50.4155 77.3729C49.5028 78.8826 49.0818 80.7909 49.2317 82.7498C49.3817 84.7087 50.0881 86.5307 51.2199 87.8839C52.3483 89.2332 54.0416 90.2507 56.0442 90.0974Z" fill="#FFB100" stroke="#FF9600" stroke-width="4.4" stroke-linecap="round" stroke-linejoin="round"/>
<path d="M94.2942 92.9553C95.3916 91.3257 95.9675 89.4584 95.919 87.6949C95.8706 85.9366 95.1735 84.0883 93.5075 82.9664C91.8416 81.8445 89.8667 81.8935 88.2193 82.5098C86.567 83.128 85.0532 84.3637 83.9558 85.9933C82.8584 87.6229 82.2825 89.4902 82.331 91.2537C82.3793 93.012 83.0765 94.8603 84.7424 95.9822C86.4084 97.1041 88.3832 97.0551 90.0307 96.4388C91.683 95.8207 93.1968 94.5849 94.2942 92.9553Z" fill="#FFB100" stroke="#FF9600" stroke-width="4.4" stroke-linecap="round" stroke-linejoin="round"/>
<path d="M87.3434 80.2585C88.0565 78.4281 88.2085 76.4802 87.7741 74.7705C87.341 73.0658 86.2552 71.4158 84.384 70.6869C82.5127 69.9579 80.5969 70.4385 79.1248 71.401C77.6483 72.3663 76.4426 73.9038 75.7296 75.7342C75.0165 77.5645 74.8645 79.5125 75.2988 81.2222C75.7319 82.9268 76.8177 84.5768 78.689 85.3058C80.5603 86.0347 82.4761 85.5541 83.9482 84.5916C85.4246 83.6263 86.6304 82.0889 87.3434 80.2585Z" fill="#FFB100" stroke="#FF9600" stroke-width="4.4" stroke-linecap="round" stroke-linejoin="round"/>
<mask id="path-7-outside-2_203_2164" maskUnits="userSpaceOnUse" x="3.43517" y="13.357" width="60.0124" height="66.197" fill="black">
<rect fill="white" x="3.43517" y="13.357" width="60.0124" height="66.197"/>
<path d="M48.9939 48.8827C48.931 48.5532 48.8607 48.2228 48.7703 47.894C47.1192 41.9041 41.2486 38.2983 35.6579 39.8394C30.0673 41.3805 26.8735 47.4833 28.5253 53.4746C28.6164 53.8047 28.7256 54.124 28.8405 54.4381C27.1493 56.244 26.4027 58.9458 27.1439 61.6354C28.2445 65.6276 32.1591 68.0328 35.8857 67.0056C38.396 66.3124 41.3286 61.6148 41.6376 61.5292C41.9466 61.4437 46.8721 63.9774 49.3823 63.2842C53.109 62.257 55.2379 58.188 54.1379 54.1938C53.3966 51.5042 51.3701 49.5675 48.9939 48.8827ZM22.4524 32.6591C21.2664 29.7761 21.9689 26.7527 24.0286 25.9029C26.0882 25.053 28.7204 26.7018 29.9077 29.584C31.0949 32.4662 30.3811 35.4649 28.3335 36.3408C26.2728 37.2209 23.6417 35.5505 22.4544 32.6596"/>
</mask>
<path d="M48.9939 48.8827C48.931 48.5532 48.8607 48.2228 48.7703 47.894C47.1192 41.9041 41.2486 38.2983 35.6579 39.8394C30.0673 41.3805 26.8735 47.4833 28.5253 53.4746C28.6164 53.8047 28.7256 54.124 28.8405 54.4381C27.1493 56.244 26.4027 58.9458 27.1439 61.6354C28.2445 65.6276 32.1591 68.0328 35.8857 67.0056C38.396 66.3124 41.3286 61.6148 41.6376 61.5292C41.9466 61.4437 46.8721 63.9774 49.3823 63.2842C53.109 62.257 55.2379 58.188 54.1379 54.1938C53.3966 51.5042 51.3701 49.5675 48.9939 48.8827ZM22.4524 32.6591C21.2664 29.7761 21.9689 26.7527 24.0286 25.9029C26.0882 25.053 28.7204 26.7018 29.9077 29.584C31.0949 32.4662 30.3811 35.4649 28.3335 36.3408C26.2728 37.2209 23.6417 35.5505 22.4544 32.6596" fill="#FFB100"/>
<path d="M48.9939 48.8827L44.6719 49.7074C44.9826 51.3359 46.1824 52.6516 47.7755 53.1107L48.9939 48.8827ZM48.7703 47.894L53.0128 46.7275L53.0121 46.7249L48.7703 47.894ZM28.5253 53.4746L24.2835 54.644L24.2841 54.6461L28.5253 53.4746ZM28.8405 54.4381L32.0521 57.4456C33.1869 56.2338 33.543 54.4865 32.973 52.9273L28.8405 54.4381ZM27.1439 61.6354L22.9021 62.8045L22.9022 62.8048L27.1439 61.6354ZM35.8857 67.0056L37.0549 71.2475L37.057 71.2469L35.8857 67.0056ZM49.3823 63.2842L48.2132 59.0423L48.2111 59.0429L49.3823 63.2842ZM54.1379 54.1938L58.3799 53.0254L58.3797 53.0247L54.1379 54.1938ZM18.3832 34.333C19.3077 36.5803 21.8789 37.6527 24.1263 36.7282C26.3736 35.8037 27.446 33.2325 26.5215 30.9852L18.3832 34.333ZM28.3335 36.3408L30.0619 40.3871L30.0639 40.3862L28.3335 36.3408ZM26.5246 30.9881C25.6014 28.7402 23.0308 27.6663 20.7829 28.5894C18.535 29.5126 17.4611 32.0832 18.3843 34.3311L26.5246 30.9881ZM53.3159 48.058C53.2423 47.6723 53.1469 47.215 53.0128 46.7275L44.5277 49.0606C44.5745 49.2307 44.6197 49.434 44.6719 49.7074L53.3159 48.058ZM53.0121 46.7249C50.7925 38.672 42.6924 33.3362 34.4887 35.5976L36.8272 44.0812C39.8048 43.2604 43.446 45.1361 44.5284 49.0632L53.0121 46.7249ZM34.4887 35.5976C26.285 37.859 22.063 46.5898 24.2835 54.644L32.767 52.3051C31.684 48.3769 33.8495 44.902 36.8272 44.0812L34.4887 35.5976ZM24.2841 54.6461C24.42 55.1382 24.5738 55.5818 24.708 55.949L32.973 52.9273C32.8775 52.6661 32.8128 52.4711 32.7664 52.303L24.2841 54.6461ZM25.6288 51.4306C22.8914 54.3538 21.7536 58.6374 22.9021 62.8045L31.3858 60.4664C31.0517 59.2543 31.4073 58.1343 32.0521 57.4456L25.6288 51.4306ZM22.9022 62.8048C24.5713 68.8592 30.7147 72.9949 37.0549 71.2475L34.7166 62.7638C33.6035 63.0706 31.9178 62.3961 31.3857 60.466L22.9022 62.8048ZM37.057 71.2469C38.5964 70.8218 39.8329 69.9181 40.6539 69.2185C41.5353 68.4673 42.3168 67.6189 42.9337 66.8962C43.5578 66.165 44.0961 65.4635 44.4445 65.0122C44.6389 64.7603 44.7355 64.6369 44.7888 64.5727C44.8205 64.5346 44.77 64.5989 44.6692 64.7002C44.6212 64.7485 44.4919 64.8763 44.3016 65.0243C44.2038 65.1003 43.659 65.5352 42.8114 65.7698L40.4638 57.2887C39.5969 57.5287 39.0277 57.9779 38.9005 58.0767C38.6808 58.2475 38.5172 58.4067 38.4301 58.4943C38.2512 58.6741 38.1035 58.8488 38.0205 58.9486C37.8446 59.1604 37.6417 59.4235 37.4785 59.6349C37.1117 60.1101 36.702 60.6423 36.2405 61.1829C35.7719 61.7319 35.3303 62.1933 34.9462 62.5206C34.5016 62.8994 34.4302 62.8429 34.7145 62.7644L37.057 71.2469ZM42.8114 65.7698C41.9609 66.0052 41.2678 65.9111 41.1441 65.896C40.9039 65.8665 40.7266 65.8228 40.6603 65.8059C40.5211 65.7704 40.4443 65.7409 40.4909 65.7574C40.5692 65.785 40.7151 65.8414 41.0111 65.9581C41.5413 66.1672 42.3631 66.4941 43.2738 66.8023C44.174 67.107 45.2802 67.4354 46.4224 67.6287C47.4863 67.8087 49.0125 67.951 50.5536 67.5254L48.2111 59.0429C48.497 58.964 48.4662 59.0494 47.8909 58.9521C47.3939 58.868 46.7787 58.6982 46.0952 58.4669C45.422 58.239 44.7977 57.9918 44.2391 57.7716C43.9906 57.6736 43.6814 57.5515 43.4214 57.4597C43.2988 57.4164 43.0821 57.3419 42.8356 57.279C42.7156 57.2484 42.4928 57.1955 42.2156 57.1615C42.0551 57.1418 41.3336 57.0479 40.4638 57.2887L42.8114 65.7698ZM50.5514 67.526C56.892 65.7784 60.0478 59.0812 58.3799 53.0254L49.8958 55.3621C50.4281 57.2949 49.326 58.7356 48.2132 59.0423L50.5514 67.526ZM58.3797 53.0247C57.2307 48.8558 54.0569 45.7627 50.2123 44.6548L47.7755 53.1107C48.6833 53.3723 49.5625 54.1526 49.896 55.3628L58.3797 53.0247ZM26.5215 30.9852C26.2361 30.2915 26.2545 29.7492 26.3086 29.5171C26.3332 29.4114 26.3462 29.4458 26.2629 29.5565C26.1692 29.6812 25.985 29.8555 25.7068 29.9702L22.3503 21.8355C19.6663 22.943 18.2516 25.3165 17.7382 27.52C17.2226 29.7328 17.4826 32.1437 18.3832 34.333L26.5215 30.9852ZM25.7068 29.9702C25.4283 30.0851 25.1748 30.0913 25.0206 30.0691C24.8836 30.0493 24.8684 30.0157 24.96 30.0731C25.1611 30.199 25.5549 30.5693 25.8393 31.2599L33.976 27.9082C33.0733 25.7166 31.5573 23.8213 29.6305 22.6148C27.7123 21.4136 25.0346 20.7279 22.3503 21.8355L25.7068 29.9702ZM25.8393 31.2599C26.1234 31.9494 26.1033 32.4823 26.0499 32.7101C25.9947 32.9455 26.0215 32.5441 26.6031 32.2953L30.0639 40.3862C32.6931 39.2616 34.1006 36.9229 34.6174 34.7195C35.136 32.5084 34.8793 30.1009 33.976 27.9082L25.8393 31.2599ZM26.6052 32.2944C26.8897 32.1729 27.1559 32.1625 27.3248 32.1863C27.4746 32.2073 27.4978 32.2456 27.4087 32.1896C27.2111 32.0653 26.813 31.6904 26.5246 30.9881L18.3843 34.3311C19.2831 36.5197 20.7942 38.4255 22.7242 39.6391C24.6496 40.8499 27.3556 41.543 30.0619 40.3871L26.6052 32.2944Z" fill="#FF9600" mask="url(#path-7-outside-2_203_2164)"/>
<path d="M23.4941 51.0381C25.133 49.877 25.7861 48.0127 25.7928 46.2538C25.7994 44.4896 25.1795 42.6365 24.0437 41.0333C22.908 39.4302 21.3654 38.2307 19.6989 37.6519C18.0373 37.0748 16.0619 37.0726 14.423 38.2337C12.784 39.3947 12.1309 41.2591 12.1243 43.018C12.1176 44.7821 12.7376 46.6353 13.8733 48.2384C15.009 49.8416 16.5516 51.0411 18.2182 51.6199C19.8797 52.197 21.8552 52.1992 23.4941 51.0381Z" fill="#FFB100" stroke="#FF9600" stroke-width="4.4" stroke-linecap="round" stroke-linejoin="round"/>
<path d="M57.7708 33.8238C57.8743 31.8619 57.4082 29.9642 56.4599 28.4765C55.5145 26.9933 53.9663 25.7664 51.9605 25.6606C49.9548 25.5549 48.2862 26.6122 47.19 27.9878C46.0906 29.3675 45.4275 31.2057 45.3241 33.1676C45.2207 35.1296 45.6868 37.0273 46.635 38.5149C47.5805 39.9982 49.1287 41.2251 51.1344 41.3309C53.1401 41.4366 54.8088 40.3793 55.9049 39.0036C57.0044 37.624 57.6674 35.7858 57.7708 33.8238Z" fill="#FFB100" stroke="#FF9600" stroke-width="4.4" stroke-linecap="round" stroke-linejoin="round"/>
<path d="M45.2813 26.5072C44.9519 24.5707 44.0808 22.8217 42.8292 21.5786C41.5813 20.3392 39.8017 19.4822 37.8219 19.8191C35.8421 20.1559 34.4461 21.5531 33.6782 23.1355C32.9082 24.7225 32.6644 26.6611 32.9939 28.5976C33.3233 30.5342 34.1944 32.2831 35.446 33.5262C36.6939 34.7657 38.4735 35.6226 40.4533 35.2858C42.4331 34.949 43.8292 33.5518 44.597 31.9694C45.3671 30.3823 45.6108 28.4438 45.2813 26.5072Z" fill="#FFB100" stroke="#FF9600" stroke-width="4.4" stroke-linecap="round" stroke-linejoin="round"/>
</svg>
