<svg width="110" height="140" viewBox="0 0 110 140" fill="none" xmlns="http://www.w3.org/2000/svg">
<rect width="110" height="140" rx="16" fill="#7F3838"/>
<ellipse cx="15.4737" cy="42.0526" rx="8.47368" ry="6.05263" fill="#FF9600"/>
<path d="M29 36C29 39.3137 26.7614 42 24 42C21.2386 42 19 39.3137 19 36C19 32.6863 21.2386 30 24 30C26.7614 30 29 32.6863 29 36Z" fill="#FF9600"/>
<ellipse cx="24" cy="49" rx="5" ry="6" fill="#FF9600"/>
<rect x="19" y="35" width="10" height="15" fill="#FF9600"/>
<ellipse cx="8.47368" cy="6.05263" rx="8.47368" ry="6.05263" transform="matrix(-1 0 0 1 103 36)" fill="#FF9600"/>
<path d="M81 36C81 39.3137 83.2386 42 86 42C88.7614 42 91 39.3137 91 36C91 32.6863 88.7614 30 86 30C83.2386 30 81 32.6863 81 36Z" fill="#FF9600"/>
<ellipse cx="5" cy="6" rx="5" ry="6" transform="matrix(-1 0 0 1 91 43)" fill="#FF9600"/>
<rect width="10" height="15" transform="matrix(-1 0 0 1 91 35)" fill="#FF9600"/>
<ellipse cx="8.47368" cy="6.05263" rx="8.47368" ry="6.05263" transform="matrix(-1 0 0 1 103 91)" fill="#FF9600"/>
<path d="M81 91C81 94.3137 83.2386 97 86 97C88.7614 97 91 94.3137 91 91C91 87.6863 88.7614 85 86 85C83.2386 85 81 87.6863 81 91Z" fill="#FF9600"/>
<ellipse cx="5" cy="6" rx="5" ry="6" transform="matrix(-1 0 0 1 91 98)" fill="#FF9600"/>
<rect width="10" height="15" transform="matrix(-1 0 0 1 91 90)" fill="#FF9600"/>
<ellipse cx="15.4737" cy="97.0526" rx="8.47368" ry="6.05263" fill="#FF9600"/>
<path d="M29 91C29 94.3137 26.7614 97 24 97C21.2386 97 19 94.3137 19 91C19 87.6863 21.2386 85 24 85C26.7614 85 29 87.6863 29 91Z" fill="#FF9600"/>
<ellipse cx="24" cy="104" rx="5" ry="6" fill="#FF9600"/>
<rect x="19" y="90" width="10" height="15" fill="#FF9600"/>
<rect x="31" y="48" width="48" height="43" fill="#FFCC2C"/>
<rect x="29" y="35" width="52" height="14" fill="#FFB100"/>
<rect x="29" y="90" width="52" height="14" fill="#FFB100"/>
<path d="M55.784 69.04C57.256 69.28 58.384 69.832 59.168 70.696C59.952 71.544 60.344 72.6 60.344 73.864C60.344 74.84 60.088 75.744 59.576 76.576C59.064 77.392 58.28 78.048 57.224 78.544C56.184 79.04 54.904 79.288 53.384 79.288C52.2 79.288 51.032 79.136 49.88 78.832C48.744 78.512 47.776 78.064 46.976 77.488L48.488 74.512C49.128 74.992 49.864 75.368 50.696 75.64C51.544 75.896 52.408 76.024 53.288 76.024C54.264 76.024 55.032 75.84 55.592 75.472C56.152 75.088 56.432 74.552 56.432 73.864C56.432 72.488 55.384 71.8 53.288 71.8H51.512V69.232L54.968 65.32H47.816V62.2H59.576V64.72L55.784 69.04Z" fill="#FF9600"/>
</svg>
