<svg width="110" height="140" viewBox="0 0 110 140" fill="none" xmlns="http://www.w3.org/2000/svg">
<rect width="110" height="140" rx="16" fill="#7F3838"/>
<ellipse cx="15.4737" cy="42.0526" rx="8.47368" ry="6.05263" fill="#FF9600"/>
<path d="M29 36C29 39.3137 26.7614 42 24 42C21.2386 42 19 39.3137 19 36C19 32.6863 21.2386 30 24 30C26.7614 30 29 32.6863 29 36Z" fill="#FF9600"/>
<ellipse cx="24" cy="49" rx="5" ry="6" fill="#FF9600"/>
<rect x="19" y="35" width="10" height="15" fill="#FF9600"/>
<ellipse cx="8.47368" cy="6.05263" rx="8.47368" ry="6.05263" transform="matrix(-1 0 0 1 103 36)" fill="#FF9600"/>
<path d="M81 36C81 39.3137 83.2386 42 86 42C88.7614 42 91 39.3137 91 36C91 32.6863 88.7614 30 86 30C83.2386 30 81 32.6863 81 36Z" fill="#FF9600"/>
<ellipse cx="5" cy="6" rx="5" ry="6" transform="matrix(-1 0 0 1 91 43)" fill="#FF9600"/>
<rect width="10" height="15" transform="matrix(-1 0 0 1 91 35)" fill="#FF9600"/>
<ellipse cx="8.47368" cy="6.05263" rx="8.47368" ry="6.05263" transform="matrix(-1 0 0 1 103 91)" fill="#FF9600"/>
<path d="M81 91C81 94.3137 83.2386 97 86 97C88.7614 97 91 94.3137 91 91C91 87.6863 88.7614 85 86 85C83.2386 85 81 87.6863 81 91Z" fill="#FF9600"/>
<ellipse cx="5" cy="6" rx="5" ry="6" transform="matrix(-1 0 0 1 91 98)" fill="#FF9600"/>
<rect width="10" height="15" transform="matrix(-1 0 0 1 91 90)" fill="#FF9600"/>
<ellipse cx="15.4737" cy="97.0526" rx="8.47368" ry="6.05263" fill="#FF9600"/>
<path d="M29 91C29 94.3137 26.7614 97 24 97C21.2386 97 19 94.3137 19 91C19 87.6863 21.2386 85 24 85C26.7614 85 29 87.6863 29 91Z" fill="#FF9600"/>
<ellipse cx="24" cy="104" rx="5" ry="6" fill="#FF9600"/>
<rect x="19" y="90" width="10" height="15" fill="#FF9600"/>
<rect x="31" y="48" width="48" height="43" fill="#FFCC2C"/>
<rect x="29" y="35" width="52" height="14" fill="#FFB100"/>
<rect x="29" y="90" width="52" height="14" fill="#FFB100"/>
<path d="M60.488 74.832V78H47.792V75.48L54.272 69.36C54.96 68.704 55.424 68.144 55.664 67.68C55.904 67.2 56.024 66.728 56.024 66.264C56.024 65.592 55.792 65.08 55.328 64.728C54.88 64.36 54.216 64.176 53.336 64.176C52.6 64.176 51.936 64.32 51.344 64.608C50.752 64.88 50.256 65.296 49.856 65.856L47.024 64.032C47.68 63.056 48.584 62.296 49.736 61.752C50.888 61.192 52.208 60.912 53.696 60.912C54.944 60.912 56.032 61.12 56.96 61.536C57.904 61.936 58.632 62.512 59.144 63.264C59.672 64 59.936 64.872 59.936 65.88C59.936 66.792 59.744 67.648 59.36 68.448C58.976 69.248 58.232 70.16 57.128 71.184L53.264 74.832H60.488Z" fill="#FF9600"/>
</svg>
