<svg width="110" height="140" viewBox="0 0 110 140" fill="none" xmlns="http://www.w3.org/2000/svg">
<rect x="1" y="1" width="108" height="138" rx="15" fill="url(#paint0_linear_207_2276)"/>
<rect x="1" y="1" width="108" height="138" rx="15" stroke="#FFCC2C" stroke-width="2"/>
<path fill-rule="evenodd" clip-rule="evenodd" d="M31.653 30.1251C31.0703 30.3067 30.2613 31.0969 30.1034 31.6386C29.941 32.1962 29.9673 32.8894 30.1677 33.3349C30.435 33.9285 30.9814 34.3998 31.9085 34.8361C33.2611 35.4727 33.634 35.6406 33.6947 35.6406C33.7543 35.6406 33.8245 35.6718 35.1696 36.2954C35.625 36.5065 36.0103 36.6793 36.0259 36.6793C36.0414 36.6793 36.4057 36.8446 36.8354 37.0465C37.2651 37.2485 38.4168 37.7752 39.3946 38.2169C40.3725 38.6587 41.4147 39.1308 41.7107 39.2662C42.0066 39.4014 42.4803 39.6177 42.7634 39.7468C43.0874 39.8946 43.2781 40.0397 43.2781 40.1385C43.2781 40.2715 42.1897 42.4608 41.3128 44.0916C41.0725 44.5385 40.6228 45.398 39.559 47.4437C39.3025 47.9371 38.9033 48.7019 38.6718 49.1433C38.4405 49.5848 38.0084 50.4133 37.7117 50.9846C37.4149 51.5559 36.9924 52.3632 36.7729 52.7787C36.5533 53.1941 35.5008 55.2125 34.4341 57.2638C33.3675 59.3152 32.4524 61.0468 32.4007 61.1116C32.3267 61.2045 30.4491 61.2297 23.5815 61.2297C18.1119 61.2297 14.6708 61.2652 14.3592 61.3248C13.6051 61.4691 12.9215 61.8266 12.3417 62.3799C10.6009 64.0412 10.5482 66.5244 12.2178 68.2092C12.8196 68.8165 13.5215 69.207 14.2672 69.3498C14.5682 69.4074 17.2374 69.4446 21.0664 69.4446C26.4124 69.4446 27.37 69.4647 27.37 69.577C27.37 69.6498 26.9576 70.1278 26.4535 70.6392C24.7617 72.3556 23.6603 74.2591 23.0198 76.5736C22.6672 77.8473 22.5697 78.8013 22.6238 80.4461C22.6939 82.5747 23.0335 83.9469 23.945 85.7857C24.6864 87.2814 25.3083 88.1452 26.5254 89.3699C27.7464 90.5985 28.6483 91.2491 30.1053 91.9523C31.0706 92.4182 31.2482 92.585 31.0293 92.8193C30.7739 93.0927 30.1494 95.1361 29.7898 96.8749C29.6121 97.7343 29.6412 100.835 29.8364 101.832C30.1235 103.3 30.6395 104.97 31.0618 105.798C31.8542 107.352 32.3053 107.863 33.1108 108.119C33.7654 108.327 34.3915 108.195 35.3245 107.652C35.7102 107.427 36.3977 107.024 36.8521 106.757C37.3065 106.489 37.7122 106.27 37.7538 106.27C37.8246 106.27 39.0096 107.539 44.5899 113.588C49.7314 119.161 50.0172 119.439 51.279 120.08C52.3229 120.61 53.8699 121 54.9283 121C56.6638 121 58.887 120.146 60.1818 118.981C60.4719 118.72 63.1912 115.807 66.2246 112.506C69.258 109.206 71.8222 106.492 71.9229 106.476C72.0247 106.459 72.7163 106.799 73.483 107.243C75.1247 108.194 75.544 108.324 76.2299 108.098C76.9754 107.852 77.4102 107.454 77.8668 106.601C79.5327 103.485 80.1297 99.7166 79.4748 96.45C79.2226 95.1919 78.8177 93.8279 78.5139 93.2126C78.3829 92.9474 78.2757 92.662 78.2757 92.5785C78.2757 92.4793 78.5763 92.2846 79.1413 92.0177C82.667 90.3523 85.3253 87.2063 86.3669 83.4666C86.7323 82.1547 86.8235 81.4412 86.8196 79.9257C86.8139 77.7246 86.4758 76.2752 85.4868 74.213C84.8057 72.7929 84.2261 71.9671 83.0319 70.7161C82.4311 70.0866 82.1102 69.6808 82.1437 69.5927C82.1889 69.4738 83.0308 69.4537 88.2362 69.4473C91.752 69.443 94.4782 69.4012 94.7595 69.3474C96.2856 69.0554 97.6468 67.6564 97.9375 66.0813C98.3324 63.9411 96.8092 61.7289 94.6623 61.3245C94.3493 61.2656 91.1162 61.2297 86.1378 61.2297C78.6154 61.2297 78.1088 61.2194 77.9771 61.0644C77.8999 60.9736 77.5289 60.3043 77.1527 59.5772C76.7764 58.8502 76.3133 57.9578 76.1235 57.5943C75.9338 57.2308 75.5135 56.4234 75.1897 55.8002C74.866 55.177 74.4441 54.3697 74.2525 54.0062C74.0607 53.6427 73.6395 52.8353 73.3165 52.2121C72.9935 51.5889 72.5937 50.8453 72.4283 50.5597C72.2628 50.2741 71.8075 49.4177 71.4167 48.6567C71.0259 47.8956 70.5408 46.9608 70.3385 46.5793C70.1364 46.1979 69.7398 45.4395 69.4572 44.8942C68.6232 43.2845 67.9872 42.0643 67.5626 41.2589C67.3436 40.8434 66.9325 40.0573 66.6491 39.512C66.3657 38.9667 65.7234 37.7345 65.2218 36.7737C64.7201 35.813 64.0778 34.5807 63.7944 34.0354C62.6266 31.7884 62.421 31.45 61.9231 30.9556C61.5302 30.5653 61.2701 30.4 60.7908 30.2357L60.1686 30.0224L46.1321 30.0047C34.0492 29.9895 32.0341 30.0062 31.653 30.1251ZM53.9926 40.8389C52.3113 41.1161 50.5118 42.1727 49.4601 43.5002C47.5933 45.8566 47.2005 49.1642 48.4675 51.8575C49.5051 54.0629 51.3483 55.5769 53.6154 56.0859C54.905 56.3754 56.8353 56.1591 58.0632 55.5873C58.7062 55.2878 59.5479 54.6801 60.154 54.0777C61.0245 53.2125 61.1527 52.8129 60.705 52.3612C60.473 52.127 60.3618 52.0946 59.6378 52.049C57.6188 51.9219 56.1916 50.4241 56.1916 48.4324C56.1916 46.5141 57.9641 44.8942 60.0632 44.8942C60.6803 44.8942 61.086 44.3919 60.9129 43.8419C60.7532 43.3339 59.2454 41.9949 58.2971 41.5189C56.9924 40.8639 55.3829 40.6097 53.9926 40.8389ZM35.9228 75.2753C35.9661 80.9404 36.0072 82.1726 36.1643 82.5224C36.211 82.6262 36.2726 82.8918 36.3013 83.1125C36.4196 84.0238 36.4709 84.273 36.5505 84.3226C36.5965 84.3513 36.6341 84.476 36.6341 84.5997C36.6341 84.7234 36.6762 84.8509 36.7277 84.883C36.7792 84.9151 36.8213 85.0266 36.8213 85.1308C36.8213 85.235 36.8651 85.4029 36.9186 85.5039C37.0112 85.6785 37.0419 85.6698 37.5502 85.3247C37.8442 85.1253 38.4214 84.823 38.8332 84.653C39.2449 84.4832 39.7081 84.2898 39.8625 84.2233C40.6688 83.8763 41.5082 83.6736 43.1629 83.4266C44.001 83.3013 46.4357 83.2934 47.1225 83.4137C47.4012 83.4625 47.9452 83.555 48.3312 83.6191C48.9151 83.7162 50.4305 84.1553 51.0683 84.4123C51.223 84.4746 51.2321 84.2125 51.2321 79.6933V74.9083L50.9747 75.0902C50.667 75.3077 50.3356 75.3983 49.6273 75.4586L49.0987 75.5035L49.0625 77.0301C49.031 78.3624 49.001 78.6046 48.8273 78.9342C48.4652 79.6215 47.8448 80.0931 47.038 80.2944C45.9079 80.5764 44.6559 79.8242 44.211 78.596C44.0609 78.1818 44.0267 77.8453 44.0267 76.7874V75.4877H43.0274C41.6301 75.4877 40.8672 75.2136 40.1654 74.4594C39.5406 73.788 39.3223 73.2316 39.3209 72.3072C39.3195 71.3504 39.5884 70.7236 40.2807 70.0701L40.7434 69.6334H38.3117H35.8799L35.9228 75.2753ZM69.7066 70.1286C69.9677 70.4027 70.2389 70.754 70.3092 70.9092C70.3795 71.0644 70.4743 71.2652 70.5198 71.3553C70.5653 71.4455 70.6024 71.8817 70.6024 72.3245C70.6024 72.7674 70.5653 73.2035 70.5198 73.2937C70.4743 73.3839 70.38 73.58 70.3103 73.7296C70.1326 74.1106 69.5216 74.7914 69.2187 74.9458C69.0791 75.017 68.8806 75.1204 68.7777 75.1755C68.3434 75.408 67.8637 75.4877 66.8995 75.4875L65.8768 75.4874L65.9054 76.7759C65.9236 77.5929 65.898 78.1008 65.8353 78.1641C65.7809 78.219 65.7354 78.3722 65.7341 78.5046C65.731 78.8315 65.1798 79.5667 64.6884 79.8991C63.6609 80.5944 62.5869 80.4757 61.5871 79.5564C61.0184 79.0336 60.9274 78.7038 60.8876 77.0221L60.8512 75.4877H60.423C59.9775 75.4877 59.5029 75.3669 59.0781 75.1453C58.9415 75.074 58.8046 75.0156 58.774 75.0156C58.7433 75.0156 58.7182 77.1022 58.7182 79.6525C58.7182 84.0304 58.7274 84.2858 58.882 84.2244C61.6716 83.118 66.0006 83.0244 68.9648 84.0064C69.8282 84.2924 71.3494 85.0025 72.1464 85.4914C72.7537 85.8639 72.9004 85.9212 72.9233 85.7945C72.9387 85.7086 72.9856 85.5534 73.0273 85.4495C73.1884 85.048 73.3161 84.5778 73.3161 84.3861C73.3161 84.276 73.3583 84.1597 73.4097 84.1276C73.4612 84.0955 73.5033 83.9467 73.5033 83.7971C73.5033 83.6474 73.5454 83.4987 73.5969 83.4666C73.6483 83.4345 73.6904 83.1856 73.6904 82.9134C73.6904 82.6411 73.7281 82.3782 73.7741 82.3288C73.9408 82.1499 73.9991 80.3441 74.0084 75.0628L74.018 69.6806L71.6249 69.6554L69.232 69.6303L69.7066 70.1286Z" fill="#FF9600"/>
<path d="M37.5 106C35.9444 107.333 32.6665 109.5 32 107.5C28.3333 97.8334 27 79.7001 51 84.5001V89.5C52.1667 91.3333 55.3 93.9 58.5 89.5V84.5001" stroke="#FCEE21" stroke-width="1.2"/>
<path d="M37.5 106L55 96" stroke="#FCEE21" stroke-width="1.2"/>
<path d="M72 106.294C73.5556 107.627 76.8335 109.794 77.5 107.794C81.1667 98.1273 82.5 79.994 58.5 84.794V89.7939C57.3333 91.6273 54.2 94.1939 51 89.7939V84.794" stroke="#FCEE21" stroke-width="1.2"/>
<path d="M72 106.294L54.5 96.2939" stroke="#FCEE21" stroke-width="1.2"/>
<path d="M43.7124 92.3978C43.7352 92.1704 44.047 91.9168 44.1886 91.7752C44.5678 91.396 45.1751 91.0474 45.4285 90.5587C45.4897 90.4407 45.2596 90.5426 45.2506 90.5456C44.9007 90.667 44.5499 90.8177 44.2252 90.9956C43.9823 91.1286 43.7609 91.2884 43.5476 91.4639C43.4995 91.5035 43.2047 91.7843 43.4404 91.5136C43.9265 90.955 44.4538 90.4267 44.9027 89.8367C45.0197 89.683 45.3501 89.2855 45.01 89.1958C44.7536 89.1281 44.4028 89.1689 44.1729 89.031C44.0454 88.9545 44.476 88.5252 44.5286 88.4633C44.648 88.3228 44.7928 88.123 44.4815 88.1912C43.9124 88.3161 43.3174 88.56 42.7995 88.8217C42.2817 89.0833 41.7674 89.368 41.379 89.8079C40.9451 90.2995 40.5828 90.8958 40.2829 91.4769C40.0904 91.8498 39.9152 92.2831 39.8251 92.696C39.8121 92.7555 39.9368 92.6399 39.9768 92.594C40.3374 92.18 40.7157 91.8082 41.154 91.4743C41.647 91.0988 42.1709 90.7639 42.7236 90.4829C43.089 90.2971 43.7245 89.9114 44.1624 89.9178C44.3137 89.92 43.9771 90.1608 43.8589 90.2553C43.3504 90.6621 42.8101 91.0258 42.305 91.4377C41.922 91.75 41.544 92.0728 41.1906 92.4187C41.1252 92.4827 40.9376 92.7496 40.8296 92.7928C40.7412 92.8281 40.7726 92.6109 40.7511 92.5181C40.6439 92.0535 40.5013 91.5867 40.2907 91.1578C39.7255 90.0065 38.0507 89.08 38.7787 87.6524C38.9352 87.3454 39.162 87.0776 39.3123 86.7682C39.4215 86.5434 39.2137 86.6395 39.0769 86.6504C38.833 86.6699 38.6104 86.7943 38.3654 86.7943C38.065 86.7943 38.2062 86.6988 38.402 86.5092C38.5998 86.3175 38.8056 86.1716 39.0507 86.0514C39.3561 85.9015 39.7127 85.8875 40.003 85.7113C40.1861 85.6001 40.5306 85.6642 40.7302 85.6642C41.1302 85.6642 41.5311 85.6724 41.931 85.6616C42.347 85.6503 42.7286 85.5317 43.1369 85.4863C43.5865 85.4364 44.0116 85.3557 44.4632 85.332C44.7946 85.3145 45.151 85.2325 45.4809 85.311C45.8276 85.3936 46.198 85.3429 46.5482 85.3921C46.9241 85.445 47.2963 85.5229 47.6783 85.5229C48.0691 85.5229 48.4891 85.5032 48.8712 85.5726C49.0618 85.6073 49.1414 85.8102 49.1746 85.9807C49.2362 86.2962 49.3275 86.6031 49.3525 86.9251C49.3836 87.3262 49.3443 87.7298 49.3682 88.1311C49.402 88.6969 49.6313 89.2743 49.7868 89.8184C49.9571 90.4145 49.8874 90.9892 49.9385 91.5973C50.0213 92.5813 50.4145 93.615 50.2315 94.6083C50.0226 95.7422 49.0291 96.7246 48.055 97.2583C47.5052 97.5595 46.8882 97.7846 46.3598 98.1163C45.9581 98.3686 45.528 98.5246 45.0989 98.7232C45.0743 98.7346 44.7607 98.8488 44.9367 98.8488" stroke="#FCEE21" stroke-width="3" stroke-linecap="round"/>
<path d="M44.9367 98.8488C45.039 99.1085 44.5941 99.904 45.0414 99.8272C45.5592 99.7382 46.0131 99.4218 46.4906 99.2255C47.1665 98.9476 47.8983 98.6491 48.4683 98.1791C48.9765 97.76 49.3725 97.4661 50.0117 97.2844C50.0478 97.2742 50.4459 97.1763 50.3152 97.0804C49.9315 96.799 49.3932 96.6332 48.9758 96.4002C48.24 95.9895 47.2357 95.4947 46.8464 94.6998C46.5273 94.0483 46.6503 93.2657 46.7522 92.5809C46.8259 92.0861 46.8202 91.5937 46.8202 91.095C46.8202 90.6295 46.8643 90.1392 46.7993 89.6771C46.7134 89.0664 46.5479 88.4735 46.3781 87.8826C46.3397 87.7487 46.2642 86.958 46.0773 86.946C45.6329 86.9175 45.1268 87.0154 44.6934 87.0611C43.743 87.1614 42.7937 87.268 41.8472 87.4012C41.3077 87.4771 40.685 87.6243 40.1338 87.5372C39.8009 87.4847 39.5 87.1583 39.2208 86.9879C38.9163 86.8021 38.6219 86.6368 38.2712 86.5589C37.7661 86.4466 37.2696 86.4647 36.7539 86.4647C36.4958 86.4647 36.2951 86.694 36.1104 86.8519C35.6924 87.2091 35.311 87.623 34.9175 88.0081C34.5348 88.3827 34.1393 88.7432 33.7769 89.1382C33.2283 89.7361 32.8566 90.4523 32.4114 91.1264C31.909 91.8868 31.7146 92.6959 31.5193 93.575C31.1512 95.2313 31.3283 96.9134 31.3283 98.5898C31.3283 100.085 31.7966 101.542 32.1968 102.972C32.3663 103.577 32.2802 104.247 32.3878 104.868C32.4143 105.021 32.4197 105.247 32.5055 105.384C32.549 105.453 32.5844 105.478 32.6023 105.559C32.6531 105.787 32.9004 106.075 33.1438 105.998C33.504 105.885 33.8647 105.681 34.2425 105.627C34.318 105.616 34.4113 105.522 34.4832 105.488C34.5902 105.438 34.7051 105.461 34.8102 105.415C35.0099 105.328 35.1523 105.286 35.37 105.232C35.3734 105.231 35.0847 105.472 35.0116 105.525C34.8309 105.655 34.6647 105.787 34.5015 105.938C34.3329 106.094 33.954 106.383 33.7037 106.383C33.6516 106.383 33.5656 106.47 33.5519 106.419C33.5026 106.239 34.4798 105.78 34.5879 105.724C35.3296 105.339 36.1416 105.086 36.8638 104.667C37.4173 104.345 37.9502 103.915 38.4281 103.49C38.8618 103.103 39.2254 102.644 39.6629 102.26C40.2377 101.755 40.9477 101.438 41.5935 101.036C42.1692 100.677 42.7202 100.295 43.3096 99.958C43.3684 99.9243 43.9921 99.6123 43.9819 99.7147C43.9375 100.158 43.3212 100.638 43.0166 100.9C42.3423 101.478 41.6438 102.129 40.7511 102.281C40.0902 102.393 39.4243 102.474 38.763 102.584C38.3445 102.654 37.9334 102.768 37.5125 102.822C36.7775 102.917 36.0601 102.958 35.3465 103.181C34.6278 103.406 34.4119 103.518 34.117 102.72C33.8144 101.902 33.6967 100.957 33.7481 100.089C33.8089 99.0623 34.3035 98.2608 34.6402 97.3211C35.1569 95.8785 34.8653 94.3056 35.1634 92.832C35.5414 90.9633 36.6756 89.3593 38.1822 88.2279C38.42 88.0493 38.6706 87.8832 38.8964 87.689C38.9273 87.6624 39.0737 87.5256 38.9199 87.566C38.2715 87.7367 37.5279 88.2009 37.0469 88.6621C36.4397 89.2443 36.0585 90.1018 35.6656 90.8334C35.3392 91.4413 34.981 92.0277 34.5983 92.6018C33.8909 93.6629 33.0684 94.7178 32.9869 96.0445C32.9347 96.8928 33.0408 97.9265 33.7612 98.493C34.1496 98.7985 34.5442 99.0858 35.0509 98.9404C35.5425 98.7992 36.0306 98.6025 36.5028 98.4093C37.4508 98.0215 38.576 97.5936 39.2496 96.7769C39.9824 95.8884 39.5099 94.5592 39.3176 93.5593C39.2401 93.1564 39.2184 92.6451 38.967 92.2984C38.8419 92.1257 38.6656 92.0069 38.5432 91.8039C38.1969 91.2291 37.9481 90.6193 37.8003 89.9649C37.7962 89.9467 37.791 89.7877 37.7427 89.8681C37.5487 90.1914 37.4287 90.5841 37.2797 90.9276C36.4548 92.8288 35.5577 94.69 35.0666 96.7141C34.9124 97.3498 34.8025 97.9898 34.7291 98.6395C34.6819 99.0575 34.5441 99.6491 34.6349 100.073C34.6684 100.229 34.923 99.9193 35.0273 99.7984C35.8217 98.8783 36.4967 97.8279 37.0887 96.7691C37.6979 95.6797 38.0619 94.654 38.0619 93.4128C38.0619 93.3714 38.09 93.2301 38.041 93.3343C37.8141 93.8163 37.5622 94.2834 37.3503 94.7731C37.0552 95.4553 36.8002 96.1539 36.5865 96.8659C36.4087 97.4581 36.1823 98.1408 36.1993 98.7703C36.2165 99.4078 37.4232 98.7385 37.6486 98.5453C37.6841 98.5149 37.6292 98.3487 37.8422 98.4355C37.9151 98.4652 37.7659 98.9381 37.7532 98.9979C37.6597 99.4397 37.5524 99.8471 37.1803 100.123C36.7928 100.41 36.3318 100.62 35.9168 100.863C35.7802 100.943 35.351 101.121 35.5087 101.106C35.8261 101.078 36.2012 100.89 36.508 100.806C37.4948 100.535 38.484 100.272 39.4536 99.9423C40.3156 99.6492 41.1645 99.3169 42.0068 98.9717C42.8272 98.6356 43.7461 98.3174 44.424 97.7213C45.5389 96.741 44.8956 94.5767 43.6837 93.9203C43.5149 93.8289 43.4491 93.7675 43.2991 93.9046C42.6634 94.4856 42.0399 95.1644 41.5647 95.8823C41.5329 95.9303 40.808 97.3042 40.9447 97.3315C41.1179 97.3662 41.3596 95.4528 41.3711 95.3067C41.3979 94.9675 41.4175 94.616 41.3842 94.276C41.3637 94.0666 41.2987 94.0472 41.3214 94.276C41.4165 95.2333 42.0613 96.1131 42.9852 96.429C44.0476 96.7923 44.8116 96.1115 45.35 95.2701C45.7542 94.6387 46.2162 93.988 46.4357 93.2637C46.5998 92.7221 46.5853 92.1512 46.6319 91.592C46.6861 90.9413 46.7708 90.3069 46.8647 89.6614C46.9917 88.7881 47.0968 88.1187 47.7306 87.4849C48.0527 87.1628 48.1551 88.1137 48.1858 88.2645C48.4724 89.6735 48.5686 91.0647 48.5389 92.4998C48.5268 93.0852 48.4811 93.6772 48.552 94.2603C48.5699 94.4073 48.6096 94.557 48.6096 94.7051" stroke="#FCEE21" stroke-width="3" stroke-linecap="round"/>
<path d="M59.0634 91.3858C59.0315 91.4655 58.8837 91.5207 58.821 91.5698C58.6788 91.681 58.569 91.82 58.4406 91.9449C58.2497 92.1305 58.7459 91.5079 58.8829 91.2796C59.2631 90.646 57.889 92.4375 57.2145 92.7393C56.5869 93.02 55.9935 93.2708 55.3054 93.3213C54.5526 93.3766 53.7865 93.262 53.0585 93.0736C52.7251 92.9874 52.4423 92.8292 52.1597 92.6419C52.0583 92.5748 51.725 92.2933 51.659 92.4916C51.5502 92.818 51.6881 93.0936 51.7634 93.4063C51.8681 93.8415 51.7341 94.2262 51.6625 94.6501C51.6312 94.8355 51.6094 95.0243 51.5864 95.2109C51.5719 95.3284 51.5906 95.3335 51.7103 95.3348C51.9096 95.3369 52.1142 95.3437 52.3118 95.3135C52.5518 95.2769 52.7729 95.1712 53.0072 95.1118C53.5748 94.9679 54.1751 94.8853 54.7605 94.8889C54.8354 94.8894 55.7863 94.9226 55.4134 95.0517C54.4249 95.3938 53.3265 95.0166 52.3614 95.3985C52.0872 95.5069 51.8011 95.6248 51.5687 95.8107C51.5345 95.8381 51.439 95.9283 51.4732 95.9009C51.6991 95.7202 51.9663 95.575 52.234 95.4692C53.1344 95.1134 54.1311 94.9604 55.0967 94.9915C55.6084 95.008 56.0213 95.1291 56.4519 95.4002C56.8138 95.6281 57.0851 95.912 57.4923 96.0673C57.7864 96.1794 58.0866 96.214 58.3999 96.223C58.7586 96.2332 59.2846 96.2812 59.5092 95.9275C59.6917 95.6402 59.5703 95.3026 59.4314 95.0269C59.191 94.55 58.8756 94.1122 58.5839 93.6664C58.4161 93.4099 58.1601 93.0928 58.2 92.7623C58.2615 92.252 58.963 91.9251 59.3465 91.7113C59.5667 91.5885 59.7967 91.4834 60.0152 91.3575C60.2296 91.2338 60.2777 91.1766 60.0276 91.1504C59.8282 91.1296 59.8507 91.1297 60.0046 91.0425C60.1616 90.9536 60.2417 90.8763 60.2753 90.6922C60.3513 90.2765 60.1946 89.8563 60.0895 89.4608C59.9597 88.9716 59.8959 88.4875 59.8914 87.9817C59.8862 87.3917 59.8977 86.8219 60.0188 86.2425C60.0386 86.1475 60.0311 85.8968 60.0895 85.8196C60.1333 85.7618 60.3805 85.7668 60.4098 85.7648C60.7237 85.743 61.0385 85.7311 61.3528 85.717C61.8733 85.6936 62.3924 85.6875 62.9133 85.6834C63.5809 85.6782 64.2485 85.6661 64.9161 85.6604C65.2127 85.6579 65.5473 85.632 65.845 85.6869C66.262 85.7639 66.5529 86.038 66.7703 86.3858" stroke="#FCEE21" stroke-width="3" stroke-linecap="round"/>
<path d="M61.8312 95.4353C61.61 95.6564 61.2875 95.8293 61.2514 96.1717C61.2293 96.3825 61.379 96.5241 61.3833 96.7191C61.388 96.932 61.5677 97.3163 61.2664 97.3163C60.9353 97.3163 60.6045 97.239 60.2736 97.2167C60.0317 97.2005 59.7425 97.2249 59.5073 97.1595C59.5028 97.1583 59.347 97.1144 59.3804 97.1645C59.5273 97.3849 60.0558 97.5377 60.2836 97.6298C60.8286 97.8502 61.4153 97.975 61.9506 98.2145C62.3146 98.3773 62.6698 98.5858 63.0155 98.7842C63.6241 99.1336 64.221 99.5016 64.8318 99.8492C65.2645 100.095 65.6835 100.349 66.1356 100.561C66.7319 100.84 67.3633 101.041 67.9494 101.342C68.4783 101.614 69.0626 101.98 69.4895 102.397C69.9681 102.865 70.555 103.137 71.1018 103.517C71.1738 103.567 72.1232 104.11 72.0821 104.149C71.9144 104.305 71.034 103.77 70.8878 103.696C70.1832 103.34 69.4182 103.123 68.6983 102.8C68.376 102.655 68.0714 102.473 67.7479 102.332C67.549 102.246 67.3435 102.172 67.1333 102.118C67.0473 102.096 66.7912 102.075 66.8671 102.121C67.0784 102.249 67.3462 102.33 67.5737 102.417C68.2757 102.684 68.9905 102.901 69.7135 103.104C70.2485 103.253 70.7845 103.401 71.3257 103.527C71.6543 103.603 72.0053 103.646 72.316 103.785C72.7695 103.988 73.1777 104.478 73.4108 104.9C73.6086 105.258 73.7471 105.61 74.1572 105.781C74.3378 105.856 74.5175 105.943 74.7095 105.985C74.8796 106.022 75.0318 106.019 75.1524 106.161C75.3259 106.366 75.5177 106.532 75.67 106.756C75.8452 107.014 75.9381 106.51 75.9859 106.383C76.2422 105.704 76.6697 105.096 76.8767 104.397C77.0279 103.887 77.0652 103.381 77.1479 102.86C77.257 102.171 77.0159 101.598 76.9339 100.934C76.8788 100.488 76.6064 100.067 76.5682 99.6277C76.5543 99.4688 76.5389 99.4487 76.3467 99.4859C75.9914 99.5547 76.1741 99.7895 76.3243 100.001C76.5095 100.262 76.7188 100.515 77.0334 100.387C77.3379 100.263 77.7124 100.061 77.9491 99.8243C78.309 99.4643 78.3508 98.6103 78.3571 98.1473C78.3677 97.3765 78.3249 96.673 78.1979 95.918C78.1531 95.6518 78.1801 95.3706 78.178 95.1019C78.175 94.7375 78.0884 94.3966 78.0461 94.037C77.9906 93.5656 77.9303 93.099 77.7027 92.6735C77.3202 91.9584 76.7521 91.5194 76.1775 90.9667C75.53 90.3438 74.715 89.7285 74.3513 88.8767C73.6529 87.2409 71.6412 86.7066 70.0966 86.1995C69.0658 85.861 68.0327 85.4296 66.9517 85.2714C66.4037 85.1912 65.8205 85.2078 65.2697 85.2341C64.5349 85.2692 64.0508 85.5052 63.4808 85.9457C62.9573 86.3502 62.4171 86.731 61.8859 87.125C61.4621 87.4393 61.0905 87.7131 60.9454 88.2347C60.6092 89.4435 61.1605 90.6934 60.7115 91.8872C60.5069 92.4312 60.2374 92.9801 60.194 93.5692C60.1575 94.0641 60.6262 94.6824 61.1718 94.3878C61.6034 94.1547 61.8965 93.5947 62.1347 93.201C62.758 92.1709 63.3492 91.0964 63.8714 90.0112C64.2444 89.2361 64.4697 88.5109 64.3417 87.6575C64.2929 87.3327 64.1472 87.7744 64.1003 87.8764C63.783 88.5665 63.4543 89.3345 62.8563 89.8321C62.5176 90.1139 62.3815 89.9038 62.2541 89.5385C62.1299 89.1821 62.0551 88.0464 62.0551 88.4238C62.0551 89.3134 62.2144 90.2151 62.3636 91.0886C62.5161 91.9811 62.7164 92.8616 62.921 93.7434C63.1019 94.5236 63.2261 95.3528 63.4882 96.112C63.6856 96.6838 64.407 96.7915 64.9065 96.9729C65.7419 97.2764 66.577 97.5906 67.3846 97.9632C68.3801 98.4224 69.2149 98.9696 70.0369 99.6849C71.4138 100.883 73.2482 101.519 74.5006 102.87C74.6447 103.025 74.6878 103.16 74.7195 103.362C74.726 103.404 74.703 103.626 74.7767 103.549C75.4301 102.869 75.3413 101.59 75.0255 100.795C74.7835 100.185 74.3615 99.6826 73.9333 99.1973C73.5516 98.7647 73.1483 98.3178 72.6594 98.003C72.2976 97.77 71.8953 97.6276 71.4924 97.4855C70.7101 97.2093 69.9244 96.9431 69.1337 96.6918C67.6884 96.2324 66.3999 95.6585 65.1851 94.7386C64.4941 94.2153 63.9718 93.7886 63.9759 92.8626C63.9793 92.0858 64.1286 91.3081 64.3193 90.5586C64.5434 89.6775 64.8098 88.7198 65.2647 87.9237C65.4346 87.6265 65.5874 87.5439 65.9266 87.5281C66.3491 87.5085 66.8026 87.5237 67.2229 87.5704C67.6304 87.6157 67.9635 87.7537 68.3201 87.9511C69.0718 88.3671 69.803 88.8032 70.5743 89.1852C71.4269 89.6073 72.2961 89.9983 73.1172 90.4815C73.6453 90.7923 74.2603 91.1522 74.5752 91.7081C74.7499 92.0165 74.7545 92.3966 74.8091 92.7357C74.8999 93.3005 75.0763 93.8536 75.2246 94.4052C75.4753 95.338 75.7974 96.1964 75.874 97.167C75.8852 97.3087 75.9625 98.6593 76.2273 97.9507C76.5604 97.0595 76.0677 96.0213 75.3017 95.5199C74.3614 94.9043 73.8075 95.9415 73.769 96.7739C73.754 97.0986 73.8012 97.4349 73.9158 97.7392C73.9314 97.7806 73.9949 97.897 73.9781 97.8562C73.9096 97.6907 73.8132 97.5441 73.7068 97.3984C72.5919 95.8701 70.7853 94.9098 68.9222 94.6789C68.1877 94.5879 67.4853 94.7406 66.8521 94.2808C65.8048 93.5202 64.9653 92.2545 65.3045 90.9169C65.6409 89.5905 67.079 88.9356 68.3649 89.2449C69.9173 89.6182 70.2154 91.3626 71.1093 92.4496C71.4101 92.8154 71.7688 93.1452 72.1916 93.3652C72.2844 93.4135 72.5374 93.5201 72.5001 93.4224C72.4386 93.261 72.0147 93.0466 71.9129 92.992C70.9697 92.4851 69.9292 92.2146 68.8874 91.9967C67.9691 91.8047 65.1869 91.4059 66.0958 91.6384C66.4052 91.7176 66.7739 91.7191 67.0835 91.7703C68.1517 91.947 69.2312 92.1972 70.231 92.6212C70.5754 92.7673 70.737 92.9162 71.0172 93.1164C71.127 93.1948 71.1883 92.9076 71.2735 92.8029C71.9084 92.0226 72.8919 91.8131 73.6496 91.2105C74.1609 90.8039 74.1616 90.1616 74.4359 89.6131C74.5447 89.3955 74.696 89.2076 74.7643 88.9712C74.7995 88.8494 74.9506 88.9002 75.0479 88.9214C75.3232 88.9817 75.6005 89.0958 75.8043 89.2996C76.4466 89.9419 76.5209 90.7396 76.5209 91.6285" stroke="#FCEE21" stroke-width="3" stroke-linecap="round"/>
<defs>
<linearGradient id="paint0_linear_207_2276" x1="8.19564e-06" y1="140" x2="110" y2="2.01166e-06" gradientUnits="userSpaceOnUse">
<stop stop-color="#6E4AA4"/>
<stop offset="1" stop-color="#FF6666"/>
</linearGradient>
</defs>
</svg>
