<svg width="110" height="140" viewBox="0 0 110 140" fill="none" xmlns="http://www.w3.org/2000/svg">
<rect x="1" y="1" width="108" height="138" rx="15" fill="url(#paint0_linear_206_2228)"/>
<rect x="1" y="1" width="108" height="138" rx="15" stroke="#FFCC2C" stroke-width="2"/>
<path fill-rule="evenodd" clip-rule="evenodd" d="M32.7456 41.7321V44.4642H54.9759H77.2061V41.7321V39H54.9759H32.7456V41.7321ZM19.2907 44.9149C17.52 45.1558 16.0642 46.5217 15.2995 48.6597L15 49.4969L15.0015 56.8561C15.003 63.8961 15.0118 64.2621 15.2046 65.2966C15.3155 65.8915 15.442 66.6086 15.486 66.8904C15.5299 67.1721 15.7449 67.9149 15.9639 68.541C16.1828 69.1672 16.4096 69.8295 16.468 70.0129C16.6112 70.4633 17.4428 72.0395 17.9437 72.81C19.3359 74.9517 21.5137 77.1222 23.0048 77.8539C23.7936 78.241 24.9096 78.7296 25.005 78.7296C25.0617 78.7296 25.4269 78.8667 25.8165 79.0343L26.525 79.3391L31.6124 79.3838L36.6998 79.4286L36.3289 78.7661C35.3642 77.0429 34.4137 74.7595 33.8024 72.6961C33.5901 71.9794 33.5133 71.665 33.3165 70.704C33.2652 70.4535 33.1756 70.1078 33.1174 69.9356L33.0115 69.6225L30.3952 69.6213C27.1824 69.6198 27.0015 69.5696 25.6037 68.2922C24.6239 67.3967 23.914 66.2829 23.4407 64.8982L23.1683 64.1013L23.1096 59.6047C23.0611 55.8959 23.0741 55.0633 23.1836 54.852L23.3163 54.5958H27.9356H32.5548L32.5297 49.7293L32.5045 44.8627L26.1875 44.8494C22.7131 44.8421 19.6095 44.8716 19.2907 44.9149ZM77.4594 44.9802C77.4262 45.0823 77.399 47.2518 77.399 49.8012C77.399 53.2546 77.4285 54.4713 77.5148 54.5731C77.6015 54.6754 78.7614 54.7097 82.1407 54.7097C86.4455 54.7097 86.6552 54.7194 86.7472 54.9223C86.8049 55.0494 86.8548 56.801 86.8711 59.2766C86.8984 63.3756 86.8963 63.4271 86.6679 64.2721C85.9953 66.7599 84.6798 68.4035 82.4623 69.5263C82.3562 69.5799 81.0587 69.6364 79.5789 69.6516L76.8886 69.6794L76.6283 70.8178C75.9724 73.6879 74.9401 76.4184 73.6232 78.7668L73.2511 79.4301L78.339 79.3828L83.4268 79.3355L84.0821 79.0325C84.4426 78.8659 84.8049 78.7296 84.8873 78.7296C84.9698 78.7296 85.1739 78.6597 85.3411 78.5743C85.5082 78.4889 85.8403 78.33 86.079 78.2212C87.8026 77.4356 88.7144 76.7273 90.2606 74.9729C91.2562 73.8433 92.4442 72.1962 92.4442 71.9455C92.4442 71.9017 92.59 71.6557 92.7682 71.3987C93.4465 70.4206 94.2948 67.8257 94.7258 65.4105L95 63.8737V57.1003V50.3269L94.735 49.3298C94.4173 48.135 93.9149 47.2235 93.0705 46.3101C92.4447 45.6332 92.1862 45.4497 91.3351 45.0778C90.8863 44.8817 90.3917 44.8645 84.1863 44.8307C78.0924 44.7974 77.5147 44.8103 77.4594 44.9802ZM50.9735 95.1622C50.9735 97.8223 50.9471 100.08 50.9149 100.179C50.863 100.339 50.4242 100.359 46.9849 100.363C42.6198 100.367 42.215 100.419 41.4557 101.062C40.5047 101.869 40.1718 102.784 40.1718 104.594C40.1718 105.821 40.1702 105.829 39.9194 105.942C39.7702 106.009 38.4208 106.053 36.6162 106.049C33.2632 106.042 33.0225 106.078 32.237 106.716C31.7464 107.114 31.2985 107.898 31.1159 108.678C31.0316 109.038 31.0038 109.847 31.0259 111.296C31.0544 113.16 31.0812 113.453 31.2671 113.928C31.5366 114.616 32.2465 115.452 32.8232 115.759L33.2761 116L54.9759 115.969L76.6757 115.938L77.1865 115.666C77.7776 115.35 78.3826 114.639 78.6837 113.906C78.8788 113.43 78.8939 113.225 78.8939 111.06C78.8939 108.927 78.8765 108.681 78.6908 108.208C78.34 107.313 77.6156 106.501 76.9168 106.219C76.7842 106.166 75.135 106.093 73.252 106.058L69.8282 105.994L69.7757 104.571C69.7201 103.067 69.6195 102.599 69.2139 101.953C68.8701 101.405 68.5801 101.101 68.1081 100.792C67.7083 100.531 67.6874 100.529 63.466 100.495C60.6042 100.471 59.1847 100.419 59.0996 100.336C59.0004 100.239 58.9747 99.3911 58.9784 96.3299C58.9863 89.7746 59.0011 90.3064 58.8131 90.3915C58.5454 90.5129 55.8186 90.7957 54.9139 90.7961C54.0973 90.7964 51.4756 90.5133 51.1423 90.3888C50.9833 90.3295 50.9735 90.6079 50.9735 95.1622Z" fill="#EE8E03"/>
<rect x="23" y="29" width="63" height="10" rx="5" fill="#FFB100"/>
<circle cx="55" cy="68" r="23" fill="#FFB100"/>
<rect x="32" y="44" width="46" height="24" rx="1" fill="#FFB100"/>
<defs>
<linearGradient id="paint0_linear_206_2228" x1="8.19564e-06" y1="140" x2="110" y2="2.01166e-06" gradientUnits="userSpaceOnUse">
<stop stop-color="#6A50A2"/>
<stop offset="1" stop-color="#FF6666"/>
</linearGradient>
</defs>
</svg>
