<svg width="110" height="140" viewBox="0 0 110 140" fill="none" xmlns="http://www.w3.org/2000/svg">
<rect width="110" height="140" rx="16" fill="url(#paint0_linear_206_2195)"/>
<path fill-rule="evenodd" clip-rule="evenodd" d="M35.5957 25.1585C32.2641 25.5015 28.6547 26.3251 27.9539 26.9026C27.7718 27.0528 27.7255 27.964 27.7255 31.4038C27.7255 34.044 27.6587 35.841 27.5531 36.0367C27.321 36.4674 26.5211 36.8588 25.8727 36.8588C25.5616 36.8588 24.7463 36.5403 23.8968 36.0867C23.1016 35.662 21.9988 35.0748 21.4462 34.7817C20.8936 34.4886 19.7735 33.8923 18.9572 33.4567L17.4729 32.6645L16.0504 34.055C10.8632 39.1258 7.91556 45.021 7.12235 51.9105C6.88072 54.0104 6.98354 54.8504 7.55136 55.4142C7.94587 55.8059 7.9956 55.8112 11.2661 55.8122L14.5807 55.8133L15.0333 57.3694C15.2822 58.2253 15.682 59.3515 15.9218 59.8721C16.5231 61.177 18.9991 65.2836 19.4616 65.7427C19.9559 66.2335 20.4991 66.2174 21.4822 65.6829C21.9229 65.4431 22.6602 65.0407 23.1207 64.7885C23.5812 64.5361 24.3724 64.1065 24.8789 63.8337C25.3854 63.5609 26.3714 63.0282 27.07 62.65C27.7686 62.2718 28.4467 61.9624 28.577 61.9624C28.78 61.9624 28.814 64.9143 28.814 82.5628V103.163L29.3232 103.883C29.7021 104.418 30.3877 104.939 32.0024 105.92C40.2283 110.916 45.7138 114.201 46.5318 114.622C48.1926 115.476 50.5707 114.642 51.3539 112.929C51.629 112.328 51.664 111.776 51.6672 107.972L51.6708 103.691H60.7866H69.9026L69.9545 108.055C69.9997 111.838 70.0456 112.49 70.3005 112.952C71.1833 114.556 73.2709 115.424 74.7292 114.793C75.2854 114.553 79.9191 111.824 80.921 111.147C81.3059 110.886 81.6633 110.673 81.7148 110.673C81.7666 110.673 82.7701 110.085 83.9453 109.366C85.1203 108.647 87.3627 107.278 88.9284 106.323C92.3402 104.242 92.7529 103.783 92.9487 101.848C93.015 101.192 93.0173 92.0052 92.9539 81.4333C92.828 60.4485 92.8536 60.9877 91.8239 57.734C90.4313 53.3334 87.2561 48.8859 83.4026 45.938C81.5594 44.528 81.0331 44.2097 78.6302 43.0499C76.0649 41.8118 73.3722 40.9602 70.9276 40.6134C69.9528 40.4752 69.9471 40.4707 69.06 39.1032C65.0579 32.935 58.1863 28.1281 50.4987 26.1188C47.739 25.3974 46.3156 25.2057 43.1309 25.1264C41.4271 25.084 39.4679 25.0294 38.7772 25.0049C38.0865 24.9805 36.6548 25.0496 35.5957 25.1585ZM72.4654 46.3034C71.378 46.6465 70.3705 47.4588 69.9026 48.3694C69.6287 48.9027 69.5672 49.2705 69.6201 50.062C69.7355 51.7911 70.7507 52.891 72.8532 53.5647C74.0214 53.9389 74.3829 54.1221 75.5518 54.9326C76.7208 55.7427 77.3916 56.4704 78.2675 57.8785C79.2135 59.399 80.4044 60.5099 81.3536 60.7571C83.3947 61.2887 84.9222 60.7107 86.0208 58.9907C86.6347 58.0296 86.6961 56.5 86.1593 55.5508C84.8853 53.299 83.4498 51.5178 81.6331 49.9351C80.7013 49.1233 78.614 47.665 78.3841 47.665C78.3481 47.665 77.8342 47.4424 77.2419 47.1702C76.184 46.6839 74.5992 46.1844 73.7742 46.0768C73.544 46.0469 72.955 46.1488 72.4654 46.3034Z" fill="#FFB100"/>
<path fill-rule="evenodd" clip-rule="evenodd" d="M39.0462 25.057C39.7605 25.0884 40.9291 25.0884 41.6434 25.057C42.3577 25.0257 41.7733 25 40.3448 25C38.9163 25 38.3319 25.0257 39.0462 25.057ZM34.522 25.2151C34.6832 25.2572 34.9473 25.2572 35.1085 25.2151C35.2697 25.1732 35.1378 25.1387 34.8153 25.1387C34.4927 25.1387 34.3608 25.1732 34.522 25.2151ZM45.0807 25.22C45.3354 25.2583 45.7125 25.2573 45.9186 25.2176C46.1247 25.178 45.9162 25.1466 45.4554 25.1478C44.9946 25.1491 44.8261 25.1815 45.0807 25.22ZM32.5113 25.5494C32.6725 25.5916 32.9365 25.5916 33.0977 25.5494C33.2589 25.5075 33.1271 25.473 32.8045 25.473C32.482 25.473 32.3501 25.5075 32.5113 25.5494ZM47.1729 25.5523C47.3802 25.5921 47.7197 25.5921 47.927 25.5523C48.1342 25.5123 47.9647 25.4797 47.5499 25.4797C47.1352 25.4797 46.9657 25.5123 47.1729 25.5523ZM31.087 25.8792C31.2023 25.9257 31.3908 25.9257 31.5059 25.8792C31.6212 25.8329 31.5269 25.795 31.2965 25.795C31.0661 25.795 30.9719 25.8329 31.087 25.8792ZM48.9355 25.8844C49.0985 25.9269 49.3248 25.924 49.4382 25.8782C49.5516 25.8324 49.4183 25.7978 49.1418 25.8012C48.8653 25.8045 48.7725 25.842 48.9355 25.8844ZM50.2309 26.1029C50.2309 26.1948 50.3109 26.27 50.4084 26.27C50.5059 26.27 50.5392 26.1948 50.4823 26.1029C50.4253 26.011 50.3455 25.9357 50.3048 25.9357C50.2641 25.9357 50.2309 26.011 50.2309 26.1029ZM28.9193 26.3842C29.0401 26.4325 29.1847 26.4265 29.2403 26.371C29.2959 26.3155 29.1971 26.2761 29.0205 26.2832C28.8253 26.2913 28.7855 26.3309 28.9193 26.3842ZM51.0269 26.3807C51.1421 26.4272 51.3306 26.4272 51.4458 26.3807C51.561 26.3344 51.4667 26.2964 51.2363 26.2964C51.0059 26.2964 50.9117 26.3344 51.0269 26.3807ZM27.7802 26.8969C27.7818 27.0772 27.8299 27.1189 27.9058 27.0055C27.9735 26.9044 28.1421 26.7787 28.2803 26.7262C28.4482 26.6624 28.4065 26.6264 28.1547 26.6176C27.9013 26.6087 27.7785 26.7003 27.7802 26.8969ZM52.0322 26.715C52.1475 26.7615 52.336 26.7615 52.4511 26.715C52.5664 26.6687 52.4721 26.6308 52.2417 26.6308C52.0113 26.6308 51.9171 26.6687 52.0322 26.715ZM54.3886 27.5543C54.5095 27.6026 54.6541 27.5966 54.7097 27.5411C54.7653 27.4856 54.6665 27.4461 54.4898 27.4533C54.2946 27.4614 54.2549 27.501 54.3886 27.5543ZM55.0589 27.8886C55.1797 27.9369 55.3243 27.9309 55.3799 27.8754C55.4356 27.8199 55.3367 27.7805 55.1601 27.7876C54.9649 27.7957 54.9252 27.8353 55.0589 27.8886ZM63.8395 33.5189C64.0501 33.7363 64.2533 33.8873 64.2912 33.8542C64.3887 33.7689 63.7818 33.1234 63.604 33.1234C63.5229 33.1234 63.6288 33.3014 63.8395 33.5189ZM27.4558 35.561C27.4638 35.7557 27.5035 35.7954 27.557 35.6621C27.6054 35.5414 27.5994 35.3972 27.5437 35.3417C27.4881 35.2862 27.4486 35.3848 27.4558 35.561ZM66.7465 36.5155C66.8095 36.6803 66.9032 36.773 66.9548 36.7216C67.0064 36.6702 66.9549 36.5353 66.8403 36.4218C66.6748 36.258 66.6557 36.2773 66.7465 36.5155ZM25.2223 36.9188C25.4296 36.9586 25.7691 36.9586 25.9764 36.9188C26.1836 36.8788 26.0141 36.8463 25.5994 36.8463C25.1846 36.8463 25.0151 36.8788 25.2223 36.9188ZM9.52667 42.7487C9.53471 42.9434 9.57442 42.983 9.62787 42.8498C9.6763 42.7291 9.67026 42.5848 9.61463 42.5293C9.559 42.4739 9.51946 42.5725 9.52667 42.7487ZM8.03184 46.6629C8.03184 46.8928 8.06988 46.9869 8.11629 46.8719C8.16288 46.757 8.16288 46.569 8.11629 46.454C8.06988 46.3391 8.03184 46.4331 8.03184 46.6629ZM7.69672 47.833C7.69672 48.0628 7.73476 48.1569 7.78117 48.0419C7.82775 47.9271 7.82775 47.7391 7.78117 47.6241C7.73476 47.5092 7.69672 47.6032 7.69672 47.833ZM7.374 49.3374C7.374 49.6592 7.40851 49.7907 7.45057 49.6299C7.4928 49.4691 7.4928 49.2057 7.45057 49.0449C7.40851 48.8841 7.374 49.0156 7.374 49.3374ZM7.04223 51.0925C7.04407 51.4603 7.07842 51.591 7.11847 51.383C7.15851 51.1751 7.15701 50.8742 7.11512 50.7144C7.07323 50.5546 7.04038 50.7248 7.04223 51.0925ZM7 55.1469C7 55.2388 7.1131 55.4076 7.25134 55.5221C7.39159 55.6381 7.50269 55.6563 7.50269 55.5631C7.50269 55.4711 7.38958 55.3023 7.25134 55.1878C7.11109 55.0718 7 55.0536 7 55.1469ZM9.31286 55.814C10.2624 55.8439 11.7705 55.8437 12.6641 55.8138C13.5577 55.7837 12.7809 55.7593 10.9377 55.7595C9.09452 55.7596 8.36328 55.7842 9.31286 55.814ZM14.4806 56.4833C14.7285 57.4802 15.3675 59.3622 15.7216 60.1374C16.2854 61.3729 18.864 65.5945 19.258 65.9275C19.8679 66.4428 20.422 66.2807 22.8346 64.8809C23.1111 64.7206 24.004 64.2332 24.8188 63.7981C28.1324 62.0283 28.1875 61.99 28.3135 61.3664C28.7418 59.2448 28.8864 58.6563 29.2326 57.6241C29.4461 56.9874 29.6208 56.3669 29.6208 56.2451C29.6208 56.0644 28.2135 56.0236 21.9936 56.0236H14.3664L14.4806 56.4833ZM38.9205 69.7115C37.643 70.0418 36.7484 70.8559 36.3464 72.0536C36.0812 72.8439 36.0954 78.3558 36.3652 79.3784C36.6465 80.4447 37.5664 81.3306 38.7483 81.6733C39.4612 81.8801 40.5889 81.9326 44.3157 81.9326H48.989L49.8971 82.4758C50.5089 82.8417 50.9714 83.2875 51.314 83.8415L51.8228 84.6639L51.8722 94.3319L51.9218 104L60.5854 103.957L69.2492 103.913L69.333 94.2184C69.4256 83.4998 69.3606 84.1081 70.5336 82.9858C71.5882 81.9765 71.8561 81.9327 76.9936 81.9307C82.8778 81.9284 83.5744 81.7607 84.5461 80.1119L85 79.3417V75.8314C85 72.1274 84.9115 71.5825 84.1769 70.7588C83.3185 69.796 81.6117 69.4097 80.1407 69.8451C79.7721 69.9543 79.1311 70.1216 78.7164 70.217C77.9634 70.3902 77.4828 70.499 73.8571 71.3177C72.7973 71.5569 71.6663 71.8222 71.3437 71.9071C71.0212 71.9919 70.1917 72.1839 69.5005 72.3339C68.8093 72.4836 68.0176 72.6665 67.7411 72.7404C67.4647 72.8141 66.7627 72.9732 66.1811 73.0941C65.5997 73.2151 65.0533 73.3988 64.9668 73.5026C64.8693 73.62 64.8691 74.0328 64.9668 74.5943C65.0531 75.0908 65.2038 76.0425 65.3014 76.709C65.3991 77.3754 65.5558 78.4287 65.6495 79.0491C66.4033 84.0407 66.4517 84.8579 66.0451 85.7129C65.697 86.4446 62.4611 90.255 61.7676 90.75C61.3991 91.0129 61.0083 91.1242 60.4693 91.1201C59.5554 91.1129 59.2732 90.9049 57.7555 89.1202C57.1692 88.4307 56.5126 87.6785 56.2965 87.4487C54.8737 85.9359 54.5859 84.9397 54.9201 82.6848C55.0292 81.9493 55.1846 80.8586 55.2653 80.261C55.3463 79.6634 55.4883 78.6856 55.5812 78.088C56.0259 75.227 56.1531 74.2816 56.1656 73.742C56.1792 73.165 56.1668 73.1543 55.2578 72.9649C54.7509 72.8594 53.7707 72.6443 53.0795 72.487C52.3883 72.3295 51.5589 72.1422 51.2363 72.0703C50.9137 71.9984 49.745 71.7345 48.6391 71.4837C45.54 70.7808 45.534 70.7795 44.1987 70.5039C43.5075 70.3611 42.5212 70.1329 42.007 69.9969C40.7565 69.6657 39.5341 69.5528 38.9205 69.7115Z" fill="#EE8E03"/>
<path d="M7.5 56.0001H29.5C32.3 40.8001 57.6667 39.3334 70 40.5001C60 22.9001 37.5 24.1667 27.5 27.0001V36.0001C27.5 38.0001 26.5 37.5001 26 37.0001L17.5 33.0001C8.7 39.0001 7.16667 50.8334 7.5 56.0001Z" fill="#FCEE21" stroke="#FCEE21"/>
<defs>
<linearGradient id="paint0_linear_206_2195" x1="8.19564e-06" y1="140" x2="110" y2="2.01166e-06" gradientUnits="userSpaceOnUse">
<stop stop-color="#67409F"/>
<stop offset="1" stop-color="#4FC5A6"/>
</linearGradient>
</defs>
</svg>
