<svg width="31" height="31" viewBox="0 0 31 31" fill="none" xmlns="http://www.w3.org/2000/svg">
<path fill-rule="evenodd" clip-rule="evenodd" d="M15.6995 2C23.2657 2 29.399 8.13326 29.399 15.6995C29.4038 18.8612 28.3104 21.9265 26.3057 24.3713L26.3331 24.4014L26.1522 24.5549C24.8675 26.0745 23.2665 27.2952 21.4611 28.1319C19.6557 28.9686 17.6894 29.4011 15.6995 29.399C11.6582 29.399 8.02779 27.6496 5.52078 24.8686L5.24679 24.5535L5.06596 24.4028L5.09336 24.3699C3.08879 21.9255 1.99539 18.8608 2.00001 15.6995C2.00001 8.13326 8.13329 2 15.6995 2ZM15.6645 26.6591C13.1164 26.6591 15.6995 26.6591 15.6995 26.6591H15.6645ZM15.6995 4.7399C13.6371 4.73984 11.6165 5.32174 9.87001 6.4187C8.1235 7.51567 6.72196 9.08318 5.8265 10.9411C4.93104 12.799 4.57799 14.8719 4.80793 16.9214C5.03787 18.971 5.84147 20.9141 7.12636 22.5274C10.2601 25.76 12.3774 26.6591 15.6995 26.6591C19.0216 26.6591 21.6983 25.76 24.2727 22.5274C25.5575 20.9141 26.3611 18.971 26.5911 16.9214C26.821 14.8719 26.468 12.799 25.5725 10.9411C24.6771 9.08318 23.2755 7.51567 21.529 6.4187C19.7825 5.32174 17.7619 4.73984 15.6995 4.7399Z" fill="white"/>
<path d="M15.5 16.8571C16.4283 16.8571 17.3185 16.4959 17.9749 15.8529C18.6313 15.21 19 14.3379 19 13.4286C19 12.5193 18.6313 11.6472 17.9749 11.0042C17.3185 10.3612 16.4283 10 15.5 10C14.5717 10 13.6815 10.3612 13.0251 11.0042C12.3687 11.6472 12 12.5193 12 13.4286C12 14.3379 12.3687 15.21 13.0251 15.8529C13.6815 16.4959 14.5717 16.8571 15.5 16.8571ZM15.5 16.8571V22" stroke="white" stroke-width="2.5" stroke-linecap="round" stroke-linejoin="round"/>
</svg>
