<svg width="31" height="31" viewBox="0 0 31 31" fill="none" xmlns="http://www.w3.org/2000/svg">
<path fill-rule="evenodd" clip-rule="evenodd" d="M16.4394 2.73999C24.0056 2.73999 30.1389 8.87325 30.1389 16.4395C30.1437 19.6012 29.0503 22.6665 27.0456 25.1113L27.073 25.1414L26.8921 25.2949C25.6074 26.8145 24.0064 28.0352 22.201 28.8719C20.3956 29.7086 18.4293 30.1411 16.4394 30.139C12.3981 30.139 8.76766 28.3896 6.26065 25.6086L5.98666 25.2935L5.80583 25.1428L5.83323 25.1099C3.82866 22.6655 2.73526 19.6008 2.73988 16.4395C2.73988 8.87325 8.87315 2.73999 16.4394 2.73999ZM16.4043 27.3991C13.8562 27.3991 9.87321 25.2154 9.87321 25.2154C11.7671 26.6364 14.0717 27.4029 16.4394 27.3991C18.8071 27.4029 21.1117 26.6364 23.0056 25.2154L20 26.9237L16.4043 27.3991ZM16.4394 5.47989C14.377 5.47983 12.3564 6.06173 10.6099 7.15869C8.86336 8.25566 7.46183 9.82317 6.56637 11.6811C5.67091 13.539 5.31786 15.6119 5.5478 17.6614C5.77774 19.711 6.58134 21.6541 7.86623 23.2674C11 26.5 13.1173 27.3991 16.4394 27.3991C19.7615 27.3991 22.4382 26.5 25.0126 23.2674C26.2974 21.6541 27.101 19.711 27.331 17.6614C27.5609 15.6119 27.2079 13.539 26.3124 11.6811C25.417 9.82317 24.0154 8.25566 22.2689 7.15869C20.5224 6.06173 18.5018 5.47983 16.4394 5.47989Z" fill="white"/>
<path d="M22.125 15.8333H21.1875V14.1667C21.1875 11.8667 19.0875 10 16.5 10C13.9125 10 11.8125 11.8667 11.8125 14.1667V15.8333H10.875C9.84375 15.8333 9 16.5833 9 17.5V25.8333C9 26.75 9.84375 27.5 10.875 27.5H22.125C23.1563 27.5 24 26.75 24 25.8333V17.5C24 16.5833 23.1563 15.8333 22.125 15.8333ZM16.5 23.3333C15.4687 23.3333 14.625 22.5833 14.625 21.6667C14.625 20.75 15.4687 20 16.5 20C17.5313 20 18.375 20.75 18.375 21.6667C18.375 22.5833 17.5313 23.3333 16.5 23.3333ZM13.6875 15.8333V14.1667C13.6875 12.7833 14.9438 11.6667 16.5 11.6667C18.0562 11.6667 19.3125 12.7833 19.3125 14.1667V15.8333H13.6875Z" fill="white"/>
</svg>
