<svg width="24" height="24" viewBox="0 0 24 24" fill="none" xmlns="http://www.w3.org/2000/svg">
<path d="M16.7589 14.4797C16.7616 15.5761 16.5281 16.6603 16.0743 17.6584C15.6205 18.6565 14.9571 19.5452 14.1291 20.2639C13.5864 20.7409 13.9581 21.6337 14.6808 21.5617C15.164 21.5145 15.642 21.4241 16.1091 21.2917C17.3631 20.9381 18.5032 20.2633 19.4166 19.3341C20.3301 18.4049 20.9852 17.2534 21.3173 15.9935C21.6332 14.8495 21.6803 13.6479 21.4551 12.4827C21.2298 11.3174 20.7382 10.22 20.0186 9.27619C19.2991 8.33237 18.3711 7.56766 17.3071 7.0418C16.2431 6.51593 15.072 6.24316 13.8852 6.24476C13.5709 6.24453 13.2569 6.26256 12.9447 6.29876C12.2301 6.38876 12.0492 7.34365 12.6837 7.68655C15.1146 8.99334 16.7607 11.543 16.7607 14.4797H16.7589ZM7.11546 16.7414C6.01669 16.7448 4.92995 16.5126 3.92856 16.0603C2.92717 15.6081 2.03442 14.9463 1.31052 14.1197C0.831727 13.5797 -0.0637633 13.9487 0.00913594 14.6687C0.0561394 15.1504 0.146505 15.627 0.279133 16.0925C0.993726 18.6331 3.03671 20.6158 5.59538 21.2818C10.7496 22.6246 15.3783 18.7861 15.3783 13.8758C15.3783 13.5608 15.3603 13.2458 15.3243 12.9398C15.2343 12.227 14.2758 12.047 13.932 12.6788C13.2684 13.9083 12.2844 14.9352 11.0842 15.6505C9.88404 16.3658 8.5126 16.7427 7.11546 16.7414ZM4.84389 7.12855C4.8414 6.03199 5.07516 4.94775 5.52926 3.94962C5.98336 2.9515 6.64715 2.06291 7.47546 1.34431C8.01815 0.866419 7.64646 -0.0254714 6.92377 0.0465278C6.43805 0.0941115 5.95704 0.181402 5.48558 0.307525C4.23263 0.662987 3.09375 1.33839 2.18089 2.26734C1.26804 3.19629 0.612644 4.3468 0.279133 5.60577C-0.0367531 6.74978 -0.0838941 7.95134 0.141392 9.11658C0.366678 10.2818 0.858292 11.3792 1.57784 12.323C2.29738 13.2669 3.22538 14.0316 4.28934 14.5574C5.35331 15.0833 6.52443 15.3561 7.71126 15.3545C8.02805 15.3545 8.34485 15.3365 8.65175 15.3005C9.36634 15.2105 9.54724 14.2547 8.91274 13.9127C7.68356 13.2568 6.65574 12.2791 5.93921 11.0841C5.22268 9.88918 4.84349 8.52191 4.84389 7.12855ZM14.4918 4.86688C15.5906 4.86343 16.6773 5.09566 17.6787 5.54792C18.6801 6.00017 19.5728 6.66193 20.2967 7.48855C20.7737 8.02855 21.6701 7.65955 21.5972 6.93956C21.5503 6.45751 21.4599 5.98068 21.3272 5.51487C20.6117 2.9742 18.5687 0.992418 16.0092 0.325525C10.8639 -1.02626 6.23527 2.8122 6.23527 7.72255C6.23527 8.03755 6.25327 8.35254 6.28927 8.65944C6.37927 9.37133 7.34046 9.55133 7.68336 8.92044C8.34613 7.69317 9.32894 6.66832 10.5274 5.95477C11.7258 5.24121 13.0952 4.86558 14.49 4.86778L14.4918 4.86688Z" fill="white"/>
</svg>
