<svg width="28" height="28" viewBox="0 0 28 28" fill="none" xmlns="http://www.w3.org/2000/svg">
<path d="M20.3952 17.7693C20.3984 19.0428 20.1281 20.3021 19.6029 21.4614C19.0777 22.6208 18.3098 23.653 17.3515 24.4878C16.7234 25.0419 17.1536 26.0789 17.99 25.9952C18.5493 25.9404 19.1025 25.8355 19.6431 25.6816C21.0946 25.2708 22.4141 24.4871 23.4713 23.4078C24.5285 22.3285 25.2868 20.991 25.6712 19.5276C26.0368 18.1988 26.0914 16.8031 25.8306 15.4497C25.5699 14.0962 25.0009 12.8216 24.1681 11.7253C23.3353 10.629 22.2612 9.74077 21.0298 9.12997C19.7983 8.51916 18.4428 8.20232 17.0692 8.20419C16.7055 8.20392 16.342 8.22486 15.9807 8.26691C15.1536 8.37145 14.9442 9.48058 15.6786 9.87886C18.4921 11.3967 20.3973 14.3582 20.3973 17.7693H20.3952ZM9.23387 20.3963C7.96213 20.4003 6.70434 20.1305 5.54532 19.6052C4.3863 19.0799 3.35302 18.3113 2.51518 17.3511C1.96102 16.7239 0.924575 17.1525 1.00895 17.9888C1.06335 18.5484 1.16794 19.1019 1.32145 19.6426C2.14852 22.5936 4.51308 24.8966 7.47451 25.6701C13.4401 27.2298 18.7973 22.7713 18.7973 17.0678C18.7973 16.702 18.7765 16.3361 18.7348 15.9807C18.6306 15.1527 17.5213 14.9437 17.1234 15.6775C16.3554 17.1056 15.2164 18.2984 13.8273 19.1292C12.4382 19.96 10.8509 20.3979 9.23387 20.3963ZM6.60473 9.23074C6.60184 7.95704 6.8724 6.69768 7.39798 5.53832C7.92356 4.37897 8.69184 3.34685 9.65053 2.51219C10.2786 1.9571 9.84844 0.921143 9.01199 1.00477C8.44982 1.06004 7.8931 1.16143 7.34743 1.30793C5.89725 1.72081 4.5791 2.50531 3.52256 3.5843C2.46602 4.6633 1.70745 5.99965 1.32145 7.46198C0.955837 8.79079 0.901276 10.1864 1.16202 11.5399C1.42277 12.8933 1.99177 14.168 2.82458 15.2643C3.65738 16.3606 4.73145 17.2488 5.96289 17.8596C7.19433 18.4704 8.5498 18.7872 9.92344 18.7854C10.2901 18.7854 10.6568 18.7645 11.012 18.7226C11.839 18.6181 12.0484 17.5079 11.3141 17.1107C9.89138 16.3489 8.70178 15.2132 7.87246 13.8253C7.04314 12.4373 6.60426 10.8492 6.60473 9.23074ZM17.7713 6.60374C19.043 6.59973 20.3008 6.86948 21.4598 7.39479C22.6188 7.92009 23.6521 8.68874 24.49 9.64888C25.042 10.2761 26.0795 9.8475 25.9952 9.01121C25.9408 8.4513 25.8362 7.89745 25.6827 7.3564C24.8545 4.40534 22.49 2.10345 19.5275 1.32883C13.5724 -0.241301 8.21513 4.21717 8.21513 9.92068C8.21513 10.2866 8.23596 10.6524 8.27762 11.0089C8.38179 11.8358 9.49428 12.0449 9.89115 11.3121C10.6582 9.88655 11.7958 8.69617 13.1829 7.86735C14.57 7.03853 16.1548 6.60223 17.7692 6.60478L17.7713 6.60374Z" fill="white"/>
</svg>
