<svg width="226" height="226" viewBox="0 0 226 226" fill="none" xmlns="http://www.w3.org/2000/svg">
<g clip-path="url(#clip0_189_31920)">
<rect x="0.5" y="0.5" width="224.343" height="224.343" rx="16.5714" fill="url(#paint0_radial_189_31920)" fill-opacity="0.3" stroke="#67409F"/>
<g clip-path="url(#clip1_189_31920)">
<path d="M212 190.445H19.0761" stroke="white" stroke-width="0.682061" stroke-miterlimit="10"/>
<path d="M87.2717 188.291C87.2717 188.291 92.5435 168.22 73.1413 152.717C54.913 138.085 35.0652 113.085 29.9457 102.924C29.8425 102.717 29.7818 102.491 29.7671 102.26C29.7523 102.028 29.7838 101.797 29.8597 101.578C29.9357 101.359 30.0545 101.157 30.2092 100.985C30.364 100.813 30.5515 100.673 30.7609 100.574C34.5217 98.7575 43.8043 93.6988 44.2065 87.3781C44.2142 87.2884 44.2494 87.2033 44.3074 87.1345C44.3653 87.0657 44.4432 87.0166 44.5302 86.9939C44.6173 86.9712 44.7092 86.9761 44.7933 87.0079C44.8774 87.0397 44.9497 87.0968 45 87.1714C47.8696 91.2728 57.1848 104.589 60.837 109.68L61.9239 111.17C64.5652 114.695 80.0544 119.09 92.0217 137.149C92.0217 137.149 96.0543 141.762 100.239 135.376C100.474 135.019 100.798 134.731 101.18 134.54C101.562 134.349 101.987 134.262 102.413 134.288C106.261 134.527 116.543 134.712 117.957 130.165C118.016 129.971 118.143 129.804 118.314 129.694C118.486 129.585 118.69 129.54 118.891 129.567C122.315 130.013 134.634 131.663 139.185 134.397C145.127 137.966 152.337 143.753 156.402 155.284C159.75 164.782 158.011 155.709 157.293 152.217C157.265 152.076 157.271 151.931 157.309 151.793C157.347 151.655 157.417 151.528 157.514 151.423C157.61 151.317 157.73 151.235 157.863 151.184C157.997 151.133 158.14 151.114 158.283 151.129C161.848 151.466 172.054 152.086 175.467 148.463C175.54 148.384 175.63 148.324 175.73 148.287C175.83 148.25 175.938 148.237 176.044 148.25C176.151 148.262 176.252 148.3 176.341 148.36C176.43 148.42 176.503 148.5 176.554 148.594C178.206 151.988 183.467 163.824 182.598 174.703C181.511 187.704 177.728 189.629 177.728 189.629L162.37 190.478C162.37 190.478 148.5 180.023 145.25 162.747C145.25 162.747 150.12 178.544 149.826 189.771L86.2174 190.478L87.2717 188.291Z" stroke="white" stroke-width="0.682061" stroke-miterlimit="10"/>
<path d="M61.5652 117.143C61.7322 114.855 61.641 112.556 61.2935 110.289" stroke="white" stroke-width="0.682061" stroke-miterlimit="10"/>
<path d="M93.1957 143.557C93.1957 143.557 94.2826 142.861 93.1957 138.117" stroke="white" stroke-width="0.682061" stroke-miterlimit="10"/>
<path d="M158.239 173.964C158.239 173.964 161.022 167.947 158.38 158.374" stroke="white" stroke-width="0.682061" stroke-miterlimit="10"/>
<path d="M152.663 180.806H149.967C149.774 180.808 149.587 180.743 149.436 180.622C149.286 180.501 149.181 180.332 149.141 180.143L146.25 166.305C146.24 166.274 146.242 166.241 146.257 166.213C146.271 166.184 146.296 166.163 146.326 166.152C146.356 166.142 146.389 166.145 146.418 166.159C146.446 166.173 146.468 166.198 146.478 166.229L153.054 180.186C153.085 180.252 153.099 180.325 153.095 180.398C153.09 180.471 153.067 180.542 153.028 180.604C152.989 180.665 152.936 180.716 152.872 180.752C152.808 180.787 152.736 180.806 152.663 180.806Z" stroke="white" stroke-width="0.682061" stroke-miterlimit="10"/>
<path d="M44.6087 87.2585L25.1304 59.5389L20.642 53.784C20.642 53.784 16.1152 49.6633 16.9783 55.6769C18.0652 58.5054 26.3478 71.7451 26.3478 71.7451L27.7609 74.4322C27.7609 74.4322 28.5217 78.9143 24.9022 77.1955C24.4565 76.9888 19.4674 69.8631 19.4674 69.8631C19.4674 69.8631 18.9022 65.1307 23.4891 67.1216" stroke="white" stroke-width="0.682061" stroke-miterlimit="10"/>
<path d="M30.107 101.171L14.0435 78.9796C14.0435 78.9796 10.663 73.2464 14.0435 73.3116C17.4239 73.3769 20.5652 80.2198 20.5652 80.2198C20.5652 80.2198 21.4674 84.245 17.587 83.5705" stroke="white" stroke-width="0.682061" stroke-miterlimit="10"/>
<path d="M24.5761 76.9017C24.5761 76.9017 24.337 81.2532 20.6957 80.3068" stroke="white" stroke-width="0.682061" stroke-miterlimit="10"/>
<path d="M19.2935 69.7325C19.2935 69.7325 14.3913 68.4814 15.1522 73.4531" stroke="white" stroke-width="0.682061" stroke-miterlimit="10"/>
<path d="M176.457 129.893C178.085 132.181 179.245 134.769 179.87 137.508C180.087 138.596 180 140.195 178.957 140.892C178.323 141.288 177.605 141.529 176.861 141.595C176.117 141.661 175.367 141.55 174.674 141.272C172.337 140.359 170.587 138.923 168.967 135.659C166.859 131.449 163.937 125.957 164.263 123.422C164.544 122.282 164.775 121.085 165.674 120.33C166.283 119.939 166.022 119.656 167.728 119.721C168.815 119.721 170.598 121.223 171.467 122.31C172.87 124.018 174.88 127.511 176.457 129.893Z" fill="#9657EE"/>
<path d="M31.5652 75.3895C31.5652 75.3895 26.3152 78.5009 25.663 81.2968C25.0109 84.0927 26.2609 84.7019 27.6304 84.5605C28.3783 84.4683 29.0988 84.2214 29.7462 83.8356C30.3937 83.4498 30.9539 82.9335 31.3913 82.3194C31.3913 82.2992 31.3993 82.2798 31.4136 82.2656C31.4279 82.2513 31.4472 82.2433 31.4674 82.2433C31.4876 82.2433 31.5069 82.2513 31.5212 82.2656C31.5355 82.2798 31.5435 82.2992 31.5435 82.3194C31.5435 83.9513 31.7174 90.446 37.8261 89.2384" stroke="white" stroke-width="0.682061" stroke-miterlimit="10"/>
<path d="M158.304 151.02C158.304 151.02 155.185 125.161 159.522 120.33C163.859 115.5 167.033 114.739 167.033 114.739C167.033 114.739 169.38 114.401 169.88 115.391C170.065 115.761 170 116.327 169.446 117.154C167.413 120.2 164.011 119.699 164.62 124.91C165.228 130.121 170.054 138.89 171.478 139.913C172.589 140.658 173.76 141.309 174.978 141.86C175.032 141.884 175.078 141.924 175.109 141.974C175.14 142.025 175.155 142.084 175.152 142.143V145.58L175.489 148.431" stroke="white" stroke-width="0.682061" stroke-miterlimit="10"/>
<path d="M177.609 130.437C175.902 131.416 174.141 131.525 173.663 130.72C173.185 129.915 174.174 128.424 175.837 127.456C177.065 126.76 178.315 125.955 179.098 126.162C179.413 126.249 179.859 126.88 179.989 127.108C180.143 127.635 180.112 128.2 179.902 128.707C179.609 129.403 178.674 129.828 177.609 130.437Z" stroke="white" stroke-width="0.682061" stroke-miterlimit="10"/>
<path d="M176.598 126.455C174.902 127.445 173.141 127.543 172.663 126.738C172.185 125.933 173.174 124.443 174.837 123.474C176.033 122.778 177.011 121.908 177.75 122.104C178.087 122.18 178.63 122.952 178.772 123.192C179.005 123.633 179.11 124.13 179.076 124.628C178.848 125.389 177.761 125.792 176.598 126.455Z" stroke="white" stroke-width="0.682061" stroke-miterlimit="10"/>
<path d="M175.511 122.571C173.815 123.551 172.054 123.659 171.576 122.843C171.098 122.028 172.087 120.548 173.75 119.58C174.772 118.992 175.467 118.068 176.239 118.111C176.761 118.111 177.326 119.014 177.5 119.351C177.735 119.855 177.785 120.425 177.641 120.961C177.359 121.647 176.576 121.951 175.511 122.571Z" stroke="white" stroke-width="0.682061" stroke-miterlimit="10"/>
<path d="M174.14 118.477C172.64 119.979 170.749 120.523 169.923 119.696C169.096 118.869 169.761 116.555 171.261 115.054C172.185 114.129 172.848 113.24 173.728 113.121C174.272 113.055 175.087 113.806 175.402 114.121C175.61 114.494 175.947 114.663 175.992 115.087C176.037 115.512 175.995 115.941 175.87 116.349C175.641 117.132 174.923 117.716 174.14 118.477Z" stroke="white" stroke-width="0.682061" stroke-miterlimit="10"/>
<path d="M92.8433 115.034C94.6942 114.173 95.4295 111.828 94.4856 109.795C93.5418 107.763 91.2763 106.814 89.4254 107.675C87.5745 108.536 86.8392 110.881 87.783 112.914C88.7269 114.946 90.9924 115.895 92.8433 115.034Z" stroke="white" stroke-width="0.682061" stroke-miterlimit="10"/>
<path d="M99.8696 125.074C98.6053 124.084 97.4238 122.992 96.337 121.81C94.8706 120.172 93.6877 118.3 92.837 116.273C92.837 116.273 98.1739 109.277 91.087 107.493C90.3097 107.309 89.5786 106.967 88.9391 106.487C88.2996 106.008 87.7653 105.403 87.3696 104.708C85.1957 100.759 82.4131 92.9482 90.8478 88.0091C91.683 87.5233 92.4822 86.9779 93.2391 86.3773C97.2935 83.1136 109.739 73.91 108.913 83.2333C108.913 83.2333 109.13 85.2024 112.511 83.0157C115.891 80.829 118.065 82.178 118.174 83.8207C118.283 85.4635 118.435 87.5957 115.087 89.7389C112.022 91.708 106.793 96.6361 99.8696 98.1483C99.2398 98.2774 98.6662 98.6008 98.2295 99.073C97.7928 99.5453 97.5149 100.143 97.4348 100.781C97.2808 102.446 97.458 104.126 97.9562 105.722C98.4543 107.319 99.2635 108.801 100.337 110.082C105.065 116.066 107.12 117.926 111.207 114.663C115.293 111.399 113.511 109.528 118.815 108.135C124.12 106.743 125.554 113.27 125.554 113.27C125.554 113.27 126.641 119.667 122.293 121.429C119.848 122.43 118.065 123.137 116.978 123.605C116.691 123.76 116.469 124.014 116.353 124.32C116.237 124.625 116.235 124.963 116.348 125.269L116.848 126.64C116.904 126.804 116.918 126.979 116.888 127.15C116.859 127.321 116.786 127.481 116.677 127.616C116.569 127.751 116.428 127.856 116.267 127.921C116.107 127.986 115.933 128.01 115.761 127.989L99.8696 125.074Z" fill="white" stroke="white" stroke-width="0.682061" stroke-miterlimit="10"/>
<path d="M118.25 115.674C119.307 115.674 120.163 114.817 120.163 113.76C120.163 112.702 119.307 111.845 118.25 111.845C117.193 111.845 116.337 112.702 116.337 113.76C116.337 114.817 117.193 115.674 118.25 115.674Z" fill="black"/>
<path d="M91.6631 113.052C92.3114 113.052 92.837 112.526 92.837 111.877C92.837 111.229 92.3114 110.703 91.6631 110.703C91.0147 110.703 90.4891 111.229 90.4891 111.877C90.4891 112.526 91.0147 113.052 91.6631 113.052Z" fill="white" stroke="white" stroke-width="0.682061" stroke-miterlimit="10"/>
<path d="M116.527 81.3919C116.597 82.8943 116.015 85.4062 115.196 86.6672C114.377 87.9281 113.183 88.8998 111.783 89.4451" stroke="#1E1E1E" stroke-width="0.682061" stroke-miterlimit="10"/>
<path d="M108.296 78.9196C108.208 80.2199 107.609 82.3599 106.875 83.4367C106.142 84.5134 105.134 85.3745 103.957 85.9312" stroke="#1E2634" stroke-width="0.682061" stroke-miterlimit="10"/>
<path d="M109.272 100.563C109.272 100.563 115.957 104.795 112.272 107.656" stroke="white" stroke-width="0.682061" stroke-miterlimit="10"/>
<path d="M99.3478 124.149C99.3478 124.149 102.821 129.36 101.712 134.136" stroke="white" stroke-width="0.682061" stroke-miterlimit="10"/>
<path d="M116.337 127.88L117.978 130.1" stroke="white" stroke-width="0.682061" stroke-miterlimit="10"/>
<path d="M112.793 91.3925C112.793 91.3925 122.576 104.371 123.522 109.31" stroke="white" stroke-width="0.682061" stroke-miterlimit="10"/>
<path d="M128.804 101.912L125.239 105.97" stroke="white" stroke-width="0.682061" stroke-miterlimit="10"/>
<path d="M130.674 107.972L126.62 109.31" stroke="white" stroke-width="0.682061" stroke-miterlimit="10"/>
<path d="M106.185 105.1C106.599 105.1 106.935 104.764 106.935 104.349C106.935 103.935 106.599 103.599 106.185 103.599C105.771 103.599 105.435 103.935 105.435 104.349C105.435 104.764 105.771 105.1 106.185 105.1Z" fill="white" stroke="white" stroke-width="0.682061" stroke-miterlimit="10"/>
<path d="M113.217 100.835C113.734 100.835 114.152 100.416 114.152 99.8998C114.152 99.3831 113.734 98.9642 113.217 98.9642C112.701 98.9642 112.283 99.3831 112.283 99.8998C112.283 100.416 112.701 100.835 113.217 100.835Z" fill="white" stroke="white" stroke-width="0.682061" stroke-miterlimit="10"/>
<path d="M103.467 101.972C104.224 100.831 104.489 99.6744 104.059 99.3885C103.629 99.1025 102.667 99.7957 101.909 100.937C101.152 102.078 100.887 103.234 101.317 103.52C101.747 103.806 102.709 103.113 103.467 101.972Z" fill="white" stroke="white" stroke-width="0.682061" stroke-miterlimit="10"/>
<path d="M112.793 96.8863C113.796 96.8863 114.609 96.5746 114.609 96.1901C114.609 95.8056 113.796 95.4938 112.793 95.4938C111.791 95.4938 110.978 95.8056 110.978 96.1901C110.978 96.5746 111.791 96.8863 112.793 96.8863Z" fill="white" stroke="white" stroke-width="0.682061" stroke-miterlimit="10"/>
<path d="M199.849 98.3708C203.723 95.5361 202.446 87.1908 196.997 79.7311C191.548 72.2713 183.991 68.5219 180.117 71.3566C176.243 74.1913 177.519 82.5366 182.968 89.9963C188.417 97.4561 195.975 101.205 199.849 98.3708Z" fill="#67409F"/>
<path d="M186.136 95.5426C190.488 95.5426 194.016 91.8214 194.016 87.2311C194.016 82.6408 190.488 78.9196 186.136 78.9196C181.783 78.9196 178.255 82.6408 178.255 87.2311C178.255 91.8214 181.783 95.5426 186.136 95.5426Z" fill="#FCEE21"/>
<path d="M199.13 98.7031C175.12 94.8411 178.63 73.7795 178.63 73.7795L158.152 101.194L162.5 110.093L164.761 109.267L199.13 98.7031Z" fill="#9657EE"/>
<path d="M164.826 114.641L164.293 109.31L154.141 115.25L159.065 118.938C159.177 119.031 159.317 119.082 159.462 119.082C159.607 119.082 159.747 119.031 159.859 118.938L164.587 115.163C164.665 115.101 164.728 115.021 164.769 114.931C164.811 114.84 164.83 114.741 164.826 114.641Z" fill="#9657EE"/>
<path d="M157.624 101.008L149.622 106.312C149.072 106.677 148.921 107.42 149.286 107.971L154.178 115.363C154.542 115.914 155.284 116.064 155.835 115.699L163.837 110.395C164.387 110.03 164.538 109.287 164.173 108.736L159.281 101.344C158.916 100.793 158.174 100.643 157.624 101.008Z" fill="#67409F"/>
<path d="M164.641 128.925C164.87 133.57 166.261 144.319 174.315 145.363C174.394 145.37 174.472 145.349 174.536 145.303C174.6 145.257 174.645 145.189 174.663 145.113L175.109 142.436C175.123 142.366 175.111 142.293 175.075 142.231C175.039 142.168 174.981 142.122 174.913 142.099C173.132 141.421 171.582 140.247 170.446 138.716C168.277 135.659 166.519 132.331 165.217 128.816C165.2 128.743 165.155 128.679 165.091 128.638C165.028 128.597 164.952 128.582 164.878 128.596C164.804 128.61 164.738 128.652 164.694 128.713C164.65 128.774 164.631 128.85 164.641 128.925Z" fill="white" stroke="white" stroke-width="0.682061" stroke-miterlimit="10"/>
<path d="M67.9674 185.212C70.1405 185.212 71.9022 183.449 71.9022 181.274C71.9022 179.099 70.1405 177.336 67.9674 177.336C65.7943 177.336 64.0326 179.099 64.0326 181.274C64.0326 183.449 65.7943 185.212 67.9674 185.212Z" stroke="#9657EE" stroke-width="1.36412" stroke-miterlimit="10"/>
<path d="M54.837 190.021L52.663 173.354C52.663 173.354 60.3913 178.435 68.4022 173.354L66.5326 189.977L54.837 190.021Z" fill="#9657EE"/>
<path d="M60.4674 175.193C64.6095 175.193 67.9674 174.19 67.9674 172.952C67.9674 171.714 64.6095 170.711 60.4674 170.711C56.3253 170.711 52.9674 171.714 52.9674 172.952C52.9674 174.19 56.3253 175.193 60.4674 175.193Z" fill="#67409F" stroke="white" stroke-width="0.682061" stroke-miterlimit="10"/>
<path d="M58.1957 162.062C57.8084 162.368 57.5111 162.774 57.3351 163.235C57.159 163.697 57.1109 164.197 57.1957 164.684C57.6196 166.174 59.7366 166.688 58.502 168.337" stroke="#77CCDD" stroke-width="0.682061" stroke-miterlimit="10"/>
<path d="M64.7826 159.941C64.7826 159.941 62.087 159.799 62.2283 162.116C62.3696 164.434 64.7826 162.98 65.1304 165.239C65.0656 165.719 64.8545 166.168 64.5258 166.524C64.1971 166.88 63.7669 167.127 63.2935 167.23" stroke="#77CCDD" stroke-width="0.682061" stroke-miterlimit="10"/>
<path d="M125.75 65.0981L134.37 63.3792L167.359 56.7974L166.359 27.6636L127.022 36.1601L125.75 65.0981Z" stroke="#77CCDD" stroke-width="0.682061" stroke-miterlimit="10"/>
<path d="M125.75 75.5092L134.37 63.3792L125.75 65.098V74.5409V75.5092Z" stroke="#77CCDD" stroke-width="0.682061" stroke-miterlimit="10"/>
<path d="M122.522 71.7125L162.935 63.3792V32.9508L123.109 42.7962L122.522 71.7125Z" fill="#62F3CD"/>
<path d="M149.883 41.8235L150.378 45.3493L149.405 45.4861L148.927 42.0819C148.86 41.6037 148.722 41.2637 148.512 41.0618C148.309 40.8588 148.026 40.783 147.661 40.8343C147.394 40.8719 147.171 40.9612 146.992 41.102C146.813 41.2348 146.685 41.4139 146.609 41.6395C146.533 41.865 146.516 42.1237 146.557 42.4155L147.035 45.8197L146.062 45.9566L145.584 42.5524C145.517 42.0742 145.378 41.7341 145.168 41.5323C144.966 41.3293 144.683 41.2534 144.318 41.3048C144.051 41.3424 143.828 41.4317 143.649 41.5725C143.469 41.7052 143.342 41.8844 143.266 42.11C143.19 42.3355 143.173 42.5942 143.214 42.886L143.691 46.2902L142.719 46.4271L141.934 40.8344L142.906 40.6976L143.021 41.5121C143.147 41.1721 143.324 40.9074 143.554 40.718C143.792 40.5275 144.085 40.4078 144.433 40.3587C144.822 40.304 145.168 40.3504 145.469 40.4981C145.778 40.6364 146.021 40.8627 146.197 41.1767C146.343 40.8008 146.549 40.5073 146.817 40.296C147.084 40.0766 147.404 39.9407 147.777 39.8882C148.157 39.8346 148.494 39.8741 148.785 40.0067C149.076 40.1393 149.314 40.362 149.499 40.6749C149.69 40.9786 149.818 41.3615 149.883 41.8235Z" fill="black"/>
<path d="M151.827 59.0137C151.762 58.5517 151.612 58.2174 151.377 58.0109C151.141 57.8044 150.829 57.7285 150.44 57.7832C150.156 57.8231 149.913 57.9193 149.712 58.0716C149.517 58.2148 149.373 58.4003 149.281 58.6281C149.197 58.8548 149.175 59.106 149.214 59.3815L149.691 62.7858L148.719 62.9226L147.934 57.33L148.906 57.1931L149.029 58.0685C149.168 57.7018 149.364 57.4181 149.616 57.2172C149.877 57.0151 150.19 56.8885 150.555 56.8371C151.146 56.7539 151.64 56.8869 152.037 57.2361C152.44 57.5761 152.688 58.0825 152.783 58.7553L153.278 62.2811L152.305 62.4179L151.827 59.0137Z" fill="black"/>
</g>
<path d="M132.298 53.9899L132.84 51.8428L140.825 50.948L141.828 52.922L132.298 53.9899ZM136.054 44.9104L133.817 52.4115L133.663 52.8982L131.694 59.5346L129.247 59.8088L135.497 39.9393L145.989 57.9327L143.542 58.2069L140.222 52.3196L139.958 51.8275L136.054 44.9104Z" fill="black"/>
<path d="M29.785 199.5L25.315 207.81C24.885 208.61 24.365 209.215 23.755 209.625C23.155 210.035 22.5 210.24 21.79 210.24C21.24 210.24 20.67 210.12 20.08 209.88L20.665 208.035C21.085 208.165 21.435 208.23 21.715 208.23C22.015 208.23 22.285 208.16 22.525 208.02C22.765 207.87 22.985 207.64 23.185 207.33L23.275 207.21L19.135 199.5H21.73L24.52 205.14L27.4 199.5H29.785ZM35.2071 201.81C35.9571 201.81 36.6371 201.985 37.2471 202.335C37.8671 202.675 38.3521 203.16 38.7021 203.79C39.0521 204.41 39.2271 205.135 39.2271 205.965C39.2271 206.795 39.0521 207.525 38.7021 208.155C38.3521 208.775 37.8671 209.26 37.2471 209.61C36.6371 209.95 35.9571 210.12 35.2071 210.12C34.1771 210.12 33.3671 209.795 32.7771 209.145V212.91H30.4371V201.93H32.6721V202.86C33.2521 202.16 34.0971 201.81 35.2071 201.81ZM34.8021 208.2C35.4021 208.2 35.8921 208 36.2721 207.6C36.6621 207.19 36.8571 206.645 36.8571 205.965C36.8571 205.285 36.6621 204.745 36.2721 204.345C35.8921 203.935 35.4021 203.73 34.8021 203.73C34.2021 203.73 33.7071 203.935 33.3171 204.345C32.9371 204.745 32.7471 205.285 32.7471 205.965C32.7471 206.645 32.9371 207.19 33.3171 207.6C33.7071 208 34.2021 208.2 34.8021 208.2ZM44.6472 210.12C43.7972 210.12 43.0322 209.945 42.3522 209.595C41.6822 209.235 41.1572 208.74 40.7772 208.11C40.3972 207.48 40.2072 206.765 40.2072 205.965C40.2072 205.165 40.3972 204.45 40.7772 203.82C41.1572 203.19 41.6822 202.7 42.3522 202.35C43.0322 201.99 43.7972 201.81 44.6472 201.81C45.4972 201.81 46.2572 201.99 46.9272 202.35C47.5972 202.7 48.1222 203.19 48.5022 203.82C48.8822 204.45 49.0722 205.165 49.0722 205.965C49.0722 206.765 48.8822 207.48 48.5022 208.11C48.1222 208.74 47.5972 209.235 46.9272 209.595C46.2572 209.945 45.4972 210.12 44.6472 210.12ZM44.6472 208.2C45.2472 208.2 45.7372 208 46.1172 207.6C46.5072 207.19 46.7022 206.645 46.7022 205.965C46.7022 205.285 46.5072 204.745 46.1172 204.345C45.7372 203.935 45.2472 203.73 44.6472 203.73C44.0472 203.73 43.5522 203.935 43.1622 204.345C42.7722 204.745 42.5772 205.285 42.5772 205.965C42.5772 206.645 42.7722 207.19 43.1622 207.6C43.5522 208 44.0472 208.2 44.6472 208.2ZM54.2366 206.94H53.0216V210H50.6816V201.93H53.0216V205.065H54.2816L56.4716 201.93H58.9616L56.1416 205.8L59.1566 210H56.3966L54.2366 206.94ZM68.0637 199.5V210H65.6337V201.45H63.5337V199.5H68.0637Z" fill="white"/>
</g>
<defs>
<radialGradient id="paint0_radial_189_31920" cx="0" cy="0" r="1" gradientUnits="userSpaceOnUse" gradientTransform="translate(110 112.5) rotate(-45.6437) scale(157.341)">
<stop stop-color="#9657EE"/>
<stop offset="1" stop-color="#9657EE" stop-opacity="0"/>
</radialGradient>
<clipPath id="clip0_189_31920">
<rect width="226" height="226" fill="white"/>
</clipPath>
<clipPath id="clip1_189_31920">
<rect width="200" height="164" fill="white" transform="translate(12 27)"/>
</clipPath>
</defs>
</svg>
