<svg width="226" height="226" viewBox="0 0 226 226" fill="none" xmlns="http://www.w3.org/2000/svg">
<g clip-path="url(#clip0_362_2)">
<rect x="0.5" y="0.5" width="224.343" height="224.343" rx="16.5714" fill="url(#paint0_radial_362_2)" fill-opacity="0.3" stroke="#67409F"/>
<g clip-path="url(#clip1_362_2)">
<path d="M189 191.552H97.9044" stroke="white" stroke-width="0.72" stroke-miterlimit="10"/>
<path d="M74.3102 147.688H80V183H78L74 184.5L74.3102 147.688Z" fill="#FFFF00"/>
<path d="M64.5 191.5L29.0086 191.552" stroke="white" stroke-width="0.72" stroke-miterlimit="10"/>
<path d="M80.2772 147.815C80.2772 147.815 65.5 148.5 64.5 132.5" stroke="white" stroke-width="0.651429" stroke-miterlimit="10"/>
<path d="M77.7525 155.42H151.918L152 165.4L148.6 166L144.4 168.5C144.4 168.5 143.109 169.574 142.8 170.5C142.3 172 142.6 172.2 142.6 172.2L143.5 172.5L142 174.5C142 174.5 141.712 175.086 141.85 175.5C141.988 175.914 142.9 175.8 142.9 175.8C142.9 175.8 142.21 177.81 142.9 178.5C143.209 178.809 143.5 179 143.5 179C143.5 179 143.467 179.565 143.5 180C143.542 180.551 143.963 180.671 144.5 180.8C144.79 180.87 145.838 180.947 147 180.8C148.347 180.63 149.436 180.109 150.37 179.662C150.414 179.641 150.457 179.621 150.5 179.6C151.218 179.257 151.918 178.8 151.918 178.8V195L96.5 194.5L98.5 187.5L98 185H96L95.5 184L93 183.5L92 182.5L89 183L88.5 182H86.5L80.5 190.5H79.5L77.7525 189.74V188.472V187.205L79.5 185.5L80.5 184L80 183H77.7525V155.42Z" fill="#FF6666"/>
<path d="M77.7525 155.42H151.918L152 165.4L148.6 166L144.4 168.5C144.4 168.5 143.109 169.574 142.8 170.5C142.3 172 142.6 172.2 142.6 172.2L143.5 172.5L142 174.5C142 174.5 141.712 175.086 141.85 175.5C141.988 175.914 142.9 175.8 142.9 175.8C142.9 175.8 142.21 177.81 142.9 178.5C143.209 178.809 143.5 179 143.5 179C143.5 179 143.467 179.565 143.5 180C143.542 180.551 143.963 180.671 144.5 180.8C144.79 180.87 145.838 180.947 147 180.8C148.347 180.63 149.436 180.109 150.37 179.662C150.414 179.641 150.457 179.621 150.5 179.6C151.218 179.257 151.918 178.8 151.918 178.8V195L96.5 194.5L98.5 187.5L98 185H96L95.5 184L93 183.5L92 182.5L89 183L88.5 182H86.5L80.5 190.5H79.5L77.7525 189.74V188.472V187.205L79.5 185.5L80.5 184L80 183H77.7525V155.42Z" stroke="#BE4C4C"/>
<path d="M103 85.5C103 85.5 102.667 88.9249 104.972 89.2015" stroke="white" stroke-width="0.651429" stroke-miterlimit="10"/>
<path d="M118 88C118 88 124.891 94.1557 118.886 94.601" stroke="white" stroke-width="0.675995" stroke-miterlimit="10"/>
<path d="M114 96C114 96 116 99.5 119.5 98.5" stroke="white" stroke-width="0.651429" stroke-miterlimit="10"/>
<path d="M115.199 108.781C115.199 108.781 113.302 114.093 121.527 114.331C129.753 114.57 143.172 118.87 142.122 133.982" stroke="white" stroke-width="0.651429" stroke-miterlimit="10"/>
<path d="M80.7326 197.932C87.4874 198.523 92.2215 199.238 94.3561 196.978C96.4907 194.718 98.3692 189.597 98.5495 187.813C98.7297 186.03 98.5495 183.998 95.9974 185.257" stroke="white" stroke-width="0.651429" stroke-miterlimit="10"/>
<path d="M78 187.5L76 189.5L78 190V187.5Z" fill="#FCEE21"/>
<path d="M78.1561 155.42L150.518 154.887L145.485 147.688H74.2542L78.1561 155.42Z" fill="#5B2121" stroke="#BE4C4C" stroke-width="0.651429" stroke-miterlimit="10"/>
<path d="M147.02 148.743L160.131 156.885L157 157.5L151.218 155.069L147.02 148.743Z" fill="#FF6666" stroke="#FF6666" stroke-width="0.651429" stroke-miterlimit="10"/>
<g clip-path="url(#clip2_362_2)">
<path d="M146.119 144.334L138.044 141.287L134.725 142.697L131.528 146.165L130.418 152.061L134.406 157.9L141.777 159.288L146.54 155.606L147.957 150.785L146.119 144.334Z" fill="#7F3838"/>
<path d="M143.861 126.61L121.258 122.353L119.934 126.683L143.028 131.032L143.861 126.61Z" fill="#338771"/>
<path d="M145.086 130.911L121.009 126.376L115.642 154.875L133.915 157.808L132.718 156.056L130.51 151.57L132.02 146.258L135.801 142.391L142.865 142.703L145.086 130.911Z" fill="#00FFB3"/>
<path fill-rule="evenodd" clip-rule="evenodd" d="M122.353 121.609C121.157 121.54 120.101 122.017 119.442 122.923L119.142 123.337L116.263 138.515C114.151 149.648 113.391 153.768 113.41 153.97C113.47 154.592 113.836 155.121 114.474 155.508C114.774 155.69 115.228 155.781 126.035 157.835C137.372 159.991 138.552 160.193 139.686 160.176C141.456 160.149 143.255 159.611 144.749 158.662C146.443 157.585 147.66 156.186 148.517 154.331C148.823 153.668 148.86 153.536 149.115 152.18C149.371 150.823 149.385 150.689 149.34 149.965C149.189 147.54 148.298 145.432 146.685 143.69C146.208 143.175 145.166 142.318 144.679 142.039L144.475 141.923L145.544 136.243L146.614 130.562L145.539 130.36L144.464 130.158L144.667 129.083L144.869 128.008L145.944 128.21L147.019 128.413L147.221 127.338L147.424 126.263L135.078 123.947C128.288 122.673 122.562 121.621 122.353 121.609ZM121.631 123.791C121.251 123.921 121.123 124.094 121.024 124.616C120.923 125.142 120.999 125.416 121.312 125.658C121.549 125.84 121.667 125.864 131.967 127.804L142.382 129.765L142.584 128.691L142.787 127.616L132.357 125.653L121.927 123.69L121.631 123.791ZM120.133 141.157L117.704 154.055L124.883 155.407L132.062 156.759L131.455 155.863C130.546 154.518 130.031 153.172 129.827 151.606C129.687 150.537 129.719 149.683 129.944 148.497L130.134 147.492L125.804 146.677L121.473 145.861L121.676 144.787L121.878 143.712L126.486 144.579L131.094 145.447L131.16 145.309C131.25 145.117 132.06 144.039 132.336 143.742L132.563 143.498L127.423 142.53L122.283 141.562L122.485 140.487L122.688 139.412L128.823 140.568L134.957 141.723L135.373 141.519C136.359 141.035 137.773 140.668 138.916 140.599C139.839 140.542 140.389 140.582 141.435 140.78L142.428 140.968L143.244 136.638L144.06 132.307L133.311 130.283L122.562 128.259L120.133 141.157ZM123.295 136.188L123.093 137.263L131.692 138.882L140.29 140.501L140.493 139.426L140.695 138.352L132.096 136.732L123.498 135.113L123.295 136.188ZM139.505 142.687C136.271 142.72 133.394 144.754 132.31 147.776C132.052 148.497 131.813 150.128 131.865 150.816C132.087 153.74 133.697 156.1 136.335 157.367C136.964 157.669 138.566 158.04 139.336 158.062C142.56 158.152 145.521 156.185 146.703 153.169C146.964 152.504 147.23 151.094 147.228 150.388C147.219 147.19 145.305 144.387 142.329 143.215C141.699 142.967 140.166 142.681 139.505 142.687ZM140.071 144.981C138.23 144.87 136.876 146.074 136.481 148.172L136.387 148.67L135.917 148.581L135.446 148.493L134.94 151.18L134.434 153.867L138.734 154.677L143.033 155.487L143.539 152.799L144.045 150.112L143.585 150.026L143.125 149.939L143.219 149.209C143.413 147.712 143.117 146.659 142.283 145.878C141.77 145.398 140.857 145.028 140.071 144.981ZM139.398 147.152C139.032 147.291 138.783 147.694 138.601 148.443L138.451 149.059L139.746 149.303L141.041 149.546L141.125 148.918C141.284 147.743 141.052 147.323 140.151 147.153C139.763 147.08 139.589 147.08 139.398 147.152Z" fill="white"/>
</g>
<path d="M92.1741 193.411C92.1741 193.411 100.257 182.215 92.9141 183.75" stroke="white" stroke-width="0.651429" stroke-miterlimit="10"/>
<path d="M88.2939 192.343C88.2939 192.343 97.9044 179.697 88.8916 183.054" stroke="white" stroke-width="0.651429" stroke-miterlimit="10"/>
<path d="M84.831 191.275C84.831 191.275 91.529 182.282 88.0187 181.805C87.5925 181.765 87.1636 181.843 86.7787 182.031C86.3939 182.22 86.068 182.511 85.8367 182.873L80.7136 190.398C80.6486 190.492 80.5652 190.572 80.4687 190.632C80.3721 190.693 80.2643 190.734 80.1517 190.752C80.0391 190.769 79.9241 190.764 79.8136 190.736C79.7031 190.708 79.5994 190.658 79.5087 190.588C78.1893 189.777 76.6144 189.494 75.0972 189.797" stroke="white" stroke-width="0.651429" stroke-miterlimit="10"/>
<path d="M74.5 157.5L67.9571 165.497L74.2541 184.239" stroke="white" stroke-width="0.651429" stroke-miterlimit="10"/>
<path d="M73.9043 184.591C87.452 178.697 75.3534 189.692 75.3534 189.692" stroke="white" stroke-width="0.651429" stroke-miterlimit="10"/>
<path d="M114.242 89.2539C113.829 89.2539 113.495 88.9179 113.495 88.5033C113.495 88.0888 113.829 87.7527 114.242 87.7527C114.654 87.7527 114.988 88.0888 114.988 88.5033C114.988 88.9179 114.654 89.2539 114.242 89.2539Z" fill="white" stroke="white" stroke-width="0.702335" stroke-miterlimit="10"/>
<path d="M124.225 88.7398C123.773 88.7398 123.406 88.3715 123.406 87.9172C123.406 87.4629 123.773 87.0947 124.225 87.0947C124.677 87.0947 125.043 87.4629 125.043 87.9172C125.043 88.3715 124.677 88.7398 124.225 88.7398Z" fill="white" stroke="white" stroke-width="0.702335" stroke-miterlimit="10"/>
<path d="M123.322 83.4455C122.128 82.9157 121.306 82.1535 121.487 81.7431C121.667 81.3327 122.781 81.4295 123.975 81.9593C125.168 82.489 125.99 83.2512 125.81 83.6616C125.629 84.072 124.516 83.9752 123.322 83.4455Z" fill="white" stroke="white" stroke-width="0.702335" stroke-miterlimit="10"/>
<path d="M110.23 84.0882C110.103 83.6286 110.896 83.0058 112.001 82.6972C113.105 82.3885 114.104 82.5109 114.231 82.9705C114.358 83.4301 113.566 84.0529 112.461 84.3615C111.356 84.6702 110.357 84.5478 110.23 84.0882Z" fill="white" stroke="white" stroke-width="0.702335" stroke-miterlimit="10"/>
<path d="M106.405 132.69C106.405 132.69 104.346 135.484 104.431 137.601C104.517 139.719 104.678 142.894 102.79 142.894" stroke="white" stroke-width="0.651429" stroke-miterlimit="10"/>
<path d="M77.8016 155.276L73.7238 147.332L69.8895 152.118L73.7238 160.118L77.8016 155.276Z" fill="#FF6666"/>
<path d="M94.8944 133.279C94.8944 133.279 98.2029 141.551 96.9934 142.768" stroke="white" stroke-width="0.651429" stroke-miterlimit="10"/>
<path d="M88.8774 154.717L86.3175 144.513C86.3175 144.513 85.4642 142.769 87.5927 142.769H110.277C110.277 142.769 111.725 142.69 111.236 144.602C110.747 146.513 109.778 154.717 109.778 154.717H88.8774Z" fill="#FF6666" stroke="#BE4C4C" stroke-width="0.651429" stroke-miterlimit="10"/>
<path d="M106.405 132.69C106.405 132.69 104.925 126.968 108.796 125.833C112.666 124.698 112.828 125.833 112.828 125.833C112.828 125.833 110.437 127.654 110.19 129.39C109.944 131.126 108.625 133.748 106.405 132.69Z" fill="white" stroke="white" stroke-width="0.651429" stroke-miterlimit="10"/>
<path d="M104.69 135.388C104.442 134.933 103.718 134.6 103.277 134.327C102.835 134.055 102.329 133.901 101.807 133.88C100.198 134.001 99.1769 129.582 99.1769 129.582C99.1769 129.582 102.591 129.413 103.044 130.978C103.869 132.327 106.439 133.279 104.69 135.388Z" fill="white" stroke="white" stroke-width="0.651429" stroke-miterlimit="10"/>
<path d="M105.001 137.821C105.001 137.821 106.319 135.093 108.549 135.999C110.778 136.905 111.205 138.317 112.154 138.317C113.103 138.317 109.687 139.89 107.875 139.27C106.865 138.9 105.9 138.413 105.001 137.821Z" fill="white" stroke="white" stroke-width="0.651429" stroke-miterlimit="10"/>
<path d="M94.9728 127.158C94.9728 127.158 97.1928 128.408 96.6141 130.639C96.0354 132.871 94.9728 130.639 94.9728 133.319C94.9728 133.319 90.9313 132.175 95.3144 126.834" fill="white"/>
<path d="M94.9728 127.158C94.9728 127.158 97.1928 128.408 96.6141 130.639C96.0354 132.871 94.9728 130.639 94.9728 133.319C94.9728 133.319 90.9313 132.175 95.3144 126.834" stroke="white" stroke-width="0.651429" stroke-miterlimit="10"/>
<path d="M96.1208 138.24C96.0187 137.578 95.6882 136.972 95.187 136.529C94.6859 136.086 94.046 135.835 93.379 135.818C92.4311 135.762 91.4807 135.762 90.5328 135.818C90.5328 135.818 91.2159 139.137 93.379 139.394C95.542 139.652 94.9728 138.24 96.1208 138.24Z" fill="white" stroke="white" stroke-width="0.651429" stroke-miterlimit="10"/>
<path d="M98.2649 130.639C98.2649 130.639 100.76 137.859 96.709 136.829C96.709 136.829 94.9159 136.495 96.709 133.767C98.502 131.04 97.6931 132.225 98.2649 130.639Z" fill="white" stroke="white" stroke-width="0.651429" stroke-miterlimit="10"/>
<path d="M81.2829 197.98C81.2829 197.98 64.8218 198.161 49.5 174.5C49.5 174.5 46.6539 169.946 49.5 161C52.3461 152.054 56.127 140.759 70.5 125.5C84.873 110.241 96.4813 113.969 101.642 114.207C106.803 114.446 104.972 111.813 104.972 111.813" stroke="white" stroke-width="0.651429" stroke-miterlimit="10"/>
<path d="M78.8894 115.072C79.0269 115.554 79.3014 115.985 79.6794 116.314C80.2733 116.805 80.6023 117.18 81.79 116.314C83.5988 114.978 85.9394 114.898 88 114C89.4927 113.413 93.5 113.5 93.5 113.5C93.5 113.5 110.349 117.129 104 109.5C97.6507 101.871 107.165 102.104 107.823 97.5526C108.069 95.1828 107.649 92.7912 106.61 90.648C106.378 90.1215 106 92 106 91.5C105 93 104.55 92.6671 104 92.5C103.191 92.3055 102.127 91.547 101.5 91C100.873 90.453 100.303 88.7755 100 88C100 88 98.2868 82.556 105 82C111.713 81.444 108.5 72.5 108.5 72.5C115.5 77.5 128.774 71.2043 131 78C131 78 131.737 80.9461 132.005 81.3332C132.009 81.8503 132.012 82.1446 132 82.5C131.884 85.8101 132.004 90.661 131.784 94.1521C131.487 98.9491 131 100 126.5 104C122.29 106.379 119 106 119 106C119 106 115.103 105.875 115 110C114.897 114.125 120 114 120 114C127 114.5 127.5 115 131.5 116.5C131.818 116.71 134.458 118 133.5 117.5C133.878 117.547 135.64 119.125 136 119C136.322 114.187 136.935 108.168 138.639 103.656C142.409 93.7124 138.639 72.2358 138.639 72.2358C137.761 59.9394 127.29 55.5 114.033 56.5C100.776 57.5 101.5 66 101.5 66C85 67 88.4195 90.6868 88.4195 90.6868C88.4195 90.6868 91.0144 102.505 85.5922 105.336C82.4116 107.158 80.0262 110.105 78.9048 113.599C78.7572 114.078 78.7519 114.59 78.8894 115.072Z" fill="white"/>
<path d="M79.6794 116.314C79.3014 115.985 79.0269 115.554 78.8894 115.072C78.7519 114.59 78.7572 114.078 78.9048 113.599C80.0262 110.105 82.4116 107.158 85.5922 105.336C91.0144 102.505 88.4195 90.6868 88.4195 90.6868C88.4195 90.6868 85 67 101.5 66C101.5 66 100.776 57.5 114.033 56.5C127.29 55.5 137.761 59.9394 138.639 72.2358C138.639 72.2358 142.409 93.7124 138.639 103.656C136.935 108.168 136.322 114.187 136 119C135.64 119.125 133.878 117.547 133.5 117.5C134.458 118 131.818 116.71 131.5 116.5C127.5 115 127 114.5 120 114C120 114 114.897 114.125 115 110C115.103 105.875 119 106 119 106C119 106 122.29 106.379 126.5 104C131 100 131.487 98.9491 131.784 94.1521C132.004 90.661 131.884 85.8101 132 82.5C132.019 81.9181 132 81.5 132 80C132.5 84 131 78 131 78C128.774 71.2043 115.5 77.5 108.5 72.5C108.5 72.5 111.713 81.444 105 82C98.2868 82.556 100 88 100 88C100.303 88.7755 100.873 90.453 101.5 91C102.127 91.547 103.191 92.3055 104 92.5C104.55 92.6671 105 93 106 91.5C106 92 106.378 90.1215 106.61 90.648C107.649 92.7912 108.069 95.1828 107.823 97.5526C107.165 102.104 97.6507 101.871 104 109.5C110.349 117.129 93.5 113.5 93.5 113.5C93.5 113.5 89.4927 113.413 88 114C85.9394 114.898 83.5988 114.978 81.79 116.314C80.6023 117.18 80.2733 116.805 79.6794 116.314Z" stroke="white" stroke-width="0.764555" stroke-miterlimit="10"/>
<path d="M106.449 68C106.449 68 107.616 73.9606 102 75.1432" stroke="#1E2634" stroke-width="0.651429" stroke-miterlimit="10"/>
<path d="M96 93C96 93 98.5805 94.9074 97.6413 98.9606C96.702 103.014 95.1651 104.921 97.85 107.115" stroke="#1E2634" stroke-width="0.651429" stroke-miterlimit="10"/>
<path d="M126 64C126 64 133.096 64.3147 133.723 75.0628" stroke="#1E2634" stroke-width="0.651429" stroke-miterlimit="10"/>
<g clip-path="url(#clip3_362_2)">
<path d="M143.17 179.05C142.582 182.26 148.662 180.783 148.662 180.783C148.662 180.783 156.345 178.22 160.679 168.334C165.013 158.447 151.712 155.565 151.712 155.565L151.802 165.397" stroke="white" stroke-width="0.718276" stroke-miterlimit="10"/>
<path d="M152.282 174.827C152.282 174.827 140.229 182.981 142.582 176.15" stroke="white" stroke-width="0.718276" stroke-miterlimit="10"/>
<path d="M151.558 172.274C151.558 172.274 137.18 180.327 143.007 172.538" stroke="white" stroke-width="0.718276" stroke-miterlimit="10"/>
<path d="M150.367 169.501C150.367 169.501 140.586 175.647 142.625 170.601C143.072 169.524 143.79 168.615 144.689 167.986C146.805 166.378 149.262 165.426 151.812 165.227" stroke="white" stroke-width="0.718276" stroke-miterlimit="10"/>
</g>
<path d="M155 161H81.2778L78 155H151.33L155 161Z" fill="#FCEE21"/>
</g>
<path d="M39.4461 201.5L34.9761 209.81C34.5461 210.61 34.0261 211.215 33.4161 211.625C32.8161 212.035 32.1611 212.24 31.4511 212.24C30.9011 212.24 30.3311 212.12 29.7411 211.88L30.3261 210.035C30.7461 210.165 31.0961 210.23 31.3761 210.23C31.6761 210.23 31.9461 210.16 32.1861 210.02C32.4261 209.87 32.6461 209.64 32.8461 209.33L32.9361 209.21L28.7961 201.5H31.3911L34.1811 207.14L37.0611 201.5H39.4461ZM44.8682 203.81C45.6182 203.81 46.2982 203.985 46.9082 204.335C47.5282 204.675 48.0132 205.16 48.3632 205.79C48.7132 206.41 48.8882 207.135 48.8882 207.965C48.8882 208.795 48.7132 209.525 48.3632 210.155C48.0132 210.775 47.5282 211.26 46.9082 211.61C46.2982 211.95 45.6182 212.12 44.8682 212.12C43.8382 212.12 43.0282 211.795 42.4382 211.145V214.91H40.0982V203.93H42.3332V204.86C42.9132 204.16 43.7582 203.81 44.8682 203.81ZM44.4632 210.2C45.0632 210.2 45.5532 210 45.9332 209.6C46.3232 209.19 46.5182 208.645 46.5182 207.965C46.5182 207.285 46.3232 206.745 45.9332 206.345C45.5532 205.935 45.0632 205.73 44.4632 205.73C43.8632 205.73 43.3682 205.935 42.9782 206.345C42.5982 206.745 42.4082 207.285 42.4082 207.965C42.4082 208.645 42.5982 209.19 42.9782 209.6C43.3682 210 43.8632 210.2 44.4632 210.2ZM54.3083 212.12C53.4583 212.12 52.6933 211.945 52.0133 211.595C51.3433 211.235 50.8183 210.74 50.4383 210.11C50.0583 209.48 49.8683 208.765 49.8683 207.965C49.8683 207.165 50.0583 206.45 50.4383 205.82C50.8183 205.19 51.3433 204.7 52.0133 204.35C52.6933 203.99 53.4583 203.81 54.3083 203.81C55.1583 203.81 55.9183 203.99 56.5883 204.35C57.2583 204.7 57.7833 205.19 58.1633 205.82C58.5433 206.45 58.7333 207.165 58.7333 207.965C58.7333 208.765 58.5433 209.48 58.1633 210.11C57.7833 210.74 57.2583 211.235 56.5883 211.595C55.9183 211.945 55.1583 212.12 54.3083 212.12ZM54.3083 210.2C54.9083 210.2 55.3983 210 55.7783 209.6C56.1683 209.19 56.3633 208.645 56.3633 207.965C56.3633 207.285 56.1683 206.745 55.7783 206.345C55.3983 205.935 54.9083 205.73 54.3083 205.73C53.7083 205.73 53.2133 205.935 52.8233 206.345C52.4333 206.745 52.2383 207.285 52.2383 207.965C52.2383 208.645 52.4333 209.19 52.8233 209.6C53.2133 210 53.7083 210.2 54.3083 210.2ZM63.8977 208.94H62.6827V212H60.3427V203.93H62.6827V207.065H63.9427L66.1327 203.93H68.6227L65.8027 207.8L68.8177 212H66.0577L63.8977 208.94ZM83.2898 209.795H81.5798V212H79.2098V209.795H73.5548V208.16L78.5048 201.5H81.0548L76.4648 207.815H79.2848V205.85H81.5798V207.815H83.2898V209.795Z" fill="white"/>
</g>
<defs>
<radialGradient id="paint0_radial_362_2" cx="0" cy="0" r="1" gradientUnits="userSpaceOnUse" gradientTransform="translate(110 112.5) rotate(-45.6437) scale(157.341)">
<stop stop-color="#9657EE"/>
<stop offset="1" stop-color="#9657EE" stop-opacity="0"/>
</radialGradient>
<clipPath id="clip0_362_2">
<rect width="226" height="226" fill="white"/>
</clipPath>
<clipPath id="clip1_362_2">
<rect width="212" height="194" fill="white" transform="matrix(-1 0 0 1 189 5)"/>
</clipPath>
<clipPath id="clip2_362_2">
<rect width="35" height="35" fill="white" transform="translate(119.478 121) rotate(10.6655)"/>
</clipPath>
<clipPath id="clip3_362_2">
<rect width="20.83" height="26.5762" fill="white" transform="matrix(-1 0 0 1 162 155)"/>
</clipPath>
</defs>
</svg>
