<svg width="226" height="226" viewBox="0 0 226 226" fill="none" xmlns="http://www.w3.org/2000/svg">
<g clip-path="url(#clip0_189_31817)">
<rect x="0.5" y="0.5" width="224.343" height="224.343" rx="16.5714" fill="url(#paint0_radial_189_31817)" fill-opacity="0.3" stroke="#67409F"/>
<g clip-path="url(#clip1_189_31817)">
<path d="M99.2 190.701L141.6 190.701" stroke="white" stroke-width="0.68" stroke-miterlimit="10"/>
<path d="M161.613 190.216H194.685" stroke="white" stroke-width="0.68" stroke-miterlimit="10"/>
<path d="M117.666 182.017C117.666 182.017 128.4 195.977 137.6 184.614" stroke="white" stroke-width="0.68" stroke-miterlimit="10"/>
<path d="M157.6 166.758L164.779 158.464" stroke="white" stroke-width="0.68" stroke-miterlimit="10"/>
<path d="M152.676 163.506L134.756 174.469C133.338 175.337 132.884 177.202 133.742 178.635L144.955 197.383C145.812 198.817 147.656 199.276 149.074 198.409L166.994 187.445C168.412 186.578 168.866 184.713 168.008 183.279L156.795 164.531C155.938 163.098 154.094 162.639 152.676 163.506Z" fill="#FCEE21"/>
<path d="M113.763 132.53C113.763 132.53 120.816 148.841 115.999 155.844C111.182 162.846 98.1623 165.565 98.1623 165.565L76.5625 172.089C80.7233 166.196 77.7237 136.205 77.7237 136.205" stroke="white" stroke-width="0.68" stroke-miterlimit="10"/>
<path d="M117.666 149.363C117.666 149.363 123.2 146.873 122.4 151.743" stroke="white" stroke-width="0.68" stroke-miterlimit="10"/>
<path d="M127.2 149.308C127.587 145.648 126.623 140.38 124.837 137.173C124.837 137.173 120.942 142.376 117.2 143.627" stroke="white" stroke-miterlimit="10"/>
<path d="M158.457 127.963C158.457 127.963 160.185 112.346 164.4 123.742" stroke="#FFDADA" stroke-width="0.68" stroke-miterlimit="10"/>
<path d="M153.941 160.258L149.006 152.484C148.735 153.11 148.301 153.651 147.751 154.048C147.201 154.446 146.555 154.686 145.882 154.743C145.208 154.8 144.531 154.672 143.924 154.372C143.316 154.072 142.8 153.611 142.429 153.039C142.059 152.467 141.849 151.804 141.82 151.121C141.792 150.438 141.946 149.759 142.268 149.158C142.589 148.556 143.065 148.053 143.646 147.703C144.226 147.352 144.89 147.167 145.566 147.166H145.62L142.609 142.436C142.38 142.074 142.082 141.761 141.733 141.515C141.384 141.27 140.99 141.097 140.574 141.006C140.158 140.915 139.729 140.908 139.311 140.985C138.892 141.063 138.493 141.223 138.136 141.457L121.697 152.136C121.338 152.367 121.028 152.667 120.784 153.02C120.54 153.373 120.368 153.771 120.277 154.191C120.186 154.612 120.178 155.046 120.254 155.47C120.33 155.893 120.488 156.298 120.719 156.659L132.051 174.481C132.279 174.845 132.577 175.159 132.925 175.405C133.274 175.652 133.668 175.826 134.084 175.918C134.5 176.01 134.929 176.018 135.348 175.941C135.767 175.864 136.166 175.705 136.524 175.471L138.674 174.036C138.609 174.317 138.576 174.605 138.577 174.895C138.576 175.659 138.788 176.408 139.19 177.054C139.592 177.701 140.167 178.22 140.848 178.55C141.529 178.881 142.289 179.009 143.039 178.921C143.79 178.832 144.5 178.531 145.088 178.051C145.676 177.571 146.118 176.933 146.362 176.21C146.606 175.487 146.643 174.709 146.468 173.966C146.293 173.222 145.913 172.544 145.373 172.01C144.833 171.476 144.154 171.108 143.415 170.947L152.909 164.782C153.273 164.555 153.588 164.258 153.837 163.907C154.086 163.556 154.264 163.159 154.36 162.738C154.456 162.318 154.468 161.882 154.396 161.456C154.325 161.03 154.17 160.623 153.941 160.258Z" fill="#9657EE"/>
<path d="M131.772 171.415C131.772 171.415 145.856 163.238 138.739 160.541" stroke="white" stroke-width="0.68" stroke-miterlimit="10"/>
<path d="M128.729 167.859C128.729 167.859 145.813 158.91 136.115 156.17" stroke="white" stroke-width="0.68" stroke-miterlimit="10"/>
<path d="M126.181 164.63C126.181 164.63 140.932 156.202 135.148 152.668C134.945 152.557 134.712 152.515 134.483 152.549C134.255 152.582 134.043 152.689 133.879 152.853C131.331 155.474 120.4 166.352 120.4 155.395" stroke="white" stroke-width="0.68" stroke-miterlimit="10"/>
<path d="M141.814 152.299L152.4 140.786" stroke="white" stroke-width="0.68" stroke-miterlimit="10"/>
<path d="M186.164 140.914L172.563 121.341C172.338 121.014 172.052 120.735 171.721 120.52C171.389 120.305 171.019 120.159 170.631 120.089C170.244 120.019 169.846 120.028 169.462 120.114C169.077 120.2 168.714 120.362 168.391 120.59L149.006 134.389C148.683 134.618 148.408 134.909 148.197 135.246C147.985 135.583 147.841 135.958 147.774 136.351C147.706 136.744 147.715 137.146 147.801 137.536C147.887 137.925 148.048 138.293 148.275 138.619L151.307 142.969C150.573 142.981 149.856 143.196 149.233 143.59C148.61 143.983 148.105 144.541 147.772 145.203C147.439 145.866 147.291 146.607 147.343 147.348C147.395 148.089 147.646 148.801 148.069 149.409C148.491 150.017 149.069 150.496 149.741 150.797C150.413 151.097 151.153 151.206 151.882 151.113C152.61 151.02 153.3 150.728 153.877 150.268C154.454 149.809 154.896 149.198 155.156 148.504L161.865 158.192C162.324 158.849 163.022 159.296 163.806 159.435C164.589 159.573 165.395 159.392 166.048 158.932L185.4 145.176C185.73 144.95 186.012 144.659 186.23 144.321C186.447 143.983 186.596 143.604 186.667 143.207C186.738 142.81 186.73 142.403 186.644 142.009C186.557 141.615 186.394 141.243 186.164 140.914Z" fill="#00FFFF"/>
<path d="M171.767 123.918C170.456 125.364 170.004 127.115 170.778 127.822C171.552 128.528 173.337 128.05 174.649 126.604C175.316 125.995 175.854 125.255 176.229 124.429C176.282 124.081 176.245 123.725 176.123 123.396C176 123.067 175.796 122.775 175.53 122.548C175.308 122.285 175.02 122.089 174.696 121.98C174.372 121.871 174.025 121.853 173.692 121.928C173.036 122.211 172.402 123.222 171.767 123.918Z" stroke="white" stroke-width="0.68" stroke-miterlimit="10"/>
<path d="M175.208 127.865C173.896 129.311 173.455 131.062 174.219 131.78C174.982 132.497 176.67 131.888 177.982 130.442C178.616 129.746 179.627 129.116 179.82 128.431C180.014 127.745 179.379 126.897 178.982 126.528C178.584 126.158 177.745 125.516 176.96 125.864C176.347 126.082 175.788 127.169 175.208 127.865Z" stroke="white" stroke-width="0.68" stroke-miterlimit="10"/>
<path d="M177.638 131.356C176.326 132.802 175.874 134.553 176.649 135.27C177.423 135.988 179.1 135.379 180.412 133.933C180.971 133.313 182.003 132.845 182.218 132.204C182.283 131.801 182.242 131.387 182.099 131.005C181.955 130.623 181.714 130.286 181.401 130.029C181.199 129.765 180.927 129.565 180.616 129.453C180.305 129.342 179.969 129.322 179.648 129.398C178.949 129.648 178.261 130.671 177.638 131.356Z" stroke="white" stroke-width="0.68" stroke-miterlimit="10"/>
<path d="M180.39 134.281C179.078 135.727 178.638 137.478 179.401 138.184C180.164 138.891 181.852 138.304 183.164 136.847C183.777 136.184 184.508 135.673 184.712 135.009C184.78 134.653 184.751 134.284 184.628 133.943C184.505 133.603 184.292 133.302 184.013 133.074C183.812 132.818 183.546 132.622 183.242 132.509C182.939 132.396 182.61 132.369 182.293 132.432C181.616 132.682 181.035 133.574 180.39 134.281Z" stroke="white" stroke-width="0.68" stroke-miterlimit="10"/>
<path d="M78.7665 157.496C78.7665 157.496 62.6392 161.281 55.6292 156.539C55.6292 156.539 55.1562 188.694 61.263 192.021C67.3699 195.348 79.1213 200.253 103.871 188.53C122.966 179.494 133.578 174.59 137.427 172.829C138.8 172.208 139.979 171.219 140.835 169.969C142.018 168.196 143.975 165.456 139.115 165.619" stroke="white" stroke-width="0.68" stroke-miterlimit="10"/>
<path d="M86.1851 114.186C86.1851 114.186 84.3896 107.335 90.0772 106.226C95.7647 105.117 95.3024 98.0271 93.6682 96.3308C92.0339 94.6344 88.2924 96.0154 87.8946 91.5245C87.4968 87.0336 90.3352 87.1749 90.3352 87.1749C90.3352 87.1749 96.5496 90.4371 100.291 80.6506C100.291 80.6506 108.785 89.0018 114.902 87.1749C115.728 86.9214 116.488 86.487 117.128 85.9027C123.127 80.4657 109.333 71.6361 104.495 72.0276C99.6568 72.4191 99.8181 72.9736 99.3557 68.6349C98.8934 64.2963 95.0551 61.3168 89.6794 62.0562C84.1316 62.8174 80.7771 64.6877 81.2502 69.407C81.7232 74.1263 84.8734 75.2571 84.8734 75.2571C85.0838 75.4252 85.2482 75.645 85.3508 75.8955C85.4534 76.146 85.4908 76.4189 85.4596 76.6882C85.4283 76.9575 85.3294 77.2142 85.1722 77.4339C85.015 77.6535 84.8048 77.8288 84.5616 77.943C82.6909 79.2805 79.4224 80.4657 80.1212 84.9567C80.4825 87.5559 81.7207 89.9491 83.6262 91.7311C83.6262 91.7311 86.4324 95.5152 83.1639 97.3312C81.3792 98.3207 78.9816 99.5059 77.1538 100.354C76.3267 100.741 75.591 101.303 74.9963 102.002C74.4016 102.7 73.9617 103.519 73.706 104.404C73.4504 105.289 73.385 106.219 73.5142 107.132C73.6434 108.044 73.9643 108.918 74.4552 109.695C74.7861 110.246 75.1449 110.78 75.5303 111.293C77.8849 113.729 76.5087 113.381 86.1851 114.186Z" fill="white" stroke="white" stroke-width="0.68" stroke-miterlimit="10"/>
<path d="M98.5709 79.8568C98.5709 79.8568 96.7969 85.4242 92.12 85.9897" stroke="black" stroke-width="0.68" stroke-miterlimit="10"/>
<path d="M96.012 67.0365C96.012 67.0365 89.8944 60.4469 84.1208 67.8847" stroke="black" stroke-width="0.68" stroke-miterlimit="10"/>
<path d="M98.5709 114.664C98.5709 114.664 109.322 117.1 107.753 111.011C106.363 111.351 104.919 111.405 103.508 111.17C102.097 110.934 100.747 110.414 99.5385 109.64C98.9364 109.227 97.1839 108.053 97.0011 108.553C96.5281 109.88 98.5709 114.664 98.5709 114.664Z" fill="white" stroke="white" stroke-width="0.68" stroke-miterlimit="10"/>
<path d="M101.743 96.1024C102.135 96.1024 102.452 95.5523 102.452 94.8736C102.452 94.195 102.135 93.6449 101.743 93.6449C101.351 93.6449 101.033 94.195 101.033 94.8736C101.033 95.5523 101.351 96.1024 101.743 96.1024Z" fill="white" stroke="white" stroke-width="0.68" stroke-miterlimit="10"/>
<path d="M110.365 97.005C110.739 97.005 111.043 96.5279 111.043 95.9394C111.043 95.3508 110.739 94.8737 110.365 94.8737C109.991 94.8737 109.688 95.3508 109.688 95.9394C109.688 96.5279 109.991 97.005 110.365 97.005Z" fill="white" stroke="white" stroke-width="0.68" stroke-miterlimit="10"/>
<path d="M112.754 92.2413C112.908 91.8317 112.215 91.184 111.205 90.7946C110.195 90.4052 109.251 90.4216 109.097 90.8313C108.943 91.2409 109.636 91.8887 110.646 92.278C111.656 92.6674 112.599 92.651 112.754 92.2413Z" fill="white" stroke="white" stroke-width="0.68" stroke-miterlimit="10"/>
<path d="M101.239 90.8953C102.307 90.6106 103.093 90.0737 102.994 89.6963C102.896 89.3188 101.951 89.2437 100.883 89.5284C99.8146 89.8132 99.0286 90.3501 99.127 90.7275C99.2254 91.105 100.171 91.1801 101.239 90.8953Z" fill="white" stroke="white" stroke-width="0.68" stroke-miterlimit="10"/>
<path d="M105.903 94.8737C105.903 94.8737 109.236 101.246 104.527 101.072" stroke="white" stroke-width="0.68" stroke-miterlimit="10"/>
<path d="M100.194 100.311C100.194 100.311 99.6998 103.736 102.452 103.682" stroke="white" stroke-width="0.68" stroke-miterlimit="10"/>
<path d="M124.88 137.173C124.88 137.173 120.579 114.697 98.2268 117.263C95.6465 117.557 97.0227 110.217 96.3991 108.238C96.3705 108.147 96.3699 108.05 96.3972 107.959C96.4246 107.869 96.4786 107.788 96.5521 107.729C96.6256 107.67 96.7152 107.635 96.8088 107.629C96.9025 107.623 96.9958 107.645 97.0764 107.694C101.646 110.325 105.054 110.847 107.591 110.054C116.451 107.281 114.655 88.5559 114.655 88.5559C114.655 87.1858 114.58 85.9897 114.58 85.9897" stroke="white" stroke-width="0.68" stroke-miterlimit="10"/>
<path d="M86.626 108.607L86.368 117.241C86.368 117.241 50.407 115.55 55.6 156.207" stroke="white" stroke-width="0.68" stroke-miterlimit="10"/>
<path d="M97.5173 117.1C97.5173 117.1 95.7648 120.83 86.3679 117.241" stroke="white" stroke-width="0.68" stroke-miterlimit="10"/>
<path d="M78.7666 155.8C78.7666 155.8 82.4221 170.458 84.5401 169.653C86.6582 168.849 76.5625 172.057 76.5625 172.057C78.4363 166.859 79.1879 161.316 78.7666 155.8Z" fill="white" stroke="white" stroke-width="0.68" stroke-miterlimit="10"/>
<path d="M20.3965 190.216H59.6289" stroke="white" stroke-width="0.68" stroke-miterlimit="10"/>
<path d="M105.504 178.702C108.525 177.269 110.52 175.129 109.96 173.922C109.401 172.715 106.498 172.898 103.476 174.331C100.455 175.765 98.4598 177.905 99.0196 179.112C99.5794 180.319 102.482 180.136 105.504 178.702Z" fill="white" stroke="white" stroke-width="0.68" stroke-miterlimit="10"/>
<path d="M104.495 163.618C104.495 163.618 101.936 169.73 104.065 173.013C106.194 176.297 96.8292 169.947 98.9365 165.402L104.495 163.618Z" fill="#00FFFF" stroke="white" stroke-width="0.68" stroke-miterlimit="10"/>
<path d="M115.827 182.8C115.827 182.8 106.075 180.419 106.667 178.092C106.667 178.092 105.054 186.214 108 185.899C110.946 185.584 115.827 182.8 115.827 182.8Z" fill="#00FFFF" stroke="white" stroke-width="0.68" stroke-miterlimit="10"/>
<path d="M92.7536 93.6896C93.0055 93.4348 92.7298 92.7428 92.1377 92.1441C91.5457 91.5453 90.8616 91.2665 90.6097 91.5213C90.3577 91.7761 90.6334 92.468 91.2255 93.0668C91.8175 93.6655 92.5016 93.9444 92.7536 93.6896Z" fill="white" stroke="white" stroke-width="0.68" stroke-miterlimit="10"/>
<path d="M71.434 91.5354C73.0551 91.5354 74.3692 90.4935 74.3692 89.2084C74.3692 87.9232 73.0551 86.8813 71.434 86.8813C69.813 86.8813 68.4988 87.9232 68.4988 89.2084C68.4988 90.4935 69.813 91.5354 71.434 91.5354Z" fill="#62F3CD" stroke="#00FFB3" stroke-width="0.68" stroke-miterlimit="10"/>
<path d="M68.5204 81.1835C69.8149 81.1835 70.8642 80.1221 70.8642 78.813C70.8642 77.5038 69.8149 76.4424 68.5204 76.4424C67.2259 76.4424 66.1766 77.5038 66.1766 78.813C66.1766 80.1221 67.2259 81.1835 68.5204 81.1835Z" fill="#62F3CD" stroke="#00FFB3" stroke-width="0.68" stroke-miterlimit="10"/>
<path d="M61.5103 70.3857C60.8222 74.3764 58.0375 81.3465 46.8022 77.2797C46.1469 77.0519 45.4489 76.9786 44.7613 77.0652C44.0737 77.1519 43.4148 77.3964 42.8349 77.7799C38.631 80.5201 28.7934 85.533 28.5783 72.4517C28.5659 71.7924 28.3422 71.155 27.9409 70.6354C27.5395 70.1157 26.9822 69.7419 26.3528 69.5701C18.9127 67.5693 -3.06341 60.4252 16.3431 49.9971C16.9772 49.6427 17.5234 49.1474 17.9406 48.5484C18.3578 47.9494 18.6351 47.2624 18.7514 46.5392C19.7621 40.5259 24.1272 25.7374 42.3081 34.5779C42.8081 34.8245 43.3543 34.9608 43.9104 34.9777C44.4665 34.9945 45.0197 34.8916 45.5335 34.6758C52.0812 31.9029 76.0034 23.1277 73.1219 44.5819C72.9836 45.6092 73.2373 46.6513 73.8315 47.4961C77.2075 52.3241 87.0667 68.7437 64.4347 68.0586C63.7524 68.0276 63.0818 68.2455 62.545 68.6726C62.0083 69.0997 61.641 69.7077 61.5103 70.3857Z" fill="#62F3CD" stroke="#00FFB3" stroke-width="0.68" stroke-miterlimit="10"/>
<path d="M31.3689 54.6403C31.699 56.0715 32.3079 57.2595 33.1957 58.2043C34.1012 59.1448 35.1457 59.8007 36.3293 60.172C37.5128 60.5434 38.7133 60.5845 39.9307 60.2955C40.8128 60.0861 41.5891 59.7807 42.2595 59.3793C42.9475 58.9737 43.5446 58.4965 44.0507 57.9477C44.5528 57.3812 44.9524 56.7738 45.2495 56.1256L45.9341 59.094C45.3168 59.9674 44.5881 60.6809 43.7481 61.2344C42.9081 61.7879 41.8088 62.2259 40.4503 62.5484C39.1623 62.8541 37.9008 62.9113 36.6657 62.72C35.4442 62.5068 34.3122 62.0766 33.2697 61.4295C32.2231 60.7647 31.3272 59.9058 30.5819 58.8527C29.8365 57.7996 29.3049 56.584 28.987 55.2057C28.6692 53.8275 28.6139 52.4988 28.8213 51.2195C29.0287 49.9402 29.458 48.776 30.1093 47.7269C30.7565 46.66 31.5828 45.765 32.5884 45.0417C33.6075 44.2966 34.761 43.7711 36.049 43.4654C37.4075 43.1429 38.5842 43.0406 39.579 43.1585C40.5739 43.2765 41.539 43.5878 42.4742 44.0927L43.1588 47.0611C42.6091 46.6139 41.9874 46.2583 41.2938 45.9943C40.5961 45.7126 39.8503 45.5449 39.0563 45.4911C38.28 45.4331 37.4507 45.5088 36.5686 45.7182C35.3512 46.0072 34.2934 46.5845 33.3951 47.45C32.4968 48.3156 31.8475 49.3736 31.4474 50.6241C31.0609 51.8527 31.0347 53.1914 31.3689 54.6403Z" fill="black"/>
<path d="M48.1636 38.7831L48.8521 38.6219L51.2059 48.9654L50.5174 49.1267L48.1636 38.7831ZM52.4264 42.2544L53.3136 42.0466L51.0135 45.2392L54.9533 48.0877L54.0794 48.2924L50.1396 45.4439L52.4264 42.2544Z" fill="black"/>
<path d="M56.7656 57.6182C56.6469 57.0966 56.4396 56.7168 56.1437 56.4789C55.8477 56.2409 55.4526 56.1798 54.9583 56.2956C54.614 56.3762 54.3241 56.5326 54.0887 56.7646C53.8601 56.9858 53.6985 57.2564 53.604 57.5766C53.5183 57.8946 53.5157 58.2304 53.5961 58.5841L54.4411 62.2971L53.7525 62.4584L52.3644 56.3584L53.0529 56.1971L53.3426 57.4701C53.4098 56.9888 53.5829 56.5851 53.862 56.259C54.15 55.9308 54.5191 55.714 54.9693 55.6086C55.6049 55.4597 56.1367 55.5493 56.5647 55.8774C56.9907 56.1967 57.2811 56.6967 57.436 57.3774L58.3474 61.3822L57.6588 61.5435L56.7656 57.6182Z" fill="black"/>
<path d="M101.012 178.092L104.495 176.515L103.807 175.341" stroke="#FCEE21" stroke-width="1.5" stroke-miterlimit="10"/>
</g>
<path d="M30.785 199.5L26.315 207.81C25.885 208.61 25.365 209.215 24.755 209.625C24.155 210.035 23.5 210.24 22.79 210.24C22.24 210.24 21.67 210.12 21.08 209.88L21.665 208.035C22.085 208.165 22.435 208.23 22.715 208.23C23.015 208.23 23.285 208.16 23.525 208.02C23.765 207.87 23.985 207.64 24.185 207.33L24.275 207.21L20.135 199.5H22.73L25.52 205.14L28.4 199.5H30.785ZM36.2071 201.81C36.9571 201.81 37.6371 201.985 38.2471 202.335C38.8671 202.675 39.3521 203.16 39.7021 203.79C40.0521 204.41 40.2271 205.135 40.2271 205.965C40.2271 206.795 40.0521 207.525 39.7021 208.155C39.3521 208.775 38.8671 209.26 38.2471 209.61C37.6371 209.95 36.9571 210.12 36.2071 210.12C35.1771 210.12 34.3671 209.795 33.7771 209.145V212.91H31.4371V201.93H33.6721V202.86C34.2521 202.16 35.0971 201.81 36.2071 201.81ZM35.8021 208.2C36.4021 208.2 36.8921 208 37.2721 207.6C37.6621 207.19 37.8571 206.645 37.8571 205.965C37.8571 205.285 37.6621 204.745 37.2721 204.345C36.8921 203.935 36.4021 203.73 35.8021 203.73C35.2021 203.73 34.7071 203.935 34.3171 204.345C33.9371 204.745 33.7471 205.285 33.7471 205.965C33.7471 206.645 33.9371 207.19 34.3171 207.6C34.7071 208 35.2021 208.2 35.8021 208.2ZM45.6472 210.12C44.7972 210.12 44.0322 209.945 43.3522 209.595C42.6822 209.235 42.1572 208.74 41.7772 208.11C41.3972 207.48 41.2072 206.765 41.2072 205.965C41.2072 205.165 41.3972 204.45 41.7772 203.82C42.1572 203.19 42.6822 202.7 43.3522 202.35C44.0322 201.99 44.7972 201.81 45.6472 201.81C46.4972 201.81 47.2572 201.99 47.9272 202.35C48.5972 202.7 49.1222 203.19 49.5022 203.82C49.8822 204.45 50.0722 205.165 50.0722 205.965C50.0722 206.765 49.8822 207.48 49.5022 208.11C49.1222 208.74 48.5972 209.235 47.9272 209.595C47.2572 209.945 46.4972 210.12 45.6472 210.12ZM45.6472 208.2C46.2472 208.2 46.7372 208 47.1172 207.6C47.5072 207.19 47.7022 206.645 47.7022 205.965C47.7022 205.285 47.5072 204.745 47.1172 204.345C46.7372 203.935 46.2472 203.73 45.6472 203.73C45.0472 203.73 44.5522 203.935 44.1622 204.345C43.7722 204.745 43.5772 205.285 43.5772 205.965C43.5772 206.645 43.7722 207.19 44.1622 207.6C44.5522 208 45.0472 208.2 45.6472 208.2ZM55.2366 206.94H54.0216V210H51.6816V201.93H54.0216V205.065H55.2816L57.4716 201.93H59.9616L57.1416 205.8L60.1566 210H57.3966L55.2366 206.94ZM69.9187 203.775C70.8387 203.925 71.5437 204.27 72.0337 204.81C72.5237 205.34 72.7687 206 72.7687 206.79C72.7687 207.4 72.6087 207.965 72.2887 208.485C71.9687 208.995 71.4787 209.405 70.8187 209.715C70.1687 210.025 69.3687 210.18 68.4187 210.18C67.6787 210.18 66.9487 210.085 66.2287 209.895C65.5187 209.695 64.9137 209.415 64.4137 209.055L65.3587 207.195C65.7587 207.495 66.2187 207.73 66.7387 207.9C67.2687 208.06 67.8087 208.14 68.3587 208.14C68.9687 208.14 69.4487 208.025 69.7987 207.795C70.1487 207.555 70.3237 207.22 70.3237 206.79C70.3237 205.93 69.6687 205.5 68.3587 205.5H67.2487V203.895L69.4087 201.45H64.9387V199.5H72.2887V201.075L69.9187 203.775Z" fill="white"/>
</g>
<defs>
<radialGradient id="paint0_radial_189_31817" cx="0" cy="0" r="1" gradientUnits="userSpaceOnUse" gradientTransform="translate(110 112.5) rotate(-45.6437) scale(157.341)">
<stop stop-color="#9657EE"/>
<stop offset="1" stop-color="#9657EE" stop-opacity="0"/>
</radialGradient>
<clipPath id="clip0_189_31817">
<rect width="226" height="226" fill="white"/>
</clipPath>
<clipPath id="clip1_189_31817">
<rect width="200" height="168.817" fill="white" transform="translate(8 30)"/>
</clipPath>
</defs>
</svg>
