<svg width="226" height="226" viewBox="0 0 226 226" fill="none" xmlns="http://www.w3.org/2000/svg">
<g clip-path="url(#clip0_189_31868)">
<rect x="0.5" y="0.5" width="224.343" height="224.343" rx="16.5714" fill="url(#paint0_radial_189_31868)" fill-opacity="0.3" stroke="#67409F"/>
<g clip-path="url(#clip1_189_31868)">
<path d="M136.287 144.56C136.287 144.56 126.902 142.079 130.416 147.638" stroke="white" stroke-width="0.682857" stroke-miterlimit="10"/>
<path d="M137.283 140.498C137.283 140.498 126.677 137.242 130.512 143.973" stroke="white" stroke-width="0.682857" stroke-miterlimit="10"/>
<path d="M175.533 154.159C175.533 154.159 170.551 162.178 170.508 169.391" stroke="white" stroke-width="0.682857" stroke-miterlimit="10"/>
<path d="M143.712 161.519C143.712 161.519 142.855 184.55 126.098 189.711" stroke="white" stroke-width="0.682857" stroke-miterlimit="10"/>
<path d="M210.589 189.695H185.091" stroke="white" stroke-width="0.682857" stroke-miterlimit="10"/>
<path d="M138.087 154.599C141.001 156.609 139.951 155.876 139.951 157.551V173.149C139.951 173.548 139.871 173.942 139.715 174.31C139.558 174.677 139.329 175.011 139.041 175.292C138.752 175.573 138.409 175.796 138.032 175.947C137.656 176.099 137.252 176.176 136.844 176.175C136.023 176.175 135.235 175.856 134.655 175.289C134.074 174.721 133.748 173.952 133.748 173.149V156.975C133.748 156.012 132.966 152.788 133.673 152.212C134.101 151.877 135.719 152.882 136.437 153.458L138.087 154.599Z" fill="#67409F" stroke="#9657EE" stroke-width="0.682857" stroke-miterlimit="10"/>
<path d="M135.73 148.695C133.998 148.144 132.194 147.837 130.373 147.784C130.158 147.784 129.946 147.842 129.762 147.952C129.578 148.061 129.429 148.217 129.329 148.404C129.23 148.591 129.185 148.801 129.199 149.01C129.213 149.22 129.285 149.423 129.409 149.595C129.987 150.306 130.789 150.81 131.691 151.029C134.322 152.103 136.776 153.549 138.976 155.321C141.037 156.982 142.652 159.11 143.68 161.519C149.798 175.662 160.597 189.711 160.597 189.711H13" stroke="white" stroke-width="0.682857" stroke-miterlimit="10"/>
<path d="M131.048 156.264C131.079 156.1 131.146 155.946 131.245 155.811C131.344 155.677 131.473 155.565 131.622 155.485C131.77 155.405 131.935 155.358 132.105 155.348C132.274 155.338 132.444 155.364 132.601 155.426C133.78 155.74 133.855 155.876 134.594 156.096C136.33 156.62 137.487 157.834 137.176 158.818C136.866 159.802 135.28 159.865 133.48 159.666C132.604 159.69 131.745 159.42 131.048 158.902C130.63 158.431 130.855 156.724 131.048 156.264Z" stroke="white" stroke-width="0.682857" stroke-miterlimit="10"/>
<path d="M130.705 162.178C130.778 161.811 130.912 161.457 131.101 161.131C131.284 160.796 131.476 160.252 131.98 160.189C132.468 160.209 132.95 160.308 133.405 160.482C134.176 160.723 134.53 160.933 134.926 161.048C136.662 161.571 137.583 162.817 137.273 163.801C136.962 164.785 135.698 165.403 133.962 164.848C133.619 164.743 132.987 164.544 132.441 164.398C131.93 164.269 131.455 164.034 131.048 163.707C130.641 163.414 130.641 162.712 130.705 162.178Z" stroke="white" stroke-width="0.682857" stroke-miterlimit="10"/>
<path d="M131.273 166.512C131.434 165.999 131.369 165.308 132.087 165.162C133.072 165.163 134.048 165.337 134.969 165.675C136.705 166.188 137.862 167.402 137.551 168.386C137.241 169.37 135.623 169.621 133.855 169.234C133.041 169.056 131.776 169.067 131.305 168.627C130.834 168.187 131.101 167.046 131.273 166.512Z" stroke="white" stroke-width="0.682857" stroke-miterlimit="10"/>
<path d="M130.994 171.108C131.144 170.605 131.348 169.841 132.066 169.684C132.982 169.708 133.885 169.907 134.723 170.27C136.459 170.783 137.616 171.998 137.305 172.982C136.994 173.966 135.344 174.343 133.609 173.83C132.73 173.568 131.466 173.421 131.037 172.919C130.609 172.416 130.855 171.6 130.994 171.108Z" stroke="white" stroke-width="0.682857" stroke-miterlimit="10"/>
<path d="M160.651 189.7C160.651 189.7 175.179 204.796 184.747 190.517C194.315 176.237 194.39 165.832 193.865 154.149C193.34 142.466 187.565 128.04 167.786 128.313C148.008 128.585 139.199 130.406 139.199 130.406" stroke="white" stroke-width="0.682857" stroke-miterlimit="10"/>
<path d="M62.3427 56.2361C115.93 74.6501 135.909 122.567 138.206 127.708C138.23 127.769 138.241 127.834 138.238 127.898C138.234 127.963 138.217 128.027 138.186 128.085C138.156 128.143 138.113 128.194 138.061 128.234C138.009 128.275 137.949 128.304 137.885 128.32L134.486 129.108C134.304 129.098 133.866 129.264 133.79 129.072C131.786 124.701 110.469 80.2262 62.3427 56.2361Z" fill="#9657EE" stroke="#9657EE" stroke-width="0.682857" stroke-miterlimit="10"/>
<path d="M133.512 132.029C133.512 132.029 109.705 153.803 109.491 171.904C109.288 189.7 114.623 189.7 114.623 189.7" stroke="white" stroke-width="0.682857" stroke-miterlimit="10"/>
<path d="M140.503 136.268L139.164 130.573C138.971 129.756 138.714 129.118 138.489 128.312C138.264 127.505 138.007 126.647 137.096 126.396C136.62 126.318 136.132 126.333 135.662 126.44C135.191 126.547 134.747 126.744 134.355 127.019C133.963 127.295 133.63 127.643 133.376 128.044C133.122 128.446 132.952 128.892 132.875 129.358C132.221 134.268 132.779 134.676 132.779 134.676L140.503 136.268Z" fill="#67409F" stroke="#9657EE" stroke-width="0.682857" stroke-miterlimit="10"/>
<path d="M175.533 176.457C175.533 176.457 171.044 171.066 162.676 156.787C158.187 149.061 152.283 141.367 146.208 138.666C127.877 130.521 131.959 139.587 131.959 139.587" stroke="white" stroke-width="0.682857" stroke-miterlimit="10"/>
<path d="M62.4465 56.2361C62.4465 56.2361 42.903 70.8194 55.5992 83.9678C68.2954 97.1163 63.5598 100.623 57.8706 108.768C52.1814 116.912 60.142 124.68 60.142 124.68" stroke="white" stroke-width="0.682857" stroke-miterlimit="10"/>
<path d="M59.4028 133.034L59.4778 135.264C59.4778 135.264 55.5029 138.572 61.2135 138.111" stroke="white" stroke-width="0.682857" stroke-miterlimit="10"/>
<path d="M59.4027 133.034C61.2489 133.034 62.7455 131.164 62.7455 128.857C62.7455 126.55 61.2489 124.68 59.4027 124.68C57.5566 124.68 56.0599 126.55 56.0599 128.857C56.0599 131.164 57.5566 133.034 59.4027 133.034Z" fill="#BFAA3A" stroke="#BFAA3A" stroke-width="0.682857" stroke-miterlimit="10"/>
<path d="M59.4945 128.561C61.1248 128.561 62.4465 127.735 62.4465 126.716C62.4465 125.697 61.1248 124.502 59.4945 124.502C57.8641 124.502 56.5424 125.697 56.5424 126.716C56.5424 127.735 57.8641 128.561 59.4945 128.561Z" fill="#FCEE21" stroke="#FCEE21" stroke-width="0.682857" stroke-miterlimit="10"/>
<path d="M131.616 164.157C131.616 164.157 125.498 171.548 119.07 174.835" stroke="white" stroke-width="0.682857" stroke-miterlimit="10"/>
<path d="M164.926 112.076C167.787 109.982 172.426 104.748 170.883 92.6777C170.633 90.9022 169.703 89.2856 168.279 88.1553C167.089 87.2012 165.732 86.4669 164.272 85.9883C164.029 85.9039 163.813 85.7575 163.648 85.5642C163.482 85.3709 163.372 85.1378 163.329 84.8891C162.922 82.5651 161.026 76.5142 152.369 78.5137C152.369 78.5137 147.708 79.4873 145.598 82.1777C143.487 84.8681 142.03 81.6334 142.03 81.6334C142.03 81.6334 139.887 75.8233 136.18 79.8537C132.655 83.6224 132.28 89.5266 136.791 91.8611C137.032 91.9855 137.304 92.0398 137.576 92.0175C137.847 91.9953 138.106 91.8974 138.323 91.7355C139.365 90.9732 140.561 90.4361 141.832 90.16C143.103 89.8838 144.419 89.8749 145.694 90.1338C151.18 90.9294 153.29 87.4434 153.29 87.4434C153.29 87.4434 154.608 93.0336 159.001 93.1278C159.001 93.1278 154.555 107.428 159.58 111.971C160.327 112.578 161.263 112.919 162.234 112.938C163.205 112.957 164.155 112.653 164.926 112.076Z" fill="white" stroke="white" stroke-width="0.682857" stroke-miterlimit="10"/>
<path d="M163.923 104.207C165.349 104.207 166.506 102.72 166.506 100.886C166.506 99.0515 165.349 97.5646 163.923 97.5646C162.496 97.5646 161.339 99.0515 161.339 100.886C161.339 102.72 162.496 104.207 163.923 104.207Z" fill="#1E2634"/>
<path d="M163.245 102.799C163.89 102.799 164.413 102.288 164.413 101.658C164.413 101.027 163.89 100.517 163.245 100.517C162.6 100.517 162.077 101.027 162.077 101.658C162.077 102.288 162.6 102.799 163.245 102.799Z" fill="white"/>
<path d="M138.355 91.6832C138.355 91.6832 132.548 121.707 145.855 122.701C146.119 122.711 146.375 122.793 146.595 122.937C146.814 123.082 146.988 123.283 147.098 123.518C147.663 125.356 147.806 127.294 147.515 129.192" stroke="white" stroke-width="0.682857" stroke-miterlimit="10"/>
<path d="M163.169 112.903C163.169 112.903 163.072 126.585 166.383 128.323" stroke="white" stroke-width="0.682857" stroke-miterlimit="10"/>
<path d="M145.383 101.168C145.383 101.168 140.937 109.877 146.198 110.171" stroke="white" stroke-width="0.682857" stroke-miterlimit="10"/>
<path d="M152.744 111.333C152.744 111.333 152.251 115.918 148.373 116.075" stroke="white" stroke-width="0.682857" stroke-miterlimit="10"/>
<path d="M150.644 105.177C151.283 105.177 151.801 104.619 151.801 103.931C151.801 103.243 151.283 102.686 150.644 102.686C150.005 102.686 149.487 103.243 149.487 103.931C149.487 104.619 150.005 105.177 150.644 105.177Z" fill="white" stroke="white" stroke-width="0.682857" stroke-miterlimit="10"/>
<path d="M140.723 105.669C141.119 105.669 141.441 105.172 141.441 104.559C141.441 103.947 141.119 103.45 140.723 103.45C140.326 103.45 140.005 103.947 140.005 104.559C140.005 105.172 140.326 105.669 140.723 105.669Z" fill="white" stroke="white" stroke-width="0.682857" stroke-miterlimit="10"/>
<path d="M154.24 97.9002C154.401 97.3379 153.539 96.6104 152.313 96.2753C151.088 95.9401 149.965 96.1243 149.803 96.6867C149.642 97.249 150.505 97.9765 151.73 98.3116C152.955 98.6467 154.079 98.4625 154.24 97.9002Z" fill="white" stroke="white" stroke-width="0.682857" stroke-miterlimit="10"/>
<path d="M141.545 98.1376C142.586 97.7389 143.278 97.036 143.09 96.5677C142.902 96.0994 141.906 96.0429 140.865 96.4416C139.823 96.8404 139.131 97.5432 139.319 98.0115C139.507 98.4799 140.504 98.5363 141.545 98.1376Z" fill="white" stroke="white" stroke-width="0.682857" stroke-miterlimit="10"/>
<path d="M141.151 163.435C141.814 163.435 142.351 162.117 142.351 160.493C142.351 158.868 141.814 157.551 141.151 157.551C140.489 157.551 139.951 158.868 139.951 160.493C139.951 162.117 140.489 163.435 141.151 163.435Z" stroke="white" stroke-width="0.682857" stroke-miterlimit="10"/>
<path d="M159.655 151.888C159.655 151.888 155.369 166.156 146.465 167.277" stroke="white" stroke-width="0.682857" stroke-miterlimit="10"/>
<path d="M125.369 170.438C125.369 170.438 122.562 178.425 131.616 187.073" stroke="#EFEFEF" stroke-width="0.682857" stroke-miterlimit="10"/>
</g>
<g clip-path="url(#clip2_189_31868)">
<path d="M60.0197 153.349C67.9422 153.349 74.3646 152.258 74.3646 150.912C74.3646 149.567 67.9422 148.476 60.0197 148.476C52.0973 148.476 45.6748 149.567 45.6748 150.912C45.6748 152.258 52.0973 153.349 60.0197 153.349Z" stroke="white" stroke-width="0.682857" stroke-miterlimit="10"/>
<path d="M87.2368 169.709C87.3133 180.082 74.862 188.496 59.599 188.496C44.336 188.496 31.8655 180.082 31.9516 169.709C32.0663 158.288 39.0475 156.975 39.0475 156.975C39.0475 156.975 41.2757 155.614 41.6487 157.517C42.0217 159.421 44.6229 159.858 45.6748 159.24C46.7268 158.621 49.0698 157.641 50.5617 159.877C50.7908 160.243 51.129 160.528 51.529 160.693C51.929 160.857 52.3707 160.893 52.7923 160.796C53.2139 160.698 53.5943 160.472 53.8802 160.149C54.1662 159.825 54.3434 159.421 54.387 158.992C54.3487 157.66 58.0784 156.565 58.4801 158.516C58.8817 160.467 62.5636 160.249 62.5636 158.516C62.5636 156.784 65.6525 156.308 66.0255 157.327C66.3985 158.345 69.9847 158.888 70.7306 157.327C71.4765 155.766 73.9439 156.185 75.5123 156.975C77.0806 157.765 80.0931 156.975 80.0931 156.975C80.0931 156.975 87.1603 158.935 87.2368 169.709Z" fill="#00FFFF" stroke="white" stroke-width="0.682857" stroke-miterlimit="10"/>
<path d="M73.5135 151.645V153.415" stroke="white" stroke-width="1.36571" stroke-miterlimit="10"/>
<path d="M46.3921 151.588V153.358" stroke="white" stroke-width="1.36571" stroke-miterlimit="10"/>
<path d="M48.9742 152.473C48.9742 152.473 38.751 154.576 35.5856 159.011" stroke="white" stroke-width="0.682857" stroke-miterlimit="10"/>
<path d="M70.9697 152.492C74.8546 153.479 78.494 155.251 81.6614 157.698" stroke="white" stroke-width="0.682857" stroke-miterlimit="10"/>
<path d="M37.1221 163.615H37.986V174.609H37.1221V163.615ZM37.609 164.431V163.615H39.6979C40.3889 163.615 41.0014 163.745 41.5354 164.007C42.0799 164.269 42.5092 164.641 42.8233 165.122C43.1374 165.604 43.2945 166.185 43.2945 166.866C43.2945 167.536 43.1374 168.117 42.8233 168.609C42.5092 169.101 42.0799 169.478 41.5354 169.74C41.0014 169.991 40.3889 170.117 39.6979 170.117H37.609V169.3H39.6979C40.5041 169.3 41.1585 169.091 41.6611 168.672C42.1637 168.253 42.415 167.651 42.415 166.866C42.415 166.07 42.1637 165.468 41.6611 165.06C41.1585 164.641 40.5041 164.431 39.6979 164.431H37.609Z" fill="black"/>
<path d="M80.2487 161.366L80.8725 161.963L73.2682 169.903L72.6443 169.306L80.2487 161.366ZM80.0354 162.292L80.6003 161.702L82.1089 163.147C82.608 163.625 82.9598 164.143 83.1644 164.702C83.3765 165.267 83.4295 165.833 83.3232 166.398C83.2169 166.963 82.9284 167.491 82.4576 167.983C81.9941 168.467 81.4788 168.778 80.9115 168.916C80.3443 169.054 79.7735 169.029 79.1993 168.842C78.6398 168.654 78.1105 168.321 77.6114 167.843L76.1029 166.398L76.6678 165.808L78.1763 167.253C78.7586 167.811 79.3761 168.112 80.0287 168.158C80.6814 168.203 81.2793 167.942 81.8224 167.375C82.3729 166.8 82.6078 166.191 82.5273 165.549C82.454 164.899 82.1262 164.295 81.544 163.737L80.0354 162.292Z" fill="black"/>
<path d="M50.1855 176.496L50.877 175.978L57.4655 184.779L56.774 185.297L50.1855 176.496ZM51.0647 176.858L50.5752 176.204L52.2474 174.952C52.8006 174.538 53.3694 174.276 53.9538 174.165C54.5465 174.048 55.1129 174.089 55.653 174.286C56.1931 174.483 56.6671 174.854 57.075 175.399C57.4765 175.936 57.6991 176.495 57.7425 177.077C57.786 177.659 57.6682 178.218 57.3892 178.754C57.1123 179.275 56.6973 179.743 56.1441 180.157L54.4719 181.409L53.9825 180.755L55.6547 179.503C56.3001 179.02 56.6984 178.46 56.8498 177.824C57.0011 177.187 56.8415 176.555 56.3709 175.926C55.894 175.289 55.332 174.958 54.685 174.932C54.0316 174.898 53.3823 175.123 52.7369 175.606L51.0647 176.858Z" fill="black"/>
<path d="M43.9029 172.809C43.9029 172.46 43.826 172.188 43.6721 171.993C43.5182 171.798 43.2756 171.7 42.9442 171.7C42.7134 171.7 42.5062 171.756 42.3228 171.869C42.1452 171.975 42.0032 172.123 41.8967 172.312C41.7961 172.502 41.7458 172.715 41.7458 172.952V175.437H41.2841V171.354H41.7458V172.206C41.8582 171.91 42.0269 171.679 42.2518 171.513C42.4826 171.348 42.7489 171.265 43.0507 171.265C43.4768 171.265 43.8023 171.401 44.0272 171.673C44.2521 171.94 44.3645 172.301 44.3645 172.756V175.437H43.9029V172.809Z" fill="black"/>
<path d="M79.3795 174.019C79.621 173.766 79.7537 173.517 79.7777 173.269C79.8017 173.022 79.694 172.783 79.4546 172.554C79.2879 172.394 79.0995 172.292 78.8892 172.246C78.6873 172.2 78.4824 172.209 78.2744 172.272C78.0708 172.339 77.8871 172.458 77.7234 172.629L76.0041 174.424L75.6707 174.105L78.4952 171.156L78.8286 171.475L78.2391 172.091C78.525 171.955 78.8065 171.905 79.0835 171.94C79.3648 171.98 79.6144 172.105 79.8324 172.314C80.1402 172.608 80.2811 172.932 80.2552 173.284C80.2334 173.632 80.0649 173.97 79.7497 174.299L77.8954 176.236L77.562 175.916L79.3795 174.019Z" fill="black"/>
<path d="M61.3995 179.925C61.1903 179.645 60.9656 179.473 60.7253 179.409C60.4851 179.345 60.2324 179.412 59.9671 179.611C59.7823 179.749 59.6502 179.918 59.5707 180.118C59.4924 180.31 59.4674 180.514 59.4956 180.729C59.5285 180.941 59.6159 181.142 59.7578 181.331L61.2474 183.321L60.8779 183.598L58.4307 180.329L58.8002 180.052L59.3109 180.734C59.2236 180.43 59.2203 180.144 59.301 179.877C59.3865 179.606 59.55 179.38 59.7917 179.199C60.1328 178.944 60.4749 178.857 60.8181 178.941C61.1577 179.019 61.4641 179.241 61.7372 179.605L63.3438 181.752L62.9743 182.028L61.3995 179.925Z" fill="black"/>
</g>
<path d="M25.785 199.5L21.315 207.81C20.885 208.61 20.365 209.215 19.755 209.625C19.155 210.035 18.5 210.24 17.79 210.24C17.24 210.24 16.67 210.12 16.08 209.88L16.665 208.035C17.085 208.165 17.435 208.23 17.715 208.23C18.015 208.23 18.285 208.16 18.525 208.02C18.765 207.87 18.985 207.64 19.185 207.33L19.275 207.21L15.135 199.5H17.73L20.52 205.14L23.4 199.5H25.785ZM31.2071 201.81C31.9571 201.81 32.6371 201.985 33.2471 202.335C33.8671 202.675 34.3521 203.16 34.7021 203.79C35.0521 204.41 35.2271 205.135 35.2271 205.965C35.2271 206.795 35.0521 207.525 34.7021 208.155C34.3521 208.775 33.8671 209.26 33.2471 209.61C32.6371 209.95 31.9571 210.12 31.2071 210.12C30.1771 210.12 29.3671 209.795 28.7771 209.145V212.91H26.4371V201.93H28.6721V202.86C29.2521 202.16 30.0971 201.81 31.2071 201.81ZM30.8021 208.2C31.4021 208.2 31.8921 208 32.2721 207.6C32.6621 207.19 32.8571 206.645 32.8571 205.965C32.8571 205.285 32.6621 204.745 32.2721 204.345C31.8921 203.935 31.4021 203.73 30.8021 203.73C30.2021 203.73 29.7071 203.935 29.3171 204.345C28.9371 204.745 28.7471 205.285 28.7471 205.965C28.7471 206.645 28.9371 207.19 29.3171 207.6C29.7071 208 30.2021 208.2 30.8021 208.2ZM40.6472 210.12C39.7972 210.12 39.0322 209.945 38.3522 209.595C37.6822 209.235 37.1572 208.74 36.7772 208.11C36.3972 207.48 36.2072 206.765 36.2072 205.965C36.2072 205.165 36.3972 204.45 36.7772 203.82C37.1572 203.19 37.6822 202.7 38.3522 202.35C39.0322 201.99 39.7972 201.81 40.6472 201.81C41.4972 201.81 42.2572 201.99 42.9272 202.35C43.5972 202.7 44.1222 203.19 44.5022 203.82C44.8822 204.45 45.0722 205.165 45.0722 205.965C45.0722 206.765 44.8822 207.48 44.5022 208.11C44.1222 208.74 43.5972 209.235 42.9272 209.595C42.2572 209.945 41.4972 210.12 40.6472 210.12ZM40.6472 208.2C41.2472 208.2 41.7372 208 42.1172 207.6C42.5072 207.19 42.7022 206.645 42.7022 205.965C42.7022 205.285 42.5072 204.745 42.1172 204.345C41.7372 203.935 41.2472 203.73 40.6472 203.73C40.0472 203.73 39.5522 203.935 39.1622 204.345C38.7722 204.745 38.5772 205.285 38.5772 205.965C38.5772 206.645 38.7722 207.19 39.1622 207.6C39.5522 208 40.0472 208.2 40.6472 208.2ZM50.2366 206.94H49.0216V210H46.6816V201.93H49.0216V205.065H50.2816L52.4716 201.93H54.9616L52.1416 205.8L55.1566 210H52.3966L50.2366 206.94ZM67.8587 208.02V210H59.9237V208.425L63.9737 204.6C64.4037 204.19 64.6937 203.84 64.8437 203.55C64.9937 203.25 65.0687 202.955 65.0687 202.665C65.0687 202.245 64.9237 201.925 64.6337 201.705C64.3537 201.475 63.9387 201.36 63.3887 201.36C62.9287 201.36 62.5137 201.45 62.1437 201.63C61.7737 201.8 61.4637 202.06 61.2137 202.41L59.4437 201.27C59.8537 200.66 60.4187 200.185 61.1387 199.845C61.8587 199.495 62.6837 199.32 63.6137 199.32C64.3937 199.32 65.0737 199.45 65.6537 199.71C66.2437 199.96 66.6987 200.32 67.0187 200.79C67.3487 201.25 67.5137 201.795 67.5137 202.425C67.5137 202.995 67.3937 203.53 67.1537 204.03C66.9137 204.53 66.4487 205.1 65.7587 205.74L63.3437 208.02H67.8587Z" fill="white"/>
</g>
<defs>
<radialGradient id="paint0_radial_189_31868" cx="0" cy="0" r="1" gradientUnits="userSpaceOnUse" gradientTransform="translate(110 112.5) rotate(-45.6437) scale(157.341)">
<stop stop-color="#9657EE"/>
<stop offset="1" stop-color="#9657EE" stop-opacity="0"/>
</radialGradient>
<clipPath id="clip0_189_31868">
<rect width="226" height="226" fill="white"/>
</clipPath>
<clipPath id="clip1_189_31868">
<rect width="200" height="157.196" fill="white" transform="translate(13 40)"/>
</clipPath>
<clipPath id="clip2_189_31868">
<rect width="131.791" height="40.9714" fill="white" transform="translate(16 148)"/>
</clipPath>
</defs>
</svg>
