<svg width="226" height="226" viewBox="0 0 226 226" fill="none" xmlns="http://www.w3.org/2000/svg">
<g clip-path="url(#clip0_303_357)">
<rect x="0.5" y="0.5" width="224.343" height="224.343" rx="16.5714" fill="url(#paint0_radial_303_357)" fill-opacity="0.3" stroke="#67409F"/>
<g clip-path="url(#clip1_303_357)">
<path d="M24.5 190.333H82.7311" stroke="white" stroke-miterlimit="10"/>
<path d="M115.502 189.33L200 190" stroke="white" stroke-miterlimit="10"/>
<path d="M92.1495 111.625C92.1495 111.625 90.1557 105.756 84.5019 104.204C78.8481 102.652 80.7359 95.2304 85.9466 95.1147C85.9466 95.1147 82.2866 88.0208 93.9217 89.0232C93.9217 89.0232 96.9075 77.833 104.44 85.5823C104.44 85.5823 112.521 82.5944 114.514 87.6931C115.709 90.7389 113.551 93.2449 110.536 94.44C108.433 95.2678 106.114 95.3663 103.948 94.7195C103.948 94.7195 104.911 100.772 97.9574 98.4689C97.9574 98.4689 95.7999 97.2833 96.1274 100.31C96.4548 103.336 92.2747 100.175 93.5653 104.165C93.5653 104.165 99.3443 109.717 94.7404 110.498H93.652C93.3498 110.583 93.0767 110.75 92.8622 110.98L92.1495 111.625Z" fill="white" stroke="white" stroke-width="0.762115" stroke-miterlimit="10"/>
<path d="M105.817 86.816C105.817 86.816 112.27 85.3028 112.395 89.11" stroke="black" stroke-width="0.762115" stroke-miterlimit="10"/>
<path d="M97.5625 86.0931C97.5625 86.0931 100.096 82.5269 102.022 86.0931" stroke="black" stroke-width="0.762115" stroke-miterlimit="10"/>
<path d="M106.327 124.059C108.148 124.423 110.028 124.374 111.827 123.914C116.73 122.526 121.632 116.628 110.96 94.575" stroke="white" stroke-width="0.762115" stroke-miterlimit="10"/>
<path d="M98.8916 119.972C98.8916 119.972 89.6548 123.828 92.1494 111.625" stroke="white" stroke-width="0.762115" stroke-miterlimit="10"/>
<path d="M96.0022 113.322C96.0022 113.322 91.8413 116.907 97.0906 117.534" stroke="white" stroke-width="0.762115" stroke-miterlimit="10"/>
<path d="M103.236 114.526C103.236 114.526 104.94 118.632 109.101 117.534" stroke="white" stroke-width="0.762115" stroke-miterlimit="10"/>
<path d="M106.173 104.483C106.173 104.483 112.501 110.546 108.051 112.493" stroke="white" stroke-width="0.762115" stroke-miterlimit="10"/>
<path d="M102.137 109.698C102.744 109.698 103.235 109.206 103.235 108.599C103.235 107.992 102.744 107.5 102.137 107.5C101.531 107.5 101.039 107.992 101.039 108.599C101.039 109.206 101.531 109.698 102.137 109.698Z" fill="white" stroke="white" stroke-width="0.762115" stroke-miterlimit="10"/>
<path d="M110.806 106.266C111.444 106.266 111.962 105.749 111.962 105.11C111.962 104.471 111.444 103.953 110.806 103.953C110.168 103.953 109.65 104.471 109.65 105.11C109.65 105.749 110.168 106.266 110.806 106.266Z" fill="white" stroke="white" stroke-width="0.762115" stroke-miterlimit="10"/>
<path d="M99.7447 104.92C100.888 104.132 101.516 103.059 101.148 102.524C100.779 101.99 99.5539 102.195 98.4108 102.984C97.2677 103.772 96.6397 104.845 97.008 105.38C97.3763 105.915 98.6016 105.709 99.7447 104.92Z" fill="white" stroke="white" stroke-width="0.762115" stroke-miterlimit="10"/>
<path d="M107.406 100.705C108.64 100.705 109.641 100.243 109.641 99.6737C109.641 99.1041 108.64 98.6424 107.406 98.6424C106.172 98.6424 105.172 99.1041 105.172 99.6737C105.172 100.243 106.172 100.705 107.406 100.705Z" fill="white" stroke="white" stroke-width="0.762115" stroke-miterlimit="10"/>
<path d="M127.199 155.191C129.694 149.591 126.92 149.649 125.273 150.372C124.396 150.777 124.011 151.837 123.645 152.733C120.862 159.48 118.829 154.545 118.068 152.319C117.957 151.939 117.756 151.591 117.483 151.304C117.21 151.018 116.872 150.8 116.498 150.671C116.321 150.597 116.129 150.564 115.938 150.575C115.746 150.585 115.559 150.639 115.391 150.731C115.222 150.824 115.077 150.953 114.965 151.109C114.854 151.266 114.778 151.445 114.745 151.634C114.62 152.063 114.585 152.514 114.643 152.957C114.701 153.4 114.851 153.826 115.083 154.208C116.084 155.913 116.497 157.901 116.257 159.864C116.017 161.828 115.137 163.657 113.753 165.07C113.753 165.07 108.87 168.357 110.739 172.27C112.607 176.183 117.394 181.909 124.059 178.757C130.724 175.605 137.823 160.714 137.823 160.714C137.823 160.714 138.632 155.471 134.548 157.601" stroke="white" stroke-width="0.762115" stroke-miterlimit="10"/>
<path d="M130.349 156.936C130.349 156.936 134.924 150.651 127.613 151.538" stroke="white" stroke-width="0.762115" stroke-miterlimit="10"/>
<path d="M133.518 159.374C133.518 159.374 138.401 153.205 131.774 153.948" stroke="white" stroke-width="0.762115" stroke-miterlimit="10"/>
<path d="M110.305 169.292L98.8916 179.74C99.614 175.383 96.9171 158.854 96.9171 158.854" stroke="white" stroke-width="0.762115" stroke-miterlimit="10"/>
<path d="M96.9171 120.348C100.086 125.379 98.4967 132.473 98.4967 132.473C79.0021 132.29 75.9007 150.063 75.9007 150.063C74.4173 161.551 75.6444 173.227 79.4837 184.154C85.8695 201.446 100.269 200.54 105.778 198.313C111.288 196.087 124.079 178.844 124.079 178.844" stroke="white" stroke-width="0.762115" stroke-miterlimit="10"/>
<path d="M98.4967 132.473C98.4967 132.473 109.93 142.468 111.827 132.473V123.914" stroke="white" stroke-width="0.762115" stroke-miterlimit="10"/>
<path d="M147.975 189.889C147.975 189.889 140.269 169.282 140.876 156.675C140.876 156.675 169.116 169.658 175.483 151.499C181.85 133.341 165.639 116.358 165.639 116.358" stroke="white" stroke-width="0.762115" stroke-miterlimit="10"/>
<path d="M111.827 132.473C119.949 130.397 128.419 130.069 136.677 131.509C150.161 133.977 153.051 136.868 153.051 136.868C153.051 136.868 150.161 123.616 150.498 118.941" stroke="white" stroke-width="0.762115" stroke-miterlimit="10"/>
<path d="M124.648 179.042L121.497 189.359L115.545 189.369L121.599 182.471L124.648 179.042Z" fill="white" stroke="white" stroke-width="0.762115" stroke-miterlimit="10"/>
<path d="M104.324 174.767L98.516 170.612L99.1228 175.056L98.8916 179.74L104.324 174.902" fill="white"/>
<path d="M104.324 174.767L98.516 170.612L99.1228 175.056L98.8916 179.74L104.324 174.902" stroke="white" stroke-width="0.762115" stroke-miterlimit="10"/>
<path d="M183.776 90.9798L162.875 96.2906C162.686 96.3417 162.486 96.3438 162.296 96.2966C162.106 96.2494 161.93 96.1544 161.787 96.0207C160.38 94.7292 156.528 90.3919 157.25 82.151C157.265 81.9951 157.322 81.8461 157.415 81.7204C157.509 81.5947 157.635 81.4969 157.78 81.4378L178.777 72.9463" fill="#FF6666"/>
<path d="M183.776 90.9798L162.875 96.2906C162.686 96.3417 162.486 96.3438 162.296 96.2966C162.106 96.2494 161.93 96.1544 161.787 96.0207C160.38 94.7292 156.528 90.3919 157.25 82.151C157.265 81.9951 157.322 81.8461 157.415 81.7204C157.509 81.5947 157.635 81.4969 157.78 81.4378L178.777 72.9463" stroke="white" stroke-width="0.762115" stroke-miterlimit="10"/>
<path d="M184.938 91.0661C187.838 90.3182 189.123 85.5721 187.807 80.4655C186.492 75.3588 183.075 71.8253 180.175 72.5732C177.275 73.3211 175.991 78.0672 177.306 83.1739C178.621 88.2805 182.038 91.814 184.938 91.0661Z" fill="#BE4C4C" stroke="white" stroke-width="0.763409" stroke-miterlimit="10"/>
<path d="M184.196 87.7239C185.424 87.4071 185.766 84.6138 184.96 81.4847C184.154 78.3557 182.506 76.0758 181.278 76.3925C180.049 76.7093 179.707 79.5026 180.513 82.6317C181.319 85.7607 182.968 88.0406 184.196 87.7239Z" fill="#FFFF00" stroke="white" stroke-width="0.763409" stroke-miterlimit="10"/>
<path d="M134.038 92.8497C134.045 92.7751 134.033 92.6999 134.003 92.6314C133.972 92.5628 133.925 92.5034 133.865 92.4587C133.805 92.4141 133.734 92.3858 133.66 92.3766C133.585 92.3674 133.51 92.3776 133.441 92.4063L120.669 97.8038C119.864 98.2167 119.237 98.9102 118.907 99.7534C118.577 100.597 118.566 101.532 118.877 102.382C119.841 105.746 123.337 105.11 123.337 105.11L135.617 101.813C135.699 101.791 135.775 101.751 135.839 101.696C135.904 101.64 135.955 101.571 135.989 101.494C136.023 101.416 136.039 101.332 136.037 101.247C136.034 101.162 136.013 101.079 135.974 101.004C134.627 98.5019 133.96 95.6904 134.038 92.8497Z" fill="#FF6666" stroke="white" stroke-width="0.762115" stroke-miterlimit="10"/>
<path d="M172.218 75.5969C172.218 75.5969 169.56 88.5606 177.698 92.5413" stroke="white" stroke-width="0.762115" stroke-miterlimit="10"/>
<path d="M158.233 90.4304C159.016 92.576 160.221 94.5425 161.777 96.2135C162.74 97.1773 159.504 98.2086 157.732 97.6882C157.308 97.5629 156.672 96.5026 155.95 94.6713C155.472 93.462 155.063 92.2263 154.727 90.9702C154.298 89.4722 153.976 87.9454 153.764 86.4016C153.59 84.8691 153.667 83.8474 154.033 83.7414C154.399 83.6353 156.634 81.4089 157.154 82.4498C157.481 83.1245 156.798 83.6835 157.366 87.1341C157.539 87.9148 157.992 89.5341 158.233 90.4304Z" fill="#BE4C4C" stroke="white" stroke-width="0.762115" stroke-miterlimit="10"/>
<path d="M155.102 92.3388C155.481 94.214 156.288 95.9759 157.462 97.4857C158.377 98.4496 155.767 99.5098 153.995 98.9893C153.571 98.864 153.542 98.3918 152.81 96.5605C152.338 95.3498 151.933 94.1143 151.596 92.8593C151.166 91.3615 150.844 89.8347 150.633 88.2907C150.46 86.7582 150.537 85.7365 150.903 85.6305C151.269 85.5245 153.157 83.5871 153.677 84.6666C154.004 85.3317 153.677 85.6305 154.236 89.0521C154.466 90.1624 154.755 91.2595 155.102 92.3388Z" fill="#BE4C4C" stroke="white" stroke-width="0.762115" stroke-miterlimit="10"/>
<path d="M151.731 92.8208C152.212 94.7473 152.827 96.6378 153.571 98.4785C154.062 99.7219 152.03 100.348 150.258 99.8279C149.834 99.7026 149.526 99.0472 148.793 97.2159C148.368 96.1137 148.007 94.9873 147.715 93.8424C147.365 92.6959 147.129 91.5174 147.012 90.3244C146.838 88.7919 146.79 87.4329 147.166 87.3654C147.541 87.298 149.709 85.1968 150.229 86.2474C150.556 86.9124 150.229 85.5245 150.758 88.975C150.893 89.775 151.144 90.6136 151.731 92.8208Z" fill="#BE4C4C" stroke="white" stroke-width="0.762115" stroke-miterlimit="10"/>
<path d="M147.513 93.2738C148.196 95.1378 149.035 97.4956 149.797 99.4009C150.414 100.586 148.63 100.724 146.809 100.406C146.366 100.329 145.991 99.7026 145.066 97.958C144.616 97.1606 144.23 96.3292 143.91 95.4713C143.53 94.7341 143.239 93.9544 143.043 93.1485C142.706 91.6352 142.254 89.2931 142.61 89.1582C142.966 89.0232 145.23 87.2305 145.856 88.1943C146.251 88.8208 146.368 88.7313 146.749 90.2555C146.965 91.2465 147.113 92.3414 147.513 93.2738Z" fill="#BE4C4C" stroke="white" stroke-width="0.762115" stroke-miterlimit="10"/>
<path d="M143.641 94.7966C144.27 96.4434 144.993 98.0524 145.808 99.6158C146.318 100.753 143.236 100.994 141.531 100.907C140.934 100.907 140.51 101.235 139.749 99.5676C139.433 98.8143 139.176 98.0377 138.979 97.2448C138.631 96.2455 138.392 95.2113 138.266 94.1605C138.035 92.734 138.43 91.0762 138.767 90.9702C139.104 90.8642 141.656 88.7533 142.128 89.7075C142.465 90.3148 142.35 89.8618 142.774 91.8376C143.01 92.8387 143.299 93.8264 143.641 94.7966Z" fill="#BE4C4C" stroke="white" stroke-width="0.762115" stroke-miterlimit="10"/>
<path d="M138.613 95.8569C138.962 97.388 139.439 98.8872 140.038 100.339C140.433 101.303 138.536 101.871 136.918 101.495C136.532 101.409 136.051 101.495 135.463 100.011C135.109 99.2472 134.822 98.4538 134.606 97.64C134.357 96.9109 134.201 96.153 134.144 95.3846C134.047 94.1605 134.404 92.3485 134.751 92.2617C135.097 92.175 137.428 90.8738 137.852 91.7027C138.122 92.2232 137.852 90.7389 138.199 93.4954C138.241 94.2964 138.38 95.0893 138.613 95.8569Z" fill="#BE4C4C" stroke="white" stroke-width="0.762115" stroke-miterlimit="10"/>
<path d="M150.489 118.989C150.489 118.989 148.659 105.341 143.236 102.604C143.236 102.604 141.396 96.0786 145.066 95.1243C148.736 94.1701 146.896 98.6809 146.896 98.6809C146.896 98.6809 145.933 100.609 147.464 100.609C148.996 100.609 160.448 98.3243 160.448 98.3243C160.448 98.3243 160.14 111.519 165.639 116.406C165.639 116.31 160.66 124.348 150.489 118.989Z" fill="white" stroke="white" stroke-width="0.762115" stroke-miterlimit="10"/>
<path d="M142.466 87.5775C143.371 88.8979 143.429 90.469 142.658 90.9798C141.888 91.4907 140.452 90.9124 139.537 89.5919C139.123 88.9847 138.43 88.3582 138.362 87.7895C138.295 87.2208 138.911 86.4883 139.326 86.1799C139.74 85.8715 140.53 85.4667 141.136 85.7847C141.743 86.1028 142.042 86.9606 142.466 87.5775Z" fill="white" stroke="white" stroke-width="0.762115" stroke-miterlimit="10"/>
<path d="M146.077 85.0811C146.983 86.4112 147.041 87.9726 146.27 88.4931C145.5 89.0136 144.064 88.4256 143.149 87.0955C142.668 86.4016 141.888 85.6594 141.878 85.0233C141.868 84.3871 142.581 83.9534 142.957 83.6932C143.332 83.4329 144.113 82.9028 144.748 83.2498C145.384 83.5968 145.673 84.5028 146.077 85.0811Z" fill="white" stroke="white" stroke-width="0.762115" stroke-miterlimit="10"/>
<path d="M150.306 83.5004C151.221 84.8305 151.269 86.3919 150.498 86.9124C149.728 87.4329 148.302 86.8449 147.387 85.5148C146.896 84.8112 146.097 83.8763 146.087 83.2305C146.077 82.5848 146.819 82.3631 147.195 82.1028C147.445 81.8758 147.756 81.7274 148.09 81.6759C148.424 81.6245 148.766 81.6724 149.073 81.8137C149.526 82.0836 149.94 82.9703 150.306 83.5004Z" fill="white" stroke="white" stroke-width="0.762115" stroke-miterlimit="10"/>
<path d="M154.37 81.8426C155.285 83.1631 155.334 84.7341 154.563 85.2546C153.792 85.7751 152.367 85.1871 151.452 83.857C150.932 83.1052 150.2 82.2089 150.229 81.5438C150.229 81.033 150.903 80.686 151.259 80.445C151.616 80.2041 152.28 79.7125 152.906 80.0499C153.498 80.555 153.993 81.1622 154.37 81.8426Z" fill="white" stroke="white" stroke-width="0.762115" stroke-miterlimit="10"/>
<path d="M83.3267 81.5149C84.5768 81.5149 85.5901 80.8115 85.5901 79.9438C85.5901 79.0762 84.5768 78.3728 83.3267 78.3728C82.0766 78.3728 81.0632 79.0762 81.0632 79.9438C81.0632 80.8115 82.0766 81.5149 83.3267 81.5149Z" fill="white" stroke="white" stroke-width="0.762115" stroke-miterlimit="10"/>
<path d="M78.4821 76.9367C80.2747 76.9367 81.728 75.9139 81.728 74.6523C81.728 73.3908 80.2747 72.368 78.4821 72.368C76.6894 72.368 75.2362 73.3908 75.2362 74.6523C75.2362 75.9139 76.6894 76.9367 78.4821 76.9367Z" fill="white" stroke="white" stroke-width="0.762115" stroke-miterlimit="10"/>
<path d="M76.6519 51.6991C78.9347 55.4002 85.6287 68.6434 63.2542 67.4001C62.9585 67.3784 62.6626 67.439 62.3992 67.575C62.1357 67.7111 61.915 67.9174 61.7613 68.1711C60.5574 70.2241 56.5024 74.918 46.5914 70.0988C46.2944 69.9492 45.9688 69.8649 45.6365 69.8516C45.3043 69.8383 44.973 69.8963 44.665 70.0217C41.7081 71.2361 32.7313 74.012 32.8469 62.7929C32.8541 62.4054 32.7511 62.0239 32.5499 61.6929C32.3487 61.3618 32.0575 61.0948 31.7104 60.923C27.2605 58.7351 12.4855 50.5232 29.3795 45.3088C29.775 45.1913 30.1269 44.9592 30.3909 44.6419C30.6548 44.3246 30.819 43.9362 30.8628 43.5257C31.3058 39.333 34.3398 27.6223 54.7109 37.3282C55.4904 37.6997 56.3702 37.8047 57.2151 37.627C63.1772 36.4511 86.8134 32.6921 76.6327 49.7907C76.4582 50.0791 76.3675 50.4105 76.3709 50.7476C76.3743 51.0848 76.4716 51.4143 76.6519 51.6991Z" stroke="white" stroke-width="0.762115" stroke-miterlimit="10"/>
<ellipse cx="153.989" cy="137.126" rx="3.42952" ry="1.14317" fill="white"/>
<path d="M51.4541 53.3114C51.4541 52.1123 51.1899 51.1775 50.6615 50.5068C50.1331 49.8361 49.2998 49.5008 48.1618 49.5008C47.3692 49.5008 46.6578 49.6939 46.0278 50.08C45.4181 50.4458 44.9304 50.9539 44.5646 51.6042C44.2191 52.2546 44.0463 52.9862 44.0463 53.7991V62.3348H42.4611V48.3119H44.0463V51.2384C44.4325 50.2223 45.0117 49.4297 45.784 48.8606C46.5766 48.2916 47.4911 48.0071 48.5276 48.0071C49.9908 48.0071 51.1086 48.4745 51.8809 49.4093C52.6531 50.3239 53.0393 51.5636 53.0393 53.1285V62.3348H51.4541V53.3114Z" fill="white"/>
<path d="M64.6692 45.7801V50.3833H63.8766V45.8715C63.8766 45.2618 63.7597 44.7944 63.526 44.4692C63.2923 44.1339 62.9316 43.9663 62.4438 43.9663C62.0983 43.9663 61.7833 44.0577 61.4988 44.2406C61.2244 44.4235 61.006 44.6776 60.8434 45.0027C60.6808 45.3279 60.5995 45.6988 60.5995 46.1154V50.3833H59.8069V45.8715C59.8069 45.2618 59.6901 44.7944 59.4563 44.4692C59.2226 44.1339 58.8619 43.9663 58.3741 43.9663C58.0286 43.9663 57.7136 44.0577 57.4291 44.2406C57.1548 44.4235 56.9363 44.6776 56.7737 45.0027C56.6111 45.3279 56.5298 45.6988 56.5298 46.1154V50.3833H55.7372V43.3718H56.5298V44.7893C56.7127 44.2914 56.982 43.9053 57.3377 43.6309C57.6933 43.3566 58.0998 43.2194 58.557 43.2194C59.0651 43.2194 59.4817 43.3667 59.8069 43.6614C60.1321 43.9459 60.3506 44.3371 60.4623 44.8351C60.6656 44.327 60.9602 43.9307 61.3464 43.6462C61.7325 43.3616 62.1593 43.2194 62.6267 43.2194C63.0637 43.2194 63.4346 43.321 63.7394 43.5242C64.0443 43.7275 64.2729 44.0221 64.4253 44.4083C64.5879 44.7944 64.6692 45.2517 64.6692 45.7801Z" fill="white"/>
</g>
<path d="M36.1213 198.5L31.6513 206.81C31.2213 207.61 30.7013 208.215 30.0913 208.625C29.4913 209.035 28.8363 209.24 28.1263 209.24C27.5763 209.24 27.0063 209.12 26.4163 208.88L27.0013 207.035C27.4213 207.165 27.7713 207.23 28.0513 207.23C28.3513 207.23 28.6213 207.16 28.8613 207.02C29.1013 206.87 29.3213 206.64 29.5213 206.33L29.6113 206.21L25.4713 198.5H28.0663L30.8563 204.14L33.7363 198.5H36.1213ZM41.5435 200.81C42.2935 200.81 42.9735 200.985 43.5835 201.335C44.2035 201.675 44.6885 202.16 45.0385 202.79C45.3885 203.41 45.5635 204.135 45.5635 204.965C45.5635 205.795 45.3885 206.525 45.0385 207.155C44.6885 207.775 44.2035 208.26 43.5835 208.61C42.9735 208.95 42.2935 209.12 41.5435 209.12C40.5135 209.12 39.7035 208.795 39.1135 208.145V211.91H36.7735V200.93H39.0085V201.86C39.5885 201.16 40.4335 200.81 41.5435 200.81ZM41.1385 207.2C41.7385 207.2 42.2285 207 42.6085 206.6C42.9985 206.19 43.1935 205.645 43.1935 204.965C43.1935 204.285 42.9985 203.745 42.6085 203.345C42.2285 202.935 41.7385 202.73 41.1385 202.73C40.5385 202.73 40.0435 202.935 39.6535 203.345C39.2735 203.745 39.0835 204.285 39.0835 204.965C39.0835 205.645 39.2735 206.19 39.6535 206.6C40.0435 207 40.5385 207.2 41.1385 207.2ZM50.9835 209.12C50.1335 209.12 49.3685 208.945 48.6885 208.595C48.0185 208.235 47.4935 207.74 47.1135 207.11C46.7335 206.48 46.5435 205.765 46.5435 204.965C46.5435 204.165 46.7335 203.45 47.1135 202.82C47.4935 202.19 48.0185 201.7 48.6885 201.35C49.3685 200.99 50.1335 200.81 50.9835 200.81C51.8335 200.81 52.5935 200.99 53.2635 201.35C53.9335 201.7 54.4585 202.19 54.8385 202.82C55.2185 203.45 55.4085 204.165 55.4085 204.965C55.4085 205.765 55.2185 206.48 54.8385 207.11C54.4585 207.74 53.9335 208.235 53.2635 208.595C52.5935 208.945 51.8335 209.12 50.9835 209.12ZM50.9835 207.2C51.5835 207.2 52.0735 207 52.4535 206.6C52.8435 206.19 53.0385 205.645 53.0385 204.965C53.0385 204.285 52.8435 203.745 52.4535 203.345C52.0735 202.935 51.5835 202.73 50.9835 202.73C50.3835 202.73 49.8885 202.935 49.4985 203.345C49.1085 203.745 48.9135 204.285 48.9135 204.965C48.9135 205.645 49.1085 206.19 49.4985 206.6C49.8885 207 50.3835 207.2 50.9835 207.2ZM60.5729 205.94H59.3579V209H57.0179V200.93H59.3579V204.065H60.6179L62.8079 200.93H65.2979L62.4779 204.8L65.4929 209H62.7329L60.5729 205.94ZM74.4 198.5V209H71.97V200.45H69.87V198.5H74.4Z" fill="white"/>
</g>
<defs>
<radialGradient id="paint0_radial_303_357" cx="0" cy="0" r="1" gradientUnits="userSpaceOnUse" gradientTransform="translate(110 112.5) rotate(-45.6437) scale(157.341)">
<stop stop-color="#9657EE"/>
<stop offset="1" stop-color="#9657EE" stop-opacity="0"/>
</radialGradient>
<clipPath id="clip0_303_357">
<rect width="226" height="226" fill="white"/>
</clipPath>
<clipPath id="clip1_303_357">
<rect width="176.048" height="173" fill="white" transform="translate(21 27)"/>
</clipPath>
</defs>
</svg>
