<svg width="226" height="226" viewBox="0 0 226 226" fill="none" xmlns="http://www.w3.org/2000/svg">
<g clip-path="url(#clip0_303_313)">
<rect x="0.5" y="0.5" width="224.343" height="224.343" rx="16.5714" fill="url(#paint0_radial_303_313)" fill-opacity="0.3" stroke="#67409F"/>
<path d="M24.5 188.966H197V142.5C197 142.5 169.5 132 166 158.5C166 158.5 141 147 138 170.5C138 170.5 107.5 158.5 106 188.966" stroke="white" stroke-width="0.91423" stroke-miterlimit="10"/>
<path d="M24 189.36V166.894C24 166.894 38.5 152.5 47 172.5C47 172.5 61 163.106 66.5 181C66.5 181 79.5 172.5 85 189.36" stroke="white" stroke-width="0.91423" stroke-miterlimit="10"/>
<path d="M147.87 94.1807C147.87 94.1807 153.265 90.4231 176.046 112.5C176.594 113.031 177.152 113.578 177.721 114.139C177.721 114.139 204.291 125.46 210.259 97.1544C210.259 97.1544 213.54 82.2583 201.302 89.4099C189.063 96.5615 174.44 85.5422 174.44 85.5422C174.44 85.5422 161.004 79.2846 153.838 82.8604C150.46 84.4715 147.171 86.262 143.985 88.2241L147.87 94.1807Z" fill="white"/>
<path d="M177.721 114.139C177.721 114.139 204.291 125.46 210.259 97.1544C210.259 97.1544 213.54 82.2583 201.302 89.4099C189.063 96.5615 174.44 85.5422 174.44 85.5422C174.44 85.5422 161.004 79.2846 153.838 82.8604C150.46 84.4715 147.171 86.262 143.985 88.2241L147.87 94.1807C147.87 94.1807 153.265 90.4231 176.046 112.5M177.721 114.139C177.152 113.578 176.594 113.031 176.046 112.5M177.721 114.139L176.046 112.5" stroke="white" stroke-width="1.08814" stroke-miterlimit="10"/>
<path d="M89.74 85.2321C89.74 85.2321 91.6228 77.7156 102.289 79.1751C112.955 80.6346 117.141 80.215 118.394 75.6267C119.646 71.0384 120.925 63.9416 111.913 63.1023C102.901 62.2631 98.3132 66.8606 98.3132 66.8606C98.3132 66.8606 97.9019 70.6188 91.833 69.9894C91.833 69.9894 83.2598 63.3122 73.0139 68.1103C73.0139 68.1103 70.016 71.2847 63.874 70.3269C63.874 70.3269 57.9879 65.7659 52.5862 68.1741C47.1845 70.5823 45.7404 73.5652 45.7404 73.5652C45.7404 73.5652 44.9635 77.6244 48.327 75.4625L50.9959 72.3428C51.079 72.2507 51.1886 72.1863 51.3097 72.1587C51.4308 72.131 51.5575 72.1413 51.6725 72.1882C51.7875 72.2351 51.8852 72.3164 51.9522 72.4208C52.0192 72.5252 52.0523 72.6477 52.047 72.7716C51.979 74.1941 51.8202 75.6109 51.5717 77.0132L89.74 85.2321Z" fill="white" stroke="white" stroke-width="1.08814" stroke-miterlimit="10"/>
<path d="M46.5813 85.2047C46.5813 85.2047 48.8846 83.2891 52.6868 88.5981C52.6868 88.5981 58.0793 83.2982 52.1932 77.8069C52.1932 77.8069 49.305 84.8216 46.5813 85.2047Z" fill="white" stroke="white" stroke-width="1.08814" stroke-miterlimit="10"/>
<path d="M96.5217 118.117L130.147 118.062C130.409 115.966 130.852 113.897 131.473 111.877C132.231 109.98 127.351 117.077 124.6 117.797C121.848 118.518 105.141 118.253 102.965 117.25C101.302 116.484 98.6879 112.881 97.2438 111.777C97.1774 111.726 97.0979 111.694 97.0144 111.685C96.9308 111.677 96.8466 111.692 96.7713 111.729C96.696 111.767 96.6327 111.824 96.5886 111.895C96.5445 111.967 96.5213 112.049 96.5217 112.133V118.117Z" fill="white" stroke="white" stroke-width="1.08814" stroke-miterlimit="10"/>
<path d="M52.6868 88.5981L75.0704 107.754L81.7334 113.464C81.7334 113.464 84.4754 118.938 79.6587 121.346C77.3185 122.439 75.0797 123.736 72.9683 125.223C72.9683 125.223 70.5645 126.071 70.5645 129.783C70.5645 130.823 71.2317 141.113 71.2317 141.113C71.7973 141.953 72.528 142.671 73.3795 143.221C74.231 143.771 75.1856 144.143 76.1855 144.315C79.5307 144.853 80.6641 140.894 78.0135 139.48C75.3629 138.066 76.1855 130.723 76.1855 130.723C76.4493 129.998 76.9283 129.37 77.5586 128.924C78.1889 128.477 78.9406 128.233 79.7135 128.224C82.5469 128.041 90.4803 127.758 90.4803 127.758C90.4803 127.758 98.4138 125.806 96.5218 118.117" stroke="white" stroke-width="1.08814" stroke-miterlimit="10"/>
<path d="M70.5001 132L59.9531 144.415C59.9531 144.415 57.86 147.9 53.811 145.628C53.811 145.628 51.0691 145.154 57.2202 137.756C63.3714 130.358 75.9296 113.473 75.9296 113.473C76.2414 112.525 76.3261 111.517 76.1769 110.53C76.0277 109.543 75.6488 108.605 75.0705 107.791" stroke="white" stroke-width="1.08814" stroke-miterlimit="10"/>
<path d="M130.148 118.062L136.171 128.096C136.171 128.096 138.803 130.55 135.467 136.306C133.914 139.143 132.135 141.852 130.148 144.406C130.148 144.406 127.205 148.967 130.148 148.967C133.091 148.967 137.158 144.059 137.158 144.059L143.985 135.102C143.985 135.102 147.157 131.982 145.603 128.224C145.073 126.937 144.452 125.651 143.985 124.246C143.071 121.51 142.752 118.427 144.717 114.066C147.705 107.435 149.15 105.994 148.93 98.5592C148.711 91.1248 143.985 88.1967 143.985 88.1967C143.985 88.1967 138.767 83.8729 125.34 85.2047C111.913 86.5365 99.1907 87.2206 89.6943 85.2047" stroke="white" stroke-width="1.08814" stroke-miterlimit="10"/>
<path d="M148.199 94.2536L150.84 111.585C151.592 114.38 152.998 116.956 154.944 119.102C157.988 122.24 161.607 123.471 161.991 124.803C162.302 125.898 163.115 141.031 163.399 146.385C163.425 146.758 163.365 147.132 163.223 147.478C163.082 147.824 162.863 148.133 162.583 148.382C162.303 148.63 161.97 148.811 161.609 148.911C161.248 149.011 160.869 149.027 160.501 148.958C159.487 148.721 158.573 147.781 158.372 145.245C158.07 141.45 158.774 135.667 157.092 131.562C156.077 129.081 153.948 127.695 150.941 126.335C142.934 122.687 143.272 120.525 143.272 120.525" stroke="white" stroke-width="1.08814" stroke-miterlimit="10"/>
<path d="M21.3734 84.0918C21.3734 84.0918 24.3804 84.5115 28.1095 85.2321C28.7579 85.3572 29.429 85.4906 30.1106 85.6319M48.8297 97.127C48.8297 97.127 45.5394 91.2252 40.1834 88.5981C39.4839 88.2456 38.6453 87.9105 37.7163 87.5936" stroke="#FCEE21" stroke-width="1.08814" stroke-miterlimit="10"/>
<path d="M45.5484 103.038V89.118H36.5001C36.5001 89.118 35.5001 92 32.5001 92.5C29.5001 93 28.5001 89.118 28.5001 89.118H20.825V103.038H45.5484Z" fill="#FF6666" stroke="white" stroke-width="1.08814" stroke-miterlimit="10"/>
<path d="M45 74.1763L42.4774 70.0988C42.4375 70.0352 42.3793 69.9851 42.3104 69.9549C42.2415 69.9248 42.1651 69.916 42.0911 69.9298C42.0172 69.9436 41.9491 69.9792 41.8957 70.0322C41.8423 70.0851 41.8062 70.1528 41.7919 70.2266L41.0973 74.1763L30.559 85.2868C30.559 85.2868 26.8025 88.297 29.2611 91.1796C31.7197 94.0621 34.745 91.7086 34.745 91.7086C34.745 91.7086 35.787 91.0154 36.765 88.3335C37.3316 86.7646 40.6586 86.6095 42.8979 86.6916C43.6035 86.7243 44.3085 86.6152 44.9711 86.3707C45.6336 86.1263 46.2403 85.7515 46.7549 85.2686C48.8662 83.2435 51.7544 78.792 51.9555 76.1467C52.0195 75.2983 52.5405 73.8844 52.7233 72.6986C52.8969 71.6769 52.4765 71.2938 52.2206 71.2573C52.0227 71.1925 51.8108 71.1828 51.6078 71.2294C51.4049 71.2761 51.2185 71.3772 51.0689 71.5219C50.6293 71.9427 50.1486 72.3185 49.634 72.6439L45 74.1763Z" stroke="white" stroke-width="1.08814" stroke-miterlimit="10"/>
<path d="M131.253 143.594L131.5 144.5C131.539 144.702 131.844 145.366 132 145.5C132.156 145.634 132.794 145.991 133 146L134.553 146.002C134.6 146.001 134.646 146.015 134.684 146.043C134.721 146.071 134.749 146.11 134.761 146.156C134.774 146.201 134.771 146.249 134.753 146.292C134.735 146.335 134.703 146.371 134.663 146.394L130.623 148.648L129.023 147.38L131.043 143.558C131.056 143.54 131.074 143.526 131.095 143.517C131.115 143.509 131.138 143.507 131.16 143.51C131.182 143.514 131.202 143.524 131.219 143.539C131.235 143.554 131.247 143.573 131.253 143.594Z" fill="white" stroke="white" stroke-width="1.08814" stroke-miterlimit="10"/>
<path d="M158.938 145.154C159.452 145.59 160.109 145.822 160.784 145.805C161.458 145.789 162.103 145.524 162.594 145.063C162.648 145.013 162.715 144.981 162.787 144.97C162.86 144.96 162.933 144.97 162.999 145.002C163.065 145.033 163.12 145.084 163.157 145.147C163.194 145.209 163.211 145.282 163.207 145.355L163.143 146.787C163.123 147.013 163.027 147.226 162.871 147.391C162.715 147.557 162.508 147.665 162.283 147.699L160.291 148.374C160.063 148.416 159.827 148.369 159.632 148.244C159.436 148.118 159.296 147.924 159.24 147.699L158.527 145.391C158.514 145.339 158.518 145.284 158.539 145.235C158.56 145.185 158.596 145.144 158.643 145.117C158.689 145.09 158.743 145.079 158.797 145.086C158.85 145.093 158.9 145.116 158.938 145.154Z" fill="white" stroke="white" stroke-width="1.08814" stroke-miterlimit="10"/>
<path d="M56.7473 140.433C56.8387 142.074 57.186 144.114 59.2059 144.205C59.2652 144.204 59.3867 144.205 59.5 144.205C60 144 60.5 143.5 60 144C60.5 144 59.4879 144.515 59.468 144.571C59.4481 144.626 59.4107 144.674 59.3613 144.707L56.7473 146.057C56.6272 146.124 56.4919 146.159 56.3543 146.159C56.2166 146.159 56.0813 146.124 55.9612 146.057L53.8225 144.734C53.6569 144.634 53.5367 144.473 53.4873 144.286C53.4379 144.099 53.463 143.9 53.5575 143.731L55.8699 139.735C55.9156 139.662 55.9201 139.533 56 139.5C56.0799 139.467 56.6634 138.663 56.7473 138.683C56.7473 138.101 56.7473 139.414 56.7473 139.735C56.7473 139.883 56.7399 140.347 56.7473 140.433Z" fill="white" stroke="white" stroke-width="1.08814" stroke-miterlimit="10"/>
<path d="M78.7354 140.027L82.9672 140.566C82.9672 140.566 85.7732 141.013 84.649 143.521C83.5248 146.03 84.0823 145.811 81.7333 145.929C80.2851 146.007 78.8387 145.745 77.5107 145.163C76.6498 144.846 76.3195 144.718 75.5 144.306H77.2365C77.6026 144.361 77.977 144.317 78.3198 144.177C78.6626 144.037 78.9611 143.808 79.1833 143.512C79.6586 142.864 79.9602 142.034 79.7043 141.569L78.7354 140.027Z" fill="white" stroke="white" stroke-width="1.08814" stroke-miterlimit="10"/>
<path d="M41.0258 80C41.0258 80 41.3532 84.6795 45 80" stroke="white" stroke-width="1.08814" stroke-miterlimit="10"/>
<path d="M39.5 79C39.5 79 38 82 35.4305 79.8775" stroke="white" stroke-width="1.08814" stroke-miterlimit="10"/>
<path d="M18.6679 88.5981C18.6679 88.5981 22.5524 84.2013 22.1776 79.4762C21.94 76.5754 20.2491 76.3656 19.0061 76.6392C18.5727 76.694 18.1624 76.8656 17.8194 77.1356C17.4764 77.4056 17.2136 77.7638 17.0593 78.1717C17.0593 78.345 18.3846 79.1934 18.3663 80.2424C18.3697 80.3962 18.3403 80.5489 18.28 80.6905C18.2198 80.8321 18.1301 80.9592 18.0169 81.0636C17.9037 81.168 17.7695 81.2471 17.6234 81.2958C17.4772 81.3445 17.3223 81.3617 17.169 81.3461C16.8034 81.3461 16.255 80.434 15.6609 80.2424C15.2951 80.1408 14.9073 80.1507 14.5473 80.271C14.1873 80.3913 13.8716 80.6165 13.641 80.9174C13.5039 81.1455 12.27 82.833 13.641 83.8455C13.9974 84.101 14.7012 83.8455 15.4141 84.0554C16.127 84.2652 15.8985 85.2412 15.7157 85.4328C15.0962 85.9545 14.5626 86.5701 14.1345 87.2571C13.9457 87.593 13.8621 87.9777 13.8947 88.3615C13.9273 88.7453 14.0745 89.1105 14.3173 89.4099C16.1453 91.8819 18.6679 88.5981 18.6679 88.5981Z" fill="#FCEE21" stroke="#FCEE21" stroke-width="1.08814" stroke-miterlimit="10"/>
<path d="M30.35 87.6986C30.5433 87.6986 30.7 87.5422 30.7 87.3493C30.7 87.1564 30.5433 87 30.35 87C30.1567 87 30 87.1564 30 87.3493C30 87.5422 30.1567 87.6986 30.35 87.6986Z" stroke="white" stroke-width="1.08814" stroke-miterlimit="10"/>
<path d="M32.35 88.6986C32.5433 88.6986 32.7 88.5422 32.7 88.3493C32.7 88.1564 32.5433 88 32.35 88C32.1567 88 32 88.1564 32 88.3493C32 88.5422 32.1567 88.6986 32.35 88.6986Z" stroke="white" stroke-width="1.08814" stroke-miterlimit="10"/>
<path d="M27.7988 84.7395L27.5064 81.0907C27.5064 81.0907 26.0074 79.1934 25.7241 81.2002C25.4407 83.207 27.7988 84.7395 27.7988 84.7395Z" fill="#FCEE21" stroke="#FCEE21" stroke-width="1.08814" stroke-miterlimit="10"/>
<path d="M26.1717 84.8672L23.5577 85.2321C23.319 85.227 23.082 85.2732 22.8628 85.3676C22.6435 85.4621 22.4473 85.6025 22.2873 85.7794C21.9857 86.1169 21.748 86.5548 22.0039 86.9379C22.4244 87.5855 23.2652 87.7132 24.2432 86.6551C24.8422 86.0137 25.4867 85.4161 26.1717 84.8672Z" fill="#FCEE21" stroke="#FCEE21" stroke-width="1.08814" stroke-miterlimit="10"/>
<path d="M21 89.5C21 89.5 31 97 33 97C35 97 45.5 89.5 45.5 89.5" stroke="white"/>
<path d="M133.819 94.3508C133.819 94.3508 134.572 93.8265 137.751 96.907C137.827 96.9811 137.905 97.0573 137.984 97.1357C137.984 97.1357 141.692 98.7153 142.525 94.7657C142.525 94.7657 142.982 92.6872 141.275 93.6851C139.567 94.683 137.527 93.1454 137.527 93.1454C137.527 93.1454 135.652 92.2723 134.652 92.7712C134.181 92.996 133.722 93.2459 133.277 93.5196L133.819 94.3508Z" fill="white"/>
<path d="M137.984 97.1357C137.984 97.1357 141.692 98.7153 142.525 94.7657C142.525 94.7657 142.982 92.6872 141.275 93.6851C139.567 94.683 137.527 93.1454 137.527 93.1454C137.527 93.1454 135.652 92.2723 134.652 92.7712C134.181 92.996 133.722 93.2459 133.277 93.5196L133.819 94.3508C133.819 94.3508 134.572 93.8265 137.751 96.907M137.984 97.1357C137.905 97.0573 137.827 96.9811 137.751 96.907M137.984 97.1357L137.751 96.907" stroke="white" stroke-width="0.151833" stroke-miterlimit="10"/>
<path d="M125.708 93.1022C125.708 93.1022 125.971 92.0533 127.459 92.257C128.947 92.4606 129.531 92.4021 129.706 91.7619C129.881 91.1216 130.059 90.1314 128.802 90.0143C127.544 89.8972 126.904 90.5387 126.904 90.5387C126.904 90.5387 126.847 91.0631 126 90.9753C126 90.9753 124.804 90.0436 123.374 90.7131C123.374 90.7131 122.956 91.156 122.099 91.0224C122.099 91.0224 121.277 90.3859 120.524 90.722C119.77 91.058 119.568 91.4742 119.568 91.4742C119.568 91.4742 119.46 92.0406 119.929 91.739L120.302 91.3037C120.313 91.2908 120.329 91.2818 120.346 91.278C120.362 91.2741 120.38 91.2755 120.396 91.2821C120.412 91.2886 120.426 91.3 120.435 91.3145C120.445 91.3291 120.449 91.3462 120.448 91.3635C120.439 91.562 120.417 91.7597 120.382 91.9553L125.708 93.1022Z" fill="white" stroke="white" stroke-width="0.151833" stroke-miterlimit="10"/>
<path d="M119.686 93.0983C119.686 93.0983 120.007 92.831 120.538 93.5718C120.538 93.5718 121.29 92.8323 120.469 92.0661C120.469 92.0661 120.066 93.0449 119.686 93.0983Z" fill="white" stroke="white" stroke-width="0.151833" stroke-miterlimit="10"/>
<path d="M126.654 97.6907L131.346 97.683C131.383 97.3906 131.445 97.1018 131.531 96.8201C131.637 96.5553 130.956 97.5456 130.572 97.6461C130.188 97.7467 127.857 97.7098 127.553 97.5698C127.321 97.4628 126.957 96.9601 126.755 96.8061C126.746 96.7989 126.735 96.7945 126.723 96.7933C126.711 96.7922 126.7 96.7943 126.689 96.7995C126.679 96.8046 126.67 96.8126 126.664 96.8226C126.657 96.8325 126.654 96.844 126.654 96.8557V97.6907Z" fill="white" stroke="white" stroke-width="0.151833" stroke-miterlimit="10"/>
<path d="M120.538 93.5718L123.661 96.2448L124.591 97.0415C124.591 97.0415 124.973 97.8052 124.301 98.1413C123.975 98.2938 123.662 98.4748 123.368 98.6822C123.368 98.6822 123.032 98.8006 123.032 99.3186C123.032 99.4637 123.126 100.899 123.126 100.899C123.204 101.017 123.306 101.117 123.425 101.194C123.544 101.27 123.677 101.322 123.817 101.346C124.284 101.421 124.442 100.869 124.072 100.672C123.702 100.474 123.817 99.4497 123.817 99.4497C123.854 99.3485 123.92 99.261 124.008 99.1987C124.096 99.1363 124.201 99.1023 124.309 99.101C124.704 99.0755 125.811 99.0361 125.811 99.0361C125.811 99.0361 126.918 98.7637 126.654 97.6907" fill="white"/>
<path d="M120.538 93.5718L123.661 96.2448L124.591 97.0415C124.591 97.0415 124.973 97.8052 124.301 98.1413C123.975 98.2938 123.662 98.4748 123.368 98.6822C123.368 98.6822 123.032 98.8006 123.032 99.3186C123.032 99.4637 123.126 100.899 123.126 100.899C123.204 101.017 123.306 101.117 123.425 101.194C123.544 101.27 123.677 101.322 123.817 101.346C124.284 101.421 124.442 100.869 124.072 100.672C123.702 100.474 123.817 99.4497 123.817 99.4497C123.854 99.3485 123.92 99.261 124.008 99.1987C124.096 99.1363 124.201 99.1023 124.309 99.101C124.704 99.0755 125.811 99.0361 125.811 99.0361C125.811 99.0361 126.918 98.7637 126.654 97.6907" stroke="white" stroke-width="0.151833" stroke-miterlimit="10"/>
<path d="M123.023 99.6279L121.552 101.36C121.552 101.36 121.26 101.846 120.695 101.53C120.695 101.53 120.312 101.463 121.17 100.431C122.029 99.3988 123.781 97.0428 123.781 97.0428C123.824 96.9105 123.836 96.7698 123.815 96.6321C123 94 127.081 95.6136 127 95.5" fill="white"/>
<path d="M123.023 99.6279L121.552 101.36C121.552 101.36 121.26 101.846 120.695 101.53C120.695 101.53 120.312 101.463 121.17 100.431C122.029 99.3988 123.781 97.0428 123.781 97.0428C123.824 96.9105 123.836 96.7698 123.815 96.6321C123 94 127.081 95.6136 127 95.5" stroke="white" stroke-width="0.151833" stroke-miterlimit="10"/>
<path d="M131.346 97.683L132.187 99.0832C132.187 99.0832 132.554 99.4255 132.088 100.229C131.872 100.625 131.623 101.003 131.346 101.359C131.346 101.359 130.936 101.995 131.346 101.995C131.757 101.995 132.324 101.311 132.324 101.311L133.277 100.061C133.277 100.061 133.72 99.6254 133.503 99.101C133.429 98.9215 133.342 98.742 133.277 98.546C133.15 98.1642 133.105 97.734 133.379 97.1255C133.796 96.2002 133.998 95.9991 133.967 94.9617C133.936 93.9244 133.277 93.5158 133.277 93.5158C133.277 93.5158 132.549 92.9125 130.675 93.0983C128.802 93.2842 127.027 93.3796 125.702 93.0983" fill="white"/>
<path d="M131.346 97.683L132.187 99.0832C132.187 99.0832 132.554 99.4255 132.088 100.229C131.872 100.625 131.623 101.003 131.346 101.359C131.346 101.359 130.936 101.995 131.346 101.995C131.757 101.995 132.324 101.311 132.324 101.311L133.277 100.061C133.277 100.061 133.72 99.6254 133.503 99.101C133.429 98.9215 133.342 98.742 133.277 98.546C133.15 98.1642 133.105 97.734 133.379 97.1255C133.796 96.2002 133.998 95.9991 133.967 94.9617C133.936 93.9244 133.277 93.5158 133.277 93.5158C133.277 93.5158 132.549 92.9125 130.675 93.0983C128.802 93.2842 127.027 93.3796 125.702 93.0983" stroke="white" stroke-width="0.151833" stroke-miterlimit="10"/>
<path d="M133.865 94.361L134.234 96.7793C134.338 97.1693 134.535 97.5288 134.806 97.8281C135.231 98.266 135.736 98.4378 135.789 98.6237C135.833 98.7764 135.946 100.888 135.986 101.635C135.989 101.687 135.981 101.739 135.961 101.788C135.942 101.836 135.911 101.879 135.872 101.914C135.833 101.948 135.787 101.974 135.736 101.988C135.686 102.002 135.633 102.004 135.582 101.994C135.44 101.961 135.312 101.83 135.284 101.476C135.242 100.947 135.341 100.14 135.106 99.5668C134.964 99.2206 134.667 99.0271 134.248 98.8375C133.13 98.3284 133.178 98.0267 133.178 98.0267" fill="white"/>
<path d="M133.865 94.361L134.234 96.7793C134.338 97.1693 134.535 97.5288 134.806 97.8281C135.231 98.266 135.736 98.4378 135.789 98.6237C135.833 98.7764 135.946 100.888 135.986 101.635C135.989 101.687 135.981 101.739 135.961 101.788C135.942 101.836 135.911 101.879 135.872 101.914C135.833 101.948 135.787 101.974 135.736 101.988C135.686 102.002 135.633 102.004 135.582 101.994C135.44 101.961 135.312 101.83 135.284 101.476C135.242 100.947 135.341 100.14 135.106 99.5668C134.964 99.2206 134.667 99.0271 134.248 98.8375C133.13 98.3284 133.178 98.0267 133.178 98.0267" stroke="white" stroke-width="0.151833" stroke-miterlimit="10"/>
<path d="M119.465 91.5595L119.113 90.9905C119.108 90.9817 119.099 90.9747 119.09 90.9705C119.08 90.9663 119.07 90.965 119.059 90.967C119.049 90.9689 119.039 90.9739 119.032 90.9812C119.025 90.9886 119.02 90.9981 119.018 91.0084L118.921 91.5595L117.45 93.1098C117.45 93.1098 116.926 93.5298 117.269 93.932C117.612 94.3342 118.034 94.0059 118.034 94.0059C118.034 94.0059 118.18 93.9091 118.316 93.5349C118.395 93.316 118.859 93.2944 119.172 93.3058C119.27 93.3104 119.369 93.2951 119.461 93.261C119.554 93.2269 119.638 93.1746 119.71 93.1072C120.005 92.8247 120.408 92.2035 120.436 91.8344C120.445 91.7161 120.517 91.5188 120.543 91.3533C120.567 91.2107 120.508 91.1573 120.473 91.1522C120.445 91.1431 120.416 91.1418 120.387 91.1483C120.359 91.1548 120.333 91.1689 120.312 91.1891C120.251 91.2478 120.184 91.3003 120.112 91.3457L119.465 91.5595Z" fill="white" stroke="white" stroke-width="0.151833" stroke-miterlimit="10"/>
<path d="M131.501 101.246L131.535 101.372C131.54 101.4 131.583 101.493 131.605 101.512C131.627 101.53 131.716 101.58 131.744 101.581L131.961 101.582C131.968 101.582 131.974 101.584 131.979 101.587C131.985 101.591 131.988 101.597 131.99 101.603C131.992 101.609 131.991 101.616 131.989 101.622C131.986 101.628 131.982 101.633 131.976 101.636L131.413 101.951L131.189 101.774L131.471 101.241C131.473 101.238 131.476 101.236 131.478 101.235C131.481 101.234 131.485 101.233 131.488 101.234C131.491 101.235 131.493 101.236 131.496 101.238C131.498 101.24 131.5 101.243 131.501 101.246Z" fill="white" stroke="white" stroke-width="0.151833" stroke-miterlimit="10"/>
<path d="M135.364 101.463C135.435 101.524 135.527 101.557 135.621 101.554C135.715 101.552 135.805 101.515 135.874 101.451C135.881 101.444 135.891 101.439 135.901 101.438C135.911 101.436 135.921 101.438 135.93 101.442C135.939 101.447 135.947 101.454 135.952 101.462C135.957 101.471 135.96 101.481 135.959 101.491L135.95 101.691C135.947 101.723 135.934 101.752 135.912 101.776C135.891 101.799 135.862 101.814 135.83 101.818L135.552 101.913C135.52 101.918 135.488 101.912 135.46 101.894C135.433 101.877 135.413 101.85 135.406 101.818L135.306 101.496C135.304 101.489 135.305 101.482 135.308 101.475C135.311 101.468 135.316 101.462 135.322 101.458C135.329 101.454 135.336 101.453 135.344 101.454C135.351 101.455 135.358 101.458 135.364 101.463Z" fill="white" stroke="white" stroke-width="0.151833" stroke-miterlimit="10"/>
<path d="M121.104 100.805C121.117 101.034 121.166 101.318 121.447 101.331C121.456 101.331 121.473 101.331 121.488 101.331C121.558 101.302 121.628 101.233 121.558 101.302C121.628 101.302 121.487 101.374 121.484 101.382C121.481 101.39 121.476 101.396 121.469 101.401L121.104 101.589C121.088 101.599 121.069 101.604 121.049 101.604C121.03 101.604 121.011 101.599 120.995 101.589L120.696 101.405C120.673 101.391 120.656 101.368 120.649 101.342C120.643 101.316 120.646 101.288 120.659 101.265L120.982 100.707C120.988 100.697 120.989 100.679 121 100.674C121.011 100.67 121.093 100.558 121.104 100.56C121.104 100.479 121.104 100.662 121.104 100.707C121.104 100.728 121.103 100.793 121.104 100.805Z" fill="white" stroke="white" stroke-width="0.151833" stroke-miterlimit="10"/>
<path d="M124.172 100.748L124.763 100.823C124.763 100.823 125.154 100.885 124.998 101.235C124.841 101.586 124.918 101.555 124.591 101.572C124.389 101.582 124.187 101.546 124.002 101.465C123.881 101.42 123.835 101.402 123.721 101.345H123.963C124.014 101.353 124.067 101.347 124.114 101.327C124.162 101.308 124.204 101.275 124.235 101.234C124.301 101.144 124.343 101.028 124.308 100.963L124.172 100.748Z" fill="white" stroke="white" stroke-width="0.151833" stroke-miterlimit="10"/>
<path d="M120.5 92.5L130.5 94.5L131 97.5H126L124.5 96.5L122 94C122 94 120.261 92.814 121 93C121.069 93.0174 121.13 93.0351 121.181 93.0521C121.024 92.9533 120.794 92.7808 120.5 92.5Z" fill="white"/>
<path d="M120.5 92.5L130.5 94.5L131 97.5H126L124.5 96.5L122 94C122 94 120.261 92.814 121 93C121.74 93.186 121.443 93.4027 120.5 92.5Z" stroke="white"/>
<path d="M36.1213 198.5L31.6513 206.81C31.2213 207.61 30.7013 208.215 30.0913 208.625C29.4913 209.035 28.8363 209.24 28.1263 209.24C27.5763 209.24 27.0063 209.12 26.4163 208.88L27.0013 207.035C27.4213 207.165 27.7713 207.23 28.0513 207.23C28.3513 207.23 28.6213 207.16 28.8613 207.02C29.1013 206.87 29.3213 206.64 29.5213 206.33L29.6113 206.21L25.4713 198.5H28.0663L30.8563 204.14L33.7363 198.5H36.1213ZM41.5435 200.81C42.2935 200.81 42.9735 200.985 43.5835 201.335C44.2035 201.675 44.6885 202.16 45.0385 202.79C45.3885 203.41 45.5635 204.135 45.5635 204.965C45.5635 205.795 45.3885 206.525 45.0385 207.155C44.6885 207.775 44.2035 208.26 43.5835 208.61C42.9735 208.95 42.2935 209.12 41.5435 209.12C40.5135 209.12 39.7035 208.795 39.1135 208.145V211.91H36.7735V200.93H39.0085V201.86C39.5885 201.16 40.4335 200.81 41.5435 200.81ZM41.1385 207.2C41.7385 207.2 42.2285 207 42.6085 206.6C42.9985 206.19 43.1935 205.645 43.1935 204.965C43.1935 204.285 42.9985 203.745 42.6085 203.345C42.2285 202.935 41.7385 202.73 41.1385 202.73C40.5385 202.73 40.0435 202.935 39.6535 203.345C39.2735 203.745 39.0835 204.285 39.0835 204.965C39.0835 205.645 39.2735 206.19 39.6535 206.6C40.0435 207 40.5385 207.2 41.1385 207.2ZM50.9835 209.12C50.1335 209.12 49.3685 208.945 48.6885 208.595C48.0185 208.235 47.4935 207.74 47.1135 207.11C46.7335 206.48 46.5435 205.765 46.5435 204.965C46.5435 204.165 46.7335 203.45 47.1135 202.82C47.4935 202.19 48.0185 201.7 48.6885 201.35C49.3685 200.99 50.1335 200.81 50.9835 200.81C51.8335 200.81 52.5935 200.99 53.2635 201.35C53.9335 201.7 54.4585 202.19 54.8385 202.82C55.2185 203.45 55.4085 204.165 55.4085 204.965C55.4085 205.765 55.2185 206.48 54.8385 207.11C54.4585 207.74 53.9335 208.235 53.2635 208.595C52.5935 208.945 51.8335 209.12 50.9835 209.12ZM50.9835 207.2C51.5835 207.2 52.0735 207 52.4535 206.6C52.8435 206.19 53.0385 205.645 53.0385 204.965C53.0385 204.285 52.8435 203.745 52.4535 203.345C52.0735 202.935 51.5835 202.73 50.9835 202.73C50.3835 202.73 49.8885 202.935 49.4985 203.345C49.1085 203.745 48.9135 204.285 48.9135 204.965C48.9135 205.645 49.1085 206.19 49.4985 206.6C49.8885 207 50.3835 207.2 50.9835 207.2ZM60.5729 205.94H59.3579V209H57.0179V200.93H59.3579V204.065H60.6179L62.8079 200.93H65.2979L62.4779 204.8L65.4929 209H62.7329L60.5729 205.94ZM75.255 202.775C76.175 202.925 76.88 203.27 77.37 203.81C77.86 204.34 78.105 205 78.105 205.79C78.105 206.4 77.945 206.965 77.625 207.485C77.305 207.995 76.815 208.405 76.155 208.715C75.505 209.025 74.705 209.18 73.755 209.18C73.015 209.18 72.285 209.085 71.565 208.895C70.855 208.695 70.25 208.415 69.75 208.055L70.695 206.195C71.095 206.495 71.555 206.73 72.075 206.9C72.605 207.06 73.145 207.14 73.695 207.14C74.305 207.14 74.785 207.025 75.135 206.795C75.485 206.555 75.66 206.22 75.66 205.79C75.66 204.93 75.005 204.5 73.695 204.5H72.585V202.895L74.745 200.45H70.275V198.5H77.625V200.075L75.255 202.775Z" fill="white"/>
</g>
<defs>
<radialGradient id="paint0_radial_303_313" cx="0" cy="0" r="1" gradientUnits="userSpaceOnUse" gradientTransform="translate(110 112.5) rotate(-45.6437) scale(157.341)">
<stop stop-color="#9657EE"/>
<stop offset="1" stop-color="#9657EE" stop-opacity="0"/>
</radialGradient>
<clipPath id="clip0_303_313">
<rect width="226" height="226" fill="white"/>
</clipPath>
</defs>
</svg>
