<svg width="226" height="226" viewBox="0 0 226 226" fill="none" xmlns="http://www.w3.org/2000/svg">
<g clip-path="url(#clip0_303_221)">
<rect x="0.5" y="0.5" width="224.343" height="224.343" rx="16.5714" fill="url(#paint0_radial_303_221)" fill-opacity="0.3" stroke="#67409F"/>
<g clip-path="url(#clip1_303_221)">
<path d="M41.1799 41.2964L55.63 57.2538C55.63 57.2538 45.8352 92.6939 34.2621 103.074C34.2621 103.074 26.2829 101.955 22.6145 98.8493C22.6145 98.8493 42.7441 67.5034 41.1799 41.2964Z" fill="#FF6666" stroke="white" stroke-miterlimit="10"/>
<path d="M75.7875 141.657C75.7875 141.657 60.3412 115.711 34.2621 103.074" stroke="white" stroke-miterlimit="10"/>
<path d="M166.408 42.0611C166.408 42.0611 138.262 83.9365 110.06 89.9147C110.06 89.9147 72.0074 80.7842 55.63 57.2724" stroke="white" stroke-miterlimit="10"/>
<path d="M107.043 110.787C107.043 110.787 95.8705 129.915 85.0516 130.848C74.2326 131.781 80.1263 118.052 80.1263 118.052C80.1263 118.052 96.4851 91.1271 110.06 89.9147" stroke="white" stroke-miterlimit="10"/>
<path d="M147.889 110.405C147.889 110.405 124.827 126.595 104.585 114.611" stroke="white" stroke-miterlimit="10"/>
<path d="M197.17 93.3467C197.17 93.3467 176.78 109.258 169.108 122.072C161.436 134.886 154.872 141.042 154.872 141.042" stroke="white" stroke-miterlimit="10"/>
<path d="M131.707 117.595L153.615 141.014C153.615 141.014 157.907 156.066 146.669 152.038C135.432 148.009 126.652 135.129 126.652 135.129" stroke="white" stroke-miterlimit="10"/>
<path d="M117.965 145.08C117.965 145.08 143.83 174.383 146.669 152.038" stroke="white" stroke-miterlimit="10"/>
<path d="M108.282 151.31C108.282 151.31 130.627 182.479 137.89 160.441" stroke="white" stroke-miterlimit="10"/>
<path d="M117.965 172.966C117.965 172.966 125.199 174.197 125.683 167.37" stroke="white" stroke-miterlimit="10"/>
<path d="M81.4111 116.038C81.4111 116.038 98.8965 118.127 84.6978 130.876" stroke="white" stroke-miterlimit="10"/>
<path d="M82.3049 137.647C82.3049 137.647 77.212 142.058 80.2939 146.442C82.2584 149.24 88.4407 148.848 90.6007 144.287" stroke="white" stroke-miterlimit="10"/>
<path d="M89.0366 149.118C89.0366 149.118 87.1745 154.966 91.1222 156.579C95.0699 158.193 98.5707 155.498 99.6321 152.084" stroke="white" stroke-miterlimit="10"/>
<path d="M98.9618 156.579C98.9618 156.579 97.5745 163.164 102.239 163.705C107.528 164.311 108.421 157.82 108.421 157.82" stroke="white" stroke-miterlimit="10"/>
<path d="M109.12 163.537C109.12 163.537 107.844 168.517 110.758 170.42C112.844 171.781 117.667 170.718 118.868 166.745" stroke="white" stroke-miterlimit="10"/>
<path d="M90.6381 143.83C90.6315 144.487 90.5692 145.142 90.4519 145.789C90.3618 146.429 90.193 147.056 89.9491 147.654C88.5711 150.172 87.0069 152.112 84.7537 152.886C84.3422 153.026 83.9181 153.126 83.4875 153.185C83.1539 153.226 82.8181 153.248 82.4819 153.25C80.4889 153.204 78.591 152.387 77.1866 150.97C75.7822 149.553 74.9804 147.646 74.9496 145.649C74.8896 144.22 75.2608 142.806 76.0148 141.592C76.7689 140.377 77.8707 139.419 79.1767 138.841C80.1519 138.292 81.2078 137.902 82.305 137.684C84.3534 137.423 86.8766 137.684 88.1801 138.831C88.9356 139.429 89.5484 140.187 89.9736 141.052C90.3989 141.917 90.6259 142.866 90.6381 143.83Z" stroke="white" stroke-miterlimit="10"/>
<path d="M84.3813 152.849C83.8697 153.91 83.713 155.108 83.9343 156.266C84.1557 157.423 84.7434 158.478 85.6103 159.275C86.8228 160.48 88.3479 161.322 90.0131 161.704C91.6783 162.087 93.417 161.995 95.0327 161.438C96.7831 160.674 99.2132 157.186 99.5856 154.565C99.8635 153.177 99.7414 151.738 99.2336 150.417C98.7258 149.096 97.8533 147.947 96.7179 147.104C95.7977 146.504 94.7589 146.11 93.6727 145.949C92.5864 145.788 91.4782 145.864 90.4239 146.171" stroke="white" stroke-miterlimit="10"/>
<path d="M95.0047 161.438C95.0047 161.438 94.4833 167.631 99.1666 168.601C103.85 169.571 105.591 168.657 107.881 166.036C110.675 162.912 108.812 157.26 107.043 155.843C105.554 154.677 102.025 153.325 99.5949 154.565" stroke="white" stroke-miterlimit="10"/>
<path d="M105.796 168.321C105.796 168.321 107.22 175.782 112.369 175.577C117.518 175.372 118.365 171.688 118.365 171.688C118.365 171.688 119.948 167.603 118.067 164.619C116.186 161.634 111.149 161.55 109.297 162.931" stroke="white" stroke-miterlimit="10"/>
<path d="M71.6564 104.836C77.9407 99.0195 78.9414 89.8665 73.8916 84.3926C68.8419 78.9186 59.6538 79.1966 53.3696 85.0135C47.0853 90.8303 46.0846 99.9833 51.1344 105.457C56.1841 110.931 65.3722 110.653 71.6564 104.836Z" stroke="#00FFFF" stroke-width="2" stroke-miterlimit="10"/>
<path d="M62.6504 95.4269C63.0619 95.4269 63.3954 95.0928 63.3954 94.6806C63.3954 94.2684 63.0619 93.9343 62.6504 93.9343C62.2389 93.9343 61.9054 94.2684 61.9054 94.6806C61.9054 95.0928 62.2389 95.4269 62.6504 95.4269Z" fill="white" stroke="white" stroke-miterlimit="10"/>
<path d="M62.5106 82.4815L62.6503 87.5551" stroke="white" stroke-miterlimit="10"/>
<path d="M70.8156 85.7924L67.9573 89.9147" stroke="white" stroke-miterlimit="10"/>
<path d="M74.8844 93.9436H69.3818" stroke="white" stroke-miterlimit="10"/>
<path d="M70.8157 102.421L67.2963 98.7933" stroke="white" stroke-miterlimit="10"/>
<path d="M62.6503 106.394L62.5851 101.321" stroke="white" stroke-miterlimit="10"/>
<path d="M54.2056 102.421L57.9484 98.7933" stroke="white" stroke-miterlimit="10"/>
<path d="M51.5706 93.9436H56.0769" stroke="white" stroke-miterlimit="10"/>
<path d="M55.0249 85.7924L57.9491 89.3186" stroke="white" stroke-miterlimit="10"/>
<path d="M127.558 67.9908C134.748 61.3349 136.473 51.4896 131.409 46.0005C126.345 40.5114 116.411 41.4572 109.22 48.1131C102.03 54.7689 100.306 64.6143 105.369 70.1034C110.433 75.5924 120.367 74.6466 127.558 67.9908Z" stroke="white" stroke-miterlimit="10"/>
<path d="M115.469 69.9376L128.5 48.3004H123.551L116 61.5L113.561 54.7543L109.297 57.1232L115.469 69.9376Z" fill="#FF6666"/>
<path d="M73.4041 83.722C73.5347 83.8448 73.702 83.9214 73.8802 83.9399C74.0585 83.9584 74.2379 83.9179 74.391 83.8245C76.1693 82.6774 81.6812 78.8909 79.2139 77.4546C77.1749 76.2702 73.3389 73.8547 70.4433 72.1293C68.5811 71.0195 67.4173 72.5676 67.2963 74.1531C67.0821 77.007 66.989 79.1427 66.9611 80.1033C66.955 80.2575 67.0028 80.4089 67.0963 80.5315C67.1898 80.6541 67.3231 80.7402 67.4732 80.7748C69.6616 81.2548 71.6985 82.2669 73.4041 83.722Z" fill="#FCEE21" stroke="#00FFFF" stroke-miterlimit="10"/>
<path d="M48.945 102.179C48.851 101.941 48.6729 101.746 48.4446 101.63C48.2163 101.515 47.9537 101.488 47.7067 101.554C45.137 102.235 38.9268 103.018 40.2582 106.739C41.8596 111.3 49.4292 114.48 49.4292 114.48C49.4292 114.48 53.3397 115.683 54.7642 109.024C54.8162 108.794 54.7936 108.554 54.6999 108.337C54.6061 108.121 54.446 107.94 54.2428 107.821C51.9288 106.545 50.0752 104.571 48.945 102.179Z" fill="#FCEE21" stroke="#00FFFF" stroke-miterlimit="10"/>
<path d="M195.625 94.5872C195.625 94.5872 167.87 80.2712 158.382 51.8818C158.382 51.8818 147.749 58.9698 149.072 63.4558C149.072 63.605 149.183 63.7915 149.248 64.006C151.26 69.9376 163.084 97.7581 184.517 104.296L195.625 94.5872Z" fill="#FF6666" stroke="white" stroke-miterlimit="10"/>
<path d="M149.193 63.7915L162.041 62.8589C162.113 62.8534 162.184 62.8686 162.247 62.9028C162.311 62.9371 162.362 62.9888 162.397 63.0518C162.431 63.1149 162.447 63.1865 162.442 63.2582C162.436 63.3299 162.41 63.3985 162.367 63.4558L154.788 73.6588C154.725 73.7425 154.687 73.8431 154.681 73.948C154.675 74.053 154.699 74.1574 154.752 74.2483C154.805 74.3391 154.883 74.4122 154.978 74.4583C155.072 74.5045 155.178 74.5216 155.282 74.5075L167.777 72.9034C167.887 72.8894 168 72.9033 168.104 72.9438C168.207 72.9843 168.3 73.0502 168.372 73.1354C168.444 73.2206 168.494 73.3224 168.517 73.4317C168.539 73.5411 168.535 73.6544 168.503 73.7614L164.564 86.8183C164.542 86.928 164.548 87.0418 164.582 87.1483C164.617 87.2549 164.678 87.3506 164.761 87.426C164.844 87.5014 164.945 87.5538 165.054 87.5781C165.163 87.6023 165.277 87.5976 165.384 87.5644L175.979 83.2277C176.107 83.1758 176.246 83.159 176.383 83.1791C176.519 83.1993 176.647 83.2555 176.755 83.3421C176.862 83.4286 176.944 83.5423 176.993 83.6715C177.041 83.8006 177.055 83.9404 177.031 84.0764L174.853 96.9654C174.833 97.09 174.849 97.2176 174.897 97.334C174.946 97.4504 175.026 97.5509 175.128 97.6245C175.23 97.698 175.351 97.7416 175.477 97.7503C175.603 97.7591 175.728 97.7328 175.84 97.6742L186.314 92.0784C186.409 92.0261 186.518 92.0037 186.626 92.0141C186.734 92.0244 186.836 92.0671 186.919 92.1366C187.003 92.206 187.063 92.299 187.093 92.4034C187.123 92.5077 187.121 92.6187 187.087 92.7219L183.623 103.512" stroke="white" stroke-miterlimit="10"/>
</g>
<path d="M141 192H188L196 176L149.945 176.883L141 192Z" fill="#FF6666"/>
<path d="M136 186H181.635L191 168L144.943 168.98L136 186Z" fill="white" stroke="white" stroke-miterlimit="10"/>
<path d="M144.957 177.35C144.957 178.477 145.198 179.472 145.679 180.333C146.16 181.194 146.806 181.872 147.617 182.366C148.428 182.86 149.333 183.107 150.334 183.107C150.967 183.107 151.544 183.037 152.063 182.898C152.582 182.759 153.051 182.55 153.469 182.271C153.9 181.992 154.28 181.663 154.609 181.283V182.689C154.052 183.183 153.444 183.557 152.785 183.81C152.126 184.051 151.309 184.171 150.334 184.171C149.409 184.171 148.548 184.006 147.75 183.677C146.965 183.335 146.281 182.86 145.698 182.252C145.115 181.644 144.659 180.922 144.33 180.086C144.001 179.25 143.836 178.338 143.836 177.35C143.836 176.362 144.001 175.45 144.33 174.614C144.659 173.778 145.115 173.056 145.698 172.448C146.281 171.84 146.965 171.371 147.75 171.042C148.548 170.7 149.409 170.529 150.334 170.529C151.309 170.529 152.126 170.656 152.785 170.909C153.444 171.15 154.052 171.517 154.609 172.011V173.398C154.28 173.018 153.9 172.695 153.469 172.429C153.038 172.15 152.563 171.941 152.044 171.802C151.525 171.663 150.955 171.593 150.334 171.593C149.333 171.593 148.428 171.84 147.617 172.334C146.806 172.815 146.16 173.487 145.679 174.348C145.198 175.209 144.957 176.21 144.957 177.35Z" fill="black"/>
<path d="M156.654 170.609H157.265C156.797 171.605 156.455 172.641 156.238 173.716C156.021 174.782 155.913 175.869 155.913 176.979C155.913 178.079 156.021 179.167 156.238 180.242C156.455 181.308 156.797 182.343 157.265 183.349H156.654C156.134 182.369 155.753 181.338 155.51 180.255C155.276 179.171 155.159 178.079 155.159 176.979C155.159 175.869 155.276 174.773 155.51 173.69C155.753 172.606 156.134 171.579 156.654 170.609ZM162.52 176.901C162.52 176.389 162.407 175.991 162.182 175.705C161.957 175.419 161.601 175.276 161.116 175.276C160.778 175.276 160.475 175.358 160.206 175.523C159.946 175.679 159.738 175.895 159.582 176.173C159.435 176.45 159.361 176.762 159.361 177.109V180.749H158.685V174.769H159.361V176.017C159.526 175.583 159.773 175.245 160.102 175.003C160.44 174.76 160.83 174.639 161.272 174.639C161.896 174.639 162.373 174.838 162.702 175.237C163.031 175.627 163.196 176.155 163.196 176.823V180.749H162.52V176.901ZM166.288 179.397L166.964 179.657L165.534 182.907L165.053 182.738L166.288 179.397ZM176.7 176.823V180.749H176.024V176.901C176.024 176.381 175.925 175.982 175.725 175.705C175.526 175.419 175.218 175.276 174.802 175.276C174.508 175.276 174.239 175.354 173.996 175.51C173.762 175.666 173.576 175.882 173.437 176.16C173.299 176.437 173.229 176.753 173.229 177.109V180.749H172.553V176.901C172.553 176.381 172.454 175.982 172.254 175.705C172.055 175.419 171.747 175.276 171.331 175.276C171.037 175.276 170.768 175.354 170.525 175.51C170.291 175.666 170.105 175.882 169.966 176.16C169.828 176.437 169.758 176.753 169.758 177.109V180.749H169.082V174.769H169.758V175.978C169.914 175.553 170.144 175.224 170.447 174.99C170.751 174.756 171.097 174.639 171.487 174.639C171.921 174.639 172.276 174.764 172.553 175.016C172.831 175.258 173.017 175.592 173.112 176.017C173.286 175.583 173.537 175.245 173.866 175.003C174.196 174.76 174.56 174.639 174.958 174.639C175.331 174.639 175.647 174.725 175.907 174.899C176.167 175.072 176.362 175.323 176.492 175.653C176.631 175.982 176.7 176.372 176.7 176.823ZM178.73 183.349H178.119C178.587 182.343 178.93 181.308 179.146 180.242C179.363 179.167 179.471 178.079 179.471 176.979C179.471 175.869 179.363 174.782 179.146 173.716C178.93 172.641 178.587 171.605 178.119 170.609H178.73C179.25 171.579 179.627 172.606 179.861 173.69C180.104 174.773 180.225 175.869 180.225 176.979C180.225 178.079 180.104 179.171 179.861 180.255C179.627 181.338 179.25 182.369 178.73 183.349Z" fill="black"/>
<path d="M36.1213 198.5L31.6513 206.81C31.2213 207.61 30.7013 208.215 30.0913 208.625C29.4913 209.035 28.8363 209.24 28.1263 209.24C27.5763 209.24 27.0063 209.12 26.4163 208.88L27.0013 207.035C27.4213 207.165 27.7713 207.23 28.0513 207.23C28.3513 207.23 28.6213 207.16 28.8613 207.02C29.1013 206.87 29.3213 206.64 29.5213 206.33L29.6113 206.21L25.4713 198.5H28.0663L30.8563 204.14L33.7363 198.5H36.1213ZM41.5435 200.81C42.2935 200.81 42.9735 200.985 43.5835 201.335C44.2035 201.675 44.6885 202.16 45.0385 202.79C45.3885 203.41 45.5635 204.135 45.5635 204.965C45.5635 205.795 45.3885 206.525 45.0385 207.155C44.6885 207.775 44.2035 208.26 43.5835 208.61C42.9735 208.95 42.2935 209.12 41.5435 209.12C40.5135 209.12 39.7035 208.795 39.1135 208.145V211.91H36.7735V200.93H39.0085V201.86C39.5885 201.16 40.4335 200.81 41.5435 200.81ZM41.1385 207.2C41.7385 207.2 42.2285 207 42.6085 206.6C42.9985 206.19 43.1935 205.645 43.1935 204.965C43.1935 204.285 42.9985 203.745 42.6085 203.345C42.2285 202.935 41.7385 202.73 41.1385 202.73C40.5385 202.73 40.0435 202.935 39.6535 203.345C39.2735 203.745 39.0835 204.285 39.0835 204.965C39.0835 205.645 39.2735 206.19 39.6535 206.6C40.0435 207 40.5385 207.2 41.1385 207.2ZM50.9835 209.12C50.1335 209.12 49.3685 208.945 48.6885 208.595C48.0185 208.235 47.4935 207.74 47.1135 207.11C46.7335 206.48 46.5435 205.765 46.5435 204.965C46.5435 204.165 46.7335 203.45 47.1135 202.82C47.4935 202.19 48.0185 201.7 48.6885 201.35C49.3685 200.99 50.1335 200.81 50.9835 200.81C51.8335 200.81 52.5935 200.99 53.2635 201.35C53.9335 201.7 54.4585 202.19 54.8385 202.82C55.2185 203.45 55.4085 204.165 55.4085 204.965C55.4085 205.765 55.2185 206.48 54.8385 207.11C54.4585 207.74 53.9335 208.235 53.2635 208.595C52.5935 208.945 51.8335 209.12 50.9835 209.12ZM50.9835 207.2C51.5835 207.2 52.0735 207 52.4535 206.6C52.8435 206.19 53.0385 205.645 53.0385 204.965C53.0385 204.285 52.8435 203.745 52.4535 203.345C52.0735 202.935 51.5835 202.73 50.9835 202.73C50.3835 202.73 49.8885 202.935 49.4985 203.345C49.1085 203.745 48.9135 204.285 48.9135 204.965C48.9135 205.645 49.1085 206.19 49.4985 206.6C49.8885 207 50.3835 207.2 50.9835 207.2ZM60.5729 205.94H59.3579V209H57.0179V200.93H59.3579V204.065H60.6179L62.8079 200.93H65.2979L62.4779 204.8L65.4929 209H62.7329L60.5729 205.94ZM78.195 207.02V209H70.26V207.425L74.31 203.6C74.74 203.19 75.03 202.84 75.18 202.55C75.33 202.25 75.405 201.955 75.405 201.665C75.405 201.245 75.26 200.925 74.97 200.705C74.69 200.475 74.275 200.36 73.725 200.36C73.265 200.36 72.85 200.45 72.48 200.63C72.11 200.8 71.8 201.06 71.55 201.41L69.78 200.27C70.19 199.66 70.755 199.185 71.475 198.845C72.195 198.495 73.02 198.32 73.95 198.32C74.73 198.32 75.41 198.45 75.99 198.71C76.58 198.96 77.035 199.32 77.355 199.79C77.685 200.25 77.85 200.795 77.85 201.425C77.85 201.995 77.73 202.53 77.49 203.03C77.25 203.53 76.785 204.1 76.095 204.74L73.68 207.02H78.195Z" fill="white"/>
</g>
<defs>
<radialGradient id="paint0_radial_303_221" cx="0" cy="0" r="1" gradientUnits="userSpaceOnUse" gradientTransform="translate(110 112.5) rotate(-45.6437) scale(157.341)">
<stop stop-color="#9657EE"/>
<stop offset="1" stop-color="#9657EE" stop-opacity="0"/>
</radialGradient>
<clipPath id="clip0_303_221">
<rect width="226" height="226" fill="white"/>
</clipPath>
<clipPath id="clip1_303_221">
<rect width="175.459" height="139" fill="white" transform="translate(22 40)"/>
</clipPath>
</defs>
</svg>
