<svg width="225" height="225" viewBox="0 0 225 225" fill="none" xmlns="http://www.w3.org/2000/svg">
<g clip-path="url(#clip0_122_22604)">
<rect x="0.5" y="0.5" width="222" height="224.343" rx="16.5714" fill="url(#paint0_radial_122_22604)" fill-opacity="0.3" stroke="#67409F"/>
<path d="M41.4586 100.18C40.3686 100.18 39.3836 99.945 38.5036 99.475C37.6336 99.005 36.9486 98.36 36.4486 97.54C35.9586 96.71 35.7136 95.78 35.7136 94.75C35.7136 93.72 35.9586 92.795 36.4486 91.975C36.9486 91.145 37.6336 90.495 38.5036 90.025C39.3836 89.555 40.3686 89.32 41.4586 89.32C42.5486 89.32 43.5286 89.555 44.3986 90.025C45.2686 90.495 45.9536 91.145 46.4536 91.975C46.9536 92.795 47.2036 93.72 47.2036 94.75C47.2036 95.78 46.9536 96.71 46.4536 97.54C45.9536 98.36 45.2686 99.005 44.3986 99.475C43.5286 99.945 42.5486 100.18 41.4586 100.18ZM41.4586 98.11C42.0786 98.11 42.6386 97.97 43.1386 97.69C43.6386 97.4 44.0286 97 44.3086 96.49C44.5986 95.98 44.7436 95.4 44.7436 94.75C44.7436 94.1 44.5986 93.52 44.3086 93.01C44.0286 92.5 43.6386 92.105 43.1386 91.825C42.6386 91.535 42.0786 91.39 41.4586 91.39C40.8386 91.39 40.2786 91.535 39.7786 91.825C39.2786 92.105 38.8836 92.5 38.5936 93.01C38.3136 93.52 38.1736 94.1 38.1736 94.75C38.1736 95.4 38.3136 95.98 38.5936 96.49C38.8836 97 39.2786 97.4 39.7786 97.69C40.2786 97.97 40.8386 98.11 41.4586 98.11ZM55.3605 93.85H51.2205V100H48.8955V91.93H55.3605V93.85ZM60.0437 100.12C59.1937 100.12 58.4287 99.945 57.7487 99.595C57.0787 99.235 56.5537 98.74 56.1737 98.11C55.7937 97.48 55.6037 96.765 55.6037 95.965C55.6037 95.165 55.7937 94.45 56.1737 93.82C56.5537 93.19 57.0787 92.7 57.7487 92.35C58.4287 91.99 59.1937 91.81 60.0437 91.81C60.8937 91.81 61.6537 91.99 62.3237 92.35C62.9937 92.7 63.5187 93.19 63.8987 93.82C64.2787 94.45 64.4687 95.165 64.4687 95.965C64.4687 96.765 64.2787 97.48 63.8987 98.11C63.5187 98.74 62.9937 99.235 62.3237 99.595C61.6537 99.945 60.8937 100.12 60.0437 100.12ZM60.0437 98.2C60.6437 98.2 61.1337 98 61.5137 97.6C61.9037 97.19 62.0987 96.645 62.0987 95.965C62.0987 95.285 61.9037 94.745 61.5137 94.345C61.1337 93.935 60.6437 93.73 60.0437 93.73C59.4437 93.73 58.9487 93.935 58.5587 94.345C58.1687 94.745 57.9737 95.285 57.9737 95.965C57.9737 96.645 58.1687 97.19 58.5587 97.6C58.9487 98 59.4437 98.2 60.0437 98.2ZM66.8306 97.21C67.2506 97.21 67.5956 97.345 67.8656 97.615C68.1356 97.875 68.2706 98.22 68.2706 98.65C68.2706 98.85 68.2456 99.05 68.1956 99.25C68.1456 99.45 68.0356 99.75 67.8656 100.15L67.0106 102.31H65.5256L66.1856 99.925C65.9356 99.825 65.7356 99.665 65.5856 99.445C65.4456 99.215 65.3756 98.95 65.3756 98.65C65.3756 98.22 65.5106 97.875 65.7806 97.615C66.0606 97.345 66.4106 97.21 66.8306 97.21ZM80.9294 93.85H78.1994V100H75.8744V93.85H73.1444V91.93H80.9294V93.85ZM86.4218 94.51C87.4718 94.52 88.2668 94.755 88.8068 95.215C89.3468 95.675 89.6168 96.335 89.6168 97.195C89.6168 98.095 89.3118 98.79 88.7018 99.28C88.0918 99.77 87.2268 100.015 86.1068 100.015L82.1768 100V91.93H84.5018V94.51H86.4218ZM90.4868 91.93H92.8118V100H90.4868V91.93ZM85.8968 98.35C86.3468 98.36 86.6918 98.265 86.9318 98.065C87.1718 97.865 87.2918 97.565 87.2918 97.165C87.2918 96.775 87.1718 96.49 86.9318 96.31C86.7018 96.13 86.3568 96.035 85.8968 96.025L84.5018 96.01V98.35H85.8968ZM103.095 100.12C102.245 100.12 101.48 99.945 100.8 99.595C100.13 99.235 99.6054 98.74 99.2254 98.11C98.8454 97.48 98.6554 96.765 98.6554 95.965C98.6554 95.165 98.8454 94.45 99.2254 93.82C99.6054 93.19 100.13 92.7 100.8 92.35C101.48 91.99 102.245 91.81 103.095 91.81C103.945 91.81 104.705 91.99 105.375 92.35C106.045 92.7 106.57 93.19 106.95 93.82C107.33 94.45 107.52 95.165 107.52 95.965C107.52 96.765 107.33 97.48 106.95 98.11C106.57 98.74 106.045 99.235 105.375 99.595C104.705 99.945 103.945 100.12 103.095 100.12ZM103.095 98.2C103.695 98.2 104.185 98 104.565 97.6C104.955 97.19 105.15 96.645 105.15 95.965C105.15 95.285 104.955 94.745 104.565 94.345C104.185 93.935 103.695 93.73 103.095 93.73C102.495 93.73 102 93.935 101.61 94.345C101.22 94.745 101.025 95.285 101.025 95.965C101.025 96.645 101.22 97.19 101.61 97.6C102 98 102.495 98.2 103.095 98.2ZM113.795 92.485C114.565 92.485 115.24 92.645 115.82 92.965C116.4 93.275 116.845 93.715 117.155 94.285C117.475 94.855 117.635 95.515 117.635 96.265C117.635 97.035 117.445 97.72 117.065 98.32C116.695 98.91 116.175 99.37 115.505 99.7C114.835 100.02 114.075 100.18 113.225 100.18C111.815 100.18 110.705 99.73 109.895 98.83C109.095 97.92 108.695 96.59 108.695 94.84C108.695 93.22 109.045 91.93 109.745 90.97C110.455 90 111.54 89.365 113 89.065L116.84 88.3L117.155 90.31L113.765 90.985C112.845 91.165 112.16 91.465 111.71 91.885C111.27 92.305 111.01 92.9 110.93 93.67C111.28 93.29 111.7 93 112.19 92.8C112.68 92.59 113.215 92.485 113.795 92.485ZM113.24 98.365C113.84 98.365 114.32 98.17 114.68 97.78C115.05 97.39 115.235 96.895 115.235 96.295C115.235 95.685 115.05 95.2 114.68 94.84C114.32 94.48 113.84 94.3 113.24 94.3C112.63 94.3 112.14 94.48 111.77 94.84C111.4 95.2 111.215 95.685 111.215 96.295C111.215 96.905 111.405 97.405 111.785 97.795C112.165 98.175 112.65 98.365 113.24 98.365ZM119.223 91.93H121.548V95.08H125.058V91.93H127.398V100H125.058V96.985H121.548V100H119.223V91.93ZM132.773 91.81C134.023 91.81 134.983 92.11 135.653 92.71C136.323 93.3 136.658 94.195 136.658 95.395V100H134.468V98.995C134.028 99.745 133.208 100.12 132.008 100.12C131.388 100.12 130.848 100.015 130.388 99.805C129.938 99.595 129.593 99.305 129.353 98.935C129.113 98.565 128.993 98.145 128.993 97.675C128.993 96.925 129.273 96.335 129.833 95.905C130.403 95.475 131.278 95.26 132.458 95.26H134.318C134.318 94.75 134.163 94.36 133.853 94.09C133.543 93.81 133.078 93.67 132.458 93.67C132.028 93.67 131.603 93.74 131.183 93.88C130.773 94.01 130.423 94.19 130.133 94.42L129.293 92.785C129.733 92.475 130.258 92.235 130.868 92.065C131.488 91.895 132.123 91.81 132.773 91.81ZM132.593 98.545C132.993 98.545 133.348 98.455 133.658 98.275C133.968 98.085 134.188 97.81 134.318 97.45V96.625H132.713C131.753 96.625 131.273 96.94 131.273 97.57C131.273 97.87 131.388 98.11 131.618 98.29C131.858 98.46 132.183 98.545 132.593 98.545ZM143.445 91.81C144.195 91.81 144.875 91.985 145.485 92.335C146.105 92.675 146.59 93.16 146.94 93.79C147.29 94.41 147.465 95.135 147.465 95.965C147.465 96.795 147.29 97.525 146.94 98.155C146.59 98.775 146.105 99.26 145.485 99.61C144.875 99.95 144.195 100.12 143.445 100.12C142.415 100.12 141.605 99.795 141.015 99.145V102.91H138.675V91.93H140.91V92.86C141.49 92.16 142.335 91.81 143.445 91.81ZM143.04 98.2C143.64 98.2 144.13 98 144.51 97.6C144.9 97.19 145.095 96.645 145.095 95.965C145.095 95.285 144.9 94.745 144.51 94.345C144.13 93.935 143.64 93.73 143.04 93.73C142.44 93.73 141.945 93.935 141.555 94.345C141.175 94.745 140.985 95.285 140.985 95.965C140.985 96.645 141.175 97.19 141.555 97.6C141.945 98 142.44 98.2 143.04 98.2ZM156.971 91.93L153.326 100.495C152.956 101.425 152.496 102.08 151.946 102.46C151.406 102.84 150.751 103.03 149.981 103.03C149.561 103.03 149.146 102.965 148.736 102.835C148.326 102.705 147.991 102.525 147.731 102.295L148.586 100.63C148.766 100.79 148.971 100.915 149.201 101.005C149.441 101.095 149.676 101.14 149.906 101.14C150.226 101.14 150.486 101.06 150.686 100.9C150.886 100.75 151.066 100.495 151.226 100.135L151.256 100.06L147.761 91.93H150.176L152.441 97.405L154.721 91.93H156.971ZM165.641 96.94H164.516V100H162.206V96.94H161.081L159.371 100H156.611L159.146 95.83L156.791 91.93H159.266L161.051 95.065H162.206V91.93H164.516V95.065H165.656L167.456 91.93H169.931L167.576 95.83L170.126 100H167.351L165.641 96.94ZM171.342 91.93H173.667V96.73L177.597 91.93H179.742V100H177.417V95.2L173.502 100H171.342V91.93ZM189.731 91.93V100H187.391V93.85H184.841L184.766 95.275C184.726 96.335 184.626 97.215 184.466 97.915C184.306 98.615 184.046 99.165 183.686 99.565C183.326 99.965 182.826 100.165 182.186 100.165C181.846 100.165 181.441 100.105 180.971 99.985L181.091 98.065C181.251 98.085 181.366 98.095 181.436 98.095C181.786 98.095 182.046 97.97 182.216 97.72C182.396 97.46 182.516 97.135 182.576 96.745C182.636 96.345 182.681 95.82 182.711 95.17L182.831 91.93H189.731ZM63.6919 118V113.17L61.2769 117.22H60.2869L57.9319 113.155V118H55.8169V109.93H58.2619L60.8419 114.595L63.5869 109.93H65.7769L65.8069 118H63.6919ZM71.8283 118.12C70.9783 118.12 70.2133 117.945 69.5333 117.595C68.8633 117.235 68.3383 116.74 67.9583 116.11C67.5783 115.48 67.3883 114.765 67.3883 113.965C67.3883 113.165 67.5783 112.45 67.9583 111.82C68.3383 111.19 68.8633 110.7 69.5333 110.35C70.2133 109.99 70.9783 109.81 71.8283 109.81C72.6783 109.81 73.4383 109.99 74.1083 110.35C74.7783 110.7 75.3033 111.19 75.6833 111.82C76.0633 112.45 76.2533 113.165 76.2533 113.965C76.2533 114.765 76.0633 115.48 75.6833 116.11C75.3033 116.74 74.7783 117.235 74.1083 117.595C73.4383 117.945 72.6783 118.12 71.8283 118.12ZM71.8283 116.2C72.4283 116.2 72.9183 116 73.2983 115.6C73.6883 115.19 73.8833 114.645 73.8833 113.965C73.8833 113.285 73.6883 112.745 73.2983 112.345C72.9183 111.935 72.4283 111.73 71.8283 111.73C71.2283 111.73 70.7333 111.935 70.3433 112.345C69.9533 112.745 69.7583 113.285 69.7583 113.965C69.7583 114.645 69.9533 115.19 70.3433 115.6C70.7333 116 71.2283 116.2 71.8283 116.2ZM85.4978 109.81C86.3178 109.81 87.0528 109.99 87.7028 110.35C88.3528 110.7 88.8628 111.19 89.2328 111.82C89.6028 112.45 89.7878 113.165 89.7878 113.965C89.7878 114.765 89.6028 115.48 89.2328 116.11C88.8628 116.74 88.3528 117.235 87.7028 117.595C87.0528 117.945 86.3178 118.12 85.4978 118.12C84.7878 118.12 84.1378 117.99 83.5478 117.73C82.9578 117.46 82.4678 117.085 82.0778 116.605C81.6878 116.115 81.4278 115.555 81.2978 114.925H80.1878V118H77.8628V109.93H80.1878V112.9H81.3128C81.5428 111.96 82.0328 111.21 82.7828 110.65C83.5328 110.09 84.4378 109.81 85.4978 109.81ZM85.4978 116.2C86.0678 116.2 86.5378 116 86.9078 115.6C87.2878 115.19 87.4778 114.645 87.4778 113.965C87.4778 113.275 87.2878 112.73 86.9078 112.33C86.5378 111.93 86.0678 111.73 85.4978 111.73C84.9178 111.73 84.4378 111.93 84.0578 112.33C83.6878 112.73 83.5028 113.275 83.5028 113.965C83.5028 114.645 83.6878 115.19 84.0578 115.6C84.4378 116 84.9178 116.2 85.4978 116.2ZM100.896 113.8C101.376 113.95 101.746 114.18 102.006 114.49C102.276 114.8 102.411 115.17 102.411 115.6C102.411 116.11 102.236 116.56 101.886 116.95C101.536 117.33 101.056 117.625 100.446 117.835C99.8356 118.045 99.1456 118.15 98.3756 118.15C97.7456 118.15 97.1256 118.085 96.5156 117.955C95.9056 117.825 95.3406 117.63 94.8206 117.37L95.4506 115.735C96.3006 116.145 97.2406 116.35 98.2706 116.35C98.8206 116.35 99.2506 116.27 99.5606 116.11C99.8806 115.94 100.041 115.705 100.041 115.405C100.041 115.145 99.9306 114.95 99.7106 114.82C99.4906 114.68 99.1706 114.61 98.7506 114.61H97.1006V113.155H98.5406C98.9506 113.155 99.2656 113.09 99.4856 112.96C99.7056 112.83 99.8156 112.64 99.8156 112.39C99.8156 112.13 99.6756 111.93 99.3956 111.79C99.1256 111.65 98.7356 111.58 98.2256 111.58C97.4456 111.58 96.5956 111.765 95.6756 112.135L95.1056 110.515C96.2256 110.025 97.3156 109.78 98.3756 109.78C99.1056 109.78 99.7556 109.87 100.326 110.05C100.906 110.23 101.361 110.495 101.691 110.845C102.021 111.185 102.186 111.585 102.186 112.045C102.186 112.425 102.071 112.77 101.841 113.08C101.611 113.38 101.296 113.62 100.896 113.8ZM107.248 109.81C108.498 109.81 109.458 110.11 110.128 110.71C110.798 111.3 111.133 112.195 111.133 113.395V118H108.943V116.995C108.503 117.745 107.683 118.12 106.483 118.12C105.863 118.12 105.323 118.015 104.863 117.805C104.413 117.595 104.068 117.305 103.828 116.935C103.588 116.565 103.468 116.145 103.468 115.675C103.468 114.925 103.748 114.335 104.308 113.905C104.878 113.475 105.753 113.26 106.933 113.26H108.793C108.793 112.75 108.638 112.36 108.328 112.09C108.018 111.81 107.553 111.67 106.933 111.67C106.503 111.67 106.078 111.74 105.658 111.88C105.248 112.01 104.898 112.19 104.608 112.42L103.768 110.785C104.208 110.475 104.733 110.235 105.343 110.065C105.963 109.895 106.598 109.81 107.248 109.81ZM107.068 116.545C107.468 116.545 107.823 116.455 108.133 116.275C108.443 116.085 108.663 115.81 108.793 115.45V114.625H107.188C106.228 114.625 105.748 114.94 105.748 115.57C105.748 115.87 105.863 116.11 106.093 116.29C106.333 116.46 106.658 116.545 107.068 116.545ZM119.631 111.85H115.491V118H113.166V109.93H119.631V111.85ZM128.025 109.93V118H125.685V111.85H123.135L123.06 113.275C123.02 114.335 122.92 115.215 122.76 115.915C122.6 116.615 122.34 117.165 121.98 117.565C121.62 117.965 121.12 118.165 120.48 118.165C120.14 118.165 119.735 118.105 119.265 117.985L119.385 116.065C119.545 116.085 119.66 116.095 119.73 116.095C120.08 116.095 120.34 115.97 120.51 115.72C120.69 115.46 120.81 115.135 120.87 114.745C120.93 114.345 120.975 113.82 121.005 113.17L121.125 109.93H128.025ZM138.36 109.93L134.715 118.495C134.345 119.425 133.885 120.08 133.335 120.46C132.795 120.84 132.14 121.03 131.37 121.03C130.95 121.03 130.535 120.965 130.125 120.835C129.715 120.705 129.38 120.525 129.12 120.295L129.975 118.63C130.155 118.79 130.36 118.915 130.59 119.005C130.83 119.095 131.065 119.14 131.295 119.14C131.615 119.14 131.875 119.06 132.075 118.9C132.275 118.75 132.455 118.495 132.615 118.135L132.645 118.06L129.15 109.93H131.565L133.83 115.405L136.11 109.93H138.36ZM151.804 109.93V118H139.489V109.93H141.814V116.08H144.499V109.93H146.824V116.08H149.479V109.93H151.804ZM157.604 114.94H156.389V118H154.049V109.93H156.389V113.065H157.649L159.839 109.93H162.329L159.509 113.8L162.524 118H159.764L157.604 114.94ZM171.304 109.93L167.659 118.495C167.289 119.425 166.829 120.08 166.279 120.46C165.739 120.84 165.084 121.03 164.314 121.03C163.894 121.03 163.479 120.965 163.069 120.835C162.659 120.705 162.324 120.525 162.064 120.295L162.919 118.63C163.099 118.79 163.304 118.915 163.534 119.005C163.774 119.095 164.009 119.14 164.239 119.14C164.559 119.14 164.819 119.06 165.019 118.9C165.219 118.75 165.399 118.495 165.559 118.135L165.589 118.06L162.094 109.93H164.509L166.774 115.405L169.054 109.93H171.304ZM70.4888 125.5V136H68.0738V127.48H63.3338V136H60.9188V125.5H70.4888ZM76.6916 136.12C75.8416 136.12 75.0766 135.945 74.3966 135.595C73.7266 135.235 73.2016 134.74 72.8216 134.11C72.4416 133.48 72.2516 132.765 72.2516 131.965C72.2516 131.165 72.4416 130.45 72.8216 129.82C73.2016 129.19 73.7266 128.7 74.3966 128.35C75.0766 127.99 75.8416 127.81 76.6916 127.81C77.5416 127.81 78.3016 127.99 78.9716 128.35C79.6416 128.7 80.1666 129.19 80.5466 129.82C80.9266 130.45 81.1166 131.165 81.1166 131.965C81.1166 132.765 80.9266 133.48 80.5466 134.11C80.1666 134.74 79.6416 135.235 78.9716 135.595C78.3016 135.945 77.5416 136.12 76.6916 136.12ZM76.6916 134.2C77.2916 134.2 77.7816 134 78.1616 133.6C78.5516 133.19 78.7466 132.645 78.7466 131.965C78.7466 131.285 78.5516 130.745 78.1616 130.345C77.7816 129.935 77.2916 129.73 76.6916 129.73C76.0916 129.73 75.5966 129.935 75.2066 130.345C74.8166 130.745 74.6216 131.285 74.6216 131.965C74.6216 132.645 74.8166 133.19 75.2066 133.6C75.5966 134 76.0916 134.2 76.6916 134.2ZM87.8146 131.8C88.2946 131.95 88.6646 132.18 88.9246 132.49C89.1946 132.8 89.3296 133.17 89.3296 133.6C89.3296 134.11 89.1546 134.56 88.8046 134.95C88.4546 135.33 87.9746 135.625 87.3646 135.835C86.7546 136.045 86.0646 136.15 85.2946 136.15C84.6646 136.15 84.0446 136.085 83.4346 135.955C82.8246 135.825 82.2596 135.63 81.7396 135.37L82.3696 133.735C83.2196 134.145 84.1596 134.35 85.1896 134.35C85.7396 134.35 86.1696 134.27 86.4796 134.11C86.7996 133.94 86.9596 133.705 86.9596 133.405C86.9596 133.145 86.8496 132.95 86.6296 132.82C86.4096 132.68 86.0896 132.61 85.6696 132.61H84.0196V131.155H85.4596C85.8696 131.155 86.1846 131.09 86.4046 130.96C86.6246 130.83 86.7346 130.64 86.7346 130.39C86.7346 130.13 86.5946 129.93 86.3146 129.79C86.0446 129.65 85.6546 129.58 85.1446 129.58C84.3646 129.58 83.5146 129.765 82.5946 130.135L82.0246 128.515C83.1446 128.025 84.2346 127.78 85.2946 127.78C86.0246 127.78 86.6746 127.87 87.2446 128.05C87.8246 128.23 88.2796 128.495 88.6096 128.845C88.9396 129.185 89.1046 129.585 89.1046 130.045C89.1046 130.425 88.9896 130.77 88.7596 131.08C88.5296 131.38 88.2146 131.62 87.8146 131.8ZM100.077 134.08V137.74H97.9017V136H92.2317V137.74H90.0567V134.08H90.3867C90.8867 134.07 91.2317 133.775 91.4217 133.195C91.6117 132.615 91.7317 131.79 91.7817 130.72L91.8867 127.93H98.9217V134.08H100.077ZM93.8967 130.885C93.8667 131.705 93.8017 132.375 93.7017 132.895C93.6117 133.415 93.4367 133.81 93.1767 134.08H96.5817V129.85H93.9417L93.8967 130.885ZM106.304 127.81C107.054 127.81 107.734 127.985 108.344 128.335C108.964 128.675 109.449 129.16 109.799 129.79C110.149 130.41 110.324 131.135 110.324 131.965C110.324 132.795 110.149 133.525 109.799 134.155C109.449 134.775 108.964 135.26 108.344 135.61C107.734 135.95 107.054 136.12 106.304 136.12C105.274 136.12 104.464 135.795 103.874 135.145V138.91H101.534V127.93H103.769V128.86C104.349 128.16 105.194 127.81 106.304 127.81ZM105.899 134.2C106.499 134.2 106.989 134 107.369 133.6C107.759 133.19 107.954 132.645 107.954 131.965C107.954 131.285 107.759 130.745 107.369 130.345C106.989 129.935 106.499 129.73 105.899 129.73C105.299 129.73 104.804 129.935 104.414 130.345C104.034 130.745 103.844 131.285 103.844 131.965C103.844 132.645 104.034 133.19 104.414 133.6C104.804 134 105.299 134.2 105.899 134.2ZM114.968 127.81C116.218 127.81 117.178 128.11 117.848 128.71C118.518 129.3 118.853 130.195 118.853 131.395V136H116.663V134.995C116.223 135.745 115.403 136.12 114.203 136.12C113.583 136.12 113.043 136.015 112.583 135.805C112.133 135.595 111.788 135.305 111.548 134.935C111.308 134.565 111.188 134.145 111.188 133.675C111.188 132.925 111.468 132.335 112.028 131.905C112.598 131.475 113.473 131.26 114.653 131.26H116.513C116.513 130.75 116.358 130.36 116.048 130.09C115.738 129.81 115.273 129.67 114.653 129.67C114.223 129.67 113.798 129.74 113.378 129.88C112.968 130.01 112.618 130.19 112.328 130.42L111.488 128.785C111.928 128.475 112.453 128.235 113.063 128.065C113.683 127.895 114.318 127.81 114.968 127.81ZM114.788 134.545C115.188 134.545 115.543 134.455 115.853 134.275C116.163 134.085 116.383 133.81 116.513 133.45V132.625H114.908C113.948 132.625 113.468 132.94 113.468 133.57C113.468 133.87 113.583 134.11 113.813 134.29C114.053 134.46 114.378 134.545 114.788 134.545ZM127.05 131.785C128 132.105 128.475 132.745 128.475 133.705C128.475 134.435 128.2 135 127.65 135.4C127.1 135.8 126.28 136 125.19 136H120.885V127.93H125.01C126.02 127.93 126.81 128.115 127.38 128.485C127.95 128.845 128.235 129.355 128.235 130.015C128.235 130.415 128.13 130.77 127.92 131.08C127.72 131.38 127.43 131.615 127.05 131.785ZM123.03 131.245H124.8C125.62 131.245 126.03 130.955 126.03 130.375C126.03 129.805 125.62 129.52 124.8 129.52H123.03V131.245ZM124.995 134.41C125.855 134.41 126.285 134.115 126.285 133.525C126.285 133.215 126.185 132.99 125.985 132.85C125.785 132.7 125.47 132.625 125.04 132.625H123.03V134.41H124.995ZM137.956 127.93V136H135.616V129.85H133.066L132.991 131.275C132.951 132.335 132.851 133.215 132.691 133.915C132.531 134.615 132.271 135.165 131.911 135.565C131.551 135.965 131.051 136.165 130.411 136.165C130.071 136.165 129.666 136.105 129.196 135.985L129.316 134.065C129.476 134.085 129.591 134.095 129.661 134.095C130.011 134.095 130.271 133.97 130.441 133.72C130.621 133.46 130.741 133.135 130.801 132.745C130.861 132.345 130.906 131.82 130.936 131.17L131.056 127.93H137.956ZM147.377 127.93V136H145.292V133.69H143.567L142.037 136H139.547L141.392 133.36C140.832 133.14 140.402 132.825 140.102 132.415C139.812 131.995 139.667 131.49 139.667 130.9C139.667 129.95 140.007 129.22 140.687 128.71C141.377 128.19 142.322 127.93 143.522 127.93H147.377ZM143.567 129.835C143.067 129.835 142.687 129.925 142.427 130.105C142.177 130.285 142.052 130.575 142.052 130.975C142.052 131.375 142.172 131.67 142.412 131.86C142.662 132.04 143.037 132.13 143.537 132.13H145.292V129.835H143.567ZM157.26 127.81C158.08 127.81 158.815 127.99 159.465 128.35C160.115 128.7 160.625 129.19 160.995 129.82C161.365 130.45 161.55 131.165 161.55 131.965C161.55 132.765 161.365 133.48 160.995 134.11C160.625 134.74 160.115 135.235 159.465 135.595C158.815 135.945 158.08 136.12 157.26 136.12C156.55 136.12 155.9 135.99 155.31 135.73C154.72 135.46 154.23 135.085 153.84 134.605C153.45 134.115 153.19 133.555 153.06 132.925H151.95V136H149.625V127.93H151.95V130.9H153.075C153.305 129.96 153.795 129.21 154.545 128.65C155.295 128.09 156.2 127.81 157.26 127.81ZM157.26 134.2C157.83 134.2 158.3 134 158.67 133.6C159.05 133.19 159.24 132.645 159.24 131.965C159.24 131.275 159.05 130.73 158.67 130.33C158.3 129.93 157.83 129.73 157.26 129.73C156.68 129.73 156.2 129.93 155.82 130.33C155.45 130.73 155.265 131.275 155.265 131.965C155.265 132.645 155.45 133.19 155.82 133.6C156.2 134 156.68 134.2 157.26 134.2ZM162.83 125.5H165.62L165.155 132.355H163.295L162.83 125.5ZM164.225 136.12C163.815 136.12 163.47 135.99 163.19 135.73C162.92 135.46 162.785 135.135 162.785 134.755C162.785 134.375 162.92 134.06 163.19 133.81C163.46 133.55 163.805 133.42 164.225 133.42C164.645 133.42 164.99 133.55 165.26 133.81C165.53 134.06 165.665 134.375 165.665 134.755C165.665 135.135 165.525 135.46 165.245 135.73C164.975 135.99 164.635 136.12 164.225 136.12Z" fill="white"/>
</g>
<defs>
<radialGradient id="paint0_radial_122_22604" cx="0" cy="0" r="1" gradientUnits="userSpaceOnUse" gradientTransform="translate(108.856 112.5) rotate(-45.943) scale(156.544 156.498)">
<stop stop-color="#9657EE"/>
<stop offset="1" stop-color="#9657EE" stop-opacity="0"/>
</radialGradient>
<clipPath id="clip0_122_22604">
<rect width="225" height="225" fill="white"/>
</clipPath>
</defs>
</svg>
