<svg width="226" height="226" viewBox="0 0 226 226" fill="none" xmlns="http://www.w3.org/2000/svg">
<g clip-path="url(#clip0_189_31696)">
<rect x="0.5" y="0.5" width="224.34" height="224.343" rx="16.5714" fill="url(#paint0_radial_189_31696)" fill-opacity="0.3" stroke="#67409F"/>
<path d="M125.104 144.039C125.104 144.039 131.205 126.133 130.966 117.229C130.727 108.325 127.557 111.532 127.557 111.532" stroke="white" stroke-width="0.642857" stroke-miterlimit="10"/>
<path d="M122.673 124.263L124.225 109.14C124.225 109.14 123.139 105.879 121.848 108.64C120.556 111.401 120.154 119.121 120.154 119.121H119.915C120.063 118.624 120.101 118.102 120.025 117.59C119.95 117.078 119.763 116.589 119.478 116.157C119.194 115.724 118.818 115.36 118.378 115.089C117.938 114.818 117.444 114.646 116.93 114.587C116.161 114.42 115.359 114.472 114.618 114.739C114.195 114.881 113.82 115.14 113.537 115.486C113.254 115.832 113.073 116.251 113.017 116.694C112.96 117.138 113.029 117.589 113.217 117.995C113.404 118.401 113.701 118.746 114.075 118.99C114.291 119.125 114.516 119.245 114.748 119.349C117.169 120.436 117.712 120.436 117.788 121.61C117.864 122.784 118.103 124.426 116.149 124.274C114.195 124.122 114.282 123.1 114.119 121.458C113.956 119.816 112.306 117.718 110.862 119.751C110.114 120.855 109.647 122.126 109.501 123.452C109.356 124.779 109.536 126.121 110.026 127.361C111.036 130.003 111.666 130.623 110.33 135.211C109.607 137.356 109.183 139.592 109.071 141.854" stroke="white" stroke-width="0.642857" stroke-miterlimit="10"/>
<path d="M64.2724 192.016C64.2724 192.016 70.7855 192.397 70.7855 186.95L70.7203 182.96C70.7203 182.96 70.8832 187.776 71.719 188.755C72.3594 190 73 190.5 73 190.5C73 190.5 76.81 190.527 75.3337 191.516C74.696 191.985 73.9482 192.281 73.1627 192.375C72.8751 192.454 72.6298 192.643 72.4796 192.901C72.3295 193.159 72.2863 193.466 72.3595 193.756C72.5006 194.995 72.5006 194.995 74.5305 195.756C76.5604 196.517 79.2198 196.963 79.5346 194.191C79.6851 192.217 79.5757 190.232 79.209 188.287L79.4695 192.701C79.4901 193.124 79.641 193.529 79.9015 193.862C80.1621 194.195 80.5193 194.439 80.9241 194.56C82.4438 194.995 84.6474 195.267 84.6474 193.093C84.7017 191.424 84.5264 189.756 84.1263 188.135L84.6365 192.136C84.6843 192.509 84.8521 192.856 85.1146 193.125C85.3771 193.393 85.7199 193.569 86.0911 193.625C87.3828 193.821 89.1848 193.625 89.3476 190.809C89.6298 186.461 89.6298 187.244 89.6298 187.244L92.4739 198.322C92.598 198.94 92.9363 199.495 93.4291 199.887C94.1021 200.301 95.1768 201.062 95.4807 197.148C96.0126 190.233 90.2052 181.927 90.2052 181.927L85.8631 175.85" stroke="white" stroke-width="0.642857" stroke-miterlimit="10"/>
<path d="M82.6423 133.178C85.7518 134.64 88.4962 136.78 90.675 139.44C94.6371 144.278 100.683 152.04 101.856 155.748C103.625 161.347 105.264 149.736 105.264 149.736L107.685 142.756C107.751 142.56 107.863 142.383 108.012 142.24C108.162 142.097 108.343 141.992 108.541 141.934C108.74 141.877 108.949 141.868 109.151 141.909C109.354 141.95 109.543 142.039 109.704 142.169C111.3 143.517 115.131 144.919 124.054 143.778C124.232 143.755 124.413 143.77 124.585 143.822C124.757 143.874 124.916 143.962 125.051 144.08C125.187 144.198 125.296 144.344 125.371 144.507C125.446 144.671 125.486 144.848 125.487 145.028C125.607 151.551 125.487 178.59 117.074 185.591L92.846 185.308L88.9056 179.122L86.7346 152.551L85.6491 175.872L51.0649 174.469V163.021L55.928 145.267L46.5601 174.154L48.8396 175.643L51.2169 175.241L66.7179 174.676L85.6165 175.872C85.6165 175.872 72.9704 175.785 66.0123 176.741C63.4939 177.089 62.7558 177.372 62.0394 179.111C59.2279 185.83 64.3949 192.158 64.3949 192.158C64.3949 192.158 57.3066 192.147 51.0649 193.19C45.0295 193.19 35.82 192.968 28.8837 190C21.9473 187.032 23.8837 178 23.8837 178C24.7668 171.498 25.7634 165.209 27.8837 159C30.3261 151.912 35.7159 142.625 39.3523 138.103C40.9131 136.165 42.8429 134.558 45.0295 133.373L47.9712 131.797L58.9131 127.905L65.2308 125.394C65.2308 125.394 72.3734 126.481 73.2852 128.014C73.8388 128.927 78.7996 131.384 82.6423 133.178Z" stroke="white" stroke-width="0.642857" stroke-miterlimit="10"/>
<path d="M152.557 193.517C152.557 193.517 140.128 191.255 140.128 199.181V212.684C140.128 212.684 138.923 220.99 131.444 215.695C123.964 210.401 123.424 202.349 107.229 204.012" stroke="white" stroke-width="0.642857" stroke-miterlimit="10"/>
<path d="M41.9762 135.091C41.6583 134.815 41.4275 134.452 41.3119 134.047C41.1962 133.641 41.2007 133.211 41.3249 132.808C42.2678 129.871 44.2735 127.393 46.9478 125.861C51.5069 123.48 49.325 113.543 49.325 113.543C49.325 113.543 46.7524 98.2465 57.2601 92.691L70.8615 84.7981C70.8615 84.7981 90.813 87.69 91.5512 98.0291C91.5512 98.0291 94.7209 116.087 91.5512 124.448C90.1183 128.242 89.1305 130.971 88.4901 132.863C88.3896 133.167 88.2205 133.444 87.9959 133.672C87.7713 133.9 87.4972 134.074 87.1949 134.179C86.8926 134.284 86.5702 134.318 86.2526 134.278C85.9351 134.239 85.6309 134.126 85.3638 133.95C83.6704 132.863 80.707 131.873 75.5943 132.449C75.5943 132.449 73.2061 132.449 73.293 128.981C73.3798 125.513 75.2143 126.046 75.2143 126.046C75.2143 126.046 79.8494 127.013 81.5211 124.839C83.1928 122.665 85.5375 120.49 85.7871 116.457C85.9717 113.521 86.1779 107.89 86.2756 105.107C86.2918 104.617 86.1713 104.133 85.9278 103.709C85.6842 103.284 85.3273 102.936 84.897 102.704C81.9553 101.117 75.3989 97.192 74.6282 93.3107C74.6282 93.3107 68.647 102.726 63.0024 103.193C57.3578 103.661 59.4962 109.01 59.4962 109.01C59.7513 109.662 60.1599 110.242 60.6872 110.702C61.2145 111.162 61.8449 111.488 62.5248 111.652C62.987 111.792 63.4136 112.031 63.7752 112.352C64.1368 112.673 64.4249 113.068 64.6198 113.511C65.4938 115.313 65.8473 117.324 65.6402 119.316C65.0866 123.143 66.3349 127.938 62.7961 129.253C60.3103 130.188 55.4581 130.536 52.7878 130.656C51.4409 130.717 50.1133 130.999 48.8583 131.493C47.1257 132.248 45.4835 133.196 43.9626 134.319C42.964 135.048 42.4755 135.504 41.9762 135.091Z" fill="white" stroke="white" stroke-width="0.642857" stroke-miterlimit="10"/>
<path d="M58.0959 87.8748C58.0959 87.8748 52.7226 86.7333 55.6318 81.8518C56.3629 80.4855 57.3982 79.3061 58.6575 78.405C59.9168 77.5038 61.3663 76.905 62.8938 76.6551C62.8938 76.6551 66.1503 76.0354 67.8654 77.2421C69.7759 78.612 70.0364 81.8844 69.244 82.8738C67.6809 84.722 59.1814 88.538 59.1814 88.538L58.0959 87.8748Z" fill="white"/>
<path d="M47.2517 83.2543C47.2517 83.2543 52.2993 91.0385 57.4771 92.5171" stroke="#F7F7F7" stroke-width="0.642857" stroke-miterlimit="10"/>
<path d="M38.8933 84.7981C40.9381 87.6737 43.7328 89.9309 46.9721 91.3229C50.2113 92.715 53.7704 93.1882 57.2601 92.691" stroke="#F7F7F7" stroke-width="0.642857" stroke-miterlimit="10"/>
<path d="M71.1325 83.9976L71.1374 84.0073C71.6638 85.0325 71.2606 86.291 70.2369 86.8181L58.9227 92.6443C57.899 93.1715 56.6425 92.7677 56.1161 91.7424L56.1112 91.7328C55.5849 90.7075 55.988 89.449 57.0117 88.9219L68.326 83.0956C69.3496 82.5685 70.6062 82.9723 71.1325 83.9976Z" fill="#FF6666"/>
<path d="M86.8509 152.551L85.5483 174.48C85.4807 175.499 85.8116 176.505 86.471 177.285L88.2838 179.459C88.3454 179.533 88.4297 179.584 88.5234 179.605C88.6172 179.626 88.7151 179.615 88.8019 179.574C88.8888 179.533 88.9596 179.464 89.0033 179.378C89.0471 179.293 89.0612 179.195 89.0436 179.101L88.5234 175.28C88.3879 174.584 88.3434 173.72 88.3055 173.012L86.8509 152.551Z" fill="white"/>
<path d="M56.0009 145.267L46.633 174.154C46.5858 174.305 46.5744 174.466 46.5998 174.622C46.6252 174.779 46.6867 174.928 46.7794 175.056C46.8721 175.185 46.9935 175.29 47.1339 175.364C47.2743 175.437 47.4298 175.477 47.5882 175.48H50.0957C50.2283 175.48 50.3596 175.454 50.4821 175.403C50.6046 175.352 50.7158 175.278 50.8096 175.184C50.9033 175.09 50.9777 174.979 51.0284 174.856C51.0792 174.733 51.1053 174.602 51.1053 174.469V163.293C51.0939 163.203 51.0939 163.111 51.1053 163.021L56.0009 145.267Z" fill="white"/>
<path d="M85.6894 175.872C79.3063 174.871 72.8747 174.211 66.4217 173.893C57.7377 173.469 47.7076 173.893 44.006 175.121C36.4075 177.589 43.5175 179.144 43.5175 179.144C47.9234 177.058 52.6801 175.815 57.5423 175.48C65.1408 175.1 85.6894 175.872 85.6894 175.872Z" fill="white"/>
<path d="M126.396 124.698C126.396 124.698 129.728 105.683 125.31 108.966L124.138 110.053" stroke="white" stroke-width="0.642857" stroke-miterlimit="10"/>
<path d="M118.993 136.026C118.993 136.026 120.502 130.732 117.364 128.155C114.227 125.578 114.249 122.795 114.249 122.795" stroke="white" stroke-width="0.482143" stroke-miterlimit="10"/>
<path d="M71.2848 114.804C71.2848 114.804 70.4598 118.446 76.3975 118.446" stroke="white" stroke-width="0.642857" stroke-miterlimit="10"/>
<path d="M73.8249 108.901C73.4472 108.901 73.141 108.594 73.141 108.216C73.141 107.838 73.4472 107.531 73.8249 107.531C74.2026 107.531 74.5087 107.838 74.5087 108.216C74.5087 108.594 74.2026 108.901 73.8249 108.901Z" fill="white" stroke="white" stroke-width="0.642857" stroke-miterlimit="10"/>
<path d="M83.1819 108.966C82.7683 108.966 82.4329 108.63 82.4329 108.216C82.4329 107.802 82.7683 107.466 83.1819 107.466C83.5956 107.466 83.9309 107.802 83.9309 108.216C83.9309 108.63 83.5956 108.966 83.1819 108.966Z" fill="white" stroke="white" stroke-width="0.642857" stroke-miterlimit="10"/>
<path d="M79.7517 109.618C79.7517 109.618 81.2606 114.163 77.4613 112.347" stroke="white" stroke-width="0.642857" stroke-miterlimit="10"/>
<path d="M63.2087 108.629C63.1007 108.629 63.0133 108.235 63.0133 107.749C63.0133 107.262 63.1007 106.868 63.2087 106.868C63.3166 106.868 63.404 107.262 63.404 107.749C63.404 108.235 63.3166 108.629 63.2087 108.629Z" fill="white" stroke="white" stroke-width="0.642857" stroke-miterlimit="10"/>
<path d="M70.1842 103.307C70.1134 102.802 71.1196 102.242 72.4316 102.058C73.7437 101.874 74.8647 102.134 74.9356 102.639C75.0064 103.145 74.0002 103.704 72.6881 103.888C71.3761 104.073 70.255 103.812 70.1842 103.307Z" fill="white" stroke="white" stroke-width="0.642857" stroke-miterlimit="10"/>
<path d="M82.8318 104.408C81.6594 103.902 80.8419 103.182 81.0059 102.802C81.1698 102.422 82.2531 102.524 83.4255 103.031C84.5979 103.538 85.4154 104.257 85.2514 104.638C85.0875 105.018 84.0042 104.915 82.8318 104.408Z" fill="white" stroke="white" stroke-width="0.642857" stroke-miterlimit="10"/>
<path d="M142.407 129.438L145.447 135.635" stroke="white" stroke-width="0.642857" stroke-miterlimit="10"/>
<path d="M138.011 170.218L186.077 170.631C187.173 170.635 188.242 170.295 189.136 169.659C190.029 169.024 190.702 168.125 191.059 167.087L202.132 134.472C202.401 133.671 202.475 132.817 202.346 131.982C202.218 131.147 201.891 130.355 201.393 129.673C200.895 128.991 200.241 128.439 199.485 128.063C198.73 127.687 197.895 127.499 197.051 127.514L145.316 128.459C144.15 128.483 143.024 128.895 142.117 129.629C141.209 130.363 140.57 131.378 140.301 132.515L132.898 163.749C132.716 164.522 132.711 165.325 132.884 166.1C133.056 166.874 133.401 167.6 133.892 168.222C134.384 168.844 135.01 169.347 135.723 169.693C136.436 170.038 137.218 170.218 138.011 170.218Z" stroke="white" stroke-width="0.642857" stroke-miterlimit="10"/>
<path d="M139.346 170.631H188.888C189.71 170.625 190.507 170.349 191.157 169.846C191.808 169.344 192.277 168.642 192.492 167.848L201.057 137.407C201.208 136.85 201.231 136.266 201.125 135.698C201.018 135.131 200.785 134.595 200.443 134.131C200.1 133.666 199.657 133.286 199.147 133.017C198.637 132.749 198.073 132.599 197.496 132.58H146.282C145.427 132.587 144.6 132.884 143.935 133.423C143.271 133.962 142.808 134.711 142.624 135.548L135.688 165.989C135.569 166.541 135.574 167.113 135.702 167.663C135.83 168.214 136.077 168.729 136.426 169.172C136.776 169.616 137.219 169.976 137.723 170.229C138.228 170.481 138.782 170.618 139.346 170.631Z" fill="#FF6666" stroke="#FF6666" stroke-width="0.642857" stroke-miterlimit="10"/>
<path d="M97.5447 206.959C91.9872 206.959 87.482 206.01 87.482 204.839C87.482 203.668 91.9872 202.719 97.5447 202.719C103.102 202.719 107.607 203.668 107.607 204.839C107.607 206.01 103.102 206.959 97.5447 206.959Z" fill="#FCEE21" stroke="#FCEE21" stroke-width="0.642857" stroke-miterlimit="10"/>
<path d="M97.5447 204.85C91.9872 204.85 87.482 203.901 87.482 202.73C87.482 201.559 91.9872 200.61 97.5447 200.61C103.102 200.61 107.607 201.559 107.607 202.73C107.607 203.901 103.102 204.85 97.5447 204.85Z" fill="#FF6666" stroke="#FF6666" stroke-width="0.642857" stroke-miterlimit="10"/>
<path d="M117.191 185.591H166.657" stroke="white" stroke-width="0.642857" stroke-miterlimit="10"/>
<path d="M176.785 185.591H200.275" stroke="white" stroke-width="0.642857" stroke-miterlimit="10"/>
<path d="M103.112 165.043C102.632 165.043 102.243 163.296 102.243 161.14C102.243 158.985 102.632 157.237 103.112 157.237C103.591 157.237 103.98 158.985 103.98 161.14C103.98 163.296 103.591 165.043 103.112 165.043Z" fill="white" stroke="white" stroke-width="0.642857" stroke-miterlimit="10"/>
<path d="M154.693 198.341H185.005C185.099 198.342 185.192 198.319 185.275 198.273C185.359 198.227 185.43 198.16 185.484 198.078C185.538 197.996 185.572 197.901 185.583 197.802C185.594 197.703 185.582 197.602 185.549 197.509L183.091 190.429C183.049 190.311 182.975 190.21 182.878 190.137C182.781 190.065 182.665 190.026 182.547 190.024H152.094C151.999 190.025 151.906 190.049 151.823 190.097C151.74 190.144 151.669 190.212 151.616 190.296C151.563 190.379 151.531 190.475 151.521 190.575C151.512 190.675 151.525 190.776 151.561 190.869L154.16 197.948C154.202 198.063 154.275 198.162 154.37 198.232C154.465 198.302 154.577 198.34 154.693 198.341Z" fill="#FF6666" stroke="#BE4C4C" stroke-width="0.642857" stroke-miterlimit="10"/>
<path d="M150.961 189.429H165.431C165.431 189.429 163.466 192.19 165.431 192.19H173.127C173.127 192.19 174.744 192.473 175.58 187.7C176.416 182.927 177.274 175.35 176.785 170.631C176.537 168.184 176.098 165.759 175.472 163.38C175.472 163.38 175.374 161.651 171.596 161.793C167.819 161.934 165.572 161.793 165.572 161.793C165.572 161.793 164.03 161.455 165.431 164.326C166.636 166.826 167.819 168.533 167.808 175.904C167.808 185.58 165.409 189.298 165.409 189.298" fill="white"/>
<path d="M150.961 189.429H165.431C165.431 189.429 163.466 192.19 165.431 192.19H173.127C173.127 192.19 174.744 192.473 175.58 187.7C176.416 182.927 177.274 175.35 176.785 170.631C176.537 168.184 176.098 165.759 175.472 163.38C175.472 163.38 175.374 161.651 171.596 161.793C167.819 161.934 165.572 161.793 165.572 161.793C165.572 161.793 164.03 161.455 165.431 164.326C166.636 166.826 167.819 168.533 167.808 175.904C167.808 185.58 165.409 189.298 165.409 189.298" stroke="white" stroke-width="0.642857" stroke-miterlimit="10"/>
<path d="M152.155 169.033C151.687 169.033 151.308 168.654 151.308 168.185C151.308 167.717 151.687 167.337 152.155 167.337C152.623 167.337 153.002 167.717 153.002 168.185C153.002 168.654 152.623 169.033 152.155 169.033Z" fill="white" stroke="white" stroke-width="0.642857" stroke-miterlimit="10"/>
<path d="M147.075 169.033C146.607 169.033 146.228 168.654 146.228 168.185C146.228 167.717 146.607 167.337 147.075 167.337C147.542 167.337 147.921 167.717 147.921 168.185C147.921 168.654 147.542 169.033 147.075 169.033Z" fill="white" stroke="white" stroke-width="0.642857" stroke-miterlimit="10"/>
<path d="M141.072 169.033C140.604 169.033 140.225 168.654 140.225 168.185C140.225 167.717 140.604 167.337 141.072 167.337C141.54 167.337 141.919 167.717 141.919 168.185C141.919 168.654 141.54 169.033 141.072 169.033Z" fill="white" stroke="white" stroke-width="0.642857" stroke-miterlimit="10"/>
<path d="M70.8887 92.4878C70.0054 95.6382 66.7247 101.939 60.668 101.939M80.3522 89.0854C83.7591 89.9675 90.5729 93.3195 90.5729 99.6707" stroke="black" stroke-width="0.642857"/>
<path d="M170.067 155.244C166.513 155.244 163.632 153.721 163.632 151.841C163.632 149.962 166.513 148.439 170.067 148.439C173.621 148.439 176.502 149.962 176.502 151.841C176.502 153.721 173.621 155.244 170.067 155.244Z" fill="#00FFFF" stroke="#FF6666" stroke-width="0.642857" stroke-miterlimit="10"/>
<path d="M36.1213 198.5L31.6513 206.81C31.2213 207.61 30.7013 208.215 30.0913 208.625C29.4913 209.035 28.8363 209.24 28.1263 209.24C27.5763 209.24 27.0063 209.12 26.4163 208.88L27.0013 207.035C27.4213 207.165 27.7713 207.23 28.0513 207.23C28.3513 207.23 28.6213 207.16 28.8613 207.02C29.1013 206.87 29.3213 206.64 29.5213 206.33L29.6113 206.21L25.4713 198.5H28.0663L30.8563 204.14L33.7363 198.5H36.1213ZM41.5435 200.81C42.2935 200.81 42.9735 200.985 43.5835 201.335C44.2035 201.675 44.6885 202.16 45.0385 202.79C45.3885 203.41 45.5635 204.135 45.5635 204.965C45.5635 205.795 45.3885 206.525 45.0385 207.155C44.6885 207.775 44.2035 208.26 43.5835 208.61C42.9735 208.95 42.2935 209.12 41.5435 209.12C40.5135 209.12 39.7035 208.795 39.1135 208.145V211.91H36.7735V200.93H39.0085V201.86C39.5885 201.16 40.4335 200.81 41.5435 200.81ZM41.1385 207.2C41.7385 207.2 42.2285 207 42.6085 206.6C42.9985 206.19 43.1935 205.645 43.1935 204.965C43.1935 204.285 42.9985 203.745 42.6085 203.345C42.2285 202.935 41.7385 202.73 41.1385 202.73C40.5385 202.73 40.0435 202.935 39.6535 203.345C39.2735 203.745 39.0835 204.285 39.0835 204.965C39.0835 205.645 39.2735 206.19 39.6535 206.6C40.0435 207 40.5385 207.2 41.1385 207.2ZM50.9835 209.12C50.1335 209.12 49.3685 208.945 48.6885 208.595C48.0185 208.235 47.4935 207.74 47.1135 207.11C46.7335 206.48 46.5435 205.765 46.5435 204.965C46.5435 204.165 46.7335 203.45 47.1135 202.82C47.4935 202.19 48.0185 201.7 48.6885 201.35C49.3685 200.99 50.1335 200.81 50.9835 200.81C51.8335 200.81 52.5935 200.99 53.2635 201.35C53.9335 201.7 54.4585 202.19 54.8385 202.82C55.2185 203.45 55.4085 204.165 55.4085 204.965C55.4085 205.765 55.2185 206.48 54.8385 207.11C54.4585 207.74 53.9335 208.235 53.2635 208.595C52.5935 208.945 51.8335 209.12 50.9835 209.12ZM50.9835 207.2C51.5835 207.2 52.0735 207 52.4535 206.6C52.8435 206.19 53.0385 205.645 53.0385 204.965C53.0385 204.285 52.8435 203.745 52.4535 203.345C52.0735 202.935 51.5835 202.73 50.9835 202.73C50.3835 202.73 49.8885 202.935 49.4985 203.345C49.1085 203.745 48.9135 204.285 48.9135 204.965C48.9135 205.645 49.1085 206.19 49.4985 206.6C49.8885 207 50.3835 207.2 50.9835 207.2ZM60.573 205.94H59.358V209H57.018V200.93H59.358V204.065H60.618L62.808 200.93H65.298L62.478 204.8L65.493 209H62.733L60.573 205.94ZM78.195 207.02V209H70.26V207.425L74.31 203.6C74.74 203.19 75.03 202.84 75.18 202.55C75.33 202.25 75.405 201.955 75.405 201.665C75.405 201.245 75.26 200.925 74.97 200.705C74.69 200.475 74.275 200.36 73.725 200.36C73.265 200.36 72.85 200.45 72.48 200.63C72.11 200.8 71.8 201.06 71.55 201.41L69.78 200.27C70.19 199.66 70.755 199.185 71.475 198.845C72.195 198.495 73.02 198.32 73.95 198.32C74.73 198.32 75.41 198.45 75.99 198.71C76.58 198.96 77.035 199.32 77.355 199.79C77.685 200.25 77.85 200.795 77.85 201.425C77.85 201.995 77.73 202.53 77.49 203.03C77.25 203.53 76.785 204.1 76.095 204.74L73.68 207.02H78.195Z" fill="white"/>
<path d="M128.743 76.1901C128.611 76.3086 128.599 76.5118 128.718 76.6439L130.648 78.7963C130.766 78.9284 130.969 78.9393 131.101 78.8207C131.234 78.7021 131.245 78.4989 131.127 78.3669L129.411 76.4536L131.327 74.7359C131.46 74.6173 131.471 74.4141 131.352 74.282C131.234 74.1499 131.031 74.139 130.898 74.2575L128.743 76.1901ZM171.154 78.3784L128.975 76.1083L128.94 76.7501L171.118 79.0203L171.154 78.3784Z" fill="#00FFB3"/>
<path d="M176.183 78.6993C176.183 80.1894 174.957 81.4047 173.437 81.4047C171.916 81.4047 170.691 80.1894 170.691 78.6993C170.691 77.2092 171.916 75.9939 173.437 75.9939C174.957 75.9939 176.183 77.2092 176.183 78.6993Z" fill="#FCEE21" stroke="#BFAA3A" stroke-width="0.642857"/>
<path d="M139.372 31.0268C139.372 32.5169 138.147 33.7322 136.626 33.7322C135.106 33.7322 133.88 32.5169 133.88 31.0268C133.88 29.5367 135.106 28.3214 136.626 28.3214C138.147 28.3214 139.372 29.5367 139.372 31.0268Z" fill="#FCEE21" stroke="#BFAA3A" stroke-width="0.642857"/>
<path d="M127.869 74.1591C127.869 75.6492 126.644 76.8645 125.123 76.8645C123.602 76.8645 122.377 75.6492 122.377 74.1591C122.377 72.669 123.602 71.4537 125.123 71.4537C126.644 71.4537 127.869 72.669 127.869 74.1591Z" fill="#FCEE21" stroke="#BFAA3A" stroke-width="0.642857"/>
<path d="M170.457 76.7366C170.628 76.6878 170.728 76.5105 170.68 76.3407L169.893 73.5742C169.845 73.4044 169.666 73.3064 169.495 73.3552C169.323 73.4041 169.223 73.5813 169.271 73.7511L169.971 76.2103L167.484 76.918C167.312 76.9668 167.212 77.1441 167.26 77.3138C167.308 77.4836 167.487 77.5816 167.659 77.5328L170.457 76.7366ZM109.627 43.4141L170.211 76.7091L170.527 76.1493L109.943 42.8542L109.627 43.4141Z" fill="#00FFB3"/>
<path d="M109.093 48.1204C108.919 48.0787 108.745 48.184 108.704 48.3556L108.033 51.1518C107.992 51.3234 108.099 51.4963 108.273 51.538C108.446 51.5796 108.621 51.4743 108.662 51.3027L109.258 48.8172L111.773 49.4208C111.947 49.4625 112.121 49.3572 112.162 49.1856C112.204 49.014 112.096 48.8411 111.923 48.7995L109.093 48.1204ZM123.864 71.7226L109.293 48.2647L108.743 48.5974L123.314 72.0553L123.864 71.7226Z" fill="#00FFB3"/>
<path d="M189.454 48.5595C189.525 48.3974 189.449 48.2085 189.285 48.1376L186.619 46.9814C186.455 46.9104 186.266 46.9843 186.195 47.1464C186.125 47.3085 186.201 47.4975 186.364 47.5684L188.734 48.5961L187.716 50.9442C187.646 51.1063 187.721 51.2953 187.885 51.3662C188.048 51.4372 188.238 51.3633 188.308 51.2012L189.454 48.5595ZM129.077 72.1873L189.277 48.7295L189.038 48.1327L128.838 71.5906L129.077 72.1873Z" fill="#00FFB3"/>
<path d="M174.655 74.9859C174.693 75.1582 174.866 75.2664 175.04 75.2277L177.881 74.5964C178.055 74.5576 178.166 74.3866 178.127 74.2144C178.089 74.0421 177.917 73.9339 177.742 73.9726L175.217 74.5338L174.663 72.0388C174.624 71.8666 174.452 71.7583 174.278 71.7971C174.103 71.8358 173.993 72.0069 174.031 72.1791L174.655 74.9859ZM190.803 49.7736L174.698 74.7449L175.243 75.0867L191.347 50.1154L190.803 49.7736Z" fill="#00FFB3"/>
<path d="M140.294 30.7533C140.142 30.8461 140.093 31.0437 140.185 31.1948L141.688 33.6565C141.78 33.8076 141.978 33.8548 142.13 33.762C142.282 33.6693 142.331 33.4716 142.238 33.3206L140.903 31.1324L143.104 29.7886C143.256 29.6959 143.305 29.4982 143.213 29.3471C143.12 29.1961 142.922 29.1488 142.77 29.2416L140.294 30.7533ZM188.084 42.0652L140.537 30.7147L140.384 31.339L187.931 42.6896L188.084 42.0652Z" fill="#00FFB3"/>
<path d="M185.188 45.6383C185.317 45.5167 185.323 45.3132 185.202 45.184L183.219 43.0774C183.097 42.9481 182.894 42.9419 182.765 43.0636C182.635 43.1853 182.629 43.3887 182.751 43.518L184.513 45.3905L182.641 47.1529C182.511 47.2745 182.505 47.4779 182.627 47.6072C182.749 47.7365 182.952 47.7427 183.081 47.621L185.188 45.6383ZM110.044 43.4554L184.958 45.7255L184.977 45.083L110.063 42.8129L110.044 43.4554Z" fill="#00FFB3"/>
<path d="M132.294 32.6669C132.363 32.5037 132.288 32.3147 132.125 32.2448L129.466 31.1052C129.303 31.0353 129.114 31.1109 129.044 31.2741C128.974 31.4372 129.049 31.6262 129.213 31.6961L131.576 32.7091L130.563 35.0726C130.493 35.2357 130.569 35.4247 130.732 35.4946C130.895 35.5646 131.084 35.489 131.154 35.3258L132.294 32.6669ZM109.416 41.9192L132.117 32.8387L131.879 32.2418L109.178 41.3223L109.416 41.9192Z" fill="#00FFB3"/>
<circle cx="107.027" cy="43.1341" r="2.7054" fill="#FCEE21" stroke="#BFAA3A" stroke-width="0.642857"/>
<circle cx="189.508" cy="45.4043" r="2.7054" fill="#FCEE21" stroke="#BFAA3A" stroke-width="0.642857"/>
</g>
<defs>
<radialGradient id="paint0_radial_189_31696" cx="0" cy="0" r="1" gradientUnits="userSpaceOnUse" gradientTransform="translate(109.999 112.5) rotate(-45.6441) scale(157.34 157.34)">
<stop stop-color="#9657EE"/>
<stop offset="1" stop-color="#9657EE" stop-opacity="0"/>
</radialGradient>
<clipPath id="clip0_189_31696">
<rect width="226" height="226" fill="white"/>
</clipPath>
</defs>
</svg>
