<svg width="226" height="226" viewBox="0 0 226 226" fill="none" xmlns="http://www.w3.org/2000/svg">
<path d="M101.896 137.039C101.896 137.039 95.7954 119.133 96.0342 110.229C96.273 101.325 99.4427 104.532 99.4427 104.532" stroke="white" stroke-width="0.642857" stroke-miterlimit="10"/>
<path d="M104.327 117.263L102.775 102.14C102.775 102.14 103.861 98.8786 105.152 101.64C106.444 104.401 106.846 112.121 106.846 112.121H107.085C106.937 111.624 106.899 111.102 106.975 110.59C107.05 110.078 107.237 109.589 107.522 109.157C107.806 108.724 108.182 108.36 108.622 108.089C109.062 107.818 109.556 107.646 110.07 107.587C110.839 107.42 111.641 107.472 112.382 107.739C112.805 107.881 113.18 108.14 113.463 108.486C113.746 108.832 113.927 109.251 113.983 109.694C114.04 110.138 113.971 110.589 113.783 110.995C113.596 111.401 113.299 111.746 112.925 111.99C112.709 112.125 112.484 112.245 112.252 112.349C109.831 113.436 109.288 113.436 109.212 114.61C109.136 115.784 108.897 117.426 110.851 117.274C112.805 117.122 112.718 116.1 112.881 114.458C113.044 112.816 114.694 110.718 116.138 112.751C116.886 113.855 117.353 115.126 117.499 116.452C117.644 117.779 117.464 119.121 116.974 120.361C115.964 123.003 115.334 123.623 116.67 128.211C117.393 130.356 117.817 132.592 117.929 134.854" stroke="white" stroke-width="0.642857" stroke-miterlimit="10"/>
<path d="M162.728 185.016C162.728 185.016 156.215 185.397 156.215 179.95L156.28 175.96C156.28 175.96 156.117 180.776 155.281 181.755C154.445 182.733 152.09 182.961 152.09 182.961C152.09 182.961 150.19 183.527 151.666 184.516C152.304 184.985 153.052 185.281 153.837 185.375C154.125 185.454 154.37 185.643 154.52 185.901C154.671 186.159 154.714 186.466 154.641 186.756C154.499 187.995 154.499 187.995 152.47 188.756C150.44 189.517 147.78 189.963 147.465 187.191C147.315 185.217 147.424 183.232 147.791 181.287L147.53 185.701C147.51 186.124 147.359 186.529 147.098 186.862C146.838 187.195 146.481 187.439 146.076 187.56C144.556 187.995 142.353 188.267 142.353 186.093C142.298 184.424 142.474 182.756 142.874 181.135L142.363 185.136C142.316 185.509 142.148 185.856 141.885 186.125C141.623 186.393 141.28 186.569 140.909 186.625C139.617 186.821 137.815 186.625 137.652 183.809C137.37 179.461 137.37 180.244 137.37 180.244L134.526 191.322C134.402 191.94 134.064 192.495 133.571 192.887C132.898 193.301 131.823 194.062 131.519 190.148C130.987 183.233 136.795 174.927 136.795 174.927L141.137 168.85" stroke="white" stroke-width="0.642857" stroke-miterlimit="10"/>
<path d="M144.241 126.178C141.132 127.64 138.387 129.78 136.209 132.44C132.247 137.278 126.2 145.04 125.028 148.748C123.259 154.347 121.619 142.736 121.619 142.736L119.199 135.756C119.133 135.56 119.02 135.383 118.871 135.24C118.722 135.097 118.541 134.992 118.342 134.934C118.144 134.877 117.935 134.868 117.732 134.909C117.53 134.95 117.34 135.039 117.18 135.169C115.584 136.517 111.752 137.919 102.829 136.778C102.651 136.755 102.47 136.77 102.298 136.822C102.127 136.874 101.968 136.962 101.832 137.08C101.697 137.198 101.588 137.344 101.513 137.507C101.438 137.671 101.398 137.848 101.397 138.028C101.277 144.551 101.397 171.59 109.809 178.591L134.038 178.308L137.978 172.122L140.149 145.551L141.235 168.872L175.819 167.469V156.021L170.956 138.267L180.324 167.154L178.044 168.643L175.667 168.241L160.166 167.676L141.267 168.872C141.267 168.872 153.913 168.785 160.871 169.741C163.39 170.089 164.128 170.372 164.844 172.111C167.656 178.83 162.489 185.158 162.489 185.158C162.489 185.158 170.467 186.897 176.709 187.941C182.951 188.984 192.145 189.158 199.081 186.19C206.018 183.222 204.639 170.568 204.639 170.568C203.756 164.065 202.243 157.664 200.123 151.455C197.681 144.366 191.168 135.625 187.531 131.103C185.971 129.165 184.041 127.558 181.854 126.373L178.912 124.797L167.971 120.905L161.653 118.394C161.653 118.394 154.51 119.481 153.598 121.014C153.045 121.927 148.084 124.384 144.241 126.178Z" stroke="white" stroke-width="0.642857" stroke-miterlimit="10"/>
<path d="M74.4434 186.517C74.4434 186.517 86.8725 184.255 86.8725 192.181V205.684C86.8725 205.684 88.0774 213.99 95.5565 208.695C103.036 203.401 103.576 195.349 119.771 197.012" stroke="white" stroke-width="0.642857" stroke-miterlimit="10"/>
<path d="M185.024 128.091C185.342 127.815 185.572 127.452 185.688 127.047C185.804 126.641 185.799 126.211 185.675 125.808C184.732 122.871 182.727 120.393 180.052 118.861C175.493 116.48 177.675 106.543 177.675 106.543C177.675 106.543 180.248 91.2465 169.74 85.691L156.139 77.7981C156.139 77.7981 136.187 80.69 135.449 91.0291C135.449 91.0291 132.279 109.087 135.449 117.448C136.882 121.242 137.869 123.971 138.51 125.863C138.61 126.167 138.78 126.444 139.004 126.672C139.229 126.9 139.503 127.074 139.805 127.179C140.107 127.284 140.43 127.318 140.747 127.278C141.065 127.239 141.369 127.126 141.636 126.95C143.33 125.863 146.293 124.873 151.406 125.449C151.406 125.449 153.794 125.449 153.707 121.981C153.62 118.513 151.786 119.046 151.786 119.046C151.786 119.046 147.151 120.013 145.479 117.839C143.807 115.665 141.463 113.49 141.213 109.457C141.028 106.521 140.822 100.89 140.724 98.1067C140.708 97.6174 140.829 97.1333 141.072 96.7088C141.316 96.2844 141.673 95.9364 142.103 95.704C145.045 94.1167 151.601 90.192 152.372 86.3107C152.372 86.3107 158.353 95.7258 163.998 96.1932C169.642 96.6607 167.504 102.01 167.504 102.01C167.249 102.662 166.84 103.242 166.313 103.702C165.786 104.162 165.155 104.488 164.475 104.652C164.013 104.792 163.586 105.031 163.225 105.352C162.863 105.673 162.575 106.068 162.38 106.511C161.506 108.313 161.153 110.324 161.36 112.316C161.913 116.143 160.665 120.938 164.204 122.253C166.69 123.188 171.542 123.536 174.212 123.656C175.559 123.717 176.887 123.999 178.142 124.493C179.874 125.248 181.517 126.196 183.037 127.319C184.036 128.048 184.525 128.504 185.024 128.091Z" fill="white" stroke="white" stroke-width="0.642857" stroke-miterlimit="10"/>
<path d="M168.904 80.8748C168.904 80.8748 174.277 79.7333 171.368 74.8518C170.637 73.4855 169.602 72.3061 168.342 71.405C167.083 70.5038 165.634 69.905 164.106 69.655C164.106 69.655 160.85 69.0354 159.135 70.2421C157.224 71.612 156.964 74.8844 157.756 75.8737C159.319 77.722 167.819 81.538 167.819 81.538L168.904 80.8748Z" fill="white"/>
<path d="M179.748 76.2543C179.748 76.2543 174.701 84.0385 169.523 85.5171" stroke="#F7F7F7" stroke-width="0.642857" stroke-miterlimit="10"/>
<path d="M188.107 77.7981C186.062 80.6737 183.267 82.9309 180.028 84.3229C176.789 85.715 173.23 86.1883 169.74 85.691" stroke="#F7F7F7" stroke-width="0.642857" stroke-miterlimit="10"/>
<path d="M155.867 76.9976L155.863 77.0072C155.336 78.0325 155.739 79.291 156.763 79.8181L168.077 85.6443C169.101 86.1715 170.358 85.7677 170.884 84.7424L170.889 84.7327C171.415 83.7075 171.012 82.449 169.988 81.9219L158.674 76.0956C157.65 75.5685 156.394 75.9723 155.867 76.9976Z" fill="#FF6666"/>
<path d="M140.149 145.551L141.452 167.48C141.519 168.499 141.188 169.505 140.529 170.285L138.716 172.459C138.655 172.533 138.57 172.584 138.477 172.605C138.383 172.626 138.285 172.615 138.198 172.574C138.111 172.533 138.04 172.464 137.997 172.378C137.953 172.293 137.939 172.195 137.956 172.101L138.477 168.28C138.612 167.584 138.657 166.72 138.695 166.012L140.149 145.551Z" fill="white"/>
<path d="M170.999 138.267L180.367 167.154C180.414 167.305 180.426 167.466 180.4 167.622C180.375 167.779 180.313 167.928 180.221 168.056C180.128 168.185 180.007 168.29 179.866 168.364C179.726 168.437 179.57 168.477 179.412 168.48H176.904C176.772 168.48 176.64 168.454 176.518 168.403C176.395 168.352 176.284 168.278 176.19 168.184C176.097 168.09 176.022 167.979 175.972 167.856C175.921 167.733 175.895 167.602 175.895 167.469V156.293C175.906 156.203 175.906 156.111 175.895 156.021L170.999 138.267Z" fill="white"/>
<path d="M141.311 168.872C147.694 167.871 154.125 167.211 160.578 166.893C169.262 166.469 179.292 166.893 182.994 168.121C190.593 170.589 183.482 172.144 183.482 172.144C179.077 170.058 174.32 168.815 169.458 168.48C161.859 168.1 141.311 168.872 141.311 168.872Z" fill="white"/>
<path d="M100.604 117.698C100.604 117.698 97.2716 98.6829 101.69 101.966L102.862 103.053" stroke="white" stroke-width="0.642857" stroke-miterlimit="10"/>
<path d="M108.007 129.026C108.007 129.026 106.498 123.732 109.636 121.155C112.773 118.578 112.751 115.795 112.751 115.795" stroke="white" stroke-width="0.482143" stroke-miterlimit="10"/>
<path d="M155.715 107.804C155.715 107.804 156.54 111.446 150.602 111.446" stroke="white" stroke-width="0.642857" stroke-miterlimit="10"/>
<path d="M153.175 101.901C153.553 101.901 153.859 101.594 153.859 101.216C153.859 100.838 153.553 100.531 153.175 100.531C152.797 100.531 152.491 100.838 152.491 101.216C152.491 101.594 152.797 101.901 153.175 101.901Z" fill="white" stroke="white" stroke-width="0.642857" stroke-miterlimit="10"/>
<path d="M143.818 101.966C144.232 101.966 144.567 101.63 144.567 101.216C144.567 100.802 144.232 100.466 143.818 100.466C143.404 100.466 143.069 100.802 143.069 101.216C143.069 101.63 143.404 101.966 143.818 101.966Z" fill="white" stroke="white" stroke-width="0.642857" stroke-miterlimit="10"/>
<path d="M147.248 102.619C147.248 102.619 145.739 107.163 149.539 105.347" stroke="white" stroke-width="0.642857" stroke-miterlimit="10"/>
<path d="M163.791 101.629C163.899 101.629 163.987 101.235 163.987 100.749C163.987 100.262 163.899 99.8679 163.791 99.8679C163.683 99.8679 163.596 100.262 163.596 100.749C163.596 101.235 163.683 101.629 163.791 101.629Z" fill="white" stroke="white" stroke-width="0.642857" stroke-miterlimit="10"/>
<path d="M156.816 96.3071C156.887 95.8016 155.88 95.2424 154.568 95.058C153.256 94.8735 152.135 95.1337 152.064 95.6391C151.994 96.1445 153 96.7038 154.312 96.8882C155.624 97.0727 156.745 96.8125 156.816 96.3071Z" fill="white" stroke="white" stroke-width="0.642857" stroke-miterlimit="10"/>
<path d="M144.168 97.4085C145.341 96.9016 146.158 96.1823 145.994 95.8019C145.83 95.4216 144.747 95.5241 143.574 96.031C142.402 96.5379 141.585 97.2572 141.749 97.6376C141.913 98.0179 142.996 97.9154 144.168 97.4085Z" fill="white" stroke="white" stroke-width="0.642857" stroke-miterlimit="10"/>
<path d="M84.5929 122.438L81.5535 128.635" stroke="white" stroke-width="0.642857" stroke-miterlimit="10"/>
<path d="M88.9892 163.218L40.9231 163.631C39.8272 163.635 38.7578 163.295 37.8644 162.659C36.971 162.024 36.2983 161.125 35.9406 160.087L24.8684 127.472C24.5987 126.671 24.525 125.817 24.6535 124.982C24.7821 124.147 25.1091 123.355 25.6071 122.673C26.105 121.991 26.7593 121.439 27.5149 121.063C28.2705 120.687 29.1051 120.499 29.9486 120.514L81.6838 121.459C82.8502 121.483 83.9756 121.895 84.8833 122.629C85.7911 123.363 86.4297 124.378 86.6988 125.515L94.102 156.749C94.2837 157.522 94.2886 158.325 94.1164 159.1C93.9442 159.874 93.5993 160.6 93.1076 161.222C92.6158 161.844 91.9899 162.347 91.2767 162.693C90.5635 163.038 89.7815 163.218 88.9892 163.218Z" stroke="white" stroke-width="0.642857" stroke-miterlimit="10"/>
<path d="M87.654 163.631H38.1116C37.29 163.625 36.4932 163.349 35.8426 162.846C35.1919 162.344 34.7232 161.642 34.5077 160.848L25.9431 130.407C25.7921 129.85 25.769 129.266 25.8753 128.698C25.9817 128.131 26.2149 127.595 26.5574 127.131C26.8998 126.666 27.3428 126.286 27.853 126.017C28.3632 125.749 28.9275 125.599 29.5035 125.58H80.7177C81.5728 125.587 82.4003 125.884 83.0648 126.423C83.7294 126.962 84.1915 127.711 84.3758 128.548L91.3122 158.989C91.4306 159.541 91.4258 160.113 91.2981 160.663C91.1704 161.214 90.9231 161.729 90.5736 162.172C90.2242 162.616 89.7813 162.976 89.2767 163.229C88.772 163.481 88.2179 163.618 87.654 163.631Z" fill="#FF6666" stroke="#FF6666" stroke-width="0.642857" stroke-miterlimit="10"/>
<path d="M129.455 199.959C135.013 199.959 139.518 199.01 139.518 197.839C139.518 196.668 135.013 195.719 129.455 195.719C123.898 195.719 119.393 196.668 119.393 197.839C119.393 199.01 123.898 199.959 129.455 199.959Z" fill="#FCEE21" stroke="#FCEE21" stroke-width="0.642857" stroke-miterlimit="10"/>
<path d="M129.455 197.85C135.013 197.85 139.518 196.901 139.518 195.73C139.518 194.559 135.013 193.61 129.455 193.61C123.898 193.61 119.393 194.559 119.393 195.73C119.393 196.901 123.898 197.85 129.455 197.85Z" fill="#FF6666" stroke="#FF6666" stroke-width="0.642857" stroke-miterlimit="10"/>
<path d="M109.809 178.591H60.3427" stroke="white" stroke-width="0.642857" stroke-miterlimit="10"/>
<path d="M50.2149 178.591H26.7246" stroke="white" stroke-width="0.642857" stroke-miterlimit="10"/>
<path d="M123.888 158.043C124.368 158.043 124.757 156.296 124.757 154.14C124.757 151.985 124.368 150.237 123.888 150.237C123.409 150.237 123.02 151.985 123.02 154.14C123.02 156.296 123.409 158.043 123.888 158.043Z" fill="white" stroke="white" stroke-width="0.642857" stroke-miterlimit="10"/>
<path d="M72.3069 191.341H41.9951C41.9011 191.342 41.8083 191.319 41.7248 191.273C41.6413 191.227 41.5696 191.16 41.516 191.078C41.4623 190.996 41.4284 190.901 41.4171 190.802C41.4059 190.703 41.4176 190.602 41.4513 190.509L43.9093 183.429C43.951 183.311 44.0252 183.21 44.1223 183.137C44.2193 183.065 44.3347 183.026 44.4531 183.024H74.9063C75.0007 183.025 75.0937 183.049 75.177 183.097C75.2603 183.144 75.3314 183.212 75.384 183.296C75.4366 183.379 75.4692 183.475 75.4788 183.575C75.4884 183.675 75.4748 183.776 75.4392 183.869L72.8398 190.948C72.7983 191.063 72.7253 191.162 72.6303 191.232C72.5352 191.302 72.4226 191.34 72.3069 191.341Z" fill="#FF6666" stroke="#BE4C4C" stroke-width="0.642857" stroke-miterlimit="10"/>
<path d="M76.0391 182.429H61.5694C61.5694 182.429 63.5341 185.19 61.5694 185.19H53.8731C53.8731 185.19 52.2557 185.473 51.4199 180.7C50.584 175.927 49.7265 168.35 50.215 163.631C50.4632 161.184 50.9023 158.759 51.5284 156.38C51.5284 156.38 51.6261 154.651 55.4037 154.793C59.1812 154.934 61.4282 154.793 61.4282 154.793C61.4282 154.793 62.9697 154.455 61.5694 157.326C60.3644 159.826 59.1812 161.533 59.1921 168.904C59.1921 178.58 61.5911 182.298 61.5911 182.298" fill="white"/>
<path d="M76.0391 182.429H61.5694C61.5694 182.429 63.5341 185.19 61.5694 185.19H53.8731C53.8731 185.19 52.2557 185.473 51.4199 180.7C50.584 175.927 49.7265 168.35 50.215 163.631C50.4632 161.184 50.9023 158.759 51.5284 156.38C51.5284 156.38 51.6261 154.651 55.4037 154.793C59.1812 154.934 61.4282 154.793 61.4282 154.793C61.4282 154.793 62.9697 154.455 61.5694 157.326C60.3644 159.826 59.1812 161.533 59.1921 168.904C59.1921 178.58 61.5911 182.298 61.5911 182.298" stroke="white" stroke-width="0.642857" stroke-miterlimit="10"/>
<path d="M74.8451 162.033C75.3127 162.033 75.6918 161.654 75.6918 161.185C75.6918 160.717 75.3127 160.337 74.8451 160.337C74.3775 160.337 73.9984 160.717 73.9984 161.185C73.9984 161.654 74.3775 162.033 74.8451 162.033Z" fill="white" stroke="white" stroke-width="0.642857" stroke-miterlimit="10"/>
<path d="M79.9252 162.033C80.3929 162.033 80.7719 161.654 80.7719 161.185C80.7719 160.717 80.3929 160.337 79.9252 160.337C79.4576 160.337 79.0786 160.717 79.0786 161.185C79.0786 161.654 79.4576 162.033 79.9252 162.033Z" fill="white" stroke="white" stroke-width="0.642857" stroke-miterlimit="10"/>
<path d="M85.9281 162.033C86.3957 162.033 86.7748 161.654 86.7748 161.185C86.7748 160.717 86.3957 160.337 85.9281 160.337C85.4605 160.337 85.0814 160.717 85.0814 161.185C85.0814 161.654 85.4605 162.033 85.9281 162.033Z" fill="white" stroke="white" stroke-width="0.642857" stroke-miterlimit="10"/>
<path d="M156.111 85.4878C156.995 88.6382 160.275 94.939 166.332 94.939M146.648 82.0854C143.241 82.9675 136.427 86.3195 136.427 92.6707" stroke="black" stroke-width="0.642857"/>
<path d="M56.9332 148.244C60.4873 148.244 63.3684 146.721 63.3684 144.841C63.3684 142.962 60.4873 141.439 56.9332 141.439C53.3791 141.439 50.498 142.962 50.498 144.841C50.498 146.721 53.3791 148.244 56.9332 148.244Z" fill="#00FFFF" stroke="#FF6666" stroke-width="0.642857" stroke-miterlimit="10"/>
<path d="M36.1213 198.5L31.6513 206.81C31.2213 207.61 30.7013 208.215 30.0913 208.625C29.4913 209.035 28.8363 209.24 28.1263 209.24C27.5763 209.24 27.0063 209.12 26.4163 208.88L27.0013 207.035C27.4213 207.165 27.7713 207.23 28.0513 207.23C28.3513 207.23 28.6213 207.16 28.8613 207.02C29.1013 206.87 29.3213 206.64 29.5213 206.33L29.6113 206.21L25.4713 198.5H28.0663L30.8563 204.14L33.7363 198.5H36.1213ZM41.5435 200.81C42.2935 200.81 42.9735 200.985 43.5835 201.335C44.2035 201.675 44.6885 202.16 45.0385 202.79C45.3885 203.41 45.5635 204.135 45.5635 204.965C45.5635 205.795 45.3885 206.525 45.0385 207.155C44.6885 207.775 44.2035 208.26 43.5835 208.61C42.9735 208.95 42.2935 209.12 41.5435 209.12C40.5135 209.12 39.7035 208.795 39.1135 208.145V211.91H36.7735V200.93H39.0085V201.86C39.5885 201.16 40.4335 200.81 41.5435 200.81ZM41.1385 207.2C41.7385 207.2 42.2285 207 42.6085 206.6C42.9985 206.19 43.1935 205.645 43.1935 204.965C43.1935 204.285 42.9985 203.745 42.6085 203.345C42.2285 202.935 41.7385 202.73 41.1385 202.73C40.5385 202.73 40.0435 202.935 39.6535 203.345C39.2735 203.745 39.0835 204.285 39.0835 204.965C39.0835 205.645 39.2735 206.19 39.6535 206.6C40.0435 207 40.5385 207.2 41.1385 207.2ZM50.9835 209.12C50.1335 209.12 49.3685 208.945 48.6885 208.595C48.0185 208.235 47.4935 207.74 47.1135 207.11C46.7335 206.48 46.5435 205.765 46.5435 204.965C46.5435 204.165 46.7335 203.45 47.1135 202.82C47.4935 202.19 48.0185 201.7 48.6885 201.35C49.3685 200.99 50.1335 200.81 50.9835 200.81C51.8335 200.81 52.5935 200.99 53.2635 201.35C53.9335 201.7 54.4585 202.19 54.8385 202.82C55.2185 203.45 55.4085 204.165 55.4085 204.965C55.4085 205.765 55.2185 206.48 54.8385 207.11C54.4585 207.74 53.9335 208.235 53.2635 208.595C52.5935 208.945 51.8335 209.12 50.9835 209.12ZM50.9835 207.2C51.5835 207.2 52.0735 207 52.4535 206.6C52.8435 206.19 53.0385 205.645 53.0385 204.965C53.0385 204.285 52.8435 203.745 52.4535 203.345C52.0735 202.935 51.5835 202.73 50.9835 202.73C50.3835 202.73 49.8885 202.935 49.4985 203.345C49.1085 203.745 48.9135 204.285 48.9135 204.965C48.9135 205.645 49.1085 206.19 49.4985 206.6C49.8885 207 50.3835 207.2 50.9835 207.2ZM60.573 205.94H59.358V209H57.018V200.93H59.358V204.065H60.618L62.808 200.93H65.298L62.478 204.8L65.493 209H62.733L60.573 205.94ZM78.195 207.02V209H70.26V207.425L74.31 203.6C74.74 203.19 75.03 202.84 75.18 202.55C75.33 202.25 75.405 201.955 75.405 201.665C75.405 201.245 75.26 200.925 74.97 200.705C74.69 200.475 74.275 200.36 73.725 200.36C73.265 200.36 72.85 200.45 72.48 200.63C72.11 200.8 71.8 201.06 71.55 201.41L69.78 200.27C70.19 199.66 70.755 199.185 71.475 198.845C72.195 198.495 73.02 198.32 73.95 198.32C74.73 198.32 75.41 198.45 75.99 198.71C76.58 198.96 77.035 199.32 77.355 199.79C77.685 200.25 77.85 200.795 77.85 201.425C77.85 201.995 77.73 202.53 77.49 203.03C77.25 203.53 76.785 204.1 76.095 204.74L73.68 207.02H78.195Z" fill="white"/>
<path d="M55.743 65.1901C55.6107 65.3086 55.5995 65.5118 55.7179 65.6439L57.6476 67.7963C57.766 67.9284 57.9692 67.9393 58.1015 67.8207C58.2338 67.7021 58.245 67.4989 58.1266 67.3669L56.4113 65.4536L58.3273 63.7359C58.4596 63.6173 58.4708 63.4141 58.3524 63.282C58.234 63.1499 58.0307 63.139 57.8985 63.2575L55.743 65.1901ZM98.1538 67.3784L55.9751 65.1083L55.9396 65.7501L98.1184 68.0203L98.1538 67.3784Z" fill="#00FFB3"/>
<path d="M103.183 67.6993C103.183 69.1894 101.957 70.4047 100.437 70.4047C98.9161 70.4047 97.6907 69.1894 97.6907 67.6993C97.6907 66.2092 98.9161 64.9939 100.437 64.9939C101.957 64.9939 103.183 66.2092 103.183 67.6993Z" fill="#FCEE21" stroke="#BFAA3A" stroke-width="0.642857"/>
<path d="M66.3723 20.0268C66.3723 21.5169 65.1469 22.7322 63.6262 22.7322C62.1055 22.7322 60.8801 21.5169 60.8801 20.0268C60.8801 18.5367 62.1055 17.3214 63.6262 17.3214C65.1469 17.3214 66.3723 18.5367 66.3723 20.0268Z" fill="#FCEE21" stroke="#BFAA3A" stroke-width="0.642857"/>
<path d="M54.8691 63.1591C54.8691 64.6492 53.6437 65.8645 52.123 65.8645C50.6023 65.8645 49.3769 64.6492 49.3769 63.1591C49.3769 61.669 50.6023 60.4537 52.123 60.4537C53.6437 60.4537 54.8691 61.669 54.8691 63.1591Z" fill="#FCEE21" stroke="#BFAA3A" stroke-width="0.642857"/>
<path d="M97.4567 65.7366C97.6284 65.6878 97.7285 65.5105 97.6802 65.3407L96.893 62.5742C96.8447 62.4044 96.6663 62.3064 96.4946 62.3552C96.3229 62.4041 96.2229 62.5813 96.2712 62.7511L96.9709 65.2103L94.4836 65.918C94.3119 65.9668 94.2119 66.1441 94.2602 66.3138C94.3085 66.4836 94.4868 66.5816 94.6585 66.5328L97.4567 65.7366ZM36.6272 32.4141L97.2112 65.7091L97.5272 65.1493L36.9432 31.8542L36.6272 32.4141Z" fill="#00FFB3"/>
<path d="M36.0929 37.1204C35.9193 37.0787 35.7451 37.184 35.704 37.3556L35.0329 40.1518C34.9917 40.3234 35.0991 40.4963 35.2728 40.538C35.4464 40.5796 35.6206 40.4743 35.6617 40.3027L36.2582 37.8172L38.7735 38.4208C38.9471 38.4625 39.1213 38.3572 39.1625 38.1856C39.2036 38.014 39.0963 37.8411 38.9226 37.7995L36.0929 37.1204ZM50.8642 60.7226L36.2934 37.2647L35.7433 37.5974L50.3142 61.0553L50.8642 60.7226Z" fill="#00FFB3"/>
<path d="M116.454 37.5595C116.525 37.3974 116.449 37.2085 116.285 37.1376L113.619 35.9814C113.455 35.9104 113.266 35.9843 113.195 36.1464C113.125 36.3085 113.201 36.4975 113.364 36.5684L115.734 37.5961L114.716 39.9442C114.646 40.1063 114.721 40.2953 114.885 40.3662C115.048 40.4372 115.238 40.3633 115.308 40.2012L116.454 37.5595ZM56.0769 61.1873L116.277 37.7295L116.038 37.1327L55.8379 60.5906L56.0769 61.1873Z" fill="#00FFB3"/>
<path d="M101.655 63.9859C101.693 64.1582 101.866 64.2664 102.04 64.2277L104.881 63.5964C105.055 63.5576 105.166 63.3866 105.127 63.2144C105.089 63.0421 104.917 62.9339 104.742 62.9726L102.217 63.5338L101.663 61.0388C101.624 60.8666 101.452 60.7583 101.278 60.7971C101.103 60.8358 100.993 61.0069 101.031 61.1791L101.655 63.9859ZM117.803 38.7736L101.698 63.7449L102.243 64.0867L118.347 39.1154L117.803 38.7736Z" fill="#00FFB3"/>
<path d="M67.2937 19.7533C67.1417 19.8461 67.0933 20.0437 67.1855 20.1948L68.688 22.6565C68.7802 22.8076 68.9782 22.8548 69.1301 22.762C69.2821 22.6693 69.3306 22.4716 69.2384 22.3206L67.9028 20.1324L70.1044 18.7886C70.2564 18.6959 70.3048 18.4982 70.2126 18.3471C70.1204 18.1961 69.9225 18.1488 69.7705 18.2416L67.2937 19.7533ZM115.084 31.0652L67.5372 19.7147L67.3841 20.339L114.931 31.6896L115.084 31.0652Z" fill="#00FFB3"/>
<path d="M112.188 34.6383C112.317 34.5167 112.323 34.3132 112.202 34.184L110.219 32.0774C110.097 31.9481 109.894 31.9419 109.765 32.0636C109.635 32.1853 109.629 32.3887 109.751 32.518L111.513 34.3905L109.641 36.1529C109.511 36.2745 109.505 36.4779 109.627 36.6072C109.749 36.7365 109.952 36.7427 110.081 36.621L112.188 34.6383ZM37.0439 32.4554L111.958 34.7255L111.977 34.083L37.0634 31.8129L37.0439 32.4554Z" fill="#00FFB3"/>
<path d="M59.2936 21.6668C59.3635 21.5037 59.2879 21.3147 59.1247 21.2448L56.4658 20.1052C56.3026 20.0353 56.1137 20.1109 56.0437 20.2741C55.9738 20.4372 56.0494 20.6262 56.2125 20.6961L58.5761 21.7091L57.5631 24.0726C57.4932 24.2357 57.5688 24.4247 57.732 24.4946C57.8951 24.5646 58.0841 24.489 58.154 24.3258L59.2936 21.6668ZM36.4163 30.9191L59.1175 21.8387L58.8787 21.2418L36.1776 30.3223L36.4163 30.9191Z" fill="#00FFB3"/>
<circle cx="34.0268" cy="32.1341" r="2.7054" fill="#FCEE21" stroke="#BFAA3A" stroke-width="0.642857"/>
<circle cx="116.508" cy="34.4043" r="2.7054" fill="#FCEE21" stroke="#BFAA3A" stroke-width="0.642857"/>
<rect x="0.5" y="0.5" width="222" height="224.343" rx="16.5714" fill="url(#paint0_radial_189_31696)" fill-opacity="0.3" stroke="#67409F"/>
<defs>
<radialGradient id="paint0_radial_189_31696" cx="0" cy="0" r="1" gradientUnits="userSpaceOnUse" gradientTransform="translate(108.856 112.5) rotate(-45.943) scale(156.544 156.498)">
<stop stop-color="#9657EE"/>
<stop offset="1" stop-color="#9657EE" stop-opacity="0"/>
</radialGradient>
</defs>
</svg>
