<svg width="226" height="226" viewBox="0 0 226 226" fill="none" xmlns="http://www.w3.org/2000/svg">
<g clip-path="url(#clip0_189_31751)">
<rect x="0.5" y="0.5" width="224.343" height="224.343" rx="16.5714" fill="url(#paint0_radial_189_31751)" fill-opacity="0.3" stroke="#67409F"/>
<path d="M28 191.547H120.901" stroke="white" stroke-width="0.718276" stroke-miterlimit="10"/>
<path d="M144.47 156.88L152.49 165.255L145.02 184.128" stroke="white" stroke-width="0.718276" stroke-miterlimit="10"/>
<path d="M140.6 133H138.355C135.957 133 134.021 134.957 134.046 137.355L134.468 177.428C134.487 179.267 135.67 180.89 137.414 181.471L143.244 183.415C143.409 183.47 143.549 183.582 143.639 183.732C144.02 184.367 144.996 184.096 144.995 183.355L144.91 137.302C144.906 134.925 142.977 133 140.6 133Z" fill="#EE8E03"/>
<path d="M154.931 191.547H191.162" stroke="white" stroke-width="0.718276" stroke-miterlimit="10"/>
<path d="M109.213 101.318C109.213 101.318 95.3584 108.865 91.7399 95.5133C91.7399 95.5133 90.637 77.8856 92.5333 76.9471C94.4296 76.0086 104.143 78.05 109.213 72.6998C109.213 72.6998 110.181 83.8937 114.602 81.7265C118.618 79.7915 119.798 81.146 120.049 83.913C120.301 86.6801 119.382 89.8922 113.915 90.8983C108.449 91.9045 112.377 100.98 112.377 100.98C112.377 100.98 113.345 105.401 111.564 106.785C109.784 108.168 110.384 109.59 111.787 110.181C112.988 110.536 114.25 110.64 115.493 110.487C116.736 110.334 117.935 109.926 119.014 109.29C119.61 108.938 120.298 108.773 120.988 108.818C121.679 108.863 122.34 109.115 122.884 109.542C123.725 110.149 124.753 110.441 125.787 110.364C126.217 110.371 126.643 110.286 127.038 110.116C127.433 109.945 127.788 109.693 128.079 109.376C128.369 109.059 128.589 108.684 128.725 108.276C128.86 107.867 128.907 107.435 128.864 107.007C128.786 102.576 126.425 99.8477 127.828 92.7656C129.231 85.6836 126.358 82.1232 125.1 79.7818C124.444 78.2759 124.07 76.6626 123.997 75.0218C123.865 72.9292 123.057 70.9361 121.694 69.3426C120.578 67.9945 119.072 67.0258 117.382 66.5701C115.693 66.1143 113.903 66.194 112.261 66.7981C112.261 66.7981 108.942 59.2032 98.4738 64.2245C88.2569 69.1104 82.9936 69.865 84.5416 86.9897C84.6463 88.0282 84.6105 89.0761 84.4352 90.105C84.0029 92.9674 82.9242 95.6938 81.2811 98.0772C81.2811 98.0772 79.5879 100.66 82.6066 105.304C83.2329 107.3 83.102 109.456 82.2389 111.361C80.7683 114.157 86.9604 109.513 91.827 109.958C96.055 110.335 98.8995 111.109 101.889 109.474C102.25 109.282 102.559 109.005 102.792 108.669C103.024 108.332 103.172 107.945 103.224 107.539C103.466 106.214 104.434 103.679 109.213 101.318Z" fill="white" stroke="white" stroke-miterlimit="10"/>
<path d="M138.877 147.177C138.877 147.177 119.895 120.165 130.644 112.348" stroke="white" stroke-width="0.718276" stroke-miterlimit="10"/>
<path d="M94.3039 113.373C94.3039 113.373 94.0031 131.376 89.7219 132.802" stroke="white" stroke-width="0.718276" stroke-miterlimit="10"/>
<path d="M137.131 133.011L70.2986 133.182C67.9228 133.188 66 135.116 66 137.492V163.213C66 163.372 66.1283 163.5 66.2867 163.5L66.4495 163.5C66.4795 163.5 66.5059 163.48 66.5145 163.452C66.5371 163.376 66.6479 163.393 66.6475 163.471L66.6017 172.172C66.6006 172.384 66.6723 172.59 66.8048 172.756C66.9314 172.914 67.1065 173.027 67.3032 173.076L67.5 173.125L68.25 173.215L69 173.395L70 173.695L71.4042 174.257C71.6343 174.349 71.856 174.461 72.067 174.591L73.2109 175.297C73.4033 175.416 73.5861 175.549 73.7576 175.697L74.5 176.335L75.1285 176.876C75.373 177.086 75.5667 177.349 75.695 177.645L76.3035 179.047C76.4137 179.301 76.3061 179.597 76.0585 179.721C75.7677 179.866 75.6796 180.239 75.8747 180.5L76.7898 181.72C76.9262 181.902 77 182.123 77 182.35V182.505C77 182.808 76.8285 183.086 76.5571 183.221C76.2294 183.385 76.0545 183.751 76.1324 184.109L76.3263 184.999C76.4315 185.483 76.2366 185.983 75.8316 186.267C75.6162 186.418 75.4551 186.635 75.3719 186.884L75.3014 187.096C75.1117 187.665 74.665 188.112 74.0959 188.301L73.8675 188.377C73.6241 188.459 73.3692 188.5 73.1126 188.5H71.5174C70.8483 188.5 70.1885 188.344 69.59 188.045L67.5 187L66.0104 186.007C66.0035 186.002 65.9972 185.997 65.9916 185.991C65.9303 185.923 65.8174 185.966 65.8174 186.058V191.317C65.8174 192.473 66.7125 193.415 67.8679 193.436C78.0756 193.62 122.886 194.375 122 193.398C121.197 192.514 120.394 189.248 120.109 187.995C120.035 187.667 120.034 187.33 120.1 187.001L120.263 186.187C120.401 185.497 121.006 185 121.71 185C122.204 185 122.664 184.753 122.938 184.343L123 184.25C123.312 183.781 123.838 183.5 124.401 183.5H125.484C125.8 183.5 126.089 183.321 126.231 183.038C126.392 182.717 126.74 182.534 127.096 182.585L129.257 182.894C129.711 182.959 130.162 182.757 130.417 182.375C130.75 181.875 131.403 181.702 131.941 181.97L132.548 182.274C132.844 182.422 133.099 182.643 133.286 182.917L138.298 190.205C138.43 190.399 138.61 190.555 138.82 190.66C139.243 190.872 139.746 190.852 140.152 190.609L141.756 189.646C141.908 189.555 142.096 189.548 142.254 189.627C142.73 189.865 143.212 189.318 142.917 188.876L142.051 187.577C142.017 187.526 141.978 187.478 141.935 187.435L139.311 184.811C139.112 184.612 139 184.342 139 184.061C139 183.475 139.475 183 140.061 183H140.291C140.429 183 140.567 183.022 140.699 183.066L141.452 183.317V137.321C141.452 134.936 139.516 133.005 137.131 133.011Z" fill="#FFCC2C"/>
<path d="M117.089 84.0582C117.089 84.0582 116.044 87.4347 113.693 87.7153" stroke="white" stroke-width="0.718276" stroke-miterlimit="10"/>
<path d="M100.564 85.8867C100.564 85.8867 93.7911 91.9045 99.6929 92.3399" stroke="white" stroke-width="0.718276" stroke-miterlimit="10"/>
<path d="M105.401 92.9494C105.401 92.9494 105.285 95.4456 102.15 96.4904" stroke="white" stroke-width="0.718276" stroke-miterlimit="10"/>
<path d="M103.263 107.578C103.263 107.578 105.198 112.967 96.8096 113.209C88.4213 113.451 74.7366 117.813 75.8069 133.144" stroke="white" stroke-width="0.718276" stroke-miterlimit="10"/>
<path d="M138.413 198.019C131.524 198.619 126.696 199.345 124.519 197.052C122.342 194.759 120.427 189.563 120.243 187.754C120.059 185.945 120.243 183.884 122.846 185.161" stroke="white" stroke-width="0.718276" stroke-miterlimit="10"/>
<path d="M126.745 193.433C126.745 193.433 118.501 182.075 125.99 183.633" stroke="white" stroke-width="0.718276" stroke-miterlimit="10"/>
<path d="M130.702 192.35C130.702 192.35 120.901 179.521 130.092 182.926" stroke="white" stroke-width="0.718276" stroke-miterlimit="10"/>
<path d="M134.233 191.266C134.233 191.266 127.403 182.143 130.982 181.659C131.417 181.618 131.854 181.698 132.247 181.889C132.639 182.08 132.972 182.375 133.208 182.743L138.432 190.376C138.499 190.471 138.584 190.553 138.682 190.614C138.781 190.676 138.89 190.717 139.005 190.735C139.12 190.753 139.237 190.748 139.35 190.719C139.463 190.691 139.569 190.64 139.661 190.57C141.007 189.746 142.613 189.46 144.16 189.767" stroke="white" stroke-width="0.718276" stroke-miterlimit="10"/>
<path d="M145.376 184.485C131.56 178.506 143.899 189.66 143.899 189.66" stroke="white" stroke-width="0.718276" stroke-miterlimit="10"/>
<path d="M144.965 183.4L144.965 171.683L152.389 165.6C152.389 165.6 152.361 166.096 152.361 166.107L145.322 183.417C145.205 184.184 144.965 183.397 144.965 183.4Z" fill="white"/>
<path d="M104.163 87.9184C104.553 87.9184 104.869 87.6022 104.869 87.2122C104.869 86.8221 104.553 86.5059 104.163 86.5059C103.773 86.5059 103.457 86.8221 103.457 87.2122C103.457 87.6022 103.773 87.9184 104.163 87.9184Z" fill="white" stroke="white" stroke-width="0.718276" stroke-miterlimit="10"/>
<path d="M94.7199 87.4347C95.1474 87.4347 95.4939 87.0882 95.4939 86.6607C95.4939 86.2332 95.1474 85.8867 94.7199 85.8867C94.2924 85.8867 93.9459 86.2332 93.9459 86.6607C93.9459 87.0882 94.2924 87.4347 94.7199 87.4347Z" fill="white" stroke="white" stroke-width="0.718276" stroke-miterlimit="10"/>
<path d="M95.5738 82.453C96.703 81.9546 97.4802 81.2374 97.3097 80.8512C97.1392 80.4651 96.0856 80.5561 94.9565 81.0546C93.8273 81.5531 93.0501 82.2703 93.2206 82.6564C93.391 83.0426 94.4446 82.9515 95.5738 82.453Z" fill="white" stroke="white" stroke-width="0.718276" stroke-miterlimit="10"/>
<path d="M107.957 83.0578C108.078 82.6254 107.328 82.0394 106.283 81.749C105.238 81.4586 104.293 81.5737 104.173 82.0061C104.053 82.4386 104.802 83.0246 105.847 83.315C106.893 83.6054 107.837 83.4903 107.957 83.0578Z" fill="white" stroke="white" stroke-width="0.718276" stroke-miterlimit="10"/>
<path d="M137.852 198.068C137.852 198.068 162.04 194.12 177.665 170.117C177.665 170.117 180.568 167.582 177.665 158.507C174.762 149.432 165.387 138.712 150.729 123.232C136.072 107.752 122.352 112.841 117.089 113.083C111.826 113.325 113.693 110.655 113.693 110.655" stroke="white" stroke-width="0.718276" stroke-miterlimit="10"/>
<g clip-path="url(#clip1_189_31751)">
<path d="M75.5613 186.521C76.1494 189.731 70.0687 188.254 70.0687 188.254C70.0687 188.254 62.3864 185.691 58.0521 175.804C53.7178 165.918 67.0193 163.036 67.0193 163.036L66.9289 172.868" stroke="white" stroke-width="0.718276" stroke-miterlimit="10"/>
<path d="M66.4493 182.298C66.4493 182.298 78.5021 190.452 76.1494 183.62" stroke="white" stroke-width="0.718276" stroke-miterlimit="10"/>
<path d="M67.1732 179.744C67.1732 179.744 81.5515 187.798 75.7242 180.009" stroke="white" stroke-width="0.718276" stroke-miterlimit="10"/>
<path d="M68.3643 176.972C68.3643 176.972 78.1451 183.118 76.1064 178.072C75.6586 176.994 74.9413 176.086 74.0419 175.457C71.9262 173.849 69.4688 172.897 66.9191 172.698" stroke="white" stroke-width="0.718276" stroke-miterlimit="10"/>
</g>
<path d="M26.2421 37.9528H88.585L101.378 19.3099L38.4588 20.3245L26.2421 37.9528Z" stroke="#00FFFF" stroke-miterlimit="10"/>
<path d="M20.6993 30.8814H83.0422L95.8355 12.2385L32.916 13.2531L20.6993 30.8814Z" fill="#62F3CD" stroke="#62F3CD" stroke-width="0.682857" stroke-miterlimit="10"/>
<path d="M95.6316 49.9962C96.8795 49.9962 97.8912 49.171 97.8912 48.1531C97.8912 47.1351 96.8795 46.3099 95.6316 46.3099C94.3837 46.3099 93.372 47.1351 93.372 48.1531C93.372 49.171 94.3837 49.9962 95.6316 49.9962Z" fill="#00FFB3" stroke="#00FFFF" stroke-width="0.682857" stroke-miterlimit="10"/>
<path d="M86.3936 46.1391C87.6415 46.1391 88.6532 45.3139 88.6532 44.2959C88.6532 43.278 87.6415 42.4528 86.3936 42.4528C85.1456 42.4528 84.134 43.278 84.134 44.2959C84.134 45.3139 85.1456 46.1391 86.3936 46.1391Z" fill="#00FFB3" stroke="#00FFFF" stroke-width="0.682857" stroke-miterlimit="10"/>
<path d="M94.9052 181.752L76.0272 163.614" stroke="#7143B1" stroke-width="1.2" stroke-miterlimit="10"/>
<path d="M76.0272 160.712L100.193 144.37" stroke="#7143B1" stroke-width="1.2" stroke-miterlimit="10"/>
<path d="M103 143.5L123.865 157.132" stroke="#7143B1" stroke-width="1.2" stroke-miterlimit="10"/>
<path d="M124.5 159L115.5 174.5" stroke="#7143B1" stroke-width="1.2" stroke-miterlimit="10"/>
<path d="M97.9716 183.207L113.329 176.144" stroke="#7143B1" stroke-width="1.2" stroke-miterlimit="10"/>
<path d="M114.589 172.947L102.116 146.154L96.1866 181.199" stroke="#7143B1" stroke-width="1.2" stroke-miterlimit="10"/>
<path d="M112.822 174.788L76 162L123.209 158.502" stroke="#7143B1" stroke-width="1.2" stroke-miterlimit="10"/>
<path d="M96.1395 185.179C97.1512 185.179 97.9714 184.296 97.9714 183.207C97.9714 182.118 97.1512 181.235 96.1395 181.235C95.1277 181.235 94.3076 182.118 94.3076 183.207C94.3076 184.296 95.1277 185.179 96.1395 185.179Z" fill="#7F3838" stroke="#7F3838" stroke-width="0.341429" stroke-miterlimit="10"/>
<path d="M102.09 145.615C103.274 145.615 104.234 144.582 104.234 143.308C104.234 142.033 103.274 141 102.09 141C100.906 141 99.9464 142.033 99.9464 143.308C99.9464 144.582 100.906 145.615 102.09 145.615Z" fill="#7F3838" stroke="#7F3838" stroke-width="0.341429" stroke-miterlimit="10"/>
<path d="M124.788 160.201C125.66 160.201 126.367 159.441 126.367 158.502C126.367 157.564 125.66 156.803 124.788 156.803C123.916 156.803 123.209 157.564 123.209 158.502C123.209 159.441 123.916 160.201 124.788 160.201Z" fill="#7F3838" stroke="#7F3838" stroke-width="0.341429" stroke-miterlimit="10"/>
<path d="M74.8189 164.117C75.8235 164.117 76.6379 163.241 76.6379 162.159C76.6379 161.078 75.8235 160.201 74.8189 160.201C73.8144 160.201 73 161.078 73 162.159C73 163.241 73.8144 164.117 74.8189 164.117Z" fill="#7F3838" stroke="#7F3838" stroke-width="0.341429" stroke-miterlimit="10"/>
<path d="M114.628 176.732C115.625 176.732 116.434 175.861 116.434 174.788C116.434 173.714 115.625 172.844 114.628 172.844C113.63 172.844 112.822 173.714 112.822 174.788C112.822 175.861 113.63 176.732 114.628 176.732Z" fill="#7F3838" stroke="#7F3838" stroke-width="0.341429" stroke-miterlimit="10"/>
<path d="M34.878 24L36.3705 20.9096L34.878 17.8543H38.3898V18.2581H35.5364L36.827 20.9096L35.5364 23.5961H38.3898V24H34.878ZM43.0571 17.1519H43.5136V24H43.0571V17.1519ZM39.6067 21.9807C39.6067 21.5417 39.6945 21.1671 39.8701 20.8569C40.0457 20.5408 40.2798 20.2979 40.5725 20.1282C40.871 19.9585 41.1988 19.8736 41.5558 19.8736C41.907 19.8736 42.2084 19.9672 42.4601 20.1545C42.7118 20.336 42.9079 20.5847 43.0483 20.9008C43.1947 21.2169 43.2678 21.5768 43.2678 21.9807C43.2678 22.3787 43.1947 22.7387 43.0483 23.0606C42.9079 23.3766 42.7118 23.6283 42.4601 23.8156C42.2084 23.9971 41.907 24.0878 41.5558 24.0878C41.1988 24.0878 40.871 24.0029 40.5725 23.8332C40.2798 23.6634 40.0457 23.4205 39.8701 23.1045C39.6945 22.7884 39.6067 22.4138 39.6067 21.9807ZM40.072 21.9807C40.072 22.3319 40.1394 22.6333 40.274 22.885C40.4145 23.1367 40.6018 23.3298 40.8359 23.4644C41.0758 23.5932 41.3363 23.6576 41.6173 23.6576C41.8689 23.6576 42.1031 23.5844 42.3196 23.4381C42.542 23.2918 42.7206 23.0928 42.8552 22.8411C42.9898 22.5894 43.0571 22.3026 43.0571 21.9807C43.0571 21.6588 42.9898 21.372 42.8552 21.1203C42.7206 20.8686 42.542 20.6696 42.3196 20.5233C42.1031 20.377 41.8689 20.3038 41.6173 20.3038C41.3363 20.3038 41.0758 20.3711 40.8359 20.5057C40.6018 20.6345 40.4145 20.8247 40.274 21.0764C40.1394 21.3281 40.072 21.6295 40.072 21.9807ZM46.3724 24.0878C46.0095 24.0878 45.6876 23.9971 45.4067 23.8156C45.1257 23.6342 44.9033 23.3854 44.7394 23.0694C44.5814 22.7474 44.5024 22.3816 44.5024 21.9719C44.5024 21.5622 44.5843 21.1993 44.7482 20.8832C44.9121 20.5672 45.1404 20.3214 45.433 20.1458C45.7257 19.9643 46.0622 19.8736 46.4427 19.8736C46.8114 19.8736 47.1333 19.9585 47.4084 20.1282C47.6894 20.2979 47.9059 20.535 48.0581 20.8393C48.2161 21.1379 48.2952 21.4832 48.2952 21.8753C48.2952 21.9105 48.2922 21.9485 48.2864 21.9895C48.2864 22.0304 48.2835 22.0656 48.2776 22.0948H44.7921V21.6997H47.9352L47.7421 21.9719C47.7538 21.9426 47.7655 21.9046 47.7772 21.8578C47.7947 21.8051 47.8035 21.7554 47.8035 21.7085C47.8035 21.4334 47.7421 21.1876 47.6191 20.971C47.5021 20.7545 47.3411 20.5847 47.1363 20.4618C46.9314 20.3389 46.7002 20.2775 46.4427 20.2775C46.1442 20.2775 45.8837 20.3477 45.6613 20.4882C45.4447 20.6228 45.275 20.8159 45.1521 21.0676C45.0292 21.3134 44.9677 21.6061 44.9677 21.9456C44.9677 22.2909 45.0262 22.5923 45.1433 22.8499C45.2662 23.1074 45.4359 23.3064 45.6525 23.4469C45.8749 23.5874 46.1325 23.6576 46.4251 23.6576C46.7353 23.6576 47.0046 23.5903 47.2328 23.4557C47.467 23.321 47.6747 23.1103 47.8562 22.8235L48.2249 23.0606C47.9967 23.4118 47.7303 23.6722 47.426 23.842C47.1275 24.0059 46.7763 24.0878 46.3724 24.0878ZM49.0745 24.2634H49.5398C49.5398 24.5151 49.5983 24.7404 49.7154 24.9394C49.8325 25.1384 49.9963 25.2965 50.2071 25.4135C50.4236 25.5306 50.6724 25.5891 50.9533 25.5891C51.205 25.5891 51.4421 25.5306 51.6645 25.4135C51.8869 25.2965 52.0683 25.1121 52.2088 24.8604C52.3551 24.6146 52.4283 24.2985 52.4283 23.9122V19.9614H52.8848V23.9122C52.8848 24.3746 52.7941 24.7609 52.6127 25.0711C52.4312 25.3872 52.1942 25.6242 51.9015 25.7823C51.6089 25.9403 51.2928 26.0193 50.9533 26.0193C50.5846 26.0193 50.2568 25.9461 49.97 25.7998C49.6891 25.6535 49.4696 25.4457 49.3115 25.1765C49.1535 24.9131 49.0745 24.6087 49.0745 24.2634ZM48.9779 21.9807C48.9779 21.5417 49.0657 21.1671 49.2413 20.8569C49.4169 20.5408 49.651 20.2979 49.9437 20.1282C50.2422 19.9585 50.5699 19.8736 50.927 19.8736C51.2782 19.8736 51.5796 19.9672 51.8313 20.1545C52.083 20.336 52.279 20.5847 52.4195 20.9008C52.5658 21.2169 52.639 21.5768 52.639 21.9807C52.639 22.3787 52.5658 22.7387 52.4195 23.0606C52.279 23.3766 52.083 23.6283 51.8313 23.8156C51.5796 23.9971 51.2782 24.0878 50.927 24.0878C50.5699 24.0878 50.2422 24.0029 49.9437 23.8332C49.651 23.6634 49.4169 23.4205 49.2413 23.1045C49.0657 22.7884 48.9779 22.4138 48.9779 21.9807ZM49.4432 21.9807C49.4432 22.3319 49.5105 22.6333 49.6452 22.885C49.7856 23.1367 49.9729 23.3298 50.2071 23.4644C50.447 23.5932 50.7075 23.6576 50.9884 23.6576C51.2401 23.6576 51.4742 23.5844 51.6908 23.4381C51.9132 23.2918 52.0917 23.0928 52.2264 22.8411C52.361 22.5836 52.4283 22.2909 52.4283 21.9631C52.4283 21.729 52.3903 21.5124 52.3142 21.3134C52.2381 21.1144 52.1298 20.9388 51.9893 20.7867C51.8547 20.6345 51.6996 20.5174 51.524 20.4355C51.3543 20.3477 51.1757 20.3038 50.9884 20.3038C50.7075 20.3038 50.447 20.3711 50.2071 20.5057C49.9729 20.6345 49.7856 20.8247 49.6452 21.0764C49.5105 21.3281 49.4432 21.6295 49.4432 21.9807ZM55.331 17.1519H55.7436C55.4276 17.825 55.1964 18.5245 55.05 19.2502C54.9037 19.9702 54.8305 20.7047 54.8305 21.4539C54.8305 22.1973 54.9037 22.9318 55.05 23.6576C55.1964 24.3775 55.4276 25.077 55.7436 25.7559H55.331C54.9798 25.0945 54.7223 24.398 54.5584 23.6664C54.4003 22.9347 54.3213 22.1973 54.3213 21.4539C54.3213 20.7047 54.4003 19.9643 54.5584 19.2327C54.7223 18.501 54.9798 17.8075 55.331 17.1519ZM58.9063 19.9614H59.433L58.0371 21.9192L59.5208 24H58.9941L57.7825 22.2792L56.5709 24H56.0441L57.5279 21.9192L56.1319 19.9614H56.6587L57.7825 21.5593L58.9063 19.9614ZM60.2346 25.7559H59.8219C60.138 25.077 60.3692 24.3775 60.5155 23.6576C60.6619 22.9318 60.735 22.1973 60.735 21.4539C60.735 20.7047 60.6619 19.9702 60.5155 19.2502C60.3692 18.5245 60.138 17.825 59.8219 17.1519H60.2346C60.5858 17.8075 60.8404 18.501 60.9984 19.2327C61.1623 19.9643 61.2442 20.7047 61.2442 21.4539C61.2442 22.1973 61.1623 22.9347 60.9984 23.6664C60.8404 24.398 60.5858 25.0945 60.2346 25.7559ZM62.6071 22.6128V22.1826H66.8652V22.6128H62.6071ZM62.6071 21.3837V20.9535H66.8652V21.3837H62.6071ZM67.631 24L70.502 20.971C70.6366 20.8189 70.7566 20.6696 70.8619 20.5233C70.9731 20.377 71.058 20.2218 71.1165 20.058C71.1809 19.8882 71.2131 19.7068 71.2131 19.5136C71.2131 19.3614 71.1868 19.2093 71.1341 19.0571C71.0814 18.9049 70.9995 18.7674 70.8883 18.6444C70.7771 18.5157 70.6366 18.4133 70.4669 18.3372C70.303 18.2552 70.1069 18.2142 69.8786 18.2142C69.5801 18.2142 69.3226 18.2874 69.106 18.4337C68.8895 18.5742 68.7226 18.7761 68.6056 19.0395C68.4885 19.3029 68.43 19.6102 68.43 19.9614H67.9471C67.9471 19.5224 68.0232 19.139 68.1754 18.8113C68.3334 18.4776 68.5558 18.2201 68.8426 18.0387C69.1353 17.8514 69.4806 17.7577 69.8786 17.7577C70.2005 17.7577 70.4756 17.8133 70.7039 17.9245C70.938 18.0357 71.1283 18.1791 71.2746 18.3547C71.4268 18.5245 71.538 18.7118 71.6082 18.9166C71.6784 19.1156 71.7136 19.3088 71.7136 19.4961C71.7136 19.8297 71.6316 20.1428 71.4677 20.4355C71.3097 20.7281 71.1136 20.9945 70.8795 21.2344L68.6407 23.5435H71.8277V24H67.631ZM76.3393 18.7937L76.4622 19.1888L74.8819 19.6365L74.7853 19.3556L76.3393 18.7937ZM75.9706 20.6989L75.6369 20.9447L74.7239 19.5839L74.9521 19.4083L75.9706 20.6989ZM74.0391 20.9447L73.7054 20.6989L74.7239 19.4083L74.9521 19.5839L74.0391 20.9447ZM73.2138 19.1888L73.3367 18.7937L74.8907 19.3556L74.7941 19.6365L73.2138 19.1888ZM74.6361 17.8543H75.0399L74.9785 19.4961H74.6975L74.6361 17.8543ZM78.3129 17.108H78.7344V25.8876H78.3129V17.108ZM80.6048 24V23.5435H83.6513V24H80.6048ZM80.6048 18.3108V17.8543H83.6513V18.3108H80.6048ZM80.6048 20.8569V20.4004H83.4757V20.8569H80.6048ZM80.3502 17.8543H80.8331V24H80.3502V17.8543ZM85.1806 17.108H85.602V25.8876H85.1806V17.108Z" fill="black"/>
<path d="M39.4461 201.5L34.9761 209.81C34.5461 210.61 34.0261 211.215 33.4161 211.625C32.8161 212.035 32.1611 212.24 31.4511 212.24C30.9011 212.24 30.3311 212.12 29.7411 211.88L30.3261 210.035C30.7461 210.165 31.0961 210.23 31.3761 210.23C31.6761 210.23 31.9461 210.16 32.1861 210.02C32.4261 209.87 32.6461 209.64 32.8461 209.33L32.9361 209.21L28.7961 201.5H31.3911L34.1811 207.14L37.0611 201.5H39.4461ZM44.8682 203.81C45.6182 203.81 46.2982 203.985 46.9082 204.335C47.5282 204.675 48.0132 205.16 48.3632 205.79C48.7132 206.41 48.8882 207.135 48.8882 207.965C48.8882 208.795 48.7132 209.525 48.3632 210.155C48.0132 210.775 47.5282 211.26 46.9082 211.61C46.2982 211.95 45.6182 212.12 44.8682 212.12C43.8382 212.12 43.0282 211.795 42.4382 211.145V214.91H40.0982V203.93H42.3332V204.86C42.9132 204.16 43.7582 203.81 44.8682 203.81ZM44.4632 210.2C45.0632 210.2 45.5532 210 45.9332 209.6C46.3232 209.19 46.5182 208.645 46.5182 207.965C46.5182 207.285 46.3232 206.745 45.9332 206.345C45.5532 205.935 45.0632 205.73 44.4632 205.73C43.8632 205.73 43.3682 205.935 42.9782 206.345C42.5982 206.745 42.4082 207.285 42.4082 207.965C42.4082 208.645 42.5982 209.19 42.9782 209.6C43.3682 210 43.8632 210.2 44.4632 210.2ZM54.3083 212.12C53.4583 212.12 52.6933 211.945 52.0133 211.595C51.3433 211.235 50.8183 210.74 50.4383 210.11C50.0583 209.48 49.8683 208.765 49.8683 207.965C49.8683 207.165 50.0583 206.45 50.4383 205.82C50.8183 205.19 51.3433 204.7 52.0133 204.35C52.6933 203.99 53.4583 203.81 54.3083 203.81C55.1583 203.81 55.9183 203.99 56.5883 204.35C57.2583 204.7 57.7833 205.19 58.1633 205.82C58.5433 206.45 58.7333 207.165 58.7333 207.965C58.7333 208.765 58.5433 209.48 58.1633 210.11C57.7833 210.74 57.2583 211.235 56.5883 211.595C55.9183 211.945 55.1583 212.12 54.3083 212.12ZM54.3083 210.2C54.9083 210.2 55.3983 210 55.7783 209.6C56.1683 209.19 56.3633 208.645 56.3633 207.965C56.3633 207.285 56.1683 206.745 55.7783 206.345C55.3983 205.935 54.9083 205.73 54.3083 205.73C53.7083 205.73 53.2133 205.935 52.8233 206.345C52.4333 206.745 52.2383 207.285 52.2383 207.965C52.2383 208.645 52.4333 209.19 52.8233 209.6C53.2133 210 53.7083 210.2 54.3083 210.2ZM63.8977 208.94H62.6827V212H60.3427V203.93H62.6827V207.065H63.9427L66.1327 203.93H68.6227L65.8027 207.8L68.8177 212H66.0577L63.8977 208.94ZM77.7248 201.5V212H75.2948V203.45H73.1948V201.5H77.7248Z" fill="white"/>
</g>
<defs>
<radialGradient id="paint0_radial_189_31751" cx="0" cy="0" r="1" gradientUnits="userSpaceOnUse" gradientTransform="translate(110 112.5) rotate(-45.6437) scale(157.341)">
<stop stop-color="#9657EE"/>
<stop offset="1" stop-color="#9657EE" stop-opacity="0"/>
</radialGradient>
<clipPath id="clip0_189_31751">
<rect width="226" height="226" fill="white"/>
</clipPath>
<clipPath id="clip1_189_31751">
<rect width="20.83" height="26.5762" fill="white" transform="translate(56.731 162.471)"/>
</clipPath>
</defs>
</svg>
