<svg width="226" height="226" viewBox="0 0 226 226" fill="none" xmlns="http://www.w3.org/2000/svg">
<g clip-path="url(#clip0_312_871)">
<rect x="0.5" y="0.5" width="224.343" height="224.343" rx="16.5714" fill="url(#paint0_radial_312_871)" fill-opacity="0.3" stroke="#67409F"/>
<g clip-path="url(#clip1_312_871)">
<path d="M58 130.01H37.8184C37.8184 130.01 25.725 128.978 26.0291 148.355C26.3331 167.731 26 192 26 192" stroke="white" stroke-width="0.695652" stroke-miterlimit="10"/>
<path d="M127.515 174.902C127.515 174.902 127.515 176.185 126.669 176.35C125.954 176.392 125.239 176.273 124.577 176C124.577 176 122.709 172.114 122.174 173.639C121.734 175.578 121.464 177.551 121.367 179.536C118.954 184.792 117.767 179.06 117.758 175.747C117.748 172.435 122.174 170.346 122.174 170.346" fill="#9657EE"/>
<path d="M129.276 175.126C129.276 175.126 132.797 175.242 132.973 176.69C133.148 178.137 133.323 179.798 133.323 179.798C133.323 179.798 135.171 183.092 136.241 179.798C137.311 176.505 136.64 175.126 136.64 175.126H129.276Z" fill="#9657EE"/>
<path d="M59.5152 138.288C59.5152 138.288 70.4205 149.77 77.9306 149.44C77.9306 149.44 59.0677 148.925 51.6646 140.017L58.2602 136.996L59.5152 138.288Z" fill="white" stroke="white" stroke-width="0.695652" stroke-miterlimit="10"/>
<path d="M111.065 143.796C111.065 143.796 119.013 159.446 122.174 161.719" stroke="white" stroke-width="0.695652" stroke-miterlimit="10"/>
<path d="M201.216 116.75H127.155C124.404 116.75 122.174 118.977 122.174 121.724V169.355C122.174 172.102 124.404 174.329 127.155 174.329H201.216C203.966 174.329 206.196 172.102 206.196 169.355V121.724C206.196 118.977 203.966 116.75 201.216 116.75Z" fill="#7F3838" stroke="#7F3838" stroke-width="0.695652" stroke-miterlimit="10"/>
<path d="M204.115 116.75H131.513C129.305 116.75 127.515 118.538 127.515 120.743V170.336C127.515 172.541 129.305 174.329 131.513 174.329H204.115C206.323 174.329 208.113 172.541 208.113 170.336V120.743C208.113 118.538 206.323 116.75 204.115 116.75Z" fill="#FF6666" stroke="#7F3838" stroke-width="0.695652" stroke-miterlimit="10"/>
<path d="M101.346 86.3339C107.31 79.932 115.374 83.0212 115.374 83.0212C115.374 83.0212 130.939 88.9763 118.575 100.119C106.21 111.262 89.8573 99.5653 89.8573 99.5653C89.8573 99.5653 87.8728 110.115 75.771 107.842C75.771 107.842 72.4537 101.042 72.7844 97.9138C73.1152 94.7857 74.9927 90.0838 84.3804 90.4141C84.3804 90.4141 84.4971 82.3607 88.2717 81.1463C92.0462 79.932 97.1729 80.4274 98.3598 82.2829C99.1763 83.6164 99.8079 85.0543 100.237 86.5574L101.346 86.3339Z" fill="white" stroke="white" stroke-width="0.695652" stroke-miterlimit="10"/>
<path d="M169.366 146.302H165.932C165.932 146.302 163.986 145.943 163.928 148.527C163.869 151.111 166.642 186.278 166.642 186.278L175.767 187.075L169.366 146.302Z" fill="#7F3838" stroke="#7F3838" stroke-width="0.695652" stroke-miterlimit="10"/>
<path d="M189.357 186.987L182.012 149.576C181.933 148.645 181.487 147.783 180.772 147.18C180.057 146.577 179.131 146.283 178.199 146.361C174.804 146.302 171.292 146.361 171.292 146.361C171.292 146.361 167.303 145.739 167.614 148.76C167.926 151.781 171.428 186.987 171.428 186.987H189.357Z" fill="#FF6666" stroke="#7F3838" stroke-width="0.695652" stroke-miterlimit="10"/>
<path d="M107.67 136.345C107.67 136.345 109.907 142.562 110.967 143.213C112.028 143.864 104.012 149.362 101.891 149.44C104.971 145.679 106.968 141.153 107.67 136.345Z" fill="white" stroke="white" stroke-width="0.695652" stroke-miterlimit="10"/>
<path d="M76.2962 128.291L90.5577 141.698C90.7145 141.839 90.9022 141.942 91.1059 141.998C91.3096 142.054 91.5236 142.061 91.7307 142.02C91.9379 141.978 92.1324 141.889 92.2986 141.759C92.4649 141.628 92.5983 141.461 92.6882 141.27C93.7291 139.026 94.3225 134.538 95.7915 130.118C96.881 126.825 98.7975 133.032 98.3402 138.404C97.9609 142.912 95.1591 149.693 94.449 151.16C94.3618 151.348 94.3218 151.555 94.3322 151.762L95.4023 175.407C95.4023 176.175 94.7992 175.747 94.0307 175.747C93.3886 175.747 92.3088 175.145 92.1823 174.514C90.9858 168.685 87.6782 144.466 76.6173 134.917C75.5651 133.775 74.6659 132.501 73.942 131.128C73.5237 130.089 72.8525 126.922 76.2962 128.291Z" fill="#9657EE" stroke="#67409F" stroke-width="0.695652" stroke-miterlimit="10"/>
<path d="M99.4006 147.76C98.6956 148.314 98.1373 149.032 97.7744 149.852C97.4115 150.672 97.2551 151.568 97.3188 152.461V163.148" stroke="white" stroke-width="0.695652" stroke-miterlimit="10"/>
<path d="M80.4599 147.76C80.4599 147.76 86.3746 153.219 86.4719 163.828" stroke="white" stroke-width="0.695652" stroke-miterlimit="10"/>
<path d="M107.135 138.929C107.135 138.929 108.175 125.542 101.298 122.249" stroke="white" stroke-width="0.695652" stroke-miterlimit="10"/>
<path d="M63.3384 161.719C63.3384 161.719 69.1753 162.691 68.9126 168.228" stroke="white" stroke-width="0.695652" stroke-miterlimit="10"/>
<path d="M117.758 161.719C117.758 161.719 111.405 161.389 108.934 169.161" stroke="white" stroke-width="0.695652" stroke-miterlimit="10"/>
<path d="M121.581 164.935C121.581 164.935 112.68 163.682 111.065 175.747" stroke="white" stroke-width="0.695652" stroke-miterlimit="10"/>
<path d="M76.6368 119.471C76.6368 119.471 69.3698 119.616 66.1304 121.53C62.8909 123.444 55.5753 126.251 57.9392 137.073" stroke="white" stroke-width="0.695652" stroke-miterlimit="10"/>
<path d="M51.3338 140.231C51.3338 140.231 36.4497 152.996 32.3055 163.828C28.1613 174.659 29.2022 179.672 30.2431 183.063C31.284 186.453 37.5198 190.485 43.5804 191.369" stroke="white" stroke-width="0.695652" stroke-miterlimit="10"/>
<path d="M75.7709 107.842C75.7709 107.842 76.52 120.384 77.9792 122.676C79.4384 124.969 83.1643 129.885 87.1821 130.079C91.1998 130.273 95.6456 129.836 97.3675 128.554C99.0893 127.271 103.204 120.102 103.817 113.506C104.43 106.91 103.817 104.763 103.817 104.763" stroke="white" stroke-width="0.695652" stroke-miterlimit="10"/>
<path d="M96.025 111.553V118.664L93.5832 117.469" stroke="white" stroke-width="0.695652" stroke-miterlimit="10"/>
<path d="M89.8768 119.471C90.1334 120.355 90.6067 121.162 91.2538 121.819C91.9008 122.475 92.7014 122.96 93.5832 123.23" stroke="white" stroke-width="0.695652" stroke-miterlimit="10"/>
<path d="M92.4353 104.811C92.4353 104.811 89.7114 103.199 88.544 106.492" stroke="white" stroke-width="0.695652" stroke-miterlimit="10"/>
<path d="M101.891 107.201C101.891 107.201 100.568 104.627 98.3694 106.064" stroke="white" stroke-width="0.695652" stroke-miterlimit="10"/>
<path d="M75.7709 109.144C75.7709 109.144 71.2668 107.9 71.0917 111.602C70.9166 115.303 72.94 118.247 76.6854 117.362" stroke="white" stroke-width="0.695652" stroke-miterlimit="10"/>
<path d="M60.595 168.228L84.5263 170.346C84.5263 170.346 89.5169 169.821 89.8379 173.659" stroke="white" stroke-width="0.695652" stroke-miterlimit="10"/>
<path d="M92.5521 176.369C92.5521 176.369 102.183 176.039 106.794 178.127C107.475 178.438 114.684 180.07 114.956 186.278" stroke="white" stroke-width="0.695652" stroke-miterlimit="10"/>
<path d="M47.9905 185.52C50.7468 185.52 52.9811 183.389 52.9811 180.76C52.9811 178.131 50.7468 176 47.9905 176C45.2343 176 43 178.131 43 180.76C43 183.389 45.2343 185.52 47.9905 185.52Z" stroke="white" stroke-width="0.695652" stroke-miterlimit="10"/>
<path d="M47 174H63.9951V187.989C63.9951 187.989 63.8395 191.069 61.9911 191.535C60.1428 192.001 49.4126 191.846 49.4126 191.846C49.4126 191.846 47 192.196 47 188.222V174Z" fill="#FF6666" stroke="#7F3838" stroke-width="0.695652" stroke-miterlimit="10"/>
<path d="M26 192H197" stroke="white" stroke-miterlimit="10"/>
<path d="M91.4138 185.161C91.4138 185.161 90.8788 178.137 92.552 175.747C94.2253 173.358 88.2814 173.649 88.2814 173.649C88.2814 173.649 86.4719 173.853 86.4719 177.146C86.4719 180.44 86.4719 188.804 86.4719 188.804L91.4138 185.161Z" fill="#9657EE" stroke="#67409F" stroke-width="0.695652" stroke-miterlimit="10"/>
<path d="M137.2 186H86.8005C86.3584 186 86 186.463 86 187.034V190.966C86 191.537 86.3584 192 86.8005 192H137.2C137.642 192 138 191.537 138 190.966V187.034C138 186.463 137.642 186 137.2 186Z" fill="white" stroke="white" stroke-width="0.695652" stroke-miterlimit="10"/>
<path d="M195.729 186H156.271C155.569 186 155 186.869 155 187.94V190.06C155 191.131 155.569 192 156.271 192H195.729C196.431 192 197 191.131 197 190.06V187.94C197 186.869 196.431 186 195.729 186Z" fill="white" stroke="white" stroke-width="0.695652" stroke-miterlimit="10"/>
<path d="M78.7964 123.949L75.2067 127.981" stroke="white" stroke-width="0.695652" stroke-miterlimit="10"/>
<path d="M92.2115 111.553C92.7219 111.553 93.1357 111.14 93.1357 110.63C93.1357 110.121 92.7219 109.707 92.2115 109.707C91.7011 109.707 91.2874 110.121 91.2874 110.63C91.2874 111.14 91.7011 111.553 92.2115 111.553Z" fill="white" stroke="white" stroke-width="0.695652" stroke-miterlimit="10"/>
<path d="M99.673 112.126C100.183 112.126 100.597 111.713 100.597 111.203C100.597 110.694 100.183 110.281 99.673 110.281C99.1626 110.281 98.7488 110.694 98.7488 111.203C98.7488 111.713 99.1626 112.126 99.673 112.126Z" fill="white" stroke="white" stroke-width="0.695652" stroke-miterlimit="10"/>
<path d="M176.837 168.452C179.056 168.452 180.855 166.655 180.855 164.44C180.855 162.224 179.056 160.427 176.837 160.427C174.618 160.427 172.819 162.224 172.819 164.44C172.819 166.655 174.618 168.452 176.837 168.452Z" fill="#7F3838" stroke="#7F3838" stroke-width="0.695652" stroke-miterlimit="10"/>
<path d="M136.027 178.196L136.261 186.278" stroke="white" stroke-width="0.695652" stroke-miterlimit="10"/>
<path d="M133.313 176.709V186.278" stroke="white" stroke-width="0.695652" stroke-miterlimit="10"/>
<path d="M129.889 178.905V186.278" stroke="white" stroke-width="0.695652" stroke-miterlimit="10"/>
<path d="M127.515 178.905V186.278" stroke="white" stroke-width="0.695652" stroke-miterlimit="10"/>
<path d="M124.47 178.905V185.899" stroke="white" stroke-width="0.695652" stroke-miterlimit="10"/>
<path d="M118.312 181.178C118.312 181.178 117.009 186.268 120.734 185.433" stroke="white" stroke-width="0.695652" stroke-miterlimit="10"/>
<path d="M105.529 182.13C105.529 182.13 108.526 182.655 108.934 186.754" stroke="white" stroke-width="0.695652" stroke-miterlimit="10"/>
<path d="M106.133 180.226C106.133 180.226 111.969 182.431 112.67 185.899" stroke="white" stroke-width="0.695652" stroke-miterlimit="10"/>
<path d="M102.514 183.354C102.514 183.354 104.829 183.49 104.732 185.52" stroke="white" stroke-width="0.695652" stroke-miterlimit="10"/>
</g>
<path d="M39.4461 201.5L34.9761 209.81C34.5461 210.61 34.0261 211.215 33.4161 211.625C32.8161 212.035 32.1611 212.24 31.4511 212.24C30.9011 212.24 30.3311 212.12 29.7411 211.88L30.3261 210.035C30.7461 210.165 31.0961 210.23 31.3761 210.23C31.6761 210.23 31.9461 210.16 32.1861 210.02C32.4261 209.87 32.6461 209.64 32.8461 209.33L32.9361 209.21L28.7961 201.5H31.3911L34.1811 207.14L37.0611 201.5H39.4461ZM44.8682 203.81C45.6182 203.81 46.2982 203.985 46.9082 204.335C47.5282 204.675 48.0132 205.16 48.3632 205.79C48.7132 206.41 48.8882 207.135 48.8882 207.965C48.8882 208.795 48.7132 209.525 48.3632 210.155C48.0132 210.775 47.5282 211.26 46.9082 211.61C46.2982 211.95 45.6182 212.12 44.8682 212.12C43.8382 212.12 43.0282 211.795 42.4382 211.145V214.91H40.0982V203.93H42.3332V204.86C42.9132 204.16 43.7582 203.81 44.8682 203.81ZM44.4632 210.2C45.0632 210.2 45.5532 210 45.9332 209.6C46.3232 209.19 46.5182 208.645 46.5182 207.965C46.5182 207.285 46.3232 206.745 45.9332 206.345C45.5532 205.935 45.0632 205.73 44.4632 205.73C43.8632 205.73 43.3682 205.935 42.9782 206.345C42.5982 206.745 42.4082 207.285 42.4082 207.965C42.4082 208.645 42.5982 209.19 42.9782 209.6C43.3682 210 43.8632 210.2 44.4632 210.2ZM54.3083 212.12C53.4583 212.12 52.6933 211.945 52.0133 211.595C51.3433 211.235 50.8183 210.74 50.4383 210.11C50.0583 209.48 49.8683 208.765 49.8683 207.965C49.8683 207.165 50.0583 206.45 50.4383 205.82C50.8183 205.19 51.3433 204.7 52.0133 204.35C52.6933 203.99 53.4583 203.81 54.3083 203.81C55.1583 203.81 55.9183 203.99 56.5883 204.35C57.2583 204.7 57.7833 205.19 58.1633 205.82C58.5433 206.45 58.7333 207.165 58.7333 207.965C58.7333 208.765 58.5433 209.48 58.1633 210.11C57.7833 210.74 57.2583 211.235 56.5883 211.595C55.9183 211.945 55.1583 212.12 54.3083 212.12ZM54.3083 210.2C54.9083 210.2 55.3983 210 55.7783 209.6C56.1683 209.19 56.3633 208.645 56.3633 207.965C56.3633 207.285 56.1683 206.745 55.7783 206.345C55.3983 205.935 54.9083 205.73 54.3083 205.73C53.7083 205.73 53.2133 205.935 52.8233 206.345C52.4333 206.745 52.2383 207.285 52.2383 207.965C52.2383 208.645 52.4333 209.19 52.8233 209.6C53.2133 210 53.7083 210.2 54.3083 210.2ZM63.8977 208.94H62.6827V212H60.3427V203.93H62.6827V207.065H63.9427L66.1327 203.93H68.6227L65.8027 207.8L68.8177 212H66.0577L63.8977 208.94ZM77.7248 201.5V212H75.2948V203.45H73.1948V201.5H77.7248Z" fill="white"/>
<circle cx="34" cy="34" r="4" fill="#FCEE21"/>
<circle cx="73" cy="65" r="4" fill="#FCEE21"/>
<circle cx="197" cy="48" r="4" fill="#FCEE21"/>
<circle cx="114" cy="20" r="4" fill="#FCEE21"/>
<path d="M39.6359 37.8822C39.3606 37.9042 39.1554 38.1452 39.1774 38.4205L39.5362 42.9062C39.5582 43.1814 39.7992 43.3867 40.0745 43.3647C40.3498 43.3427 40.5551 43.1017 40.533 42.8264L40.2141 38.8392L44.2013 38.5202C44.4766 38.4982 44.6819 38.2572 44.6599 37.9819C44.6378 37.7066 44.3968 37.5013 44.1216 37.5234L39.6359 37.8822ZM67 61L40 38L39.3515 38.7612L66.3515 61.7612L67 61Z" fill="#00FFFF"/>
<path d="M110.499 25.9698C110.482 25.6941 110.245 25.4842 109.97 25.5009L105.478 25.7731C105.202 25.7898 104.992 26.0268 105.009 26.3025C105.026 26.5781 105.263 26.788 105.538 26.7713L109.531 26.5293L109.773 30.522C109.79 30.7976 110.027 31.0075 110.302 30.9908C110.578 30.9741 110.788 30.7371 110.771 30.4615L110.499 25.9698ZM79.3743 61.3315L110.374 26.3315L109.626 25.6685L78.6257 60.6685L79.3743 61.3315Z" fill="#00FFFF"/>
<path d="M190.21 45.4538C190.46 45.3379 190.57 45.0408 190.454 44.7902L188.565 40.7056C188.449 40.455 188.152 40.3457 187.902 40.4616C187.651 40.5775 187.542 40.8747 187.658 41.1253L189.336 44.756L185.706 46.4347C185.455 46.5506 185.346 46.8477 185.462 47.0984C185.578 47.349 185.875 47.4583 186.125 47.3424L190.21 45.4538ZM121.827 20.4693L189.827 45.4693L190.173 44.5307L122.173 19.5307L121.827 20.4693Z" fill="#00FFFF"/>
<path d="M106.412 20.2835C106.568 20.056 106.511 19.7447 106.283 19.5881L102.577 17.0367C102.349 16.8801 102.038 16.9376 101.881 17.1651C101.725 17.3926 101.782 17.7039 102.01 17.8604L105.305 20.1284L103.037 23.4233C102.88 23.6508 102.938 23.9621 103.165 24.1186C103.393 24.2752 103.704 24.2177 103.86 23.9903L106.412 20.2835ZM40.5881 31.7165C40.4316 31.944 40.489 32.2553 40.7165 32.4119L44.4233 34.9633C44.6508 35.1199 44.9621 35.0624 45.1186 34.8349C45.2752 34.6074 45.2177 34.2961 44.9903 34.1396L41.6954 31.8716L43.9633 28.5767C44.1199 28.3492 44.0624 28.0379 43.8349 27.8814C43.6074 27.7248 43.2961 27.7823 43.1396 28.0097L40.5881 31.7165ZM105.909 19.5083L40.9092 31.5083L41.0908 32.4917L106.091 20.4917L105.909 19.5083Z" fill="#00FFFF"/>
</g>
<defs>
<radialGradient id="paint0_radial_312_871" cx="0" cy="0" r="1" gradientUnits="userSpaceOnUse" gradientTransform="translate(110 112.5) rotate(-45.6437) scale(157.341)">
<stop stop-color="#9657EE"/>
<stop offset="1" stop-color="#9657EE" stop-opacity="0"/>
</radialGradient>
<clipPath id="clip0_312_871">
<rect width="226" height="226" fill="white"/>
</clipPath>
<clipPath id="clip1_312_871">
<rect width="229.565" height="112" fill="white" transform="translate(-4 80)"/>
</clipPath>
</defs>
</svg>
