<svg width="226" height="226" viewBox="0 0 226 226" fill="none" xmlns="http://www.w3.org/2000/svg">
<g clip-path="url(#clip0_312_986)">
<rect x="0.5" y="0.5" width="224.343" height="224.343" rx="16.5714" fill="url(#paint0_radial_312_986)" fill-opacity="0.3" stroke="#67409F"/>
<path d="M39.4461 201.5L34.9761 209.81C34.5461 210.61 34.0261 211.215 33.4161 211.625C32.8161 212.035 32.1611 212.24 31.4511 212.24C30.9011 212.24 30.3311 212.12 29.7411 211.88L30.3261 210.035C30.7461 210.165 31.0961 210.23 31.3761 210.23C31.6761 210.23 31.9461 210.16 32.1861 210.02C32.4261 209.87 32.6461 209.64 32.8461 209.33L32.9361 209.21L28.7961 201.5H31.3911L34.1811 207.14L37.0611 201.5H39.4461ZM44.8682 203.81C45.6182 203.81 46.2982 203.985 46.9082 204.335C47.5282 204.675 48.0132 205.16 48.3632 205.79C48.7132 206.41 48.8882 207.135 48.8882 207.965C48.8882 208.795 48.7132 209.525 48.3632 210.155C48.0132 210.775 47.5282 211.26 46.9082 211.61C46.2982 211.95 45.6182 212.12 44.8682 212.12C43.8382 212.12 43.0282 211.795 42.4382 211.145V214.91H40.0982V203.93H42.3332V204.86C42.9132 204.16 43.7582 203.81 44.8682 203.81ZM44.4632 210.2C45.0632 210.2 45.5532 210 45.9332 209.6C46.3232 209.19 46.5182 208.645 46.5182 207.965C46.5182 207.285 46.3232 206.745 45.9332 206.345C45.5532 205.935 45.0632 205.73 44.4632 205.73C43.8632 205.73 43.3682 205.935 42.9782 206.345C42.5982 206.745 42.4082 207.285 42.4082 207.965C42.4082 208.645 42.5982 209.19 42.9782 209.6C43.3682 210 43.8632 210.2 44.4632 210.2ZM54.3083 212.12C53.4583 212.12 52.6933 211.945 52.0133 211.595C51.3433 211.235 50.8183 210.74 50.4383 210.11C50.0583 209.48 49.8683 208.765 49.8683 207.965C49.8683 207.165 50.0583 206.45 50.4383 205.82C50.8183 205.19 51.3433 204.7 52.0133 204.35C52.6933 203.99 53.4583 203.81 54.3083 203.81C55.1583 203.81 55.9183 203.99 56.5883 204.35C57.2583 204.7 57.7833 205.19 58.1633 205.82C58.5433 206.45 58.7333 207.165 58.7333 207.965C58.7333 208.765 58.5433 209.48 58.1633 210.11C57.7833 210.74 57.2583 211.235 56.5883 211.595C55.9183 211.945 55.1583 212.12 54.3083 212.12ZM54.3083 210.2C54.9083 210.2 55.3983 210 55.7783 209.6C56.1683 209.19 56.3633 208.645 56.3633 207.965C56.3633 207.285 56.1683 206.745 55.7783 206.345C55.3983 205.935 54.9083 205.73 54.3083 205.73C53.7083 205.73 53.2133 205.935 52.8233 206.345C52.4333 206.745 52.2383 207.285 52.2383 207.965C52.2383 208.645 52.4333 209.19 52.8233 209.6C53.2133 210 53.7083 210.2 54.3083 210.2ZM63.8977 208.94H62.6827V212H60.3427V203.93H62.6827V207.065H63.9427L66.1327 203.93H68.6227L65.8027 207.8L68.8177 212H66.0577L63.8977 208.94ZM78.5798 205.775C79.4998 205.925 80.2048 206.27 80.6948 206.81C81.1848 207.34 81.4298 208 81.4298 208.79C81.4298 209.4 81.2698 209.965 80.9498 210.485C80.6298 210.995 80.1398 211.405 79.4798 211.715C78.8298 212.025 78.0298 212.18 77.0798 212.18C76.3398 212.18 75.6098 212.085 74.8898 211.895C74.1798 211.695 73.5748 211.415 73.0748 211.055L74.0198 209.195C74.4198 209.495 74.8798 209.73 75.3998 209.9C75.9298 210.06 76.4698 210.14 77.0198 210.14C77.6298 210.14 78.1098 210.025 78.4598 209.795C78.8098 209.555 78.9848 209.22 78.9848 208.79C78.9848 207.93 78.3298 207.5 77.0198 207.5H75.9098V205.895L78.0698 203.45H73.5998V201.5H80.9498V203.075L78.5798 205.775Z" fill="white"/>
<path d="M70.919 107.884C70.919 107.884 39.9637 103.251 39.1218 136.373C38.28 169.495 39.1218 190.406 39.1218 190.406" stroke="white" stroke-width="0.731579" stroke-miterlimit="10"/>
<path d="M89.4495 121.883L67.4127 119.029C67.4127 119.029 76.4143 83.7583 93.9365 82.6279C111.995 81.4698 117.13 90.5586 117.13 90.5586C117.13 90.5586 120.83 99.527 116.279 106.309C116.279 106.309 113.346 88.7983 110.524 92.6339C107.703 96.4696 94.8894 100.175 91.7809 101.38C88.6724 102.584 84.4815 96.868 82.4647 104.095C80.4479 111.321 88.5059 111.358 90.1156 111.766C90.9483 111.97 90.3654 117.325 89.0887 122.272" fill="white"/>
<path d="M89.4495 121.883L67.4127 119.029C67.4127 119.029 76.4143 83.7583 93.9365 82.6279C111.995 81.4698 117.13 90.5586 117.13 90.5586C117.13 90.5586 120.83 99.527 116.279 106.309C116.279 106.309 113.346 88.7983 110.524 92.6339C107.703 96.4696 94.8894 100.175 91.7809 101.38C88.6724 102.584 84.4815 96.868 82.4647 104.095C80.4479 111.321 88.5059 111.358 90.1156 111.766C90.9483 111.97 90.3654 117.325 89.0887 122.272" stroke="white" stroke-width="0.731579" stroke-miterlimit="10"/>
<path d="M89.468 101.343V110.83C89.468 110.83 92.3637 122.272 97.9608 123.801C103.752 125.329 109.303 125.487 112.902 118.965C115.116 114.646 116.282 109.866 116.306 105.012" stroke="white" stroke-width="0.731579" stroke-miterlimit="10"/>
<path d="M101.671 114.536C101.812 115.336 102.224 116.064 102.837 116.597C103.45 117.13 104.227 117.436 105.038 117.464" stroke="white" stroke-width="0.731579" stroke-miterlimit="10"/>
<path d="M105.038 112.405L109.127 112.803L108.554 104.456" stroke="white" stroke-width="0.731579" stroke-miterlimit="10"/>
<path d="M126.603 158.396L138.278 139.06C138.278 139.06 141.877 132.649 146.929 132.649C151.98 132.649 155.468 138.041 155.468 138.041C155.468 138.041 156.92 141.747 155.468 143.442C154.015 145.138 151.182 144.668 148 142.5" stroke="white" stroke-width="0.731579" stroke-miterlimit="10"/>
<path d="M99.0155 111.849C102.342 111.849 105.038 107.954 105.038 103.15C105.038 98.3448 102.342 94.4498 99.0155 94.4498C95.6892 94.4498 92.9928 98.3448 92.9928 103.15C92.9928 107.954 95.6892 111.849 99.0155 111.849Z" stroke="white" stroke-width="0.731579" stroke-miterlimit="10"/>
<path d="M115.909 113.628C119.03 113.628 121.561 110.131 121.561 105.818C121.561 101.504 119.03 98.0075 115.909 98.0075C112.787 98.0075 110.256 101.504 110.256 105.818C110.256 110.131 112.787 113.628 115.909 113.628Z" stroke="white" stroke-width="0.731579" stroke-miterlimit="10"/>
<path d="M102.614 107.708C103.135 107.708 103.558 107.285 103.558 106.763C103.558 106.241 103.135 105.818 102.614 105.818C102.093 105.818 101.671 106.241 101.671 106.763C101.671 107.285 102.093 107.708 102.614 107.708Z" fill="white" stroke="white" stroke-width="0.731579" stroke-miterlimit="10"/>
<path d="M112.643 109.413C113.123 109.413 113.512 109.023 113.512 108.542C113.512 108.061 113.123 107.671 112.643 107.671C112.163 107.671 111.773 108.061 111.773 108.542C111.773 109.023 112.163 109.413 112.643 109.413Z" fill="white" stroke="white" stroke-width="0.731579" stroke-miterlimit="10"/>
<path d="M105.306 104.122L110.21 104.456" stroke="white" stroke-width="0.731579" stroke-miterlimit="10"/>
<path d="M86.193 80.5989C89.3404 80.5989 91.8919 78.33 91.8919 75.5311C91.8919 72.7322 89.3404 70.4632 86.193 70.4632C83.0456 70.4632 80.4941 72.7322 80.4941 75.5311C80.4941 78.33 83.0456 80.5989 86.193 80.5989Z" fill="white" stroke="white" stroke-width="0.731579" stroke-miterlimit="10"/>
<path d="M163.276 101.343H158.65V169.717H163.276V101.343Z" fill="#FF6666" stroke="#7F3838" stroke-width="0.731579" stroke-miterlimit="10"/>
<path d="M163.322 159.313C163.322 159.313 167.855 150.252 173.748 160.239C177.569 166.725 178.689 167.09 180.271 187V187.5H169.336V190.443H184.138C184.138 190.443 182.704 173.766 181.705 169.189C180.965 165.826 175.95 154.365 174.304 153.161L173.378 151.669C175.229 143.804 173.684 142.682 173.119 142.127C171.417 140.487 169.28 141.061 166.893 143.627C164.506 146.194 163.322 142.09 163.322 142.09" fill="#FF6666"/>
<path d="M163.322 159.313C163.322 159.313 167.855 150.252 173.748 160.239C177.569 166.725 178.689 167.09 180.271 187V187.5H169.336V190.443H184.138C184.138 190.443 182.704 173.766 181.705 169.189C180.965 165.826 175.95 154.365 174.304 153.161L173.378 151.669C175.229 143.804 173.684 142.682 173.119 142.127C171.417 140.487 169.28 141.061 166.893 143.627C164.506 146.194 163.322 142.09 163.322 142.09" stroke="#7F3838" stroke-width="0.731579" stroke-miterlimit="10"/>
<path d="M130.489 151.957L122.801 144.989C122.801 144.989 118.517 150.419 116.945 151.086C115.372 151.753 118.397 159.424 115.899 162.259C112.634 165.965 130.979 172.904 130.979 172.904L139.851 165.372L148.279 142.09" stroke="white" stroke-width="0.731579" stroke-miterlimit="10"/>
<path d="M73.463 185.44L112.319 186.218C112.319 186.218 116.871 189.94 120.803 188.8C124.5 187 124.5 184.1 124.5 184.1L123 182L121.5 180L158.696 150.456V162.5C158.696 162.5 153.784 166.539 151.582 168.216C151.293 168.382 151.046 168.614 150.864 168.893C150.681 169.172 150.567 169.49 150.531 169.822C150.495 170.154 150.538 170.489 150.656 170.801C150.774 171.113 150.965 171.392 151.212 171.616L159.797 190.443H154.172C154.172 190.443 148.622 179.927 147.16 175.619C145.698 171.311 143.654 174.859 143.654 174.859L129.018 185.44V187.487H143.654V190.443H72.2974V185.523L73.463 185.44Z" fill="#FF6666" stroke="#7F3838" stroke-width="0.731579" stroke-miterlimit="10"/>
<path d="M61.9173 146.175L77.1914 156.367C77.1914 156.367 73.8701 172.423 73.7129 172.951C73.5556 173.479 112.791 177.583 112.791 177.583L111.773 168.494C113.101 167.069 114.217 165.459 115.085 163.714C116.732 160.545 116.649 153.708 116.491 152.058C116.334 150.409 122.801 145.045 122.801 145.045L115.4 136.799C113.959 135.214 112.2 133.951 110.237 133.093C108.535 132.334 106.537 131.592 105.723 131.657H104.714C109.433 141.7 98.7379 141.265 95.5369 141.321C87.5807 141.469 80.7347 131.657 80.7347 131.657C76.7413 131.981 72.9115 133.389 69.6577 135.73C66.4039 138.071 63.8493 141.256 62.2689 144.943L61.9173 146.175Z" fill="white" stroke="white" stroke-width="0.731579" stroke-miterlimit="10"/>
<path d="M90.0971 117.464L88.5059 128.248C88.5059 128.248 88.5059 131.5 80.7255 131.555" stroke="white" stroke-width="0.731579" stroke-miterlimit="10"/>
<path d="M117 180.071C117 180.071 119.069 180.661 121 182C122.472 183.021 123.285 184.72 124 185.5" stroke="white" stroke-width="0.731579" stroke-miterlimit="10"/>
<path d="M103.641 124.505L103.216 129.137C103.153 129.715 103.308 130.296 103.65 130.765C103.993 131.235 104.497 131.559 105.066 131.676" stroke="white" stroke-width="0.731579" stroke-miterlimit="10"/>
<path d="M114.345 180.965C114.345 180.965 119.267 182.549 121.219 185.347C123.171 188.145 122.866 187.385 122.866 187.385" stroke="white" stroke-width="0.731579" stroke-miterlimit="10"/>
<path d="M61.9173 146.175C61.9173 146.175 56.2185 160.795 57.1899 171.033C58.1613 181.27 58.115 182.808 60.4279 183.401C62.7407 183.994 72.2974 185.486 72.2974 185.486L85 185.7L95.5 185.9L107.5 186H112.5C112.5 186 121.5 193.5 124.5 184.5C124.5 184.5 124.5 183.5 123 182C121.5 180.5 120.5 180 120.5 180" stroke="white" stroke-width="0.731579" stroke-miterlimit="10"/>
<path d="M113 177.5C113 177.5 118.582 178.332 121.209 180.473" stroke="white" stroke-width="0.731579" stroke-miterlimit="10"/>
<path d="M150 141C150 141 153.899 141.36 155 144" stroke="white" stroke-width="0.731579" stroke-miterlimit="10"/>
<path d="M88.3694 80.2925L87.2586 80.7778L88.9899 84.752L90.1007 84.2667L88.3694 80.2925Z" fill="white" stroke="white" stroke-width="0.731579" stroke-miterlimit="10"/>
<path d="M147.327 125.566L147.318 125.568C147.059 125.646 146.911 125.92 146.989 126.18L153.218 147.039C153.296 147.299 153.569 147.446 153.828 147.369L153.837 147.366C154.097 147.288 154.244 147.015 154.166 146.755L147.937 125.896C147.86 125.636 147.586 125.488 147.327 125.566Z" fill="white" stroke="white" stroke-width="0.731579" stroke-miterlimit="10"/>
<path d="M114.345 183.401C114.345 183.401 119.655 186.524 119.896 188.534" stroke="white" stroke-width="0.731579" stroke-miterlimit="10"/>
<path d="M199 190.406H28.2711V190.806H199V190.406Z" fill="white"/>
<circle cx="35" cy="49" r="4" fill="#FCEE21"/>
<circle cx="118" cy="54" r="4" fill="#FCEE21"/>
<circle cx="192" cy="49" r="4" fill="#FCEE21"/>
<path d="M41.5036 41.511C41.5095 41.7871 41.738 42.0061 42.0141 42.0002L46.5131 41.9042C46.7892 41.8983 47.0082 41.6697 47.0023 41.3936C46.9964 41.1175 46.7678 40.8985 46.4917 40.9044L42.4927 40.9898L42.4073 36.9907C42.4014 36.7146 42.1728 36.4956 41.8967 36.5015C41.6206 36.5074 41.4016 36.7359 41.4075 37.012L41.5036 41.511ZM186.994 40.0001C187.27 40.0032 187.497 39.782 187.5 39.5058L187.552 35.0061C187.555 34.73 187.334 34.5036 187.057 34.5004C186.781 34.4972 186.555 34.7185 186.552 34.9946L186.506 38.9944L182.506 38.9484C182.23 38.9452 182.003 39.1665 182 39.4426C181.997 39.7188 182.218 39.9452 182.495 39.9484L186.994 40.0001ZM117 17.5003L117 17.0003L117 17.5003ZM42.0034 41.5003C42.3645 41.8463 42.3644 41.8464 42.3643 41.8464C42.3645 41.8463 42.3645 41.8462 42.3648 41.846C42.3652 41.8455 42.366 41.8447 42.3671 41.8435C42.3694 41.8411 42.3731 41.8373 42.3782 41.8321C42.3885 41.8216 42.4043 41.8054 42.4258 41.7838C42.4687 41.7406 42.5343 41.6753 42.6226 41.5896C42.7993 41.4182 43.067 41.1647 43.4273 40.841C44.1479 40.1935 45.2386 39.265 46.7112 38.1488C49.6563 35.9165 54.1285 32.934 60.2217 29.9494C72.4058 23.9812 91.08 18.0003 117 18.0003L117 17.0003C90.92 17.0003 72.0959 23.0195 59.7818 29.0513C53.6258 32.0667 49.0989 35.0842 46.1071 37.3519C44.6113 38.4857 43.4991 39.4321 42.759 40.0972C42.3889 40.4297 42.1118 40.6919 41.9262 40.872C41.8334 40.962 41.7635 41.0316 41.7162 41.0791C41.6926 41.1029 41.6747 41.1212 41.6624 41.1338C41.6562 41.1401 41.6515 41.145 41.6482 41.1484C41.6465 41.1502 41.6452 41.1515 41.6442 41.1525C41.6438 41.153 41.6433 41.1535 41.6431 41.1537C41.6427 41.1541 41.6424 41.1544 42.0034 41.5003ZM117 18.0003C141.171 18.0003 158.598 23.4818 169.971 28.9508C175.658 31.6858 179.834 34.4187 182.584 36.4638C183.959 37.4864 184.978 38.337 185.651 38.9299C185.987 39.2264 186.237 39.4584 186.402 39.6152C186.484 39.6936 186.546 39.7533 186.586 39.7928C186.606 39.8125 186.62 39.8272 186.63 39.8368C186.634 39.8415 186.638 39.845 186.64 39.8471C186.641 39.8482 186.642 39.8489 186.642 39.8493C186.642 39.8495 186.642 39.8496 186.643 39.8497C186.643 39.8497 186.642 39.8496 187 39.5001C187.358 39.1506 187.357 39.1503 187.357 39.15C187.357 39.1497 187.356 39.1493 187.356 39.1488C187.355 39.1479 187.354 39.1466 187.352 39.145C187.349 39.1418 187.344 39.1373 187.339 39.1315C187.327 39.1199 187.31 39.103 187.288 39.0812C187.244 39.0374 187.178 38.9735 187.091 38.8908C186.918 38.7254 186.658 38.4848 186.312 38.1797C185.62 37.5694 184.58 36.7013 183.181 35.6614C180.384 33.5816 176.154 30.8145 170.404 28.0496C158.902 22.5187 141.329 17.0003 117 17.0003L117 18.0003Z" fill="#00FFFF"/>
<path d="M188.469 58.8265C188.373 58.5675 188.085 58.4352 187.826 58.5311L183.606 60.0925C183.347 60.1884 183.215 60.476 183.311 60.735C183.406 60.994 183.694 61.1262 183.953 61.0304L187.705 59.6424L189.093 63.3939C189.188 63.6529 189.476 63.7852 189.735 63.6893C189.994 63.5935 190.126 63.3059 190.03 63.0469L188.469 58.8265ZM123.036 61.5013C122.761 61.4813 122.521 61.6884 122.501 61.9638L122.175 66.452C122.155 66.7274 122.362 66.9669 122.638 66.9869C122.913 67.0069 123.153 66.7998 123.173 66.5244L123.462 62.5349L127.452 62.8246C127.727 62.8446 127.967 62.6375 127.987 62.3621C128.007 62.0867 127.8 61.8472 127.524 61.8272L123.036 61.5013ZM156 75L156.006 74.5L156 75ZM188 59C187.546 58.7911 187.546 58.7909 187.546 58.7907C187.546 58.7908 187.546 58.7907 187.546 58.7907C187.546 58.7909 187.546 58.7912 187.545 58.7918C187.545 58.7931 187.544 58.7953 187.542 58.7984C187.539 58.8048 187.534 58.815 187.528 58.8289C187.514 58.8566 187.493 58.8993 187.464 58.9558C187.407 59.0689 187.318 59.2373 187.195 59.4532C186.95 59.8851 186.57 60.5064 186.038 61.2533C184.974 62.7473 183.3 64.742 180.871 66.7288C176.02 70.6963 168.134 74.6529 156.006 74.5L155.994 75.5C168.366 75.6559 176.48 71.6125 181.504 67.5028C184.013 65.451 185.745 63.3878 186.852 61.8336C187.406 61.0563 187.804 60.4059 188.065 59.9471C188.195 59.7177 188.291 59.536 188.355 59.4103C188.387 59.3475 188.411 59.2986 188.428 59.2647C188.436 59.2477 188.442 59.2345 188.447 59.2252C188.449 59.2205 188.451 59.2168 188.452 59.2141C188.452 59.2127 188.453 59.2116 188.453 59.2108C188.454 59.2103 188.454 59.2099 188.454 59.2096C188.454 59.2092 188.454 59.2089 188 59ZM156.006 74.5C145.106 74.3626 136.94 71.143 131.502 67.9643C128.783 66.3745 126.746 64.7946 125.391 63.6151C124.713 63.0255 124.207 62.5361 123.872 62.1961C123.704 62.026 123.579 61.8933 123.497 61.8041C123.455 61.7595 123.425 61.7257 123.405 61.7036C123.395 61.6926 123.388 61.6844 123.384 61.6793C123.381 61.6767 123.38 61.6749 123.379 61.6738C123.379 61.6733 123.378 61.673 123.378 61.6728C123.378 61.6728 123.378 61.6728 123.378 61.6728C123.378 61.6728 123.378 61.673 123 62C122.622 62.327 122.622 62.3272 122.622 62.3275C122.622 62.3277 122.623 62.328 122.623 62.3283C122.623 62.3289 122.624 62.3298 122.625 62.3308C122.627 62.3328 122.629 62.3356 122.632 62.3391C122.639 62.3462 122.647 62.3563 122.659 62.3694C122.682 62.3954 122.716 62.4331 122.761 62.4818C122.851 62.5791 122.984 62.72 123.16 62.8984C123.512 63.2551 124.036 63.7619 124.734 64.3694C126.129 65.5841 128.217 67.2021 130.998 68.8276C136.56 72.0797 144.894 75.36 155.994 75.5L156.006 74.5Z" fill="#00FFFF"/>
</g>
<defs>
<radialGradient id="paint0_radial_312_986" cx="0" cy="0" r="1" gradientUnits="userSpaceOnUse" gradientTransform="translate(110 112.5) rotate(-45.6437) scale(157.341)">
<stop stop-color="#9657EE"/>
<stop offset="1" stop-color="#9657EE" stop-opacity="0"/>
</radialGradient>
<clipPath id="clip0_312_986">
<rect width="226" height="226" fill="white"/>
</clipPath>
</defs>
</svg>
