<svg width="226" height="226" viewBox="0 0 226 226" fill="none" xmlns="http://www.w3.org/2000/svg">
<g clip-path="url(#clip0_311_745)">
<rect x="0.5" y="0.5" width="224.343" height="224.343" rx="16.5714" fill="url(#paint0_radial_311_745)" fill-opacity="0.3" stroke="#67409F"/>
<path d="M131.754 83.1559C131.754 83.1559 129.564 81.0929 127.471 81.3004C125.379 81.5079 124.719 72.6334 125.122 72.0108C125.526 71.3883 130.848 71.5592 130.848 71.5592C130.775 69.2032 131.228 66.9449 131.852 66.3467C132.06 66.1392 132.892 66.8594 132.904 67.1524C132.904 68.7027 133.405 72.2916 134.996 73.8785C137.027 75.9049 140 81.7277 140 81.7277" stroke="white" stroke-width="0.801731" stroke-miterlimit="10"/>
<path d="M182.249 181.113H67L88 145.766L111.5 145.5L116 128.5L98.5 128.093L109 110.419L210.07 110C210.667 109.994 211.256 110.138 211.783 110.419C212.309 110.701 212.755 111.111 213.079 111.611C213.404 112.111 213.596 112.684 213.639 113.279C213.681 113.873 213.572 114.468 213.322 115.009L182.249 181.113Z" fill="#FF6666"/>
<path d="M88 145.766L67 181.113H182.249L213.322 115.009C213.572 114.468 213.681 113.873 213.639 113.279C213.596 112.684 213.404 112.111 213.079 111.611C212.755 111.111 212.309 110.701 211.783 110.419C211.256 110.138 210.667 109.994 210.07 110L109 110.419L98.5 128.093L116 128.5L111.5 145.5L88 145.766ZM88 145.766L93.25 136.93" stroke="#7F3838" stroke-width="0.693989" stroke-miterlimit="10"/>
<path d="M169.237 178.577H80.9103C80.594 178.575 80.2832 178.494 80.0073 178.339C79.7313 178.185 79.4993 177.963 79.3329 177.695C79.1666 177.426 79.0715 177.12 79.0566 176.805C79.0416 176.489 79.1074 176.176 79.2476 175.893L97.1238 145.598H115.5L122 131L106.062 130.451L115 115.304L198.754 115.304C199.237 115.3 199.713 115.418 200.138 115.649C200.563 115.879 200.922 116.213 201.181 116.62C201.441 117.027 201.592 117.493 201.622 117.974C201.651 118.456 201.557 118.937 201.348 119.372L174.681 175.153C174.191 176.179 173.42 177.046 172.456 177.652C171.493 178.258 170.376 178.579 169.237 178.577Z" fill="white" stroke="#7F3838" stroke-width="0.693989" stroke-miterlimit="10"/>
<path d="M97.6755 114.237C98.4406 113.154 98.9586 111.918 99.1928 110.614C99.427 109.311 99.3718 107.972 99.0311 106.692L101.266 107.094C102.714 107.284 104.181 107.284 105.629 107.094C106.402 106.894 107.124 106.534 107.747 106.037C111 110 115.087 107.263 115.087 107.263L115.722 112.282L111.825 118.22L99.9207 118.051L97.6755 114.237Z" fill="white"/>
<path d="M109.59 95.4597C109.59 95.4597 113.254 93.2407 113.572 98.2387C113.784 101.62 112.513 102.772 109.876 100.732" stroke="#FF6666" stroke-width="0.693989" stroke-miterlimit="10"/>
<path d="M166.326 175H88.0616C87.8772 174.998 87.6964 174.944 87.5368 174.845C87.3771 174.746 87.2439 174.605 87.1499 174.435C87.056 174.265 87.0044 174.072 87.0003 173.875C86.9961 173.677 87.0395 173.482 87.1262 173.308L102.826 145.5H116.372L122 133L109.599 133.503L116.372 121.507L191.013 121C191.521 120.998 192.02 121.136 192.464 121.399C192.908 121.662 193.282 122.042 193.55 122.504C193.818 122.965 193.972 123.492 193.997 124.035C194.021 124.577 193.916 125.118 193.69 125.605L171.81 171.408C171.294 172.49 170.509 173.398 169.541 174.032C168.573 174.666 167.461 175.001 166.326 175Z" stroke="#FF6666" stroke-width="0.693989" stroke-miterlimit="10"/>
<path d="M37.5613 119.39C37.6281 119.339 37.6797 119.27 37.7107 119.192L38.2105 115.677L42.2118 114.374C42.3268 114.327 42.4225 114.243 42.4834 114.135C42.5443 114.026 42.5667 113.901 42.5471 113.779C42.5275 113.656 42.4669 113.544 42.3752 113.46C42.2836 113.376 42.1663 113.326 42.0423 113.317L38.6215 112.62L39.6806 108.636C39.7005 108.566 39.6975 108.49 39.6721 108.422C39.6468 108.353 39.6003 108.294 39.5392 108.253C39.4782 108.212 39.4058 108.191 39.3323 108.193C39.2588 108.196 39.188 108.221 39.1298 108.266L36.7257 110.179L32.2564 107.305C32.1438 107.23 32.0114 107.19 31.876 107.189C31.7405 107.189 31.6079 107.228 31.4948 107.303C31.3818 107.377 31.2932 107.483 31.2403 107.608C31.1874 107.732 31.1725 107.869 31.1974 108.002L32.0129 112.567L29.7253 115.314C29.6606 115.393 29.6188 115.487 29.6047 115.588C29.5905 115.688 29.6045 115.79 29.6451 115.883C29.6857 115.976 29.7512 116.056 29.8345 116.114C29.9179 116.172 30.0157 116.206 30.1171 116.213L35.01 116.572L36.8952 119.287C36.9434 119.356 37.0094 119.411 37.0862 119.445C37.163 119.48 37.2478 119.493 37.3314 119.483C37.4151 119.473 37.4945 119.441 37.5613 119.39Z" fill="#FCEE21" stroke="#FCEE21" stroke-width="0.693989" stroke-miterlimit="10"/>
<path d="M44.708 153.69C46.0075 144.475 46.5273 123.971 38.2104 115.677" stroke="white" stroke-width="0.693989"/>
<path d="M47.9943 153.587C47.9943 153.587 51.4363 146.539 54.6029 146.539" stroke="white" stroke-width="0.693989" stroke-miterlimit="10"/>
<path d="M33.8787 181.769L31.4409 171.201C30.9749 169.331 29.1427 162.748 28.4966 160.994C27.2893 157.644 25.5418 153.354 31.2185 153.354C39.2568 153.354 60.1736 153.851 60.1736 153.851C60.1736 153.851 65.3207 153.354 63.0543 160.899L57.703 181.769" stroke="white" stroke-width="0.693989" stroke-miterlimit="10"/>
<path d="M40.9726 148.789C40.9726 148.789 42.8365 136.289 36.408 129.4C29.9794 122.51 26.0817 121.293 26.0817 121.293C26.0817 121.293 16.1267 119.055 18.2448 127.836C20.363 136.617 28.0624 142.872 28.0624 142.872C28.0624 142.872 32.0657 147.743 40.9726 148.789Z" stroke="white" stroke-width="0.693989" stroke-miterlimit="10"/>
<path d="M49.6146 138.307C49.6146 138.307 64.3464 135.74 68.4132 122.933C72.4801 110.126 68.4132 104.357 68.4132 104.357C68.4132 104.357 62.4824 100.13 59.0934 102.328C55.7043 104.526 50.9703 109.418 49.6146 118.178C48.259 126.938 49.6146 138.307 49.6146 138.307Z" stroke="white" stroke-width="0.693989" stroke-miterlimit="10"/>
<path d="M19.5793 121.654C19.5793 121.654 38.2614 137.504 40.9726 148.789" stroke="white" stroke-width="0.693989" stroke-miterlimit="10"/>
<path d="M21.5385 135.222C25.666 137.504 30.4109 138.424 35.0947 137.853C40.2736 137.335 30.4134 123.884 30.4134 123.884" stroke="white" stroke-width="0.693989" stroke-miterlimit="10"/>
<path d="M26.1031 141.023C26.1031 141.023 31.9492 144.869 38.685 143.284C46.4692 141.456 35.0947 128.015 35.0947 128.015" stroke="white" stroke-width="0.693989" stroke-miterlimit="10"/>
<path d="M67.3223 103.67C67.3223 103.67 53.639 113.856 49.6146 138.307" stroke="white" stroke-width="0.693989" stroke-miterlimit="10"/>
<path d="M70.2136 114.226C70.2136 114.226 57.1235 116.646 53.7556 123.366" stroke="white" stroke-width="0.693989" stroke-miterlimit="10"/>
<path d="M68.7945 121.654C68.7945 121.654 57.7801 133.14 50.3454 134.482" stroke="white" stroke-width="0.693989" stroke-miterlimit="10"/>
<path d="M54.6029 106.438C54.6029 106.438 50.0912 119.055 52.4847 126.705" stroke="white" stroke-width="0.693989" stroke-miterlimit="10"/>
<path d="M58.9028 142.978L57.3248 140.283C57.2977 140.232 57.2558 140.191 57.2047 140.164C57.1535 140.138 57.0955 140.127 57.0382 140.134C56.9809 140.141 56.9271 140.165 56.8837 140.203C56.8403 140.241 56.8095 140.291 56.7952 140.347L56.0221 142.978H52.9614C52.8951 142.978 52.8302 142.997 52.7735 143.031C52.7168 143.065 52.6703 143.114 52.639 143.173C52.6076 143.231 52.5925 143.296 52.5952 143.362C52.5978 143.429 52.6182 143.493 52.6542 143.548L54.6029 146.539L55.5137 149.973C55.5277 149.997 55.5477 150.017 55.5719 150.031C55.5961 150.045 55.6235 150.052 55.6514 150.052C55.6793 150.052 55.7068 150.045 55.7309 150.031C55.7551 150.017 55.7752 149.997 55.7891 149.973L57.4307 147.659L60.9362 149.286C61.0291 149.329 61.1326 149.345 61.2341 149.331C61.3357 149.317 61.431 149.273 61.5084 149.206C61.5858 149.139 61.642 149.051 61.6701 148.953C61.6983 148.854 61.6972 148.75 61.667 148.652L60.8409 145.957L63.2132 144.33C63.2913 144.277 63.3514 144.202 63.3855 144.114C63.4197 144.026 63.4263 143.93 63.4045 143.838C63.3826 143.747 63.3334 143.664 63.2633 143.601C63.1933 143.538 63.1056 143.497 63.012 143.485L58.9028 142.978Z" fill="#FCEE21" stroke="#FCEE21" stroke-width="0.693989" stroke-miterlimit="10"/>
<path d="M112.012 107.31L135.195 100.568C135.322 100.568 135.396 100.389 135.83 101.181L129.116 86.9901C129.052 86.8634 129.116 86.8849 128.5 86C128.245 85.6339 127 85 131.5 83C136.689 81.6369 140.5 80 140.5 80C140.5 80 142.5 78.5 143.954 83.8941C146.125 89.2831 148.836 97.8104 149.027 98.2647C149.027 98.3598 149.355 99.0044 149.514 99.5327C149.673 100.061 151.95 103.759 146.517 108.144C142.28 111.35 137.756 114.158 133.003 116.534C132.991 116.54 132.978 116.543 132.966 116.543C132.953 116.543 132.94 116.54 132.929 116.534C132.473 116.534 129.227 116.779 132.5 121.618C135.931 126.712 138.965 133.261 144.97 132.596C150.975 131.93 146.538 137.425 146.411 137.572L128.957 165.405C128.937 165.435 128.911 165.459 128.879 165.475C128.848 165.492 128.813 165.501 128.777 165.5H97.0048C96.9686 165.499 96.9331 165.49 96.9015 165.472C96.8698 165.455 96.8429 165.43 96.8231 165.4C96.8033 165.37 96.7911 165.335 96.7877 165.299C96.7843 165.263 96.7897 165.227 96.8035 165.194L102.173 154.046C102.978 152.382 103.262 150.515 102.989 148.689L102.883 147.928C102.878 147.897 102.88 147.866 102.889 147.836C102.897 147.806 102.48 147.024 102.5 147C102.52 146.976 102.977 147.71 103.005 147.697C102.883 146.846 103.5 146.326 103.5 147L129 146.5C129.059 146.5 129.458 146.542 129.5 146.5C129.542 146.458 130 146.559 130 146.5L129.5 123.5C127.796 126.948 126.361 127.605 129 123C128.99 122.99 128.989 122.984 128.992 122.98L91.5684 122.48C91.512 122.483 91.1093 122.942 91.0684 122.98C91.0275 123.019 91.5735 124.424 91.5684 124.48C91.5684 124.48 89.0634 134.076 89.0617 134.107C89.06 134.137 89.065 134.168 89.0762 134.196L90.5126 145.434C90.5126 145.434 80.9068 151.214 72 148.255C63.0932 145.297 73.4721 135.026 73.5674 134.92L97.5025 113.428C97.5308 113.4 97.5664 113.38 97.6054 113.371C97.6443 113.363 97.6849 113.365 97.7225 113.378C97.7602 113.391 97.7933 113.415 97.8181 113.446C97.8428 113.477 97.8583 113.515 97.8626 113.555C98.0226 114.354 98.5045 114.852 99 115.5C99.4955 116.148 100.27 116.635 101 117C102.935 117.996 103.824 118.061 106 118C108.176 117.939 110.136 117.603 112.012 116.5C113.918 115.274 114.328 113.817 114 112C113.672 110.183 111.991 108.747 110.434 107.722L112.012 107.31Z" fill="#9657EE"/>
<path d="M89.0762 134.196C89.065 134.168 89.06 134.137 89.0617 134.107C89.0634 134.076 91.5684 124.48 91.5684 124.48C91.5735 124.424 91.0275 123.019 91.0684 122.98C91.1093 122.942 91.512 122.483 91.5684 122.48L129.014 122.98C129.073 122.98 128.958 122.958 129 123C126.361 127.605 127.796 126.948 129.5 123.5L130 146.5C130 146.559 129.542 146.458 129.5 146.5C129.458 146.542 129.059 146.5 129 146.5L103.5 147C103.5 146.326 102.883 146.846 103.005 147.697C102.977 147.71 102.52 146.976 102.5 147C102.48 147.024 102.897 147.806 102.889 147.836C102.88 147.866 102.878 147.897 102.883 147.928L102.989 148.689C103.262 150.515 102.978 152.382 102.173 154.046L96.8035 165.194C96.7897 165.227 96.7843 165.263 96.7877 165.299C96.7911 165.335 96.8033 165.37 96.8231 165.4C96.8429 165.43 96.8698 165.455 96.9015 165.472C96.9331 165.49 96.9686 165.499 97.0048 165.5H128.777C128.813 165.501 128.848 165.492 128.879 165.475C128.911 165.459 128.937 165.435 128.957 165.405L146.411 137.572C146.538 137.425 150.975 131.93 144.97 132.596C138.965 133.261 135.931 126.712 132.5 121.618C129.227 116.779 132.473 116.534 132.929 116.534C132.94 116.54 132.953 116.543 132.966 116.543C132.978 116.543 132.991 116.54 133.003 116.534C137.756 114.158 142.28 111.35 146.517 108.144C151.95 103.759 149.673 100.061 149.514 99.5327C149.355 99.0044 149.027 98.3598 149.027 98.2647C148.836 97.8104 146.125 89.2831 143.954 83.8941C142.5 78.5 140.5 80 140.5 80C140.5 80 136.689 81.6369 131.5 83C127 85 128.245 85.6339 128.5 86C129.116 86.8849 129.052 86.8634 129.116 86.9901L135.83 101.181C135.396 100.389 135.322 100.568 135.195 100.568L112.012 107.31L110.434 107.722C111.991 108.747 113.672 110.183 114 112C114.328 113.817 113.918 115.274 112.012 116.5C110.136 117.603 108.176 117.939 106 118C103.824 118.061 102.935 117.996 101 117C100.27 116.635 99.4955 116.148 99 115.5C98.5045 114.852 98.0226 114.354 97.8626 113.555C97.8583 113.515 97.8428 113.477 97.8181 113.446C97.7933 113.415 97.7602 113.391 97.7225 113.378C97.6849 113.365 97.6443 113.363 97.6054 113.371C97.5664 113.38 97.5308 113.4 97.5025 113.428L73.5674 134.92C73.4721 135.026 63.0932 145.297 72 148.255C80.9068 151.214 90.5126 145.434 90.5126 145.434L89.0762 134.196ZM89.0762 134.196C89.0875 134.224 89.4027 134.086 89.4248 134.107C89.4469 134.128 89.1755 134.308 89.2045 134.318C89.2335 134.328 89.2642 134.332 89.2947 134.329" stroke="#67409F" stroke-width="0.693989" stroke-miterlimit="10"/>
<path d="M91.9882 100.341C91.9882 100.341 97.1671 106.29 100.048 106.872C101.785 107.22 107.79 108.499 109.251 103.702C110.223 100.277 110.029 96.6281 108.7 93.3252C107.027 88.3378 104.845 87.4396 104.845 87.4396" stroke="white" stroke-width="0.693989" stroke-miterlimit="10"/>
<path d="M93.8522 89.9862C93.8522 89.9862 99.8466 89.5741 103.299 88.1265C106.752 86.6788 107.768 85.3052 107.768 85.3052C107.768 85.3052 109.431 81.6597 104.401 81.4484C101.798 81.4322 99.2177 81.9277 96.807 82.9066C95.2599 83.5156 93.8489 84.4242 92.6554 85.5799C92.2636 85.9498 91.84 86.3513 91.4375 86.7105C90.1984 87.7672 88.5356 87.6721 87.9849 86.2984C83.4203 74.9605 83.4309 73.4706 80.7303 70.8606C78.0296 68.2507 76.3139 66.9933 71.0291 67.0567C69.9013 67.0714 68.7908 67.3359 67.778 67.8312C66.7651 68.3264 65.8752 69.0399 65.1724 69.9202C63.43 72.0204 62.5176 74.684 62.6074 77.4089C62.6971 80.1338 63.7827 82.7319 65.6596 84.7135C66.1574 85.2418 66.7187 85.7701 67.3224 86.3724C72.3847 91.0429 85.5 89.9862 85.5 89.9862C85.5 89.9862 88.3874 89.9968 87.2542 93.0611C87.0076 95.5823 87.3971 98.1251 88.3874 100.458C88.3874 100.458 90.2831 102.719 92.3377 99.8977C94.3923 97.0764 92.3377 89.9968 92.3377 89.9968L93.8522 89.9862Z" fill="white" stroke="white" stroke-width="0.693989" stroke-miterlimit="10"/>
<path d="M92.2741 112.081C93.7247 112.081 94.9006 110.198 94.9006 107.875C94.9006 105.553 93.7247 103.67 92.2741 103.67C90.8235 103.67 89.6476 105.553 89.6476 107.875C89.6476 110.198 90.8235 112.081 92.2741 112.081Z" stroke="#FF6666" stroke-width="0.693989" stroke-miterlimit="10"/>
<path d="M107.62 90.6942L108.033 90.0707C108.722 89.5635 109.378 90.0707 109.95 90.7893C110.148 90.9801 110.297 91.2157 110.384 91.4761C110.384 91.4761 110.48 91.8353 110.48 91.8459C110.819 93.3992 110.607 95.6393 109.325 95.0159L108.817 93.6845L110.116 91.9184C110.319 92.4874 110.063 93.7669 109.95 94.3603C109.717 95.1 109.467 92.8014 109.467 92.8014" stroke="white" stroke-width="0.693989" stroke-miterlimit="10"/>
<path d="M94.2229 102.698C94.2229 102.698 92.952 103.881 92.2742 103.416C91.8954 103.199 91.5751 102.893 91.3408 102.525C91.1065 102.157 90.9653 101.738 90.9292 101.303" fill="white"/>
<path d="M94.2229 102.698C94.2229 102.698 92.952 103.881 92.2742 103.416C91.8954 103.199 91.5751 102.893 91.3408 102.525C91.1065 102.157 90.9653 101.738 90.9292 101.303" stroke="white" stroke-width="0.693989" stroke-miterlimit="10"/>
<path d="M129.232 121.549H91.5C90.6209 121.549 90 121.742 90 123L90 134L94 133L95 133.5H96.5L99.5 133L101.5 132.5L104 131L105.5 130.5H106V131.5L105 133L103 134.5L102.5 135H104.5L108 134.5H109.5L111 135.5L111.5 137V139L110.5 141L109 142.5L107 143.5H102H96H94.5L94 144.5L90 146C90 146.5 89.8996 147.5 90.5 147.5L129.5 147C130.379 147 130.5 146.399 130.5 145.5V122.812C130.5 121.913 130.111 121.549 129.232 121.549Z" fill="#FCEE21"/>
<path d="M93.6187 133.921C93.6187 133.921 100.573 132.923 101.738 132.34C102.903 131.758 105.401 130.012 105.813 130.522C106.981 131.175 105.233 132.923 103.486 134.088C102.125 134.996 102.382 135.338 105.154 134.86L108.43 134.341C108.957 134.252 109.499 134.337 109.974 134.582C110.449 134.827 110.831 135.22 111.063 135.7C111.473 136.492 111.64 137.387 111.543 138.274C111.446 139.16 111.089 139.998 110.517 140.683C108.958 142.721 108.465 143.217 105.631 143.54C102.798 143.863 93.9353 143.231 93.9353 143.231L93.6187 133.921Z" stroke="white" stroke-width="0.404251" stroke-miterlimit="10"/>
<path d="M99.8783 94.5404L103.363 97.9217L102.357 99.1052" stroke="white" stroke-width="0.693989" stroke-miterlimit="10"/>
<path d="M97.7073 97.5202C97.9295 97.5202 98.1097 97.3404 98.1097 97.1186C98.1097 96.8969 97.9295 96.7171 97.7073 96.7171C97.485 96.7171 97.3048 96.8969 97.3048 97.1186C97.3048 97.3404 97.485 97.5202 97.7073 97.5202Z" fill="white" stroke="white" stroke-width="0.693989" stroke-miterlimit="10"/>
<path d="M103.373 93.9275C103.584 93.9275 103.755 93.7572 103.755 93.5471C103.755 93.337 103.584 93.1667 103.373 93.1667C103.163 93.1667 102.992 93.337 102.992 93.5471C102.992 93.7572 103.163 93.9275 103.373 93.9275Z" fill="white" stroke="white" stroke-width="0.693989" stroke-miterlimit="10"/>
<path d="M101.435 101.747C101.435 101.747 103.553 102.909 104.549 101.747" stroke="white" stroke-width="0.693989" stroke-miterlimit="10"/>
<path d="M125.244 124H115.756C114.786 124 114 124.762 114 125.702V129.298C114 130.238 114.786 131 115.756 131H125.244C126.214 131 127 130.238 127 129.298V125.702C127 124.762 126.214 124 125.244 124Z" fill="#FF9600" stroke="#FF9600" stroke-width="0.693989" stroke-miterlimit="10"/>
<path d="M155.592 138H176.206C177.053 137.991 177.879 137.804 178.582 137.463C179.285 137.121 179.835 136.639 180.165 136.075L184.868 127.819C184.979 127.619 185.021 127.402 184.99 127.187C184.959 126.973 184.856 126.766 184.689 126.587C184.523 126.408 184.298 126.261 184.035 126.158C183.772 126.056 183.478 126.002 183.179 126H163.075C162.342 125.999 161.625 126.151 161.01 126.439C160.395 126.726 159.909 127.136 159.61 127.62L154.166 136.37C154.045 136.543 153.989 136.736 154.002 136.93C154.015 137.124 154.097 137.312 154.241 137.476C154.385 137.64 154.585 137.775 154.821 137.866C155.058 137.958 155.324 138.004 155.592 138Z" stroke="#FF6666" stroke-width="0.693989" stroke-miterlimit="10"/>
<path d="M102.321 136.525C102.321 136.525 107.892 137.296 110.559 134.971" stroke="white" stroke-width="0.404251" stroke-miterlimit="10"/>
<path d="M102.907 138.437C105.658 139.075 108.855 138.358 111.641 137" stroke="white" stroke-width="0.404251" stroke-miterlimit="10"/>
<path d="M103.191 140.859C105.495 141.209 108.808 140.523 111.058 139.913" stroke="white" stroke-width="0.404251" stroke-miterlimit="10"/>
<path d="M152 191.2H32.6392L27.4438 184.417C27.215 184.135 27.0671 183.785 27.018 183.413C26.9689 183.04 27.0208 182.659 27.1673 182.318C27.3139 181.977 27.5487 181.689 27.8431 181.491C28.1375 181.292 28.4788 181.192 28.8251 181.201H152V191.2Z" stroke="white" stroke-width="0.693989" stroke-miterlimit="10"/>
<path d="M198.818 181.2H154.379C153.174 181.2 152.198 181.388 152.198 182.488L152 189.838C152 190.937 153.174 191.2 154.379 191.2H198.818C200.023 191.2 201 190.309 201 189.21V183.19C201 182.091 200.023 181.2 198.818 181.2Z" stroke="white" stroke-width="0.693989" stroke-miterlimit="10"/>
<path d="M95.5 135L95 133L92 133.5L89 134.5L88 146.5L92 145L95 143.5L95.5 135Z" fill="#9657EE"/>
<path d="M88.5 134.5C88.5 134.5 94.5 132.28 95 133.28C95.5 134.28 95 143.5 94.5 144C94 144.5 88 146.5 88 146.5" stroke="#67409F" stroke-width="0.7"/>
<path d="M155.753 142.753C155.616 142.889 155.616 143.111 155.753 143.247L157.98 145.475C158.117 145.612 158.338 145.612 158.475 145.475C158.612 145.338 158.612 145.117 158.475 144.98L156.495 143L158.475 141.02C158.612 140.883 158.612 140.662 158.475 140.525C158.338 140.388 158.117 140.388 157.98 140.525L155.753 142.753ZM173.247 143.247C173.384 143.111 173.384 142.889 173.247 142.753L171.02 140.525C170.883 140.388 170.662 140.388 170.525 140.525C170.388 140.662 170.388 140.883 170.525 141.02L172.505 143L170.525 144.98C170.388 145.117 170.388 145.338 170.525 145.475C170.662 145.612 170.883 145.612 171.02 145.475L173.247 143.247ZM156 143.35H173V142.65H156V143.35Z" fill="#FF6666"/>
<path d="M154.069 145.657C153.879 145.619 153.695 145.742 153.657 145.931L153.039 149.02C153.001 149.21 153.124 149.394 153.314 149.432C153.503 149.47 153.688 149.347 153.725 149.157L154.275 146.412L157.02 146.961C157.21 146.999 157.394 146.876 157.432 146.686C157.47 146.497 157.347 146.312 157.157 146.275L154.069 145.657ZM163.931 161.343C164.121 161.381 164.305 161.258 164.343 161.069L164.961 157.98C164.999 157.79 164.876 157.606 164.686 157.568C164.497 157.53 164.312 157.653 164.275 157.843L163.725 160.588L160.98 160.039C160.79 160.001 160.606 160.124 160.568 160.314C160.53 160.503 160.653 160.688 160.843 160.725L163.931 161.343ZM153.709 146.194L163.709 161.194L164.291 160.806L154.291 145.806L153.709 146.194Z" fill="#FF6666"/>
<path d="M144.753 164.753C144.616 164.889 144.616 165.111 144.753 165.247L146.98 167.475C147.117 167.612 147.338 167.612 147.475 167.475C147.612 167.338 147.612 167.117 147.475 166.98L145.495 165L147.475 163.02C147.612 162.883 147.612 162.662 147.475 162.525C147.338 162.388 147.117 162.388 146.98 162.525L144.753 164.753ZM162.247 165.247C162.384 165.111 162.384 164.889 162.247 164.753L160.02 162.525C159.883 162.388 159.662 162.388 159.525 162.525C159.388 162.662 159.388 162.883 159.525 163.02L161.505 165L159.525 166.98C159.388 167.117 159.388 167.338 159.525 167.475C159.662 167.612 159.883 167.612 160.02 167.475L162.247 165.247ZM145 165.35H162V164.65H145V165.35Z" fill="#FF6666"/>
<circle cx="152.5" cy="143" r="2.5" fill="#7F3838"/>
<circle cx="176.5" cy="143" r="2.5" fill="#7F3838"/>
<circle cx="141.5" cy="165" r="2.5" fill="#7F3838"/>
<circle cx="165.5" cy="165" r="2.5" fill="#7F3838"/>
<path d="M129.894 74.1227C129.894 74.1227 125.795 74.7452 125 74.318" stroke="white" stroke-width="0.801731" stroke-miterlimit="10"/>
<path d="M129.873 76.3174C129.873 76.3174 126.967 78.2479 125.367 76.796" stroke="white" stroke-width="0.801731" stroke-miterlimit="10"/>
<path d="M130.358 78.7306C129.389 79.4694 127.143 79.5758 125.954 79.4694" stroke="white" stroke-width="0.801731" stroke-miterlimit="10"/>
<path d="M39.4461 201.5L34.9761 209.81C34.5461 210.61 34.0261 211.215 33.4161 211.625C32.8161 212.035 32.1611 212.24 31.4511 212.24C30.9011 212.24 30.3311 212.12 29.7411 211.88L30.3261 210.035C30.7461 210.165 31.0961 210.23 31.3761 210.23C31.6761 210.23 31.9461 210.16 32.1861 210.02C32.4261 209.87 32.6461 209.64 32.8461 209.33L32.9361 209.21L28.7961 201.5H31.3911L34.1811 207.14L37.0611 201.5H39.4461ZM44.8682 203.81C45.6182 203.81 46.2982 203.985 46.9082 204.335C47.5282 204.675 48.0132 205.16 48.3632 205.79C48.7132 206.41 48.8882 207.135 48.8882 207.965C48.8882 208.795 48.7132 209.525 48.3632 210.155C48.0132 210.775 47.5282 211.26 46.9082 211.61C46.2982 211.95 45.6182 212.12 44.8682 212.12C43.8382 212.12 43.0282 211.795 42.4382 211.145V214.91H40.0982V203.93H42.3332V204.86C42.9132 204.16 43.7582 203.81 44.8682 203.81ZM44.4632 210.2C45.0632 210.2 45.5532 210 45.9332 209.6C46.3232 209.19 46.5182 208.645 46.5182 207.965C46.5182 207.285 46.3232 206.745 45.9332 206.345C45.5532 205.935 45.0632 205.73 44.4632 205.73C43.8632 205.73 43.3682 205.935 42.9782 206.345C42.5982 206.745 42.4082 207.285 42.4082 207.965C42.4082 208.645 42.5982 209.19 42.9782 209.6C43.3682 210 43.8632 210.2 44.4632 210.2ZM54.3083 212.12C53.4583 212.12 52.6933 211.945 52.0133 211.595C51.3433 211.235 50.8183 210.74 50.4383 210.11C50.0583 209.48 49.8683 208.765 49.8683 207.965C49.8683 207.165 50.0583 206.45 50.4383 205.82C50.8183 205.19 51.3433 204.7 52.0133 204.35C52.6933 203.99 53.4583 203.81 54.3083 203.81C55.1583 203.81 55.9183 203.99 56.5883 204.35C57.2583 204.7 57.7833 205.19 58.1633 205.82C58.5433 206.45 58.7333 207.165 58.7333 207.965C58.7333 208.765 58.5433 209.48 58.1633 210.11C57.7833 210.74 57.2583 211.235 56.5883 211.595C55.9183 211.945 55.1583 212.12 54.3083 212.12ZM54.3083 210.2C54.9083 210.2 55.3983 210 55.7783 209.6C56.1683 209.19 56.3633 208.645 56.3633 207.965C56.3633 207.285 56.1683 206.745 55.7783 206.345C55.3983 205.935 54.9083 205.73 54.3083 205.73C53.7083 205.73 53.2133 205.935 52.8233 206.345C52.4333 206.745 52.2383 207.285 52.2383 207.965C52.2383 208.645 52.4333 209.19 52.8233 209.6C53.2133 210 53.7083 210.2 54.3083 210.2ZM63.8977 208.94H62.6827V212H60.3427V203.93H62.6827V207.065H63.9427L66.1327 203.93H68.6227L65.8027 207.8L68.8177 212H66.0577L63.8977 208.94ZM81.5198 210.02V212H73.5848V210.425L77.6348 206.6C78.0648 206.19 78.3548 205.84 78.5048 205.55C78.6548 205.25 78.7298 204.955 78.7298 204.665C78.7298 204.245 78.5848 203.925 78.2948 203.705C78.0148 203.475 77.5998 203.36 77.0498 203.36C76.5898 203.36 76.1748 203.45 75.8048 203.63C75.4348 203.8 75.1248 204.06 74.8748 204.41L73.1048 203.27C73.5148 202.66 74.0798 202.185 74.7998 201.845C75.5198 201.495 76.3448 201.32 77.2748 201.32C78.0548 201.32 78.7348 201.45 79.3148 201.71C79.9048 201.96 80.3598 202.32 80.6798 202.79C81.0098 203.25 81.1748 203.795 81.1748 204.425C81.1748 204.995 81.0548 205.53 80.8148 206.03C80.5748 206.53 80.1098 207.1 79.4198 207.74L77.0048 210.02H81.5198Z" fill="white"/>
</g>
<defs>
<radialGradient id="paint0_radial_311_745" cx="0" cy="0" r="1" gradientUnits="userSpaceOnUse" gradientTransform="translate(110 112.5) rotate(-45.6437) scale(157.341)">
<stop stop-color="#9657EE"/>
<stop offset="1" stop-color="#9657EE" stop-opacity="0"/>
</radialGradient>
<clipPath id="clip0_311_745">
<rect width="226" height="226" fill="white"/>
</clipPath>
</defs>
</svg>
