<svg width="26" height="26" viewBox="0 0 26 26" fill="none" xmlns="http://www.w3.org/2000/svg">
<path fill-rule="evenodd" clip-rule="evenodd" d="M9.9375 0.51625V25.5H17.75C21.285 25.5 23.0538 25.5 24.1513 24.4013C25.25 23.3038 25.25 21.535 25.25 18V8C25.25 4.465 25.25 2.69625 24.1513 1.59875C23.0538 0.5 21.285 0.5 17.75 0.5H10.25L9.9375 0.51625ZM12.4375 6.125C12.4375 5.87636 12.5363 5.6379 12.7121 5.46209C12.8879 5.28627 13.1264 5.1875 13.375 5.1875H19.625C19.8736 5.1875 20.1121 5.28627 20.2879 5.46209C20.4637 5.6379 20.5625 5.87636 20.5625 6.125C20.5625 6.37364 20.4637 6.6121 20.2879 6.78791C20.1121 6.96373 19.8736 7.0625 19.625 7.0625H13.375C13.1264 7.0625 12.8879 6.96373 12.7121 6.78791C12.5363 6.6121 12.4375 6.37364 12.4375 6.125ZM12.4375 10.5C12.4375 10.2514 12.5363 10.0129 12.7121 9.83709C12.8879 9.66127 13.1264 9.5625 13.375 9.5625H19.625C19.8736 9.5625 20.1121 9.66127 20.2879 9.83709C20.4637 10.0129 20.5625 10.2514 20.5625 10.5C20.5625 10.7486 20.4637 10.9871 20.2879 11.1629C20.1121 11.3387 19.8736 11.4375 19.625 11.4375H13.375C13.1264 11.4375 12.8879 11.3387 12.7121 11.1629C12.5363 10.9871 12.4375 10.7486 12.4375 10.5ZM2.75 7.0625C2.76 4.1425 2.85125 2.595 3.84875 1.59875C4.6925 0.755 5.93125 0.55875 8.0625 0.51375V25.4862C5.93125 25.4412 4.6925 25.245 3.84875 24.4013C2.85125 23.405 2.76 21.8575 2.75125 18.9375H4C4.24864 18.9375 4.4871 18.8387 4.66291 18.6629C4.83873 18.4871 4.9375 18.2486 4.9375 18C4.9375 17.7514 4.83873 17.5129 4.66291 17.3371C4.4871 17.1613 4.24864 17.0625 4 17.0625H2.75V13.9375H4C4.24864 13.9375 4.4871 13.8387 4.66291 13.6629C4.83873 13.4871 4.9375 13.2486 4.9375 13C4.9375 12.7514 4.83873 12.5129 4.66291 12.3371C4.4871 12.1613 4.24864 12.0625 4 12.0625H2.75V8.9375H4C4.24864 8.9375 4.4871 8.83873 4.66291 8.66291C4.83873 8.4871 4.9375 8.24864 4.9375 8C4.9375 7.75136 4.83873 7.5129 4.66291 7.33709C4.4871 7.16127 4.24864 7.0625 4 7.0625H2.75ZM2.75 7.0625H1.5C1.25136 7.0625 1.0129 7.16127 0.837087 7.33709C0.661272 7.5129 0.5625 7.75136 0.5625 8C0.5625 8.24864 0.661272 8.4871 0.837087 8.66291C1.0129 8.83873 1.25136 8.9375 1.5 8.9375H2.75V8V7.0625ZM2.75 13.9375H1.5C1.25136 13.9375 1.0129 13.8387 0.837087 13.6629C0.661272 13.4871 0.5625 13.2486 0.5625 13C0.5625 12.7514 0.661272 12.5129 0.837087 12.3371C1.0129 12.1613 1.25136 12.0625 1.5 12.0625H2.75V13.9375ZM2.75 17.0625H1.5C1.25136 17.0625 1.0129 17.1613 0.837087 17.3371C0.661272 17.5129 0.5625 17.7514 0.5625 18C0.5625 18.2486 0.661272 18.4871 0.837087 18.6629C1.0129 18.8387 1.25136 18.9375 1.5 18.9375H2.75125L2.75 18V17.0625Z" fill="#54919D"/>
</svg>
