<svg width="31" height="31" viewBox="0 0 31 31" fill="none" xmlns="http://www.w3.org/2000/svg">
<g clip-path="url(#clip0_192_1990)">
<path fill-rule="evenodd" clip-rule="evenodd" d="M15.4394 1.73999C23.0056 1.73999 29.1389 7.87326 29.1389 15.4395C29.1437 18.6012 28.0503 21.6664 26.0456 24.1113L26.073 24.1414L25.8921 24.2948C24.6074 25.8144 23.0064 27.0352 21.201 27.8719C19.3956 28.7086 17.4293 29.141 15.4394 29.139C11.3981 29.139 7.76769 27.3896 5.26068 24.6086L4.98669 24.2935L4.80586 24.1428L4.83326 24.1099C2.82869 21.6655 1.73529 18.6007 1.73991 15.4395C1.73991 7.87326 7.87318 1.73999 15.4394 1.73999ZM15.4394 22.2892C12.8913 22.2892 10.5884 23.1002 8.87324 24.2154C10.7671 25.6364 13.0717 26.4028 15.4394 26.3991C17.8071 26.4028 20.1117 25.6364 22.0056 24.2154C20.0457 22.9595 17.7672 22.2911 15.4394 22.2892ZM15.4394 4.47989C13.377 4.47983 11.3564 5.06173 9.60989 6.15869C7.86339 7.25566 6.46186 8.82317 5.5664 10.6811C4.67094 12.539 4.31789 14.6118 4.54783 16.6614C4.77777 18.7109 5.58137 20.654 6.86626 22.2673C9.08695 20.6741 12.1173 19.5493 15.4394 19.5493C18.7615 19.5493 21.7919 20.6741 24.0126 22.2673C25.2974 20.654 26.101 18.7109 26.331 16.6614C26.5609 14.6118 26.2079 12.539 25.3124 10.6811C24.417 8.82317 23.0154 7.25566 21.2689 6.15869C19.5224 5.06173 17.5018 4.47983 15.4394 4.47989ZM15.4394 7.21979C16.8927 7.21979 18.2865 7.79712 19.3142 8.82478C20.3419 9.85245 20.9192 11.2463 20.9192 12.6996C20.9192 14.1529 20.3419 15.5467 19.3142 16.5744C18.2865 17.6021 16.8927 18.1794 15.4394 18.1794C13.9861 18.1794 12.5923 17.6021 11.5646 16.5744C10.5369 15.5467 9.95961 14.1529 9.95961 12.6996C9.95961 11.2463 10.5369 9.85245 11.5646 8.82478C12.5923 7.79712 13.9861 7.21979 15.4394 7.21979ZM15.4394 9.95969C14.7127 9.95969 14.0158 10.2484 13.502 10.7622C12.9882 11.276 12.6995 11.9729 12.6995 12.6996C12.6995 13.4263 12.9882 14.1232 13.502 14.637C14.0158 15.1508 14.7127 15.4395 15.4394 15.4395C16.1661 15.4395 16.863 15.1508 17.3768 14.637C17.8906 14.1232 18.1793 13.4263 18.1793 12.6996C18.1793 11.9729 17.8906 11.276 17.3768 10.7622C16.863 10.2484 16.1661 9.95969 15.4394 9.95969Z" fill="white"/>
</g>
<defs>
<clipPath id="clip0_192_1990">
<rect width="31" height="31" fill="white"/>
</clipPath>
</defs>
</svg>
