<svg width="31" height="31" viewBox="0 0 31 31" fill="none" xmlns="http://www.w3.org/2000/svg">
<g clip-path="url(#clip0_24_55)">
<path fill-rule="evenodd" clip-rule="evenodd" d="M16.4394 2.73993C24.0056 2.73993 30.1389 8.87319 30.1389 16.4394C30.1437 19.6011 29.0503 22.6664 27.0456 25.1112L27.073 25.1413L26.8921 25.2948C25.6074 26.8144 24.0064 28.0351 22.201 28.8718C20.3956 29.7085 18.4293 30.141 16.4394 30.1389C12.3981 30.1389 8.76769 28.3895 6.26068 25.6085L5.98669 25.2934L5.80586 25.1427L5.83326 25.1098C3.82869 22.6654 2.73529 19.6007 2.73991 16.4394C2.73991 8.87319 8.87318 2.73993 16.4394 2.73993ZM16.4394 23.2892C13.8913 23.2892 11.5884 24.1002 9.87324 25.2153C11.7671 26.6363 14.0717 27.4028 16.4394 27.399C18.8071 27.4028 21.1117 26.6363 23.0056 25.2153C21.0457 23.9594 18.7672 23.291 16.4394 23.2892ZM16.4394 5.47983C14.377 5.47977 12.3564 6.06167 10.6099 7.15863C8.86339 8.2556 7.46186 9.82311 6.5664 11.681C5.67094 13.5389 5.31789 15.6118 5.54783 17.6613C5.77777 19.7109 6.58137 21.654 7.86626 23.2673C10.087 21.674 13.1173 20.5493 16.4394 20.5493C19.7615 20.5493 22.7919 21.674 25.0126 23.2673C26.2974 21.654 27.101 19.7109 27.331 17.6613C27.5609 15.6118 27.2079 13.5389 26.3124 11.681C25.417 9.82311 24.0154 8.2556 22.2689 7.15863C20.5224 6.06167 18.5018 5.47977 16.4394 5.47983ZM16.4394 8.21973C17.8927 8.21973 19.2865 8.79706 20.3142 9.82472C21.3419 10.8524 21.9192 12.2462 21.9192 13.6995C21.9192 15.1529 21.3419 16.5467 20.3142 17.5743C19.2865 18.602 17.8927 19.1793 16.4394 19.1793C14.9861 19.1793 13.5923 18.602 12.5646 17.5743C11.5369 16.5467 10.9596 15.1529 10.9596 13.6995C10.9596 12.2462 11.5369 10.8524 12.5646 9.82472C13.5923 8.79706 14.9861 8.21973 16.4394 8.21973ZM16.4394 10.9596C15.7127 10.9596 15.0158 11.2483 14.502 11.7621C13.9882 12.276 13.6995 12.9729 13.6995 13.6995C13.6995 14.4262 13.9882 15.1231 14.502 15.6369C15.0158 16.1508 15.7127 16.4394 16.4394 16.4394C17.1661 16.4394 17.863 16.1508 18.3768 15.6369C18.8906 15.1231 19.1793 14.4262 19.1793 13.6995C19.1793 12.9729 18.8906 12.276 18.3768 11.7621C17.863 11.2483 17.1661 10.9596 16.4394 10.9596Z" fill="white"/>
</g>
<defs>
<clipPath id="clip0_24_55">
<rect width="31" height="31" fill="white"/>
</clipPath>
</defs>
</svg>
