<svg width="29" height="29" viewBox="0 0 29 29" fill="none" xmlns="http://www.w3.org/2000/svg">
<path d="M2.41666 14.5C2.41666 21.1736 7.82636 26.5834 14.5 26.5834C21.1736 26.5834 26.5833 21.1736 26.5833 14.5C26.5833 7.8264 21.1736 2.41669 14.5 2.41669C7.82636 2.41669 2.41666 7.8264 2.41666 14.5ZM24.1667 14.5C24.1667 17.0638 23.1482 19.5225 21.3354 21.3354C19.5225 23.1482 17.0637 24.1667 14.5 24.1667C11.9362 24.1667 9.47748 23.1482 7.66462 21.3354C5.85177 19.5225 4.83332 17.0638 4.83332 14.5C4.83332 11.9363 5.85177 9.47751 7.66462 7.66465C9.47748 5.8518 11.9362 4.83335 14.5 4.83335C17.0637 4.83335 19.5225 5.8518 21.3354 7.66465C23.1482 9.47751 24.1667 11.9363 24.1667 14.5ZM21.75 14.5C21.7514 15.4523 21.5646 16.3956 21.2002 17.2754C20.8359 18.1553 20.3012 18.9545 19.6269 19.627L14.5 14.5V7.25002C16.4228 7.25002 18.2669 8.01386 19.6265 9.3735C20.9862 10.7331 21.75 12.5772 21.75 14.5Z" fill="white"/>
</svg>
