<svg width="26" height="26" viewBox="0 0 26 26" fill="none" xmlns="http://www.w3.org/2000/svg">
<path fill-rule="evenodd" clip-rule="evenodd" d="M10.2598 0.159492C10.8245 -0.00990662 11.421 -0.0449496 12.0016 0.0571609C12.5823 0.159271 13.131 0.395707 13.604 0.747596C14.077 1.09948 14.4613 1.55708 14.726 2.08386C14.9907 2.61064 15.1286 3.19201 15.1287 3.78156V22.2184C15.1286 22.808 14.9907 23.3894 14.726 23.9161C14.4613 24.4429 14.077 24.9005 13.604 25.2524C13.131 25.6043 12.5823 25.8407 12.0016 25.9428C11.421 26.0449 10.8245 26.0099 10.2598 25.8405L2.69543 23.5712C1.91643 23.3375 1.23351 22.8589 0.747966 22.2065C0.262425 21.554 0.000133371 20.7624 0 19.9491V6.05087C0.000133371 5.23757 0.262425 4.44598 0.747966 3.79352C1.23351 3.14106 1.91643 2.66249 2.69543 2.4288L10.2598 0.159492ZM16.3895 2.91418C16.3895 2.57982 16.5223 2.25914 16.7587 2.02271C16.9951 1.78628 17.3158 1.65345 17.6502 1.65345H21.4324C22.4355 1.65345 23.3975 2.05193 24.1068 2.76123C24.8161 3.47053 25.2145 4.43254 25.2145 5.43564V6.69636C25.2145 7.03073 25.0817 7.3514 24.8453 7.58783C24.6089 7.82426 24.2882 7.95709 23.9538 7.95709C23.6195 7.95709 23.2988 7.82426 23.0623 7.58783C22.8259 7.3514 22.6931 7.03073 22.6931 6.69636V5.43564C22.6931 5.10127 22.5603 4.7806 22.3238 4.54417C22.0874 4.30774 21.7667 4.17491 21.4324 4.17491H17.6502C17.3158 4.17491 16.9951 4.04208 16.7587 3.80565C16.5223 3.56922 16.3895 3.24855 16.3895 2.91418ZM23.9538 18.0429C24.2882 18.0429 24.6089 18.1757 24.8453 18.4122C25.0817 18.6486 25.2145 18.9693 25.2145 19.3036V20.5644C25.2145 21.5675 24.8161 22.5295 24.1068 23.2388C23.3975 23.9481 22.4355 24.3465 21.4324 24.3465H17.6502C17.3158 24.3465 16.9951 24.2137 16.7587 23.9773C16.5223 23.7409 16.3895 23.4202 16.3895 23.0858C16.3895 22.7515 16.5223 22.4308 16.7587 22.1943C16.9951 21.9579 17.3158 21.8251 17.6502 21.8251H21.4324C21.7667 21.8251 22.0874 21.6923 22.3238 21.4558C22.5603 21.2194 22.6931 20.8987 22.6931 20.5644V19.3036C22.6931 18.9693 22.8259 18.6486 23.0623 18.4122C23.2988 18.1757 23.6195 18.0429 23.9538 18.0429ZM8.82509 11.7393C8.49073 11.7393 8.17005 11.8721 7.93362 12.1085C7.69719 12.345 7.56436 12.6656 7.56436 13C7.56436 13.3344 7.69719 13.655 7.93362 13.8915C8.17005 14.1279 8.49073 14.2607 8.82509 14.2607H8.82635C9.16072 14.2607 9.48139 14.1279 9.71782 13.8915C9.95425 13.655 10.0871 13.3344 10.0871 13C10.0871 12.6656 9.95425 12.345 9.71782 12.1085C9.48139 11.8721 9.16072 11.7393 8.82635 11.7393H8.82509Z" fill="white"/>
<path d="M17.6502 13.0002H23.9538ZM23.9538 13.0002L21.4324 10.4788ZM23.9538 13.0002L21.4324 15.5217Z" fill="white"/>
<path d="M17.6502 13.0002H23.9538M23.9538 13.0002L21.4324 10.4788M23.9538 13.0002L21.4324 15.5217" stroke="white" stroke-width="2" stroke-linecap="round" stroke-linejoin="round"/>
</svg>
